<svg xmlns="http://www.w3.org/2000/svg" viewBox="0 0 400 400" fill="none" shape-rendering="auto"><metadata xmlns:rdf="http://www.w3.org/1999/02/22-rdf-syntax-ns#" xmlns:xsi="http://www.w3.org/2001/XMLSchema-instance" xmlns:dc="http://purl.org/dc/elements/1.1/" xmlns:dcterms="http://purl.org/dc/terms/"><rdf:RDF><rdf:Description><dc:title>Adventurer Neutral</dc:title><dc:creator>Lisa Wischofsky</dc:creator><dc:source xsi:type="dcterms:URI">https://www.figma.com/community/file/1184595184137881796</dc:source><dcterms:license xsi:type="dcterms:URI">https://creativecommons.org/licenses/by/4.0/</dcterms:license><dc:rights>Remix of „Adventurer Neutral” (https://www.figma.com/community/file/1184595184137881796) by „Lisa Wischofsky”, licensed under „CC BY 4.0” (https://creativecommons.org/licenses/by/4.0/)</dc:rights></rdf:Description></rdf:RDF></metadata><mask id="viewboxMask"><rect width="400" height="400" rx="0" ry="0" x="0" y="0" fill="#fff" /></mask><g mask="url(#viewboxMask)"><rect fill="#ecad80" width="400" height="400" x="0" y="0" /><g transform="translate(-279 -322)"><path d="M550.3 424.38a65.71 65.71 0 0 1 39.66 8.67 65.75 65.75 0 0 1 28.5 34.66c3.4 10.1 4.72 21.28 2.82 31.8-2.34 15.83-10.89 30.39-23.28 40.46-16.89 13.94-40.48 18.23-61.27 11.45a65.46 65.46 0 0 1-36.85-30.3c-7.4-12.95-9.69-28.2-7.34-42.87a64.98 64.98 0 0 1 18.4-35.3 65.16 65.16 0 0 1 39.36-18.57Z" fill="#000"/><path d="M549.26 430.26a59.64 59.64 0 0 1 42.62 10.89c15.42 11.05 25 29.85 24.47 48.85.07 22.7-14.11 44.36-34.86 53.52-10.79 4.85-22.8 6.65-34.5 4.5a59.52 59.52 0 0 1-40.34-26.66 61.43 61.43 0 0 1-9.37-29.31 60.42 60.42 0 0 1 13.41-40.36 59.5 59.5 0 0 1 38.57-21.43Z" fill="#fff"/><path d="M381.25 447.09a55.31 55.31 0 0 1 36.48 9.14 55.11 55.11 0 0 1 23.31 35.66c1.43 9.16 1.07 18.48-1.94 27.3a54.94 54.94 0 0 1-23.42 29.5 54.73 54.73 0 0 1-35.67 7.62c-15.79-1.82-30.36-11-39.03-24.29-5.54-8.32-8.46-18.03-9.11-27.98-.3-12.3 3.26-24.63 10.57-34.6a55.15 55.15 0 0 1 38.81-22.35Z" fill="#000"/><path d="M378.25 453.29a49.13 49.13 0 0 1 32.86 5.6c17.98 9.93 28.44 31.6 24.26 51.82a49.36 49.36 0 0 1-22.02 32.64 50.2 50.2 0 0 1-23.36 7.67c-19.83 1.35-39.3-10.23-47.63-28.27a49.26 49.26 0 0 1 5.04-50.33 49.4 49.4 0 0 1 30.85-19.14Z" fill="#fff"/><path d="M527.25 466.2c10.29-1.32 20.55 4.37 24.64 13.95 4.98 10.77.62 24.2-9.63 30.1-6.84 4.14-16 4.3-23.06.58-8.27-4.24-13.57-13.53-12.73-22.85.68-11.13 9.72-20.52 20.78-21.78ZM358.53 480.85c5.9-2.02 12.38-1.11 17.75 1.94a21.93 21.93 0 0 1 10.3 14.56c2.55 11.6-5.77 23.8-17.55 25.6-10.32 2.12-21.3-4.15-24.64-14.13-3.92-11.13 2.73-24.59 14.14-27.97Z" fill="#000"/></g><g transform="translate(-279 -322)"><path d="M545.03 378.5c24.7.94 48.04 8.97 69.45 21 2.26 1.31 4.92 2.48 6.79 4.32 1.3 2.39-.38 5.13-3.2 4.19-16.58-6.2-33.56-9.63-51.06-12.02-20.3-2.34-39.92-3.68-60.2-.13-3.2.44-6.87 2.16-10.08 1.59-2.66-1.69-1.2-6.1 1.29-7.37 13.63-9.33 30.79-12.1 47-11.58ZM407.99 396.92c3.5.64 6.6 1.92 9.63 3.78-.15 1.2-.26 2.4-.33 3.62-2.7.74-5.46 1.12-8.24 1.34-13.17 1.15-26.45 5.1-38.81 9.69-12.23 4.75-24.78 10.64-35.19 18.7-2.82 2.04-4.13 4.83-8.08 4.48-.5-.9-1-1.79-1.51-2.67.9-1.6 1.68-3.17 2.76-4.64 9.55-13.17 23.64-23.22 38.6-29.35 12.7-5.15 27.62-8.05 41.17-4.95Z" fill="#000"/></g><g transform="translate(-279 -322)"><path d="M535.03 562.93c9.64 1.78 18.64 8.36 22.66 17.4 3.3 7.29 4.24 15.74 3.54 23.67-1.11 11.35-7.23 22.08-15 30.25-8.7 9.5-20.77 15.9-33.23 18.82-20.17 4.42-41.87 5.15-62.03.33-14.26-3.37-27.76-9.79-38.58-19.78-4.47-4.23-8.92-9.14-10.93-15.05-2.64-7.62-2.32-16.43 1.48-23.6a20.2 20.2 0 0 1 17.04-10.63c12.69-.78 23.87 4.19 36 4.7 7.82.14 15.89-1.05 23.18-3.9 11.37-4.8 21.29-14.52 32.86-19.16 7.35-3.04 15.07-4.58 23-3.05Z" fill="#000"/><path d="M538.01 569.9c6.94 2.53 12.73 7.89 15.12 14.96-2.94 2.53-5.85 5.05-9 7.3-3.6 2.63-7.19 4.4-9.93 8.04-3.23 3.94-5.95 9.87-10.37 12.5-3.4-.37-6.67-2.86-9.83-4.05-2.45-.6-5.4.47-7.8 1.06-12.17 3.53-24.57 5.15-37.2 5.87-3.23.07-6.43.2-9.59.95 0 1.24.06 2.45.3 3.68 1.86 1.5 5 1.35 7.3 1.46a191.17 191.17 0 0 0 45-7.29c3.68.11 9.34 5.23 13.89 3.53 5.34-2.5 8.93-9.06 12.36-13.63 1.89-2.72 4.5-4.05 7.17-5.86 3.36-2.22 6.46-4.74 9.56-7.28.65 5.61 1.08 11.34-.35 16.88-2.28 9.36-8.17 17.98-15.08 24.57-9.95 9.67-23.55 14.65-37.07 16.63-11.94 1.57-24.5 2.43-36.48.84-17.37-1.79-35.16-8.03-48.4-19.68-5.06-4.63-9.76-8.85-11.18-15.89-2.35-8.7.37-20.82 10.11-23.62 8.19-1.88 17.76.53 25.88 2.22 12.05 2.8 25.09 2.4 36.82-1.64 13.96-4.91 24.9-17.13 38.79-21.37 6.31-2.14 13.7-2.61 19.98-.17Z" fill="#fff"/></g><g transform="translate(-279 -322)"></g></g></svg>