<svg xmlns="http://www.w3.org/2000/svg" viewBox="0 0 400 400" fill="none" shape-rendering="auto"><metadata xmlns:rdf="http://www.w3.org/1999/02/22-rdf-syntax-ns#" xmlns:xsi="http://www.w3.org/2001/XMLSchema-instance" xmlns:dc="http://purl.org/dc/elements/1.1/" xmlns:dcterms="http://purl.org/dc/terms/"><rdf:RDF><rdf:Description><dc:title>Adventurer Neutral</dc:title><dc:creator>Lisa Wischofsky</dc:creator><dc:source xsi:type="dcterms:URI">https://www.figma.com/community/file/1184595184137881796</dc:source><dcterms:license xsi:type="dcterms:URI">https://creativecommons.org/licenses/by/4.0/</dcterms:license><dc:rights>Remix of „Adventurer Neutral” (https://www.figma.com/community/file/1184595184137881796) by „Lisa Wischofsky”, licensed under „CC BY 4.0” (https://creativecommons.org/licenses/by/4.0/)</dc:rights></rdf:Description></rdf:RDF></metadata><mask id="viewboxMask"><rect width="400" height="400" rx="0" ry="0" x="0" y="0" fill="#fff" /></mask><g mask="url(#viewboxMask)"><rect fill="#f2d3b1" width="400" height="400" x="0" y="0" /><g transform="translate(-279 -322)"><path d="M619.37 468.64c3.87 2.6 8.11 5.27 11.16 8.82.3 1.66.07 3.43.04 5.12-1.93.6-3.41 1.04-5.4.26-29.1-10.45-62.1-9.7-91.32-.07-12.55 4.26-25.01 10.37-35.3 18.8-1.32 1.05-3.89 2.91-5.3 1.13-1.7-1.56-.63-3.53.2-5.23 7.13-12.76 18-23.13 30.66-30.34 29.02-16.58 66.88-16.42 95.26 1.5ZM405.49 480.39c11.64 2.56 23.55 8.63 31.2 17.94 2.8 3.9 6.47 8.06 5.88 13.18-1.58-.03-3.27.7-4.53-.5a50.83 50.83 0 0 0-13.92-8.1c-15.2-5.92-32.5-7.15-48.6-5.03-12.43 1.78-26.06 5.7-36 13.69-1.9 1.3-3.17 2.8-5.67 1.81a5.46 5.46 0 0 1 .33-6.17c16-21.77 45.05-31.82 71.31-26.81Z" fill="#000"/></g><g transform="translate(-279 -322)"><path d="M568.44 405.96c-.6-2.92-2.48-4.87-4.6-6.82-11.98-10.95-29.88-15.87-45.64-11.58-9.72 2.4-18.51 8.36-23.63 17.06-2.83 5.03-4.78 10.54-3.98 16.4.08.42.13.83.18 1.23.2 1.63.37 3 2.44 3.54 2.17.12 4.4-.29 6.54-.68l.31-.06 6.22-1.2c5.24-1 10.48-2 15.68-3.19a640.08 640.08 0 0 0 44.88-11.08c1.77-.25 1.7-1.62 1.63-3.02l-.03-.6ZM430.1 431.05c-.81-9.8-8.9-17.41-17.88-20.31a39.68 39.68 0 0 0-38.34 9.13c-4.45 4.18-8.39 9.97-9.12 16.14-.08 2.74 2.36 2.78 4.44 2.82.26 0 .52 0 .77.02 3.02-.08 6.05-.14 9.07-.2 9.34-.17 18.7-.35 27.98-1.3 2.4-.21 4.83-.38 7.24-.54 4.26-.3 8.52-.58 12.74-1.14 2.42.03 3.28-2.6 3.1-4.62Z" fill="#000"/></g><g transform="translate(-279 -322)"><path d="M505.02 633.16c9.06.53 16.84 6.73 24.11 11.4-13.1-.12-26.35 2.18-38.98 5.54-9.44 2.61-18.6 6-27.08 10.96 3.26-8.09 7.87-18.07 16.6-21.4 4-1.93 7.7-1.13 11.94-.82 3.92-3.32 8-6.13 13.4-5.68Z" fill="#D31E1E"/><path d="M529.13 644.56c2.47.2 4.68 1.43 3.9 4.25-1.38 2.08-4.46 1.3-6.64 1.51-14.9.63-29.68 3.43-43.79 8.28-4.83 1.7-9.55 3.58-13.94 6.24-2 .93-3.37 2.59-5.67 1.42-2.15-1.55-1.16-3.48.08-5.2 8.48-4.96 17.64-8.35 27.08-10.96 12.63-3.36 25.89-5.66 38.98-5.54Z" fill="#000"/><path d="M526.39 650.32a39.78 39.78 0 0 1-24.48 18.5c-11 3.05-23.16 1.14-33.24-3.98 4.39-2.66 9.1-4.54 13.94-6.24a154.94 154.94 0 0 1 43.79-8.28Z" fill="#D31E1E"/></g><g transform="translate(-279 -322)"></g></g></svg>