<svg xmlns="http://www.w3.org/2000/svg" viewBox="0 0 400 400" fill="none" shape-rendering="auto"><metadata xmlns:rdf="http://www.w3.org/1999/02/22-rdf-syntax-ns#" xmlns:xsi="http://www.w3.org/2001/XMLSchema-instance" xmlns:dc="http://purl.org/dc/elements/1.1/" xmlns:dcterms="http://purl.org/dc/terms/"><rdf:RDF><rdf:Description><dc:title>Adventurer Neutral</dc:title><dc:creator>Lisa Wischofsky</dc:creator><dc:source xsi:type="dcterms:URI">https://www.figma.com/community/file/1184595184137881796</dc:source><dcterms:license xsi:type="dcterms:URI">https://creativecommons.org/licenses/by/4.0/</dcterms:license><dc:rights>Remix of „Adventurer Neutral” (https://www.figma.com/community/file/1184595184137881796) by „Lisa Wischofsky”, licensed under „CC BY 4.0” (https://creativecommons.org/licenses/by/4.0/)</dc:rights></rdf:Description></rdf:RDF></metadata><mask id="viewboxMask"><rect width="400" height="400" rx="0" ry="0" x="0" y="0" fill="#fff" /></mask><g mask="url(#viewboxMask)"><rect fill="#763900" width="400" height="400" x="0" y="0" /><g transform="translate(-279 -322)"><path d="M506.03 461.12c5.5-1.16 11.66 2.44 16.92 3.98 22.15 7.08 45.9 9.46 69.06 7.74 6.23-.6 12.8-2.4 19.04-2 6.2.65 10.4 6.06 10.95 12.05.76 10.8-.8 22-5.08 32a65.62 65.62 0 0 1-30.44 32.6c-21.35 11.07-48.35 9-67.75-5.22-14.69-10.5-24.7-27.34-26.67-45.3-.85-8.7-.38-17.4 2.09-25.8 1.4-5.24 6.78-9 11.88-10.05ZM428.25 466.75c3.63 2.23 5.82 6.6 7.78 10.25 5.54 10.8 7 23.18 4.95 35.07a55.32 55.32 0 0 1-14.73 28.2 55.06 55.06 0 0 1-72.17 5.63 54.77 54.77 0 0 1-21.34-34.89c-.57-3.68-1.52-7.6.15-11.13a12.41 12.41 0 0 1 10.11-7.6c4.94-.59 9.87-1.18 14.78-2 18.38-3.3 35.26-11.25 50.36-22.12 5.88-5.11 13.54-5.46 20.11-1.41Z" fill="#000"/><path d="M513.41 467.65c12.21 5.03 25.5 7.97 38.57 9.71 15.64 2.02 31.39 2.59 47.04.31 3.87-.56 8.11-1.82 12-1.53 2.42.08 4.34 2.67 4.81 4.87a59.18 59.18 0 0 1-5.45 34.37 59.08 59.08 0 0 1-31.6 29.27 58.37 58.37 0 0 1-33.76 3.03 59.62 59.62 0 0 1-40.59-30.1c-6.9-12.96-9.37-29-5.07-43.17 1.67-6.19 8-9.93 14.05-6.76ZM427.77 474.23a51.2 51.2 0 0 1 8.4 23.72c1.23 16.4-6.14 32.97-19.26 42.91a50.17 50.17 0 0 1-30.92 10.3 50.1 50.1 0 0 1-31.68-12.48 49.18 49.18 0 0 1-16.54-33.7c-.47-3.2 2.13-6.47 5.26-6.96 3.24-.67 6.63-.78 9.92-1.18 18.5-2.26 36.6-9.6 52.19-19.69 3.1-1.92 5.86-4.31 8.97-6.18 4.4-2.3 10.95-1.13 13.66 3.26Z" fill="#fff"/><path d="M533.54 496.92c12.3-1.1 23.89 8.53 24.08 21.08.84 11.05-7.56 21.22-18.45 22.83-11.9 2.14-23.93-6.81-25.4-18.8-1.93-12.29 7.5-23.97 19.77-25.1ZM400.49 505.5c5.96-1.31 12.63.86 17.06 4.96a19.5 19.5 0 0 1 3.72 23.81c-4.15 7.79-13.62 11.6-22.08 9.37-8.34-2.18-14.54-9.95-14.42-18.64-.3-9.44 6.57-17.6 15.72-19.5Z" fill="#000"/></g><g transform="translate(-279 -322)"><path d="M530.99 353.9c17.06 1.95 34 7.42 48.62 16.5 6.84 4.33 13.98 9.93 18.27 16.9.9 1.17 1.25 3.53-.22 4.34-1.19 1.18-2.85.5-4.15-.1-16.36-8.83-35.52-13.28-53.92-15.02-13.52-.79-28.3-.86-41.16 3.86-2.92 1.03-5.5 2.98-8.47 3.85-1.37.25-2.43-1.11-2.88-2.26-1.81-4.7-2.23-10.24.18-14.8 2.6-5.35 7.91-8.65 13.31-10.66 9.68-3.6 20.27-3.32 30.42-2.61ZM414.04 408.09c8.18 2.36 14.6 10.77 13.54 19.42-1.87.56-3.6 1-5.58.73-14.22-1.45-29.3 1.52-42.82 5.85-14.05 4.67-28.5 11.6-39.42 21.77-1.34 1.3-4.25 2.95-5.5.75-1.73-2.36.02-4.07 1.38-5.97 12.84-16.22 29.69-30.97 48.9-39.03 8.9-3.65 20.04-6.5 29.5-3.53Z" fill="#000"/></g><g transform="translate(-279 -322)"><path d="M514.98 571.8c9.94-.79 20.34-.67 29.5 3.7 4.76 2.28 8.77 6.1 9.74 11.45.87 5.24-1.16 9.93-4.1 14.14-5.1 7.1-13.02 12.35-20.61 16.48-16.5 8.76-34.08 12.05-52.5 13.76-20.25 3.08-41.64-1.62-59.12-12.17-6.2-3.9-12.82-9.26-16.03-16-2.56-5.26-2.25-12 1.93-16.37 4.77-5.2 12.43-7.15 19.2-7.88 15.6-1.27 30.57 2.31 44.79 8.5a117.73 117.73 0 0 1 47.2-15.61Z" fill="#000"/><path d="M540.41 580c-3.76 3.21-7.89 5.79-12.13 8.3-2.67 1.53-3.75 4.13-5.44 6.6a30.23 30.23 0 0 1-5.75 6.71c-3.02-1.1-5.96-2.85-9.11-3.5-3.03.45-5.9 1.87-8.86 2.66-10.02 2.86-20.67 5-31.12 4.92-2.95-.04-5.77.19-8.66.8.26 2.48-.5 4.68 2.82 5.02 14.67.86 29.74-2 43.63-6.66 4.74-2.07 7.69 3.08 12.84 1.72 4.35-1.27 7.37-6.6 9.92-10.06 1.78-2.8 4.43-4.12 7.14-5.82 3.66-2.24 6.97-4.85 10.35-7.47 1.44 2.56 3.17 4.68 2.42 7.82-1.4 6.39-6.6 11-11.48 14.92-12.52 9.5-28.96 14.76-44.24 17.66-14.5 1.98-28 4.19-42.61 1.47-12.77-2.46-26.17-7.5-36.14-16.1-3.77-3.4-8.37-8.52-7.81-14 .33-3.74 3.92-6.31 7.09-7.71 7.95-3.35 16.73-3.08 25.15-2.22 8.7 1.23 17.39 3.52 25.38 7.26 1.55.63 3.37 1.64 5.08 1.52 3.1-1.25 5.75-3.55 8.75-5.06a101.93 101.93 0 0 1 28.23-9.73c11.45-2.02 23.37-2.95 34.55.95Z" fill="#fff"/></g><g transform="translate(-279 -322)"><path fill-rule="evenodd" clip-rule="evenodd" d="M589 446.02c12.76.73 25.74 1.84 37.38 7.57 1.16.52 2.25 1.22 3.34 1.9 1.38.9 2.77 1.77 4.29 2.3 2.3.37 4.64.44 7 .52 2.67.09 5.35.18 7.95.7 2.16.77 2.3 2.83 2.42 4.8v1c-.02 2.19-.04 4.24-2.33 5.37-2.21.25-4.46.24-6.7.23h-3.17c1.26 18.16-2.42 36.45-11.5 52.28-9.66 17.1-25.26 30.69-43.86 37.2a78.74 78.74 0 0 1-34.82 4 81.36 81.36 0 0 1-42.57-18.29 88.7 88.7 0 0 1-28.74-44.53c-.9-2.9-1.46-5.9-2.02-8.9-.6-3.25-1.2-6.5-2.24-9.6-1.98-5.44-10.5-8.81-14.51-3.67-3.27 3.72-3.25 8.08-3.22 12.6.01 1.16.02 2.33-.03 3.5-.81 27.02-17.12 53.14-41.27 65.38-14.13 7.32-30.77 9.4-46.2 5.33a62.04 62.04 0 0 1-30.72-19.2c-10.8-12.26-16.55-28.93-16.8-45.17-.5-.12-1-.18-1.48-.24-1.41-.17-2.72-.33-3.35-1.96l-.07-.46c-.32-2.13-.83-5.46 1.42-6.47 1-.5 2.03-.92 3.05-1.33 2.19-.89 4.33-1.76 6.2-3.46 10.62-9.27 24.1-13.95 37.58-17.36a151.97 151.97 0 0 1 68.93-.89c5.82 1.39 12.08 1.59 17.77-.43 7.08-2.38 14.84-3.5 22.28-2.54 5.8.56 11.89.35 17.36-1.87 12.15-4.65 23.96-9.15 36.6-12.3a201.86 201.86 0 0 1 62.03-6Zm-25 12.94c17.65-.96 36.07-.78 53.28 3.73 7.14 1.68 13.37 8.09 14.26 15.47 1.3 7.9.28 15.57-1.36 23.32a80.57 80.57 0 0 1-24.67 39.05c-10.5 9.05-23.72 15.36-37.5 17.2-14.95 2.3-30.74-.6-44.13-7.61-14-7.22-25.74-19.05-33.2-32.89-5.27-10.71-8.3-23.62-6.34-35.5a98.03 98.03 0 0 1 20.17-10.3c18.9-7.2 39.37-10.89 59.48-12.47Zm-134.78 19.81a139.53 139.53 0 0 0-34.7-1.92c-15.93 1.2-31.36 3.69-46.39 9.31-5.22 2.04-10.6 4.52-15.04 7.97-4.12 2.85-5.47 9.18-5.69 13.85.33 8.92 3.64 17.87 8.04 25.57 7.92 13.73 21.5 23.9 37.06 27.1 9.84 2.21 19.97 1.39 29.56-1.56 26.32-8.35 46.38-34.3 46.64-62.1a46.96 46.96 0 0 0-1.45-10c-.29-1.64-1.75-2.49-3.1-3.26l-.58-.34c-4.48-2.24-9.46-3.65-14.35-4.63Z" fill="#000"/></g></g></svg>