<svg xmlns="http://www.w3.org/2000/svg" viewBox="0 0 400 400" fill="none" shape-rendering="auto"><metadata xmlns:rdf="http://www.w3.org/1999/02/22-rdf-syntax-ns#" xmlns:xsi="http://www.w3.org/2001/XMLSchema-instance" xmlns:dc="http://purl.org/dc/elements/1.1/" xmlns:dcterms="http://purl.org/dc/terms/"><rdf:RDF><rdf:Description><dc:title>Adventurer Neutral</dc:title><dc:creator>Lisa Wischofsky</dc:creator><dc:source xsi:type="dcterms:URI">https://www.figma.com/community/file/1184595184137881796</dc:source><dcterms:license xsi:type="dcterms:URI">https://creativecommons.org/licenses/by/4.0/</dcterms:license><dc:rights>Remix of „Adventurer Neutral” (https://www.figma.com/community/file/1184595184137881796) by „Lisa Wischofsky”, licensed under „CC BY 4.0” (https://creativecommons.org/licenses/by/4.0/)</dc:rights></rdf:Description></rdf:RDF></metadata><mask id="viewboxMask"><rect width="400" height="400" rx="0" ry="0" x="0" y="0" fill="#fff" /></mask><g mask="url(#viewboxMask)"><rect fill="#f2d3b1" width="400" height="400" x="0" y="0" /><g transform="translate(-279 -322)"><path d="M589.95 433.05c11.85 6.92 21.04 17.5 26.7 29.97 5.94-3.13 11.68-6.68 17.7-9.63 1.78-.95 4.39.55 3.97 2.62.2 1.48-2.02 2.5-3.06 3.23-5.45 3-10.88 6.04-16.34 9.03 1.7 6.87 3.23 13.6 3.24 20.73-.06 12.85-3.69 25.61-10.87 36.3a65.88 65.88 0 0 1-31.79 25.28 65.87 65.87 0 0 1-38.5 2.03 65.1 65.1 0 0 1-40-29.6 63.2 63.2 0 0 1-9.31-33 64.44 64.44 0 0 1 15.41-42.92c9.58-11.27 23.24-19.42 37.87-21.9a65.18 65.18 0 0 1 44.98 7.86Z" fill="#000"/><path d="M549.2 430.27a59.7 59.7 0 0 1 44.36 12.14c14.46 11.19 23.27 29.3 22.81 47.6.02 22.44-13.8 43.89-34.2 53.21-10.96 5.08-23.24 7-35.17 4.83a59.56 59.56 0 0 1-40.74-27.3 61.53 61.53 0 0 1-8.98-28.72 60.36 60.36 0 0 1 13.88-40.9 59.51 59.51 0 0 1 38.04-20.85Z" fill="#fff"/><path d="M390.01 446.91a55.03 55.03 0 0 1 34.43 14.65c10.09 9.4 16.54 22.67 17.3 36.47a54.58 54.58 0 0 1-8.02 32.68 54.92 54.92 0 0 1-36.73 25.15 54.94 54.94 0 0 1-63.71-42.04c-2.36-9.4-1.56-18.93 1.03-28.19a605.7 605.7 0 0 0-11.32-4.5c-1.9-.78-4-1.44-5.35-3.08-.4-2.4.76-3.92 3.2-3.62 5.21 1.25 10 4.2 15.18 5.57 1.39-1.65 2.24-3.81 3.31-5.68 10.02-17.81 30.31-28.73 50.69-27.4Z" fill="#000"/><path d="M376.5 453.66c18.63-4.25 38.76 3.44 50 18.81a50.84 50.84 0 0 1 9.74 26.52c.67 13.61-4.44 27.48-14.06 37.18A49.44 49.44 0 0 1 392 550.83c-19.94 2.3-40.08-8.85-49.01-26.78a49.3 49.3 0 0 1 2.37-48.68 49.32 49.32 0 0 1 31.15-21.7Z" fill="#fff"/><path d="M578.28 465.43c6.24-.76 12.7.82 17.74 4.57 6.29 4.65 10.27 12.14 10.18 20a27.74 27.74 0 0 1-4.57 13.63c-4.1 6.13-11.27 10.06-18.6 10.54-8.2.5-16.42-3.28-21.25-9.97-6.02-7.97-6.24-19.8-.63-28.03a24.74 24.74 0 0 1 17.13-10.74ZM408.45 478.49c7.22-.86 14.8 2 19.61 7.47A21.98 21.98 0 0 1 433.8 502c.04 12-10.69 22.79-22.8 22.28-12.1.1-22.88-10.05-22.87-22.26-.7-11.81 8.67-22.32 20.32-23.53Z" fill="#000"/></g><g transform="translate(-279 -322)"><path d="M545.03 378.5c24.7.94 48.04 8.97 69.45 21 2.26 1.31 4.92 2.48 6.79 4.32 1.3 2.39-.38 5.13-3.2 4.19-16.58-6.2-33.56-9.63-51.06-12.02-20.3-2.34-39.92-3.68-60.2-.13-3.2.44-6.87 2.16-10.08 1.59-2.66-1.69-1.2-6.1 1.29-7.37 13.63-9.33 30.79-12.1 47-11.58ZM407.99 396.92c3.5.64 6.6 1.92 9.63 3.78-.15 1.2-.26 2.4-.33 3.62-2.7.74-5.46 1.12-8.24 1.34-13.17 1.15-26.45 5.1-38.81 9.69-12.23 4.75-24.78 10.64-35.19 18.7-2.82 2.04-4.13 4.83-8.08 4.48-.5-.9-1-1.79-1.51-2.67.9-1.6 1.68-3.17 2.76-4.64 9.55-13.17 23.64-23.22 38.6-29.35 12.7-5.15 27.62-8.05 41.17-4.95Z" fill="#000"/></g><g transform="translate(-279 -322)"><path d="M473 557.77c14.54-.55 30.84 1.36 43.71 8.62-20.68 8.7-43.2 14.72-65.7 15.48-7.24 0-14.34.28-21.54-.61.7-5.83 3.1-9.58 7.73-13.05 9.92-7.31 23.76-9.76 35.8-10.44Z" fill="#D31E1E"/><path d="M525.03 563.67c.41.78.8 1.57 1.14 2.37.47 2.66-1.95 3.31-3.8 4.34-4 1.77-8.06 3.4-12.13 4.98-17.66 6.32-35.39 11.11-54.24 11.94-6.5.5-12.94.62-19.44.04-4.9-.57-10.15-.63-14.87-2.03-2.35-.88-2.73-3.93-.4-5.07 2.68-.12 5.48.83 8.18 1.02 7.2.89 14.3.61 21.54.61 22.5-.76 45.02-6.79 65.7-15.48 2.76-1.19 5.22-2.6 8.32-2.72Z" fill="#000"/><path d="M510.24 575.36c-1.96 10.16-10.37 17.27-19.22 21.68a56.41 56.41 0 0 1-34 4.71c-8.7-1.77-16.5-6.13-20.46-14.4 6.5.57 12.94.45 19.44-.05 18.85-.83 36.58-5.62 54.24-11.94Z" fill="#D31E1E"/></g><g transform="translate(-279 -322)"><path fill-rule="evenodd" clip-rule="evenodd" d="M589 446.02c12.76.73 25.74 1.84 37.38 7.57 1.16.52 2.25 1.22 3.34 1.9 1.38.9 2.77 1.77 4.29 2.3 2.3.37 4.64.44 7 .52 2.67.09 5.35.18 7.95.7 2.16.77 2.3 2.83 2.42 4.8v1c-.02 2.19-.04 4.24-2.33 5.37-2.21.25-4.46.24-6.7.23h-3.17c1.26 18.16-2.42 36.45-11.5 52.28-9.66 17.1-25.26 30.69-43.86 37.2a78.74 78.74 0 0 1-34.82 4 81.36 81.36 0 0 1-42.57-18.29 88.7 88.7 0 0 1-28.74-44.53c-.9-2.9-1.46-5.9-2.02-8.9-.6-3.25-1.2-6.5-2.24-9.6-1.98-5.44-10.5-8.81-14.51-3.67-3.27 3.72-3.25 8.08-3.22 12.6.01 1.16.02 2.33-.03 3.5-.81 27.02-17.12 53.14-41.27 65.38-14.13 7.32-30.77 9.4-46.2 5.33a62.04 62.04 0 0 1-30.72-19.2c-10.8-12.26-16.55-28.93-16.8-45.17-.5-.12-1-.18-1.48-.24-1.41-.17-2.72-.33-3.35-1.96l-.07-.46c-.32-2.13-.83-5.46 1.42-6.47 1-.5 2.03-.92 3.05-1.33 2.19-.89 4.33-1.76 6.2-3.46 10.62-9.27 24.1-13.95 37.58-17.36a151.97 151.97 0 0 1 68.93-.89c5.82 1.39 12.08 1.59 17.77-.43 7.08-2.38 14.84-3.5 22.28-2.54 5.8.56 11.89.35 17.36-1.87 12.15-4.65 23.96-9.15 36.6-12.3a201.86 201.86 0 0 1 62.03-6Zm-25 12.94c17.65-.96 36.07-.78 53.28 3.73 7.14 1.68 13.37 8.09 14.26 15.47 1.3 7.9.28 15.57-1.36 23.32a80.57 80.57 0 0 1-24.67 39.05c-10.5 9.05-23.72 15.36-37.5 17.2-14.95 2.3-30.74-.6-44.13-7.61-14-7.22-25.74-19.05-33.2-32.89-5.27-10.71-8.3-23.62-6.34-35.5a98.03 98.03 0 0 1 20.17-10.3c18.9-7.2 39.37-10.89 59.48-12.47Zm-134.78 19.81a139.53 139.53 0 0 0-34.7-1.92c-15.93 1.2-31.36 3.69-46.39 9.31-5.22 2.04-10.6 4.52-15.04 7.97-4.12 2.85-5.47 9.18-5.69 13.85.33 8.92 3.64 17.87 8.04 25.57 7.92 13.73 21.5 23.9 37.06 27.1 9.84 2.21 19.97 1.39 29.56-1.56 26.32-8.35 46.38-34.3 46.64-62.1a46.96 46.96 0 0 0-1.45-10c-.29-1.64-1.75-2.49-3.1-3.26l-.58-.34c-4.48-2.24-9.46-3.65-14.35-4.63Z" fill="#000"/></g></g></svg>