<svg xmlns="http://www.w3.org/2000/svg" viewBox="0 0 400 400" fill="none" shape-rendering="auto"><metadata xmlns:rdf="http://www.w3.org/1999/02/22-rdf-syntax-ns#" xmlns:xsi="http://www.w3.org/2001/XMLSchema-instance" xmlns:dc="http://purl.org/dc/elements/1.1/" xmlns:dcterms="http://purl.org/dc/terms/"><rdf:RDF><rdf:Description><dc:title>Adventurer Neutral</dc:title><dc:creator>Lisa Wischofsky</dc:creator><dc:source xsi:type="dcterms:URI">https://www.figma.com/community/file/1184595184137881796</dc:source><dcterms:license xsi:type="dcterms:URI">https://creativecommons.org/licenses/by/4.0/</dcterms:license><dc:rights>Remix of „Adventurer Neutral” (https://www.figma.com/community/file/1184595184137881796) by „Lisa Wischofsky”, licensed under „CC BY 4.0” (https://creativecommons.org/licenses/by/4.0/)</dc:rights></rdf:Description></rdf:RDF></metadata><mask id="viewboxMask"><rect width="400" height="400" rx="0" ry="0" x="0" y="0" fill="#fff" /></mask><g mask="url(#viewboxMask)"><rect fill="#ecad80" width="400" height="400" x="0" y="0" /><g transform="translate(-279 -322)"><path d="M574.47 426.48c13.52 3.69 25.28 11.87 34.03 22.75 7.5-5.17 14.74-10.73 22.37-15.71l3.07 1.28c-.34 2.1-.24 3.64-2.24 4.9-6.6 4.8-13.31 9.45-19.92 14.23 3.77 6.35 7.07 12.73 8.56 20.03 1.59 7.69 2.58 16.11 1.14 23.88-.44 2.76-3.06 3.5-5.47 3.7-19.7 1.03-39.42 3.02-59 5.35-11.08 1.45-22.17 1.92-33.23 3.57-4.5.68-9.03 1.18-13.54 1.79-5 .7-9.54 1.77-14.54.33-4.84-13.86-5.54-28.92-1.07-42.97a65.16 65.16 0 0 1 28.7-36.27c15.07-9.25 34.17-11.67 51.14-6.87Z" fill="#000"/><path d="M565.47 430.38a59.78 59.78 0 0 1 42.62 28.54c6.6 11.12 9.16 23.82 8.14 36.67-4.76.39-9.48.96-14.25 1.17-18 1.19-35.9 3.32-53.81 5.48 1.05-2.96 2.25-6.07 2.52-9.2.8-9.38-4.1-18.83-12.31-23.45-5.3-3.21-11.43-3.75-17.45-2.72-11.6 2.17-20.3 13.34-19.52 25.13.01 6.06 2.65 11.12 6.33 15.74l-7.3.74a59.26 59.26 0 0 1 1.6-42.39 59.24 59.24 0 0 1 33.74-32.46c9.48-3.74 19.65-4.48 29.7-3.26Z" fill="#fff"/><path d="M416.52 455.44a55 55 0 0 1 24.5 36.47 57.74 57.74 0 0 1-1.23 25.16c-5.34 1.1-10.4.57-15.8.57-24.03-.24-48-.16-72 1.46-5.86-.14-12.62 1.57-17.83-1.24-.94-4.53-2.07-9.19-2.27-13.82-.34-10.1 2.17-19.99 6.82-28.94-6-3.98-12.33-7.55-18.2-11.72-1.9-1.41-1.7-2.69-.83-4.69 2.76-1.07 4.5.5 6.78 1.81 5.07 3.31 10.17 6.56 15.27 9.82a55.77 55.77 0 0 1 31.73-21.84 55.28 55.28 0 0 1 43.05 6.97Z" fill="#000"/><path d="M400.8 454.53a49.36 49.36 0 0 1 29.24 23.44 48.95 48.95 0 0 1 5.07 34.42l-5.61.12c2.13-4.63 3.58-9.36 2.88-14.52-.9-8.64-7.3-16.11-15.55-18.64a23.51 23.51 0 0 0-11.81-.2c-9.02 2.14-16.25 10.53-16.65 19.85-.47 4.7.89 8.93 2.74 13.17-13.38.11-26.76.61-40.1 1.61-3.69.2-7.9.7-11.5-.24-1.65-3.05-1.64-7.15-1.79-10.54-.55-13.95 5.57-28 15.83-37.42 12.47-11.6 30.9-16 47.25-11.05Z" fill="#fff"/></g><g transform="translate(-279 -322)"><path d="M501.99 384.96c9.9.12 19.87 3.23 28.83 7.31 3.36 1.88 7.05 4 7.3 8.3-5.13-.87-10.13-2.07-15.37-2.3-11.6-.67-23.13 1.37-33.25 7.24-2.54 1.41-4.95 3.26-7.64 4.35-1.8.27-3.92-2-3.94-3.73-.18-5.81 1.95-11.92 6.53-15.7 5.03-4.23 11.15-5.3 17.54-5.47ZM414.03 402.61c5.81.15 10.93 5.3 12.51 10.64.8 2.63-.46 5.72-3.53 5.61-8.82.2-18.2.03-26.81 2.26-7.52 2-14.74 6.7-21.36 10.74-1.22.81-2.57.96-3.98 1.22.33-1.93.64-3.66 1.94-5.2a97.47 97.47 0 0 1 10.74-12.31c5.88-5.17 13-8.96 20.32-11.66a25.26 25.26 0 0 1 10.17-1.29Z" fill="#000"/></g><g transform="translate(-279 -322)"><path d="M516.47 555.6c6.02 4.43 11.7 10 15.3 16.62 2.64 4.83 3.27 11.66-.42 16.13-4.14 5.37-11.5 7.58-17.88 8.76-15.67 2.47-31.9.95-47.46-1.6-5.74-1.11-10.18 1.63-16 2.55-8.7 1.6-18.36 2.92-27.06 1-5.13-1.02-10.28-3.2-13.34-7.65-2.78-3.87-2.64-9.34-1.12-13.67a37.3 37.3 0 0 1 7.04-11.24c1.33-1.74 3.08-1 4.97-1.12.3 1.84 1.06 3.23-.36 4.82-2.61 3.34-5.24 6.37-6.44 10.55-1.12 3.27-.33 6.93 2.4 9.14 3.03 2.37 7.16 3.47 10.93 3.87 7.78.5 15.57.14 23.16-1.73 5.6-1.06 9.96-3.57 15.81-2.5 12.03 1.92 23.78 3.44 36 2.8 6.92-.23 13.96-1.07 20.27-4.11 3.23-1.78 6.04-4.15 5.68-8.22-.27-6.05-6.07-11.79-10.25-15.7-2.5-2.65-6.66-4.09-6.02-8.36 1.8-.9 2.95-1.8 4.8-.34Z" fill="#000"/></g><g transform="translate(-279 -322)"></g></g></svg>