<svg xmlns="http://www.w3.org/2000/svg" viewBox="0 0 400 400" fill="none" shape-rendering="auto"><metadata xmlns:rdf="http://www.w3.org/1999/02/22-rdf-syntax-ns#" xmlns:xsi="http://www.w3.org/2001/XMLSchema-instance" xmlns:dc="http://purl.org/dc/elements/1.1/" xmlns:dcterms="http://purl.org/dc/terms/"><rdf:RDF><rdf:Description><dc:title>Adventurer Neutral</dc:title><dc:creator>Lisa Wischofsky</dc:creator><dc:source xsi:type="dcterms:URI">https://www.figma.com/community/file/1184595184137881796</dc:source><dcterms:license xsi:type="dcterms:URI">https://creativecommons.org/licenses/by/4.0/</dcterms:license><dc:rights>Remix of „Adventurer Neutral” (https://www.figma.com/community/file/1184595184137881796) by „Lisa Wischofsky”, licensed under „CC BY 4.0” (https://creativecommons.org/licenses/by/4.0/)</dc:rights></rdf:Description></rdf:RDF></metadata><mask id="viewboxMask"><rect width="400" height="400" rx="0" ry="0" x="0" y="0" fill="#fff" /></mask><g mask="url(#viewboxMask)"><rect fill="#763900" width="400" height="400" x="0" y="0" /><g transform="translate(-279 -322)"><path d="M494.83 474.61c2.5.17 5.02 1.39 7.38 2.24 9.33 3.65 18.8 6.05 28.52 8.37 20.93 5.06 42.75 8.76 64.32 6.83a372.7 372.7 0 0 0 22-3.8c2.52-.69 5.44.75 5.16 3.64-.55 6.56-1.62 13.23-3.9 19.44a65.49 65.49 0 0 1-29.88 35.11 64.13 64.13 0 0 1-32.42 8.09c-17.65-.05-34.84-7.8-46.86-20.68-7.23-7.66-11.98-16.88-15.38-26.78 1.24 7.98 2.5 15.76 6.26 23.03 3.03 6 7.26 10.92 11.61 16-1.15 1.32-2.54 3.25-4.48 1.97-3.6-2.64-6.29-6.76-8.86-10.36-6.2-8.96-8.75-19.54-10-30.22-1-7.27.07-15.03 1.27-22.23.76-3.53 1.94-8.67 5.27-10.65ZM436.11 479.84c2.2.74 3.17 3.02 4.14 4.93 5.57 12.06 7.7 26.28 4.75 39.31-1.56 8.46-5.54 17.15-12.02 22.96-1.6 1.63-3.44 1.53-5.55 1.47a14.54 14.54 0 0 1-.05-3.16c2.13-2.57 4.8-4.5 6.55-7.43 5.1-7.77 6.2-16.2 7.05-25.25-2.4 10.15-6.94 19.55-14.24 27.08a54.72 54.72 0 0 1-31.5 16.39 54.98 54.98 0 0 1-40.6-9.82 55.32 55.32 0 0 1-19.69-26.46c-.62-1.89-1.23-4.36-.54-6.29 1.61-1.44 3.53-1.87 5.62-2.03 8.8-.6 17.33-2.62 26.08-4.44 7.47-1.54 14.64-3.9 21.94-6.06 9.57-3.12 18.95-7.7 28.15-11.8 5.2-2.33 10.2-5.07 15.18-7.86 1.4-.7 3.12-1.76 4.74-1.54Z" fill="#000"/><path d="M497.89 481.07c4.93 1.84 9.74 3.81 14.84 5.15 13.85 3.68 28.08 7.8 42.3 9.62 2.57.4 5.13.95 7.7 1.46.65 7.27 3.79 13.87 9.83 18.14 9.45 6.94 23.73 5.49 31.27-3.61 4.15-4.66 5.55-10.31 5.95-16.4l6.5-1.1c-1.89 21.43-15.6 41.02-35.47 49.48a58.92 58.92 0 0 1-38.05 3.38 59.69 59.69 0 0 1-36.88-27.07c-6.4-10.7-9.56-23.58-8.4-36.02.12-1.01.26-2.02.4-3.03ZM433.78 486.25c2.2 7.46 3.34 15.04 1.9 22.78a49.42 49.42 0 0 1-17.13 30.52 50.1 50.1 0 0 1-32.57 11.61 50.55 50.55 0 0 1-27.2-8.94A50.26 50.26 0 0 1 340.01 517c14.82-1.83 29.68-4.5 44-8.81 2.74 9.7 10.66 17.13 20.9 17.95 10.2 1.12 20.02-4.88 24-14.24a24.5 24.5 0 0 0-1.86-22.3c2.23-1.14 4.46-2.34 6.74-3.35Z" fill="#fff"/></g><g transform="translate(-279 -322)"><path d="M614 406.99c-24.74-23-58.3-35.43-92-35.08-8.9.26-17.67 1.52-26.42 3.12-1.5 3.24-2.51 6.6-3.52 9.98-.37 1.22-.73 2.44-1.12 3.66l-.13-1.4a170 170 0 0 0-1.31-11.32l-3.23-1.56c-.21.37-.5.74-.8 1.12-.6.76-1.23 1.55-1.26 2.44-.1 3.74.3 7.48.71 11.22.3 2.78.6 5.57.7 8.37.08.67.12 1.4.16 2.16.13 2.41.28 5.08 1.65 6.85 2.83.76 6.04-.34 9.02-1.36 1.06-.36 2.08-.7 3.05-.96 18.93-5.52 39.16-6.87 58.7-4.41 20 2.31 40.08 8.25 57.45 18.55 1.95 1.1 4 1.81 6.12 2.5l1.77-3.35c-2.7-3.96-6.05-7.28-9.54-10.53ZM422.26 399.6c.13-4.24.27-8.47.03-12.67-.25-2.54-1.86-2.58-3.72-2.62-.33 0-.66 0-1-.03-.92 3.61-1.06 7.52-1.21 11.37-.06 1.66-.13 3.3-.25 4.91a198.7 198.7 0 0 1-4.5-11.36c-.14-.25-.25-.54-.37-.83-.43-1.08-.9-2.26-2.24-2.23-2.5-.06-5.02.4-7.53.84-1.15.2-2.3.42-3.44.57-18.15 3.2-37.02 9.52-52.08 20.37-6.61 4.82-13.05 11.1-16.67 18.52-1.44 3.11-2.83 6.47-1.59 9.9l.41.12c1.08.33 2.6.8 3.42.06.93-.7 1.82-1.43 2.72-2.15 2.06-1.68 4.1-3.34 6.5-4.6 7.97-4.3 16.79-7.19 25.5-9.59 13.84-3.56 28.46-6.2 42.8-5.7 1.83.01 3.63.27 5.43.53 1.88.26 3.77.53 5.67.53 1.8-1.27 1.85-3.62 1.89-5.77 0-.62.02-1.2.07-1.76-.02-2.8.07-5.6.16-8.42Z" fill="#000"/></g><g transform="translate(-279 -322)"><path d="M519 572.72c12.29.18 24.45 2.02 35.94 6.5a92.61 92.61 0 0 1 43.87 34.94c1.14 1.53.8 3.58.95 5.41-7.22.57-14.43-.04-21.67.76.12 7.4 0 14.39-3.75 21.02-2.2 3.77-5.7 7.2-10.34 7.12-4.5-.03-8.23-3.43-10.38-7.1-3.71-6.4-4.2-13.83-4.46-21.04-25.38.12-50.77.29-76.16.43-7.35-.26-14.65.67-22 .42-7.53-.2-14.18.78-21.52-.74.07-1.62-.5-4.04.59-5.37 22.4-25.3 54.86-41.81 88.93-42.35Z" fill="#000"/><path d="M508.98 579.48a152.3 152.3 0 0 1 21.04-.02 88.9 88.9 0 0 1 48.66 20.86c-11.23.4-22.44.62-33.68.58-30.98 1.14-62 .83-92.97 1.81 6.13-4.2 12.16-8.37 18.84-11.68a112.4 112.4 0 0 1 38.1-11.54Z" fill="#8F2E45"/><path d="M569 606.4c5.17 0 10.56-.64 15.68.04 2.37 2.05 4.27 4.7 6.31 7.09-5.88.61-11.88.05-17.7.77-1.23 7.11-.33 16.61-3.6 23.41-1.15 2.7-3.33 4.05-5.67 5.57-2.32-1.57-4.53-2.89-5.74-5.56-3.42-6.8-3.33-15.68-4.08-23.16-5.72-.52-11.4-.06-17.2-.19-32.79.26-65.57.28-98.36.54 2.11-2.04 4.57-5.6 7.5-6.24 17.96-.7 35.91-.24 53.86-1.1 11-.5 22-.08 33-.59 12-.24 24-.08 36-.57Z" fill="#6FA942"/></g><g transform="translate(-279 -322)"></g></g></svg>