<svg xmlns="http://www.w3.org/2000/svg" viewBox="0 0 400 400" fill="none" shape-rendering="auto"><metadata xmlns:rdf="http://www.w3.org/1999/02/22-rdf-syntax-ns#" xmlns:xsi="http://www.w3.org/2001/XMLSchema-instance" xmlns:dc="http://purl.org/dc/elements/1.1/" xmlns:dcterms="http://purl.org/dc/terms/"><rdf:RDF><rdf:Description><dc:title>Adventurer Neutral</dc:title><dc:creator>Lisa Wischofsky</dc:creator><dc:source xsi:type="dcterms:URI">https://www.figma.com/community/file/1184595184137881796</dc:source><dcterms:license xsi:type="dcterms:URI">https://creativecommons.org/licenses/by/4.0/</dcterms:license><dc:rights>Remix of „Adventurer Neutral” (https://www.figma.com/community/file/1184595184137881796) by „Lisa Wischofsky”, licensed under „CC BY 4.0” (https://creativecommons.org/licenses/by/4.0/)</dc:rights></rdf:Description></rdf:RDF></metadata><mask id="viewboxMask"><rect width="400" height="400" rx="0" ry="0" x="0" y="0" fill="#fff" /></mask><g mask="url(#viewboxMask)"><rect fill="#763900" width="400" height="400" x="0" y="0" /><g transform="translate(-279 -322)"><path d="M550.3 424.38a65.71 65.71 0 0 1 39.66 8.67 65.75 65.75 0 0 1 28.5 34.66c3.4 10.1 4.72 21.28 2.82 31.8-2.34 15.83-10.89 30.39-23.28 40.46-16.89 13.94-40.48 18.23-61.27 11.45a65.46 65.46 0 0 1-36.85-30.3c-7.4-12.95-9.69-28.2-7.34-42.87a64.98 64.98 0 0 1 18.4-35.3 65.16 65.16 0 0 1 39.36-18.57Z" fill="#000"/><path d="M549.26 430.26a59.64 59.64 0 0 1 42.62 10.89c15.42 11.05 25 29.85 24.47 48.85.07 22.7-14.11 44.36-34.86 53.52-10.79 4.85-22.8 6.65-34.5 4.5a59.52 59.52 0 0 1-40.34-26.66 61.43 61.43 0 0 1-9.37-29.31 60.42 60.42 0 0 1 13.41-40.36 59.5 59.5 0 0 1 38.57-21.43Z" fill="#fff"/><path d="M381.25 447.09a55.31 55.31 0 0 1 36.48 9.14 55.11 55.11 0 0 1 23.31 35.66c1.43 9.16 1.07 18.48-1.94 27.3a54.94 54.94 0 0 1-23.42 29.5 54.73 54.73 0 0 1-35.67 7.62c-15.79-1.82-30.36-11-39.03-24.29-5.54-8.32-8.46-18.03-9.11-27.98-.3-12.3 3.26-24.63 10.57-34.6a55.15 55.15 0 0 1 38.81-22.35Z" fill="#000"/><path d="M378.25 453.29a49.13 49.13 0 0 1 32.86 5.6c17.98 9.93 28.44 31.6 24.26 51.82a49.36 49.36 0 0 1-22.02 32.64 50.2 50.2 0 0 1-23.36 7.67c-19.83 1.35-39.3-10.23-47.63-28.27a49.26 49.26 0 0 1 5.04-50.33 49.4 49.4 0 0 1 30.85-19.14Z" fill="#fff"/><path d="M527.25 466.2c10.29-1.32 20.55 4.37 24.64 13.95 4.98 10.77.62 24.2-9.63 30.1-6.84 4.14-16 4.3-23.06.58-8.27-4.24-13.57-13.53-12.73-22.85.68-11.13 9.72-20.52 20.78-21.78ZM358.53 480.85c5.9-2.02 12.38-1.11 17.75 1.94a21.93 21.93 0 0 1 10.3 14.56c2.55 11.6-5.77 23.8-17.55 25.6-10.32 2.12-21.3-4.15-24.64-14.13-3.92-11.13 2.73-24.59 14.14-27.97Z" fill="#000"/></g><g transform="translate(-279 -322)"><path d="M530.96 352.34c21.47-3.31 42.8 3.14 60.6 15.1 12.06 8.18 22.9 19.67 28.97 33.02 1.1 2.96-.3 3.73-2.5 5.27-3.96-2.26-6.88-5.58-10.48-8.3-13-9.77-28.03-16.37-43.78-20.24-14.93-3.5-30.56-5.05-45.8-2.8-4.78.41-9.28 1.92-13.97 2.67-2.41.2-5.1-1.2-4.2-4.04 1.89-4.15 4.22-8.5 7.59-11.65 6.04-5.62 15.64-7.85 23.57-9.03ZM383 428.83c13.38-.82 26.33-.6 39.03 4.23 5.85 2.37 11.52 5.91 13.93 12.05 1.38 4.31.91 8.87-1.73 12.61-4.9-.76-9.4-2.6-14.18-3.82-23.13-6.33-47.19-8-71.04-5.96-4.88.33-9.86 2.03-14.72 1.78-1.78-.48-1.17-2.2-.97-3.54.88-2.5 3.58-3.86 5.76-5.1 13.75-7.24 28.55-10.64 43.92-12.25Z" fill="#000"/></g><g transform="translate(-279 -322)"><path d="M524.2 555.79c.5 6.88-.8 13.42-1.56 20.21a245.12 245.12 0 0 1-19.15 70.23c-3.65 7.33-6.74 15.74-13.95 20.34-4.25 3.06-10.3 1.77-14.6-.52-9.5-4.69-15.15-12.28-21.77-20.2-10.97-13.4-18.85-28.33-26.05-44-3.56-8.2-6.83-16.5-10.25-24.75-.87-2.13-1.17-4.1 1.07-5.43 4.72 0 9.31 1.5 14.06 1.5 9.3.25 18.74.41 27.98-.8 19.98-2.3 39.64-8.31 58-16.45 2.12-1.07 4.02-.6 6.22-.13Z" fill="#000"/><path d="M518.93 561.99c-1.93 15.16-3.98 30.2-8 44.98-4.7 16.77-10.28 33.84-19.06 48.96-2.17 3.44-5.3 7.34-9.89 6.51-7.43-1.55-14.07-8-18.68-13.73-9.88-10.97-17.89-23.26-24.61-36.38-6.13-11.12-10.64-22.89-15.69-34.52 4.8.44 9.6.8 14.4 1.2 1.13 5.94 4.6 11.5 8.45 16.07 5.08 5.94 12.23 9.8 20.13 9.97a27.87 27.87 0 0 0 16.68-7.36c8.02-7.35 11.96-17.07 14.48-27.43a265.03 265.03 0 0 0 21.79-8.27Z" fill="#8F2E45"/><path d="M490.65 572.12c-2.55 8.79-7.09 18.39-14.95 23.6-5.47 3.76-12.7 4.38-18.57 1.11-7-3.86-10.9-10.5-13.93-17.65 16.1-.33 32-2.32 47.45-7.06Z" fill="#fff"/></g><g transform="translate(-279 -322)"></g></g></svg>