<svg xmlns="http://www.w3.org/2000/svg" viewBox="0 0 400 400" fill="none" shape-rendering="auto"><metadata xmlns:rdf="http://www.w3.org/1999/02/22-rdf-syntax-ns#" xmlns:xsi="http://www.w3.org/2001/XMLSchema-instance" xmlns:dc="http://purl.org/dc/elements/1.1/" xmlns:dcterms="http://purl.org/dc/terms/"><rdf:RDF><rdf:Description><dc:title>Adventurer Neutral</dc:title><dc:creator>Lisa Wischofsky</dc:creator><dc:source xsi:type="dcterms:URI">https://www.figma.com/community/file/1184595184137881796</dc:source><dcterms:license xsi:type="dcterms:URI">https://creativecommons.org/licenses/by/4.0/</dcterms:license><dc:rights>Remix of „Adventurer Neutral” (https://www.figma.com/community/file/1184595184137881796) by „Lisa Wischofsky”, licensed under „CC BY 4.0” (https://creativecommons.org/licenses/by/4.0/)</dc:rights></rdf:Description></rdf:RDF></metadata><mask id="viewboxMask"><rect width="400" height="400" rx="0" ry="0" x="0" y="0" fill="#fff" /></mask><g mask="url(#viewboxMask)"><rect fill="#9e5622" width="400" height="400" x="0" y="0" /><g transform="translate(-279 -322)"><path d="M619.37 468.64c3.87 2.6 8.11 5.27 11.16 8.82.3 1.66.07 3.43.04 5.12-1.93.6-3.41 1.04-5.4.26-29.1-10.45-62.1-9.7-91.32-.07-12.55 4.26-25.01 10.37-35.3 18.8-1.32 1.05-3.89 2.91-5.3 1.13-1.7-1.56-.63-3.53.2-5.23 7.13-12.76 18-23.13 30.66-30.34 29.02-16.58 66.88-16.42 95.26 1.5ZM405.49 480.39c11.64 2.56 23.55 8.63 31.2 17.94 2.8 3.9 6.47 8.06 5.88 13.18-1.58-.03-3.27.7-4.53-.5a50.83 50.83 0 0 0-13.92-8.1c-15.2-5.92-32.5-7.15-48.6-5.03-12.43 1.78-26.06 5.7-36 13.69-1.9 1.3-3.17 2.8-5.67 1.81a5.46 5.46 0 0 1 .33-6.17c16-21.77 45.05-31.82 71.31-26.81Z" fill="#000"/></g><g transform="translate(-279 -322)"><path d="M614 406.99c-24.74-23-58.3-35.43-92-35.08-8.9.26-17.67 1.52-26.42 3.12-1.5 3.24-2.51 6.6-3.52 9.98-.37 1.22-.73 2.44-1.12 3.66l-.13-1.4a170 170 0 0 0-1.31-11.32l-3.23-1.56c-.21.37-.5.74-.8 1.12-.6.76-1.23 1.55-1.26 2.44-.1 3.74.3 7.48.71 11.22.3 2.78.6 5.57.7 8.37.08.67.12 1.4.16 2.16.13 2.41.28 5.08 1.65 6.85 2.83.76 6.04-.34 9.02-1.36 1.06-.36 2.08-.7 3.05-.96 18.93-5.52 39.16-6.87 58.7-4.41 20 2.31 40.08 8.25 57.45 18.55 1.95 1.1 4 1.81 6.12 2.5l1.77-3.35c-2.7-3.96-6.05-7.28-9.54-10.53ZM422.26 399.6c.13-4.24.27-8.47.03-12.67-.25-2.54-1.86-2.58-3.72-2.62-.33 0-.66 0-1-.03-.92 3.61-1.06 7.52-1.21 11.37-.06 1.66-.13 3.3-.25 4.91a198.7 198.7 0 0 1-4.5-11.36c-.14-.25-.25-.54-.37-.83-.43-1.08-.9-2.26-2.24-2.23-2.5-.06-5.02.4-7.53.84-1.15.2-2.3.42-3.44.57-18.15 3.2-37.02 9.52-52.08 20.37-6.61 4.82-13.05 11.1-16.67 18.52-1.44 3.11-2.83 6.47-1.59 9.9l.41.12c1.08.33 2.6.8 3.42.06.93-.7 1.82-1.43 2.72-2.15 2.06-1.68 4.1-3.34 6.5-4.6 7.97-4.3 16.79-7.19 25.5-9.59 13.84-3.56 28.46-6.2 42.8-5.7 1.83.01 3.63.27 5.43.53 1.88.26 3.77.53 5.67.53 1.8-1.27 1.85-3.62 1.89-5.77 0-.62.02-1.2.07-1.76-.02-2.8.07-5.6.16-8.42Z" fill="#000"/></g><g transform="translate(-279 -322)"><path d="M503.97 568.71c3.76-1.34 5.59 4 2.2 5.46-5.64 2.88-10.75 6.61-12.88 12.86-2.34 6.4.4 13.12 4.73 17.96 2.91 3.37 6.6 5.42 10.34 7.69 1.96 1.1 1.31 2.77 1.18 4.6-.86.35-1.71.71-2.57 1.08a36.97 36.97 0 0 1-15.83-12.5c-2.32-3.15-3.35-6.66-4.68-10.27-25.08 2.03-50.35 2.82-75.44 4.7-1.85-.3-2.44-2-3.5-3.32 1.11-1.2 1.69-2.66 3.52-2.77 17.31-.91 34.6-2.03 51.97-2.98 7.82-.76 15.69-.5 23.45-1.56 1.56-9.83 8.58-17.16 17.51-20.96Z" fill="#000"/></g><g transform="translate(-279 -322)"></g></g></svg>