<svg xmlns="http://www.w3.org/2000/svg" viewBox="0 0 400 400" fill="none" shape-rendering="auto"><metadata xmlns:rdf="http://www.w3.org/1999/02/22-rdf-syntax-ns#" xmlns:xsi="http://www.w3.org/2001/XMLSchema-instance" xmlns:dc="http://purl.org/dc/elements/1.1/" xmlns:dcterms="http://purl.org/dc/terms/"><rdf:RDF><rdf:Description><dc:title>Adventurer Neutral</dc:title><dc:creator>Lisa Wischofsky</dc:creator><dc:source xsi:type="dcterms:URI">https://www.figma.com/community/file/1184595184137881796</dc:source><dcterms:license xsi:type="dcterms:URI">https://creativecommons.org/licenses/by/4.0/</dcterms:license><dc:rights>Remix of „Adventurer Neutral” (https://www.figma.com/community/file/1184595184137881796) by „Lisa Wischofsky”, licensed under „CC BY 4.0” (https://creativecommons.org/licenses/by/4.0/)</dc:rights></rdf:Description></rdf:RDF></metadata><mask id="viewboxMask"><rect width="400" height="400" rx="0" ry="0" x="0" y="0" fill="#fff" /></mask><g mask="url(#viewboxMask)"><rect fill="#f2d3b1" width="400" height="400" x="0" y="0" /><g transform="translate(-279 -322)"><path d="M558.2 453.21c11.47-1.62 23.68.14 34 5.5 7.61 3.93 14.3 10.28 18.11 18 3.35 6.67 3.82 14.64 2.11 21.82-2.1 8.03-7.22 15.16-13.75 20.2-14.96 11.75-36.54 14.35-54.2 7.75-8.43-3.17-16.54-8.89-21.4-16.55-2.8-4.73-5.22-10.36-5.36-15.93-.7-9.54 3.61-19.3 10.27-26.02 8.05-8.38 18.87-12.97 30.22-14.77Z" fill="#000"/><path d="M559.17 459.11c13.97-2.02 29.72 1.64 39.88 11.85 6.6 6.52 10.35 16.95 7.62 26.05-2.06 8.19-7.68 14.5-14.53 19.15-12.44 8.2-28.98 10.02-43.11 5.63-8.63-2.7-17.05-8.19-21.69-16.1-3.02-5-4.14-10.91-3.6-16.7.77-6.83 4.54-13.12 9.39-17.85 7.05-6.72 16.44-10.78 26.04-12.03Z" fill="#fff"/><path d="M369.48 468.71c17.62-2.69 37.91 3.42 47.71 19.13a30.7 30.7 0 0 1 1.93 29.15c-2.9 6.32-7.9 11.64-13.7 15.43-7.34 4.75-15.75 7.1-24.42 7.8-14.63.56-29.8-4.3-39.4-15.8-5.22-6.27-8.18-14.2-7.54-22.4.56-8.28 4.61-15.75 10.51-21.45 6.92-6.46 15.65-10.23 24.91-11.86Z" fill="#000"/><path d="M376.55 474.11c9.64-.35 19.56 2.27 27.37 8.02 5.14 3.82 9.44 9.18 11.19 15.41 1.61 6.2 1.04 12.92-2.15 18.54-4.72 8.62-13.66 14.22-22.97 16.7-13.7 3.72-30.16.72-40.8-8.98-6.28-5.66-10-13.74-9.23-22.26a27.3 27.3 0 0 1 6.85-14.72c7.34-8.2 18.86-12.64 29.74-12.7Z" fill="#fff"/><path d="M551.46 477.61c3.7-.8 7.51-.7 10.96.96 6.42 3.03 10.48 10.43 8.9 17.48-1.3 7.25-7.9 12.9-15.3 12.85-8.43.47-15.97-6.52-16.35-14.89a15.94 15.94 0 0 1 11.8-16.4Z" fill="#000"/><path d="M553.62 483.21c4-.67 7.83.6 10.2 3.96 3.05 4.06 2.27 9.86-1.37 13.27-4.4 3.95-11.88 3.34-15.16-1.77-4.01-5.83-.63-14.19 6.32-15.46Z" fill="#fff"/><path d="M618.7 484.19c1.7.32 3.64-.24 4.63 1.46 1.61 2.47 2.37 5.58 2.85 8.46 1.44 10.52-2.22 21.8-9.83 29.25-3.27 3.02-7.82 5.97-12.38 6.11-2.73.04-4.27-2.62-2.33-4.8 3.27-1.61 6.54-2.11 9.44-4.56 6.3-5.26 9.64-14.02 9.57-22.11 0-4.02-1.58-7.21-2.66-10.96l.71-2.84ZM380.44 488.46c4.44-.82 9.2.5 12.68 3.35 5.75 4.58 7.69 13.08 4.69 19.76-2.56 5.93-8.24 10.22-14.82 10.23-8.45.57-15.94-6.42-16.44-14.79a17.14 17.14 0 0 1 13.89-18.54Z" fill="#000"/><path d="M379.53 494.79c5.08-1.91 10.94.6 12.92 5.67 2.83 6.48-1.52 14.7-8.68 15.43-4.25.47-7.6-1.26-9.9-4.82-3.45-5.89-.8-13.89 5.66-16.28Z" fill="#fff"/><path d="M330.44 503.6c.44 4.06-1.4 7.43-1.67 11.39a19.33 19.33 0 0 0 7.3 15.89c2.43 1.9 5.11 2.82 7.77 4.29 1.95.85 1.84 2.03 1.58 3.92-1.5 1.78-3.3 1.46-5.3.8-7.29-2.71-13.56-8.6-15.96-16.08-2.04-6.12-1.77-13.6 1.36-19.29 1.26-1.87 3.04-.88 4.92-.92Z" fill="#000"/></g><g transform="translate(-279 -322)"><path d="M613.54 401.51c1.6 1 1.08 2.86 1.24 4.48-.06 11.34-.05 22.7-.12 34.04.32 2.75-2.42 4.22-4.62 5-40 13.74-80.12 27.25-120.05 41.12-2.53.2-2.84-1.75-3.5-3.66-1.64-6-3.31-11.98-5.02-17.95.97 5.75.98 11.66 1.36 17.47-.02 1.44.45 3.94-1 4.85-1.94 1.4-4.06.13-4.59-2.03-3.64-12.73-7.02-25.58-10.66-38.32-.39-1.83-.65-3.9 1.36-4.88 2.11-.5 3.41.47 4 2.44 1.27 4.55 2.55 9.11 3.68 13.7-.73-5.24-.94-10.5-1.18-15.77 0-1.27-.14-3.73 1.66-3.8 1.47-.25 2.98-.37 4.43-.7 41.23-11.75 82.37-23.45 123.6-35.23 3.27-.87 6.02-2.08 9.4-.76ZM324 433.87c13.64 1.39 27.36 1.44 41 2.58 21.04 1.05 42.11 2.67 63.14 3.42 7.8.78 15.61 1.12 23.44 1.68 2.77 2.19 1.08 8.08 1.91 11.33.56-2.97.18-6.9 1.92-9.46a2.85 2.85 0 0 1 4.76 2.56c-2.36 14.03-4.77 28.14-7.02 42.18-.8 2.93-4.48 2.56-5.29-.15-.27-4.92-.21-9.89-.28-14.83-1.03 4.3-1.47 8.69-2.47 12.98-.42 1.64-1.16 2.84-3.1 2.4-39.47-6.89-79.39-14.23-118.86-21.3-1.88-.19-2.83-1.45-3.09-3.25-1.45-7.98-2.5-16.04-4.12-24-.23-1.7-.74-3.13.56-4.57 2.12-2.3 4.72-1.68 7.5-1.57Z" fill="#000"/></g><g transform="translate(-279 -322)"><path d="M469.99 539.64c9.45-.62 18.37 5.2 25.18 11.18 9.6 8.8 17.31 20.09 23.54 31.49a209.12 209.12 0 0 1 23.56 76.68c.5 4.4 1.53 8.68-2.43 11.86-7.32 3.5-15.84 4.95-23.84 6-15.97 1.39-32.52-.84-48-4.84-2.35-.75-4.52-.89-5.43-3.57a210.22 210.22 0 0 1-17.97-65.91c-1.01-12.34-1.07-24.9 1.8-37.02 1.62-6.56 4.25-13.27 8.72-18.42 3.72-4.3 9.1-7.4 14.87-7.45Z" fill="#000"/><path d="M474.49 545.63c9.4 2.08 17.07 9.35 23.35 16.25-13.95 5.98-30.9 9.6-45.86 5.81 1.27-6.17 3.77-12.91 8.25-17.5 3.6-3.78 9.07-5.9 14.26-4.56Z" fill="#fff"/><path d="M501.86 566.88c12.64 16.83 21.52 36.66 27.44 56.79-6.29 1.3-11.94 3.96-17.5 7.1-11.57 6.75-22.43 15.88-30.04 26.97-2.28 3.53-4.69 6.5-4.54 10.94a170.9 170.9 0 0 0-8.96-2.06c-8.42-17.85-13.97-37.13-16.92-56.63-1.6-12.46-2.48-24.55-.38-37.02 5.4 1.04 10.5 2.3 16.05 1.94 5-.39 10.05-.95 15-1.89 6.89-1.27 13.25-3.89 19.85-6.14Z" fill="#8F2E45"/><path d="M527.55 629.64c1.5-.65 2.4.12 3.76.63 2.74 11.73 5.07 23.5 5.63 35.56-7.95 3.25-16.2 4.63-24.68 5.56-10.48.94-20.25-.66-30.6-1.8a74.98 74.98 0 0 1 17.9-23c8.13-7.1 17.68-13.57 27.99-16.95Z" fill="#EA869E"/></g><g transform="translate(-279 -322)"></g></g></svg>