<svg xmlns="http://www.w3.org/2000/svg" viewBox="0 0 400 400" fill="none" shape-rendering="auto"><metadata xmlns:rdf="http://www.w3.org/1999/02/22-rdf-syntax-ns#" xmlns:xsi="http://www.w3.org/2001/XMLSchema-instance" xmlns:dc="http://purl.org/dc/elements/1.1/" xmlns:dcterms="http://purl.org/dc/terms/"><rdf:RDF><rdf:Description><dc:title>Adventurer Neutral</dc:title><dc:creator>Lisa Wischofsky</dc:creator><dc:source xsi:type="dcterms:URI">https://www.figma.com/community/file/1184595184137881796</dc:source><dcterms:license xsi:type="dcterms:URI">https://creativecommons.org/licenses/by/4.0/</dcterms:license><dc:rights>Remix of „Adventurer Neutral” (https://www.figma.com/community/file/1184595184137881796) by „Lisa Wischofsky”, licensed under „CC BY 4.0” (https://creativecommons.org/licenses/by/4.0/)</dc:rights></rdf:Description></rdf:RDF></metadata><mask id="viewboxMask"><rect width="400" height="400" rx="0" ry="0" x="0" y="0" fill="#fff" /></mask><g mask="url(#viewboxMask)"><rect fill="#f2d3b1" width="400" height="400" x="0" y="0" /><g transform="translate(-279 -322)"><path d="M587.37 431.61a65.1 65.1 0 0 1 27.94 28.7c5.58-3.44 11.26-6.7 16.83-10.18 1.56-.93 3.14-1.94 4.89-2.46 1.93.56 2.77 1.31 2.72 3.44-.47 1.3-1.75 2-2.83 2.76-6.46 3.95-13.07 7.67-19.41 11.81 6.07 14.16 5.97 31.18.8 45.61a65.5 65.5 0 0 1-29.9 35.15 65.13 65.13 0 0 1-43.58 7 65.15 65.15 0 0 1-43.5-29.87 63.26 63.26 0 0 1-9.64-33.57 64.44 64.44 0 0 1 16.82-44.5c9.47-10.43 22.53-17.96 36.46-20.3a65.09 65.09 0 0 1 42.4 6.41Z" fill="#000"/><path d="M549.2 430.27c14.66-1.79 29.3 1.6 41.46 10.02a59.1 59.1 0 0 1 23.46 32.72 59.16 59.16 0 0 1-3.06 40.93c-6.2 13.86-18.05 25.26-32.25 30.69a57.97 57.97 0 0 1-31.8 3.4 59.6 59.6 0 0 1-40.36-26.66 61.47 61.47 0 0 1-9.37-29.35 60.43 60.43 0 0 1 13.41-40.34 59.53 59.53 0 0 1 38.51-21.41Z" fill="#fff"/><path d="M414.7 454.33a54.92 54.92 0 0 1 24.53 30.46c2.68 8.02 3.17 16.86 2.07 25.2a54.85 54.85 0 0 1-61.29 46.3c-15.79-1.8-30.36-10.98-39.03-24.27-5.54-8.33-8.47-18.05-9.1-28-.32-7.07 1.17-13.62 2.92-20.39a238.5 238.5 0 0 1-12.8-8.6c-1.7-1.23-1.84-2.14-1.54-4.17 1.3-1.26 2.74-1.6 4.35-.65 4.2 2.57 8.15 5.53 12.25 8.24 6.7-14.02 19.04-24.86 33.97-29.29a55.12 55.12 0 0 1 43.66 5.17Z" fill="#000"/><path d="M378.2 453.3c18.68-3.52 38.38 4.7 49.14 20.33 7.5 10.77 10.85 24.96 7.88 37.84a48.94 48.94 0 0 1-14.57 26.2A49.55 49.55 0 0 1 391 550.94c-20.13 1.85-40.14-9.82-48.62-28.14a49.3 49.3 0 0 1 35.82-69.5Z" fill="#fff"/><path d="M526.47 467.49c12-2.85 24.87 4.22 29.35 15.63a26.1 26.1 0 0 1-.08 18.72 25.64 25.64 0 0 1-41.14 9.56 25.7 25.7 0 0 1-6.76-27.6 25.54 25.54 0 0 1 18.63-16.31ZM398.22 478.36a23.17 23.17 0 0 1 24.44 11c3.46 5.59 3.67 12.26 2.25 18.53a23.78 23.78 0 0 1-15.87 15.27c-7.51 2.4-16.26.06-21.98-5.24-7.35-6.8-9.5-18-5.05-27a23 23 0 0 1 16.21-12.56Z" fill="#000"/></g><g transform="translate(-279 -322)"><path d="M456.01 380.37c2.26-.07 2.85 1.7 2.65 3.64-.5 4.68-.77 9.78-2.32 14.23-1.33.39-2.66.58-4.03.82-1.12-4.8 0-10.22.7-15.09.37-1.71.78-3.82 3-3.6ZM476.79 386.65c.03 3.21-.36 6.36-.67 9.55 41.69.52 83.32.38 125 .75 2.14.04 3.97.86 5.9 1.64-.6 1.48-.22 3.83-2.24 4.1-8.05 1.3-16.58.5-24.74.87-17.35.62-34.7 1-52.06 1.53-17.03.2-34 1.25-51.05 1.42-3.3.39-6.05-2.72-7.2-5.47.02-4.5 1.02-9.15 2.06-13.5 1.28-2.48 2.83-1.67 5-.9ZM439.84 392.18c-.1 4.87-.05 10.81-2.28 15.24-3.22 1.5-7.12 1.79-10.59 2.47-25.65 4.69-51.32 9.34-76.96 14.08-4.24.69-8.7 2.15-13 2.04-2.62-.48-3.32-3.75-.86-5 3.2-1.42 6.95-1.75 10.33-2.59 29.1-6.7 58.15-13.6 87.24-20.32.4-1.91.8-3.81 1.27-5.7 1.61-.21 3.23-.24 4.85-.23Z" fill="#000"/></g><g transform="translate(-279 -322)"><path d="M476.98 628.88c10.2-.52 20.43 4.48 27.46 11.67 5.06 5.1 8.39 11.32 10.89 18 .52 3.48 2.26 6.4-1.37 8.77-8.33.15-16.63.8-24.96 1-12.3.95-24.72.47-36.92 1.94-1.96-1.87-2.34-3.75-2.6-6.38-.98-8.6 1.23-17.86 6.72-24.66a27.94 27.94 0 0 1 20.78-10.34Z" fill="#000"/><path d="M484.48 635.49c12.63 3.1 22.12 13.94 25.5 26.24-18.27.4-36.53 1.67-54.77 2.21-.7-8.6 1.23-17 7.57-23.16 5.82-5.68 13.94-7.02 21.7-5.29Z" fill="#8F2E45"/></g><g transform="translate(-279 -322)"></g></g></svg>