<svg xmlns="http://www.w3.org/2000/svg" viewBox="0 0 400 400" fill="none" shape-rendering="auto"><metadata xmlns:rdf="http://www.w3.org/1999/02/22-rdf-syntax-ns#" xmlns:xsi="http://www.w3.org/2001/XMLSchema-instance" xmlns:dc="http://purl.org/dc/elements/1.1/" xmlns:dcterms="http://purl.org/dc/terms/"><rdf:RDF><rdf:Description><dc:title>Adventurer Neutral</dc:title><dc:creator>Lisa Wischofsky</dc:creator><dc:source xsi:type="dcterms:URI">https://www.figma.com/community/file/1184595184137881796</dc:source><dcterms:license xsi:type="dcterms:URI">https://creativecommons.org/licenses/by/4.0/</dcterms:license><dc:rights>Remix of „Adventurer Neutral” (https://www.figma.com/community/file/1184595184137881796) by „Lisa Wischofsky”, licensed under „CC BY 4.0” (https://creativecommons.org/licenses/by/4.0/)</dc:rights></rdf:Description></rdf:RDF></metadata><mask id="viewboxMask"><rect width="400" height="400" rx="0" ry="0" x="0" y="0" fill="#fff" /></mask><g mask="url(#viewboxMask)"><rect fill="#ecad80" width="400" height="400" x="0" y="0" /><g transform="translate(-279 -322)"><path d="M550.27 424.38a65.85 65.85 0 0 1 34.46 5.92 65.02 65.02 0 0 1 27.52 24.52 64.86 64.86 0 0 1 8.78 46.18c-2.62 15.25-11.05 29.23-23.03 38.97-16.48 13.6-39.38 18.04-59.8 11.9a65.42 65.42 0 0 1-38.32-30.76c-7.42-12.96-9.7-28.23-7.33-42.9a64.9 64.9 0 0 1 18.4-35.26 65.17 65.17 0 0 1 39.32-18.57Z" fill="#000"/><path d="M549.23 430.27c9.32-.98 18.71-.35 27.55 2.92a59.66 59.66 0 0 1 33.08 28.93c5.89 11.3 7.76 24.3 5.8 36.86a60.18 60.18 0 0 1-17.48 33.21c-9.48 9.35-22.52 15.1-35.7 16.47a59.94 59.94 0 0 1-43.07-13.03c-9.46-7.5-15.92-17.77-19.8-29.11-5.25-18.02-1.63-38.17 9.75-53.13a59.47 59.47 0 0 1 39.88-23.12Z" fill="#fff"/><path d="M521.23 467.28c7.3-1.89 15.52.27 20.87 5.62a22 22 0 0 1 5.6 22.95c-3.5 11.19-16.53 17.96-27.64 14.08-11.45-3.35-18.17-16.1-14.6-27.48a22.37 22.37 0 0 1 15.77-15.17ZM332.97 478.46c14.43.75 28.78 1.53 43.05 3.91 21.13 3.42 42.86 8.97 62.12 18.47 2.85 1.6 2.45 3.3 1.6 6.06-2.42.05-4.41-.24-6.71-1-11.15-3.39-22.56-5.26-34.03-7.17-10.45-1.44-20.56-3.19-31-3.72-10.97-1.1-21.89-.72-32.98-.66-1.97-.1-5.02.62-6.6-.75-.76-2.14.78-4.69 1.32-6.78-.94-1.57-3.08-3.45-2.4-5.43.87-2.4 3.35-2.93 5.63-2.93Z" fill="#000"/></g><g transform="translate(-279 -322)"><path d="M606.99 397.59c1.52-.4 3.26.6 4.74.97-.11 1.2-.17 2.45-.47 3.61-1.58 1.5-3.57 2.6-5.39 3.78-22.77 14.6-46.18 28.4-70.32 40.63-11.53 5.73-23.34 11.3-35.55 15.44-6.86 2.19-13.72 4.28-21 3.44-3.32-.31-6.17-3.02-6.24-6.43-.04-4.22 3-8.6 5.08-12.15 1.28-2.68 4.5-3.04 7-4.12 37.23-13.75 74.43-27.65 111.66-41.45 3.48-1.23 6.9-2.81 10.5-3.72ZM338.99 432.64c29.88 5.94 60.13 12.03 90.02 18.02 2.27.32 4.6.07 6.85.45 2.45 2.3 3.64 6.2 4.54 9.37 1.17 4.09-.15 8.77-3.9 11-4 2.63-9.92 2.17-14.5 1.9-8.75-1-17.42-3.8-25.69-6.74-19.61-7.16-38.69-16.93-56.97-26.97-1.67-.96-3.68-1.94-4.79-3.55-.38-2.88 1.85-4.16 4.44-3.48Z" fill="#000"/></g><g transform="translate(-279 -322)"><path d="M529.13 644.56c2.47.2 4.68 1.43 3.9 4.25-1.38 2.08-4.46 1.3-6.64 1.51-14.9.63-29.68 3.43-43.79 8.28-4.83 1.7-9.55 3.58-13.94 6.24-2 .93-3.37 2.59-5.67 1.42-2.15-1.55-1.16-3.48.08-5.2 8.48-4.96 17.64-8.35 27.08-10.96 12.63-3.36 25.89-5.66 38.98-5.54Z" fill="#000"/></g><g transform="translate(-279 -322)"></g></g></svg>