<svg xmlns="http://www.w3.org/2000/svg" viewBox="0 0 400 400" fill="none" shape-rendering="auto"><metadata xmlns:rdf="http://www.w3.org/1999/02/22-rdf-syntax-ns#" xmlns:xsi="http://www.w3.org/2001/XMLSchema-instance" xmlns:dc="http://purl.org/dc/elements/1.1/" xmlns:dcterms="http://purl.org/dc/terms/"><rdf:RDF><rdf:Description><dc:title>Adventurer Neutral</dc:title><dc:creator>Lisa Wischofsky</dc:creator><dc:source xsi:type="dcterms:URI">https://www.figma.com/community/file/1184595184137881796</dc:source><dcterms:license xsi:type="dcterms:URI">https://creativecommons.org/licenses/by/4.0/</dcterms:license><dc:rights>Remix of „Adventurer Neutral” (https://www.figma.com/community/file/1184595184137881796) by „Lisa Wischofsky”, licensed under „CC BY 4.0” (https://creativecommons.org/licenses/by/4.0/)</dc:rights></rdf:Description></rdf:RDF></metadata><mask id="viewboxMask"><rect width="400" height="400" rx="0" ry="0" x="0" y="0" fill="#fff" /></mask><g mask="url(#viewboxMask)"><rect fill="#f2d3b1" width="400" height="400" x="0" y="0" /><g transform="translate(-279 -322)"><path d="M556 424.07a65.21 65.21 0 0 1 41.05 13.82c18.48 14.28 28.2 38.6 24.23 61.66-.97 7.55-3.9 14.28-6.79 21.23-1.4.65-2.88 1.52-4.42 1.77-2.33.07-4.8-.9-7.04-1.55a178.7 178.7 0 0 0-49.03-7.62c-15.06.4-29.61 2.56-43.09 9.64-3.05 1.28-5.82 4.03-8.96 1.26-8.58-12.42-11.56-28.46-9.81-43.32a65.03 65.03 0 0 1 19.83-39A65.11 65.11 0 0 1 556 424.07Z" fill="#000"/><path d="M557 429.85c13.7-.2 27.1 4.84 37.68 13.45a59.16 59.16 0 0 1 19.44 29.7 59.28 59.28 0 0 1-4.3 43.5c-5.35-.6-10.17-2.64-15.46-3.77-16.05-3.75-32.92-5.8-49.39-4.47a92 92 0 0 0-39.3 11.6c-7.05-12.13-10.2-27-7.45-40.83a59.55 59.55 0 0 1 23.8-38.03c10.11-7.24 22.5-11.37 34.98-11.15Z" fill="#fff"/><path d="M381.31 447.08a55.36 55.36 0 0 1 37.02 9.56 55.02 55.02 0 0 1 22.82 35.91c1.2 8.25.97 17.09-1.57 25.09a54.9 54.9 0 0 1-30.47 34.5 55.24 55.24 0 0 1-41.44 1.17 54.92 54.92 0 0 1-27.48-22.52c-5.05-8.05-7.68-17.27-8.31-26.7-.33-12.57 3.39-25.15 11-35.22a55.1 55.1 0 0 1 38.43-21.8Z" fill="#000"/><path d="M376.49 453.67c18.14-4.16 37.8 3.04 49.17 17.7 8.7 11.04 12.73 26.33 9.55 40.13a48.84 48.84 0 0 1-14.55 26.16 49.53 49.53 0 0 1-29.63 13.27c-19.64 1.82-39.23-9.24-48.03-26.86a49.25 49.25 0 0 1 33.5-70.4Z" fill="#fff"/><path d="M519.39 474.75c8.57-2.25 17.85 3.55 19.35 12.31 1.85 8.26-3.88 16.87-12.14 18.52-9.15 2.3-18.91-5.05-19.05-14.53-.72-7.5 4.64-14.5 11.84-16.3ZM403.4 485.62c6.37-2.18 13.28.5 17.27 5.7 4.54 5.94 4.18 14.91-1.03 20.32-5.02 5.79-14.5 6.76-20.65 2.39a15.82 15.82 0 0 1-6.92-13c-.26-6.95 4.69-13.5 11.33-15.4Z" fill="#000"/></g><g transform="translate(-279 -322)"><path d="M568.44 405.96c-.6-2.92-2.48-4.87-4.6-6.82-11.98-10.95-29.88-15.87-45.64-11.58-9.72 2.4-18.51 8.36-23.63 17.06-2.83 5.03-4.78 10.54-3.98 16.4.08.42.13.83.18 1.23.2 1.63.37 3 2.44 3.54 2.17.12 4.4-.29 6.54-.68l.31-.06 6.22-1.2c5.24-1 10.48-2 15.68-3.19a640.08 640.08 0 0 0 44.88-11.08c1.77-.25 1.7-1.62 1.63-3.02l-.03-.6ZM430.1 431.05c-.81-9.8-8.9-17.41-17.88-20.31a39.68 39.68 0 0 0-38.34 9.13c-4.45 4.18-8.39 9.97-9.12 16.14-.08 2.74 2.36 2.78 4.44 2.82.26 0 .52 0 .77.02 3.02-.08 6.05-.14 9.07-.2 9.34-.17 18.7-.35 27.98-1.3 2.4-.21 4.83-.38 7.24-.54 4.26-.3 8.52-.58 12.74-1.14 2.42.03 3.28-2.6 3.1-4.62Z" fill="#000"/></g><g transform="translate(-279 -322)"><path d="M462.23 552.76c5.89 1.34 11.98 4.52 15.69 9.38 1.25 2.25.03 5-2.77 4.63-2.26-1.24-3.96-3.38-6.13-4.8-4.31-2.87-9.86-4.48-15.03-3.68-2.57.45-5.36 1.6-6.83 3.86-1.53 2.1-1.3 4.76-.4 7.05 1.72 4.45 6 7.88 10.25 9.74 2.3 1.06 5.25 1.28 7.3 2.75 1.68 1.8.57 4.36-1.74 4.78-4.61 1.03-8.66 2.66-11.62 6.5-5.5 6.69-4.73 16.7 1.35 22.75 6.13 6.67 17.2 7.5 24.26 1.85 2.43-1.87 3.59-4.35 5.54-6.58 2.97-1.44 5.07 1.04 3.97 3.9-4.62 9.78-16.97 14.5-27.13 11.4a23.97 23.97 0 0 1-17.26-19.26c-1.55-9.44 3.19-18.64 11.31-23.48-5.73-2.95-10.81-7.86-12.37-14.28-1.54-5.3.8-11.27 5.45-14.2 4.69-3.25 10.76-3.16 16.16-2.31Z" fill="#000"/></g><g transform="translate(-279 -322)"></g></g></svg>