<svg xmlns="http://www.w3.org/2000/svg" viewBox="0 0 400 400" fill="none" shape-rendering="auto"><metadata xmlns:rdf="http://www.w3.org/1999/02/22-rdf-syntax-ns#" xmlns:xsi="http://www.w3.org/2001/XMLSchema-instance" xmlns:dc="http://purl.org/dc/elements/1.1/" xmlns:dcterms="http://purl.org/dc/terms/"><rdf:RDF><rdf:Description><dc:title>Adventurer Neutral</dc:title><dc:creator>Lisa Wischofsky</dc:creator><dc:source xsi:type="dcterms:URI">https://www.figma.com/community/file/1184595184137881796</dc:source><dcterms:license xsi:type="dcterms:URI">https://creativecommons.org/licenses/by/4.0/</dcterms:license><dc:rights>Remix of „Adventurer Neutral” (https://www.figma.com/community/file/1184595184137881796) by „Lisa Wischofsky”, licensed under „CC BY 4.0” (https://creativecommons.org/licenses/by/4.0/)</dc:rights></rdf:Description></rdf:RDF></metadata><mask id="viewboxMask"><rect width="400" height="400" rx="0" ry="0" x="0" y="0" fill="#fff" /></mask><g mask="url(#viewboxMask)"><rect fill="#763900" width="400" height="400" x="0" y="0" /><g transform="translate(-279 -322)"><path d="M556 424.07a65.21 65.21 0 0 1 41.05 13.82c18.48 14.28 28.2 38.6 24.23 61.66-.97 7.55-3.9 14.28-6.79 21.23-1.4.65-2.88 1.52-4.42 1.77-2.33.07-4.8-.9-7.04-1.55a178.7 178.7 0 0 0-49.03-7.62c-15.06.4-29.61 2.56-43.09 9.64-3.05 1.28-5.82 4.03-8.96 1.26-8.58-12.42-11.56-28.46-9.81-43.32a65.03 65.03 0 0 1 19.83-39A65.11 65.11 0 0 1 556 424.07Z" fill="#000"/><path d="M557 429.85c13.7-.2 27.1 4.84 37.68 13.45a59.16 59.16 0 0 1 19.44 29.7 59.28 59.28 0 0 1-4.3 43.5c-5.35-.6-10.17-2.64-15.46-3.77-16.05-3.75-32.92-5.8-49.39-4.47a92 92 0 0 0-39.3 11.6c-7.05-12.13-10.2-27-7.45-40.83a59.55 59.55 0 0 1 23.8-38.03c10.11-7.24 22.5-11.37 34.98-11.15Z" fill="#fff"/><path d="M381.31 447.08a55.36 55.36 0 0 1 37.02 9.56 55.02 55.02 0 0 1 22.82 35.91c1.2 8.25.97 17.09-1.57 25.09a54.9 54.9 0 0 1-30.47 34.5 55.24 55.24 0 0 1-41.44 1.17 54.92 54.92 0 0 1-27.48-22.52c-5.05-8.05-7.68-17.27-8.31-26.7-.33-12.57 3.39-25.15 11-35.22a55.1 55.1 0 0 1 38.43-21.8Z" fill="#000"/><path d="M376.49 453.67c18.14-4.16 37.8 3.04 49.17 17.7 8.7 11.04 12.73 26.33 9.55 40.13a48.84 48.84 0 0 1-14.55 26.16 49.53 49.53 0 0 1-29.63 13.27c-19.64 1.82-39.23-9.24-48.03-26.86a49.25 49.25 0 0 1 33.5-70.4Z" fill="#fff"/><path d="M519.39 474.75c8.57-2.25 17.85 3.55 19.35 12.31 1.85 8.26-3.88 16.87-12.14 18.52-9.15 2.3-18.91-5.05-19.05-14.53-.72-7.5 4.64-14.5 11.84-16.3ZM403.4 485.62c6.37-2.18 13.28.5 17.27 5.7 4.54 5.94 4.18 14.91-1.03 20.32-5.02 5.79-14.5 6.76-20.65 2.39a15.82 15.82 0 0 1-6.92-13c-.26-6.95 4.69-13.5 11.33-15.4Z" fill="#000"/></g><g transform="translate(-279 -322)"><path d="M501.99 384.96c9.9.12 19.87 3.23 28.83 7.31 3.36 1.88 7.05 4 7.3 8.3-5.13-.87-10.13-2.07-15.37-2.3-11.6-.67-23.13 1.37-33.25 7.24-2.54 1.41-4.95 3.26-7.64 4.35-1.8.27-3.92-2-3.94-3.73-.18-5.81 1.95-11.92 6.53-15.7 5.03-4.23 11.15-5.3 17.54-5.47ZM414.03 402.61c5.81.15 10.93 5.3 12.51 10.64.8 2.63-.46 5.72-3.53 5.61-8.82.2-18.2.03-26.81 2.26-7.52 2-14.74 6.7-21.36 10.74-1.22.81-2.57.96-3.98 1.22.33-1.93.64-3.66 1.94-5.2a97.47 97.47 0 0 1 10.74-12.31c5.88-5.17 13-8.96 20.32-11.66a25.26 25.26 0 0 1 10.17-1.29Z" fill="#000"/></g><g transform="translate(-279 -322)"><path d="M517.87 557.3c2.33.2 3.18 2.72 2.32 4.67-1.4 3.57-3.16 7-4.64 10.53-8.44 19.32-19.56 37.08-31.84 54.17-1.4 1.83-2.87 3.96-4.81 5.27-2.97.78-6.1.75-8.65-1.18a129.37 129.37 0 0 1-24.3-22.74c-7.03-7.83-13.5-16.1-18.86-25.17-1.05-2.12-2.54-4.48-1.19-6.81 1-1.56 3.22-2 4.86-2.55 11.13-3.1 22.19-6.48 33.39-9.29a235.06 235.06 0 0 1 35.86-5.71c5.9-.54 11.94-1.42 17.86-1.2Z" fill="#000"/><path d="M513.81 563.01c-8.96 21.23-21 40.76-34.34 59.5-.92 1.13-2.13 2.82-3.66 3.08-2.18.55-3.7-.86-5.38-2-8.5-6.52-15.77-14.18-22.74-22.27a137.4 137.4 0 0 1-16.59-22.31c14.95-4 29.9-8.63 45.12-11.4 12.45-2.5 25-3.27 37.59-4.6Z" fill="#8F2E45"/></g><g transform="translate(-279 -322)"></g></g></svg>