<svg xmlns="http://www.w3.org/2000/svg" viewBox="0 0 16 16" fill="none" shape-rendering="crispEdges"><metadata xmlns:rdf="http://www.w3.org/1999/02/22-rdf-syntax-ns#" xmlns:xsi="http://www.w3.org/2001/XMLSchema-instance" xmlns:dc="http://purl.org/dc/elements/1.1/" xmlns:dcterms="http://purl.org/dc/terms/"><rdf:RDF><rdf:Description><dc:title>Pixel Art</dc:title><dc:creator>DiceBear</dc:creator><dc:source xsi:type="dcterms:URI">https://www.figma.com/community/file/1198754108850888330</dc:source><dcterms:license xsi:type="dcterms:URI">https://creativecommons.org/publicdomain/zero/1.0/</dcterms:license><dc:rights>„Pixel Art” (https://www.figma.com/community/file/1198754108850888330) by „DiceBear”, licensed under „CC0 1.0” (https://creativecommons.org/publicdomain/zero/1.0/)</dc:rights></rdf:Description></rdf:RDF></metadata><mask id="viewboxMask"><rect width="16" height="16" rx="0" ry="0" x="0" y="0" fill="#fff" /></mask><g mask="url(#viewboxMask)"><path d="M4 2h8v1h1v3h1v2h-1v3h-1v1H9v1h4v1h1v2H2v-2h1v-1h4v-1H4v-1H3V8H2V6h1V3h1V2Z" fill="#ffdbac"/><path d="M4 2h8v1h1v3h1v2h-1v3h-1v1H4v-1H3V8H2V6h1V3h1V2Z" fill="#fff" fill-opacity=".1"/><path d="M6 13H4v3h2v-3ZM12 13h-2v3h2v-3Z" fill="#ffc425"/><path fill="#fff" fill-opacity=".2" d="M5 13h1v3H5zM10 13h1v3h-1z"/><path d="M10 5h1v2H9V6h1V5ZM5 5h1v2H4V6h1V5Z" fill="#fff"/><path fill="#5b7c8b" d="M11 6h-1v1h1zM6 6H5v1h1z"/><path d="M7 11h2v-1H7v1ZM7 10V9H6v1h1ZM9 10V9h1v1H9Z" fill="#de0f0d"/><path d="M9 1H8v3h1zM8 2H7v2h1zM10 0H9v3h1zM11 1h-1v1h1z" fill="#91cb15"/><path d="M12 1H4v1H3v2h12V3h-2V2h-1V1Z" fill="#3d8a6b"/><path fill="#fff" fill-opacity=".3" d="M11 4h-1V1h1z"/></g></svg>