<svg xmlns="http://www.w3.org/2000/svg" viewBox="0 0 16 16" fill="none" shape-rendering="crispEdges"><metadata xmlns:rdf="http://www.w3.org/1999/02/22-rdf-syntax-ns#" xmlns:xsi="http://www.w3.org/2001/XMLSchema-instance" xmlns:dc="http://purl.org/dc/elements/1.1/" xmlns:dcterms="http://purl.org/dc/terms/"><rdf:RDF><rdf:Description><dc:title>Pixel Art</dc:title><dc:creator>DiceBear</dc:creator><dc:source xsi:type="dcterms:URI">https://www.figma.com/community/file/1198754108850888330</dc:source><dcterms:license xsi:type="dcterms:URI">https://creativecommons.org/publicdomain/zero/1.0/</dcterms:license><dc:rights>„Pixel Art” (https://www.figma.com/community/file/1198754108850888330) by „DiceBear”, licensed under „CC0 1.0” (https://creativecommons.org/publicdomain/zero/1.0/)</dc:rights></rdf:Description></rdf:RDF></metadata><mask id="viewboxMask"><rect width="16" height="16" rx="0" ry="0" x="0" y="0" fill="#fff" /></mask><g mask="url(#viewboxMask)"><path d="M4 2h8v1h1v3h1v2h-1v3h-1v1H9v1h4v1h1v2H2v-2h1v-1h4v-1H4v-1H3V8H2V6h1V3h1V2Z" fill="#b68655"/><path d="M4 2h8v1h1v3h1v2h-1v3h-1v1H4v-1H3V8H2V6h1V3h1V2Z" fill="#fff" fill-opacity=".1"/><path d="M4 13h1v1h6v-1h1v3H4v-3Z" fill="#d11141"/><path fill="#fff" fill-opacity=".3" d="M9 15h2v1H9z"/><path fill="#fff" d="M4 5h3v3H4zM9 5h3v3H9z"/><path fill="#588387" d="M4 6h2v1H4zM9 6h2v1H9z"/><path fill="#fff" fill-opacity=".7" d="M4 6h1v1H4zM9 6h1v1H9z"/><path fill="#000" fill-opacity=".3" d="M4 5h3v3H4zM9 5h3v3H9z"/><path fill="#43677d" d="M3 5h1v1H3zM7 5h2v1H7zM12 5h1v1h-1z"/><mask id="beardVariant01-a" style="mask-type:luminance" maskUnits="userSpaceOnUse" x="3" y="8" width="10" height="4"><path opacity=".9" d="M3 8h2v1h1v1h4V9h1V8h2v3h-1v1H4v-1H3V8Z" fill="#611c17"/></mask><g mask="url(#beardVariant01-a)"><path fill="#611c17" d="M0 0h16v16H0z"/><path fill="#fff" fill-opacity=".3" d="M0 0h16v16H0z"/></g><path d="M6 10v1h1v-1h3V9H7v1H6Z" fill="#e35d6a"/><path d="M4 1h8v1h1v1h1v3h-1V4h-1V3H6v1H3v2H2V3h1V2h1V1ZM2 8h1v3h1v1h3v1H2V8ZM12 12H9v1h5V8h-1v3h-1v1Z" fill="#611c17"/></g></svg>