<svg xmlns="http://www.w3.org/2000/svg" viewBox="0 0 16 16" fill="none" shape-rendering="crispEdges"><metadata xmlns:rdf="http://www.w3.org/1999/02/22-rdf-syntax-ns#" xmlns:xsi="http://www.w3.org/2001/XMLSchema-instance" xmlns:dc="http://purl.org/dc/elements/1.1/" xmlns:dcterms="http://purl.org/dc/terms/"><rdf:RDF><rdf:Description><dc:title>Pixel Art</dc:title><dc:creator>DiceBear</dc:creator><dc:source xsi:type="dcterms:URI">https://www.figma.com/community/file/1198754108850888330</dc:source><dcterms:license xsi:type="dcterms:URI">https://creativecommons.org/publicdomain/zero/1.0/</dcterms:license><dc:rights>„Pixel Art” (https://www.figma.com/community/file/1198754108850888330) by „DiceBear”, licensed under „CC0 1.0” (https://creativecommons.org/publicdomain/zero/1.0/)</dc:rights></rdf:Description></rdf:RDF></metadata><mask id="viewboxMask"><rect width="16" height="16" rx="0" ry="0" x="0" y="0" fill="#fff" /></mask><g mask="url(#viewboxMask)"><path d="M4 2h8v1h1v3h1v2h-1v3h-1v1H9v1h4v1h1v2H2v-2h1v-1h4v-1H4v-1H3V8H2V6h1V3h1V2Z" fill="#cb9e6e"/><path d="M4 2h8v1h1v3h1v2h-1v3h-1v1H4v-1H3V8H2V6h1V3h1V2Z" fill="#fff" fill-opacity=".1"/><path d="M5 13H3v1H2v2h12v-2h-1v-1h-2v1H5v-1Z" fill="#ae0001"/><path fill="#fff" d="M4 5h3v2H4z"/><path fill="#588387" d="M5 6h1v1H5z"/><path fill="#fff" d="M9 5h3v2H9z"/><path fill="#588387" d="M10 6h1v1h-1z"/><path fill-rule="evenodd" clip-rule="evenodd" d="M12 4H9v1H7V4H4v1H2v1h1v2h1v1h3V8h2v1h3V8h1V6h1V5h-2V4Zm0 1v3H9V5h3ZM7 8H4V5h3v3Z" fill="#191919"/><path fill="#fff" fill-opacity=".3" d="M9 5h3v3H9zM4 5h3v3H4z"/><path fill="#fff" fill-opacity=".2" d="M2 5h1v1H2zM13 5h1v1h-1z"/><path d="M7 9h2v1H7V9Z" fill="#c98276"/><path d="M13 2H3v1H2v3h1V4h10v2h1V3h-1V2ZM2 8h1v2H2v1H1V9h1V8ZM1 11v1H0v-1h1ZM16 11h-1V9h-1V8h-1v2h1v1h1v1h1v-1Z" fill="#a78961"/><path d="M12 0H4v2H2v3h12V2h-2V0Z" fill="#2663a3"/><path fill="#fff" fill-opacity=".3" d="M10 2h1v3h-1zM8 3h1v2H8z"/></g></svg>