<svg xmlns="http://www.w3.org/2000/svg" viewBox="0 0 762 762" fill="none" shape-rendering="auto"><metadata xmlns:rdf="http://www.w3.org/1999/02/22-rdf-syntax-ns#" xmlns:xsi="http://www.w3.org/2001/XMLSchema-instance" xmlns:dc="http://purl.org/dc/elements/1.1/" xmlns:dcterms="http://purl.org/dc/terms/"><rdf:RDF><rdf:Description><dc:title>Adventurer</dc:title><dc:creator>Lisa Wischofsky</dc:creator><dc:source xsi:type="dcterms:URI">https://www.figma.com/community/file/1184595184137881796</dc:source><dcterms:license xsi:type="dcterms:URI">https://creativecommons.org/licenses/by/4.0/</dcterms:license><dc:rights>Remix of „Adventurer” (https://www.figma.com/community/file/1184595184137881796) by „Lisa Wischofsky”, licensed under „CC BY 4.0” (https://creativecommons.org/licenses/by/4.0/)</dc:rights></rdf:Description></rdf:RDF></metadata><mask id="viewboxMask"><rect width="762" height="762" rx="0" ry="0" x="0" y="0" fill="#fff" /></mask><g mask="url(#viewboxMask)"><path d="M396 164.8a224.8 224.8 0 0 1 104.8 42.4c6.2 4.9 12.5 9.4 18 15a225.4 225.4 0 0 1 71.8 149 58.5 58.5 0 0 1 50.9 42.2 71 71 0 0 1-27.6 76.5c-11 7.7-24.5 12-38 11.7-5 0-10-1.6-15-1.8-1.9 2.2-3.3 4.9-4.8 7.3A223.3 223.3 0 0 1 389 609.8c-11 .7-21.9 2-33 .7a223.7 223.7 0 0 1-178.8-342.3A223.4 223.4 0 0 1 352 163.5c14.6-1.4 29.4-.3 44 1.3Z" fill="#000"/><path fill-rule="evenodd" clip-rule="evenodd" d="M498.8 213.2A216 216 0 0 0 363 169c-13-.2-26.2 1.6-39 4a218 218 0 0 0-113.6 365.5 218.5 218.5 0 0 0 260.4 40.2c35-18.8 64.2-47.3 84.4-81.5l-3-1.6c-2.8-1.4-5.7-3-8-5-2.2-2-.3-5.8 2.7-4.7 1.5.7 3 1.6 4.4 2.4a55 55 0 0 0 59.6-3.6 64.5 64.5 0 0 0 25-69.8 53.1 53.1 0 0 0-24-31 52.6 52.6 0 0 0-47-2.8c-1.6.8-3.4 1.5-5 1.3-2.5-.2-2.8-4.2-.6-5.2 8-4 16.5-5.6 25.4-6.4a217 217 0 0 0-72-146.4c-4.4-4-8.7-8.1-13.9-11.3Zm107.6 196.2c2-1.2 1.3-5.1-1.4-5-2 0-4.2.8-6.2 1.6l-1.4.4a95.1 95.1 0 0 0-25.5 12.4c-2.2 2-2.2 4.4.1 6.2a92 92 0 0 0 5.2 2.8 36 36 0 0 1 13 9.2c-.2 1.9-2 3.4-3.4 4.5l-.2.2c-3.9 3-8.8 5-13.6 7-2.5 1-4.9 2-7.1 3.1-1.7.8-2.6 2.2-1.6 3.9 1 2 3.2 1.1 5 .5l.6-.2 5.4-2.3c5.4-2.3 11-4.5 15.4-8 2.7-2.1 5.1-5.1 5.4-8.7-.5-3.4-2.7-5.7-5.3-7.8a83 83 0 0 0-11.6-7.2l-1.1-.6c5.4-3 10.8-5.6 16.6-7.7l5-1.7a52 52 0 0 0 6.7-2.6Z" fill="#ecad80"/><g transform="translate(-161 -83)"><path d="M555 424a65.3 65.3 0 0 1 66.3 75.5c-1 7.6-4 14.4-6.8 21.4-1.5.6-3 1.2-4.4 1.6-3.2 0-6.4-1.4-9.4-2.2a176.2 176.2 0 0 0-47.7-7 97.3 97.3 0 0 0-39.3 8.4c-2.9 1.3-5.7 3-8.6 3.9-3.6-.3-4.4-3.2-6-5.8A65.9 65.9 0 0 1 512 442c11.6-11 27-17.5 43-18Z" fill="#000"/><path d="M557 429.9a58.8 58.8 0 0 1 57.1 43.1 59.9 59.9 0 0 1-4.2 43.5c-6.2-.9-11.9-3-18-4.3a156.5 156.5 0 0 0-51.4-3.5 91.3 91.3 0 0 0-34.8 11.2 59.9 59.9 0 0 1 9.8-73.4 59.1 59.1 0 0 1 41.5-16.6Z" fill="#fff"/><path d="M381.2 447a55.4 55.4 0 0 1 60 45.4 55 55 0 1 1-59.9-45.4Z" fill="#000"/><path d="M376.5 453.7A49.6 49.6 0 0 1 436 506a49.9 49.9 0 0 1-45.1 45 49.3 49.3 0 0 1-14.5-97.3Z" fill="#fff"/><path d="M519.4 474.7a15.9 15.9 0 1 1 7.1 30.9c-9.2 2.2-18.8-5-19-14.6a15.7 15.7 0 0 1 12-16.3ZM403.4 485.6c9.6-3.2 20 4.4 20.4 14.3.8 8.9-6.9 17.1-15.8 16.8-8.6.4-16-7.1-16-15.7-.2-7 4.8-13.5 11.4-15.4ZM598.8 532.7l3.2 1c-.5 1.7-.3 3.3-1.7 4.5A39.8 39.8 0 0 1 575 548c-3.8-.1-8.6-1-11.5-3.8l-.4-3.6 2.8-1c4.5 2.2 9 3.5 14.1 2.3 7.5-1.3 12.6-5.5 18.8-9.3ZM347 547.8c2.3-.5 4 1.4 5.6 2.6a52.7 52.7 0 0 0 33.4 11.4c5.8.1 10.9-2.2 16.7-1.3-.5 2.4 0 4.4-3 5a58 58 0 0 1-52.8-12.4c-1.8-1.4-2.2-4.4.2-5.3Z" fill="#000"/></g><g transform="translate(-161 -83)"><path d="M517 379.7c1-1 2.2-2.3 1.8-3.6-.3-2.5-3.5-3.1-5.2-1.5l-8.3 7.4-6.5 5.8-3 2.7a44.3 44.3 0 0 0-7.4 7.5l.9 1c.7 1 1.4 1.8 2.7 1.8 1.5 0 2.7-1.1 3.8-2l.4-.4c4.3-4 8.7-8 13.1-11.8l7.6-6.8.2-.1ZM539.7 378.7c.5-1.8-.2-3-1.6-4-2-.4-3.9.7-5.6 1.7l-1.3.8-13.4 7.7-14.4 8.4c-1.6.9-1.7 2-1.7 3.4v1.5l1.2.3c1.2.4 2.3.8 3.6 0l15.1-8.6a959.6 959.6 0 0 1 14.4-8.3 10 10 0 0 0 3.7-3ZM566.4 378.4c2-.7 4.2.2 4.4 2.6 0 2.3-1.7 2.9-3.5 3.5l-.8.3a5914.4 5914.4 0 0 0-37.6 11.6c-1.3.4-2.6.8-4 0-1.8-1.2-1.7-4.2.4-5.1 1.8-.9 3.7-1.4 5.7-2l2.6-.8 11.5-3.5 21.3-6.6ZM589.4 390.4c1-1.7.6-3-.5-4.5-2.2-.7-4.9 0-7.4.5l-2.5.5-8.5 1.7-12.4 2.5c-2 .5-3.7 1.7-3.1 3.9.6 2 2 2.4 4 2.1l12-2.3 11.5-2.3c.5 0 .9-.2 1.3-.3 2-.3 4-.7 5.6-1.8ZM405.8 394.7a231.8 231.8 0 0 0 8 5v.1c1.8 1 3.5 2.1 5 3.4 1.8 1.4 1.3 4.3-.8 5-1.8.3-3-.4-4.4-1.3l-1-.6a1584 1584 0 0 0-12.9-8.2l-4.2-2.7-.3-.2-.4-.3c-1-.7-2.4-1.6-2.4-2.9-.3-2.4 2.2-4 4.4-2.9 3 1.7 6 3.7 9 5.6ZM384 395.5c-2-.6-4-1.3-6-1.7-2.5-.5-4.1 2-3.3 4.3a8.7 8.7 0 0 0 4 2.2l.5.2h.3l12 4 12.5 3.9c2.4.8 4.8.6 5.3-2.4-.2-2.1-2-2.8-3.7-3.5h-.1l-.3-.1-.5-.2-18.2-5.8-2.6-.9ZM587.1 395.3l10.4-.3c2.5 0 5 0 7.5-.2h1.3c1.7 0 3.6 0 4.4 1.6 1.2 1.7-.3 3.7-2 4.2-3 .6-6.1.6-9.2.5H596l-3 .1a80 80 0 0 1-5 0c-1.3 0-3.2-.3-3.5-1.6a3 3 0 0 1 2.6-4.3ZM360.3 402.9c-2-.1-4.2-.2-6.1.3-1.5 1.2-1.5 3.4-.1 4.8 1.6.7 3.6.8 5.4 1h.5l10.3.6 11.7.7 2.6.1c1.8.2 3.7.4 5.4 0 2-.6 2.6-3.1 1.2-4.6-.9-1-2-1-3-1.1l-1.2-.1-12.5-.9-12.5-.8h-1.7ZM349 411.6l4.5-.3c4.1-.3 8.4-.7 12.5-.4 3 .2 3.1 4.7.3 5.4-3 .7-6 .9-9 1-1.8 0-3.6 0-5.3.3l-3.6.2c-2.4.2-5 .5-7.3.1-2.5-.4-2.8-4.4-.5-5.3a19 19 0 0 1 5.7-.8c1 0 1.8 0 2.7-.2ZM345.5 425.4c3-1 2.8-5.3-.5-5.7-2.8 0-5.7.6-8.5 1l-4 .8-2.6.4c-2.2.2-4.8.6-6 2.1-1.2 2.4.5 4.6 3 4.4 6.2-.7 12.6-1.7 18.6-3Z" fill="#000"/></g><g transform="translate(-161 -83)"><path d="M519 572.7c12.3.2 24.5 2 36 6.5a92.6 92.6 0 0 1 43.8 35c1.2 1.5.8 3.5 1 5.4-7.3.5-14.5 0-21.7.7.1 7.4 0 14.4-3.8 21-2.1 3.8-5.6 7.2-10.3 7.2-4.5 0-8.2-3.5-10.4-7.1a44.2 44.2 0 0 1-4.4-21c-25.4 0-50.8.2-76.2.4-7.4-.3-14.6.6-22 .4-7.5-.2-14.2.8-21.5-.8 0-1.6-.5-4 .6-5.3a123.3 123.3 0 0 1 88.9-42.4Z" fill="#000"/><path d="M509 579.5c7-.6 14-.5 21 0a89 89 0 0 1 48.7 20.8c-11.3.4-22.5.6-33.7.6-31 1.1-62 .8-93 1.8 6.2-4.2 12.2-8.4 18.9-11.7 11.9-6 24.8-10 38-11.5Z" fill="#8F2E45"/><path d="M569 606.4c5.2 0 10.6-.6 15.7 0 2.4 2 4.3 4.8 6.3 7.1-5.9.6-11.9 0-17.7.8-1.2 7.1-.3 16.6-3.6 23.4-1.2 2.7-3.3 4-5.7 5.6-2.3-1.6-4.5-3-5.7-5.6-3.4-6.8-3.3-15.7-4-23.2-5.8-.5-11.5 0-17.3-.1-32.8.2-65.6.2-98.4.5 2.2-2 4.6-5.6 7.5-6.2 18-.8 36-.3 54-1.1 11-.5 22-.1 33-.6 12-.3 24-.1 36-.6Z" fill="#6FA942"/></g><g transform="translate(-161 -83)"></g><g transform="translate(-161 -83)"><path fill-rule="evenodd" clip-rule="evenodd" d="M531.3 506.7a27.9 27.9 0 1 1-42.8 24.6c-8.6-10.1-25.5-13.9-36.5-5.2-3.2 3-6.6 7.3-6.7 11.9a27.5 27.5 0 0 1-52.9 5.6 27.6 27.6 0 0 1 10.5-32.7 28 28 0 0 1 25.7-2.5 28.6 28.6 0 0 1 16 17.4 27.2 27.2 0 0 1 22.4-10c8.2-.1 15.4 3.2 22 8a28 28 0 0 1 42.3-17Zm-22.6 2.4a22.4 22.4 0 0 1 29.9 23c-.6 9.9-8.4 18.2-18.1 20.2a22.6 22.6 0 0 1-25.9-16.3c-3-11.1 3.2-23 14-26.9ZM438 525a22 22 0 0 0-23-12.8 22 22 0 0 0-12.6 37.3c6.1 6 15.8 8.1 23.7 4.9 6.8-2.7 12.2-9 13.4-16.3.5-4.6.7-9-1.5-13.1Z" fill="#000"/></g><g transform="translate(-161 -83)"><path d="M659.4 36.4c1.9-.6 3.6-1.2 5.6-.6l2.4 3c-3.4 5-6 10.5-8.7 16a180.5 180.5 0 0 0-19.5 82.3 383.4 383.4 0 0 1 105 5.6c2 .4 3.5 1 3.7 3.3.1 3-2.8 3.5-5 5a177.5 177.5 0 0 0-30.9 25 201.2 201.2 0 0 0-36.5 51.2c30 5.2 59 20 83.1 38.2 2 1.5 4.5 3.2 5.7 5.5-.5 4.2-4.6 4.3-7.7 5.7a254.4 254.4 0 0 0-54 27.4c12.8 8 25 17 36.2 27.2 1.7 1.7 3.6 3 3 5.7-.1 1.8-2.9 2.9-4.3 3.6-7.8 3.4-15.8 6.4-23.8 9.1-2.3.8-3.3 0-4.5-1.9a194.1 194.1 0 0 0-39.8-44 215.2 215.2 0 0 0-39.3-26.8c-2.6-1.3-5-2.6-8-2.5-5.7 0-11.4.2-17.1.5-32 2.5-63.6 10.3-93 23.2-15.6 6.9-31.3 15.5-44.4 26.5-2 1.6-4 4.1-6.6 5-5.8-1-11.5-3.4-17-5.5-18.8-7-35.1-19.9-49-34.1-11-11-20.3-23.3-28.7-36.3-6.2-9.5-12-19.1-16.4-29.6-1.4-3.2-3.2-6.6-3.7-10.1 0-1.3 1.2-3.6 2.8-3.2 3 1 6 2.9 9 4.2 5.9 2.9 12.1 4.7 18.5 6.3 12 3.4 24.6 5.8 36.9 8.3-1.2-7.7-1.2-15.4-.8-23.2a202 202 0 0 1 15.3-63.4 230 230 0 0 1 24.3-44.8 212.6 212.6 0 0 1 36.6-41.5c2.6-1.9 5.4-4.4 8.7-2.2 2.2 1 1.1 3.7 1 5.5-3.7 17-.4 34.6 4.3 51.2 2.6 9.3 6.7 17.9 11 26.5 3.5-4.7 7.4-9.1 11.5-13.3A420 420 0 0 1 595.1 69a344.4 344.4 0 0 1 64.3-32.7Z" fill="#000"/><path d="M658.7 42.9a192.5 192.5 0 0 0-25.1 81.1c-.2 5.4 0 10.9-.1 16.3 1 .8 2 2.5 3.5 2.5 6.3-.5 12.6-1.5 19-1.5 11.3 0 22.5-.3 33.8.7 16.3.4 32.3 2.8 48.4 5.6a202 202 0 0 0-38.6 33A234.2 234.2 0 0 0 670 225c-.8 1.7-2.1 3.8-1 5.8 1 1.2 2.5 1.1 4 1.4 6 .8 12 2.3 17.8 4.1a213.3 213.3 0 0 1 65.5 34.6 250.2 250.2 0 0 0-55.9 27.4c-2.3 1.8-7.8 4-5.6 7.7 3.2 2 6.6 3.3 9.6 5.5 10.6 7.1 21 15 30.3 23.8-7 3-14 5.6-21.2 8.2a201.2 201.2 0 0 0-36.2-40.9 218.3 218.3 0 0 0-48.8-33c-2-1-4.2-1.1-6.5-1.1-37.5 0-75 8.4-109.5 22.9-19 8.2-37 18.2-52.6 32A119.3 119.3 0 0 1 411 297a204 204 0 0 1-32.4-35.6c-9.3-13.5-18.3-26.5-24.8-41.7 18.1 8 38.8 11.3 58.2 15 2.6 0 6.4 1.9 7.4-1.5-.1-2.8-.8-5.5-1.1-8.2-1.4-9.7 0-20.3 1-30a225.9 225.9 0 0 1 38.3-94.5C467.8 86 479 72.5 492.7 61c-1.4 8.9-1.3 18-.6 27 2 16.2 6.5 32.3 13.8 47 1.8 3.2 3.1 6.9 5.4 9.7 1 1.3 3.5 1.7 4.4 0 5.2-8.9 12.8-15.6 20.2-22.8A455.5 455.5 0 0 1 598 74c19.3-12 39.5-23.2 60.7-31.2Z" fill="#562306"/></g><g transform="translate(-161 -83)"><path d="M738 561c3.1-.8 8.3 1 7.2 5-.8 2.7-4.5 1.2-6.4 1.2-3.8 5.9-4 13.1-1.5 19.5.7 1.7 2.3 3 3.5 4.4 2-2.9 3-6 4-9.3.8-2 3.7-2 4.8-.4 1 1.2.5 3.2.3 4.6-.8 3.5-2.5 7.4-5.5 9.3a7.7 7.7 0 0 1-10-1.7c-4.7-5.3-5.2-13.8-4.4-20.5.7-4.7 3.1-10.5 8-12Z" fill="#000"/></g></g></svg>