<svg xmlns="http://www.w3.org/2000/svg" viewBox="0 0 762 762" fill="none" shape-rendering="auto"><metadata xmlns:rdf="http://www.w3.org/1999/02/22-rdf-syntax-ns#" xmlns:xsi="http://www.w3.org/2001/XMLSchema-instance" xmlns:dc="http://purl.org/dc/elements/1.1/" xmlns:dcterms="http://purl.org/dc/terms/"><rdf:RDF><rdf:Description><dc:title>Adventurer</dc:title><dc:creator>Lisa Wischofsky</dc:creator><dc:source xsi:type="dcterms:URI">https://www.figma.com/community/file/1184595184137881796</dc:source><dcterms:license xsi:type="dcterms:URI">https://creativecommons.org/licenses/by/4.0/</dcterms:license><dc:rights>Remix of „Adventurer” (https://www.figma.com/community/file/1184595184137881796) by „Lisa Wischofsky”, licensed under „CC BY 4.0” (https://creativecommons.org/licenses/by/4.0/)</dc:rights></rdf:Description></rdf:RDF></metadata><mask id="viewboxMask"><rect width="762" height="762" rx="0" ry="0" x="0" y="0" fill="#fff" /></mask><g mask="url(#viewboxMask)"><path d="M396 164.8a224.8 224.8 0 0 1 104.8 42.4c6.2 4.9 12.5 9.4 18 15a225.4 225.4 0 0 1 71.8 149 58.5 58.5 0 0 1 50.9 42.2 71 71 0 0 1-27.6 76.5c-11 7.7-24.5 12-38 11.7-5 0-10-1.6-15-1.8-1.9 2.2-3.3 4.9-4.8 7.3A223.3 223.3 0 0 1 389 609.8c-11 .7-21.9 2-33 .7a223.7 223.7 0 0 1-178.8-342.3A223.4 223.4 0 0 1 352 163.5c14.6-1.4 29.4-.3 44 1.3Z" fill="#000"/><path fill-rule="evenodd" clip-rule="evenodd" d="M498.8 213.2A216 216 0 0 0 363 169c-13-.2-26.2 1.6-39 4a218 218 0 0 0-113.6 365.5 218.5 218.5 0 0 0 260.4 40.2c35-18.8 64.2-47.3 84.4-81.5l-3-1.6c-2.8-1.4-5.7-3-8-5-2.2-2-.3-5.8 2.7-4.7 1.5.7 3 1.6 4.4 2.4a55 55 0 0 0 59.6-3.6 64.5 64.5 0 0 0 25-69.8 53.1 53.1 0 0 0-24-31 52.6 52.6 0 0 0-47-2.8c-1.6.8-3.4 1.5-5 1.3-2.5-.2-2.8-4.2-.6-5.2 8-4 16.5-5.6 25.4-6.4a217 217 0 0 0-72-146.4c-4.4-4-8.7-8.1-13.9-11.3Zm107.6 196.2c2-1.2 1.3-5.1-1.4-5-2 0-4.2.8-6.2 1.6l-1.4.4a95.1 95.1 0 0 0-25.5 12.4c-2.2 2-2.2 4.4.1 6.2a92 92 0 0 0 5.2 2.8 36 36 0 0 1 13 9.2c-.2 1.9-2 3.4-3.4 4.5l-.2.2c-3.9 3-8.8 5-13.6 7-2.5 1-4.9 2-7.1 3.1-1.7.8-2.6 2.2-1.6 3.9 1 2 3.2 1.1 5 .5l.6-.2 5.4-2.3c5.4-2.3 11-4.5 15.4-8 2.7-2.1 5.1-5.1 5.4-8.7-.5-3.4-2.7-5.7-5.3-7.8a83 83 0 0 0-11.6-7.2l-1.1-.6c5.4-3 10.8-5.6 16.6-7.7l5-1.7a52 52 0 0 0 6.7-2.6Z" fill="#763900"/><g transform="translate(-161 -83)"><path d="M559 424.1a65.3 65.3 0 0 1 57.5 38.4l23.8-15c1.3 1 2.4 2.2 3.6 3.4-3.2 3.6-7.1 5.4-11 8l-14.3 9a65.8 65.8 0 0 1-18 69.8 64.6 64.6 0 0 1-42.6 16.8 65.7 65.7 0 0 1-61.5-90 65.1 65.1 0 0 1 62.5-40.4Z" fill="#000"/><path d="M549.3 430.3a59.6 59.6 0 1 1 15.1 118.2 59.6 59.6 0 0 1-15.1-118.2Z" fill="#fff"/><path d="M414 454a55 55 0 1 1-79.4 30.7c-5.8-3.6-12.1-6.6-17.7-10.5-2-1.1-1.5-4.2.7-4.7 1.6-.5 3.1.6 4.6 1.3l14.4 8.5A55.2 55.2 0 0 1 414 454Z" fill="#000"/><path d="M378.3 453.3a49.3 49.3 0 1 1 17.2 97.1 49.3 49.3 0 0 1-17.2-97.1Z" fill="#fff"/><path d="M527.3 466.2a24 24 0 0 1 20.2 7.3 23.9 23.9 0 0 1-2.3 34.7 23.9 23.9 0 0 1-38.7-20.2 23.8 23.8 0 0 1 20.8-21.8ZM358.5 480.8a21.8 21.8 0 1 1 11.6 42 21.9 21.9 0 0 1-25.7-14 22.3 22.3 0 0 1 14.1-28Z" fill="#000"/></g><g transform="translate(-161 -83)"><path d="M523.2 384.4c6.2-.5 13.1-.6 18.5 3a10 10 0 0 1 4.5 10.7c-1.6 6.1-6.7 10.9-11.6 14.4a67.6 67.6 0 0 1-30.6 11.6c-5.6.5-12.5.4-17.5-2.6a10.2 10.2 0 0 1-5.2-10.3c1-5.8 5.5-10.5 10-14 9.1-7 20.5-11.3 32-12.8ZM392.2 401.2a47 47 0 0 1 26.3 5.3c3.9 2.2 7.4 5.9 8 10.5.3 4.2-2 7.8-5.3 10.2-4.5 3.6-9.8 5-15.4 6-10 1-20.6.3-29.5-4.6-3.9-2.2-7.9-5.8-8.4-10.5-.8-4.3 2-8.5 5.3-10.9a36 36 0 0 1 19-6Z" fill="#000"/></g><g transform="translate(-161 -83)"><path d="M524.2 555.8c.5 6.9-.8 13.4-1.6 20.2-2.7 24.2-9.3 48-19.1 70.2-3.7 7.4-6.8 15.8-14 20.4-4.2 3-10.3 1.7-14.6-.6-9.4-4.6-15.1-12.2-21.7-20.1a199 199 0 0 1-26-44c-3.6-8.2-7-16.6-10.3-24.8-.9-2.1-1.2-4 1-5.4 4.8 0 9.4 1.5 14.1 1.5 9.3.2 18.7.4 28-.8 20-2.3 39.6-8.3 58-16.5 2.1-1 4-.6 6.2-.1Z" fill="#000"/><path d="M519 562c-2 15.1-4 30.2-8 45a209.4 209.4 0 0 1-19.1 49c-2.2 3.4-5.3 7.3-10 6.4-7.3-1.5-14-8-18.6-13.7a169 169 0 0 1-24.6-36.4c-6.1-11-10.6-22.9-15.7-34.5l14.4 1.2c1.1 6 4.6 11.5 8.5 16 5 6 12.2 9.9 20 10 6.3-.4 12.2-3 16.8-7.3 8-7.4 12-17 14.4-27.4A265 265 0 0 0 519 562Z" fill="#8F2E45"/><path d="M490.6 572.1c-2.5 8.8-7 18.4-14.9 23.6a17.7 17.7 0 0 1-18.6 1.1c-7-3.8-10.9-10.5-13.9-17.6 16.1-.4 32-2.3 47.4-7Z" fill="#fff"/></g><g transform="translate(-161 -83)"></g><g transform="translate(-161 -83)"></g><g transform="translate(-161 -83)"><path d="M464 199.3c14.7-1 29.4 2.8 42.6 9.1a66.2 66.2 0 0 1 33.3 32.7c1 2.6 1.2 5-.7 7.1-1.5.7-3.5.6-5 1-3 1-5.3 3.4-6.5 6.3-2.8 6.3-3.9 13.4-6.1 20-2.2 7-5.2 13.5-10.2 19A98.5 98.5 0 0 1 462 323a84.4 84.4 0 0 1-45-1c-7.7-2.3-14.1-7.4-18.4-14.1-.8-1.3-.2-3.5 1.6-3.6 4.5-.4 8.8-.5 13-2.4 5.8-2.3 9-7.8 10-13.8 1.1-8.4-.5-15.9-1.4-24.2a95.3 95.3 0 0 1-.4-32.2c1.6-7.5 5.1-14.4 10.7-19.7a49.6 49.6 0 0 1 31.9-12.8Z" fill="#000"/><path d="M462 205.2c13.3-1.4 27.3 2 39.5 7.3 14.3 6.6 27 16 33.6 30.7a17.1 17.1 0 0 0-12.5 10.3c-4.3 9.9-5.4 21.1-11.1 31a62.5 62.5 0 0 1-16.3 16.7 92.4 92.4 0 0 1-60.7 18.5c-9.8-1.2-20-2.6-27.1-10a39 39 0 0 0 10.7-3.6c5.9-3.5 9.7-9.6 10.8-16.3 1.4-11.9-1.1-22.2-2.2-33.8-.8-5.2-.6-10.7-.5-16 .5-8.6 3.3-17.2 9.5-23.3a43 43 0 0 1 26.3-11.5Z" fill="#3eac2c"/></g><g transform="translate(-161 -83)"></g></g></svg>