<svg xmlns="http://www.w3.org/2000/svg" viewBox="0 0 256 256" fill="none" shape-rendering="auto"><metadata xmlns:rdf="http://www.w3.org/1999/02/22-rdf-syntax-ns#" xmlns:xsi="http://www.w3.org/2001/XMLSchema-instance" xmlns:dc="http://purl.org/dc/elements/1.1/" xmlns:dcterms="http://purl.org/dc/terms/"><rdf:RDF><rdf:Description><dc:title>Croodles - Doodle your face</dc:title><dc:creator>vijay verma</dc:creator><dc:source xsi:type="dcterms:URI">https://www.figma.com/community/file/966199982810283152</dc:source><dcterms:license xsi:type="dcterms:URI">https://creativecommons.org/licenses/by/4.0/</dcterms:license><dc:rights>Remix of „Croodles - Doodle your face” (https://www.figma.com/community/file/966199982810283152) by „vijay verma”, licensed under „CC BY 4.0” (https://creativecommons.org/licenses/by/4.0/)</dc:rights></rdf:Description></rdf:RDF></metadata><mask id="viewboxMask"><rect width="256" height="256" rx="0" ry="0" x="0" y="0" fill="#fff" /></mask><g mask="url(#viewboxMask)"><path d="M122.4 75.3c18.8-2.5 39.9.4 53.1 13.9l.6.2c3 2 4.6 4.2 6 7.5 1 2.7 1.8 6 2.8 10.5 1.3.1 3.5.5 5.4 2.1 2.2 2 3.3 5.5 2.3 11.2-.8 4.9-1.6 7.7-3.5 11-.7 1.5-1.8 3-3 4a4.8 4.8 0 0 1-5.2.5 249.6 249.6 0 0 1-18.5 46.7 93 93 0 0 1-15.2 20.2 27.8 27.8 0 0 1-19.2 8.4 16 16 0 0 1-8.5-3.3 58 58 0 0 1-9.4-8.3 194.4 194.4 0 0 1-36.2-59.6c-1.6.5-3.8.3-5.8-1.6-2-1.8-3.6-5.2-4.7-10.9-2-10.9 4.2-17.2 9.2-17.2h.1c1-4.2 1.9-7 2.8-9 1.2-2.7 2.5-4.1 4-5.8a72.8 72.8 0 0 0 1.3-1.5C83.9 90 89.4 86.1 96 83a90 90 0 0 1 26.3-7.6Z" fill="#ffffff"/><g stroke="#000" stroke-width="3" stroke-linecap="round" stroke-linejoin="round"><path d="M185.5 108.6c2.2 0 9 .8 7 11.9-.8 4.9-1.6 7.5-3.4 10.8-1.5 2.9-3.7 5.2-6.4 3.9M71.3 111.8c-3.8 0-10 5.4-8 16 2.3 11.3 6.6 12.2 8.8 11.5"/><path d="M80.5 95c-4 4.9-5.7 4.9-9.7 25.7-4 20.8 38.7 91.3 57.2 91.3 14 0 24.2-12.4 33.8-28.5 6.7-11.2 26-61.3 23.4-73.3-2.6-12-3.5-16.6-9-20.2"/></g><g transform="translate(116 119)"><path d="M21.7 10c5 4 12 23 6 29S19 34.3 14 34.3c-5.1 0-9 6-8.5-1 .4-5.6 4-5.5 4.7-5.8" stroke="#000" stroke-width="3" stroke-linecap="round" stroke-linejoin="round"/></g><g transform="translate(60 131)"></g><g transform="translate(97 178)"><g stroke="#000" stroke-width="3" stroke-linecap="round" stroke-linejoin="round"><path d="M16 6.6c5.3 2.5 13.5 8 22.7 7.7 11-.3 14.6-6.1 16-9.3"/><path d="M34.3 6.3c-3-1.9-8.6 1.8-10 4.2 1.6 5.5 7.4 9.2 14 9.2 7.3 0 11.3-6.3 12-8.5h0c-.7-1.2-1.8-3.3-4.8-4.9-3.7-2-6.1 6-6.8 6-.7 0-.6-3.6-4.4-6Z"/></g></g><g transform="translate(-1 -14)"><g stroke="#ffc700" stroke-width="3" stroke-linecap="round" stroke-linejoin="round"><path d="M128.8 94.7c-5.1-11.1-20.3-14-29.3 0-12 18.2-2.1 57.6-5.6 83.7-3.5 26-21.4 55.8-44.4 55.8s-40-14.6-38.2-33.1"/><path d="M122.6 83c-9-7.9-34.3-9-38.3 46.7-3.7 53.6-11.7 64.6-28.6 81-15.8 15-36 17.7-50 10.6"/><path d="M126 80.7c-11.3-15.7-37.1-9.8-46.7 2-12 14.7 0 77 0 98.8 0 21.8-10.1 42.6-41 47"/><path d="M126.5 77.4c-4.5-13-19.1-19.7-35.4-10.1-21.5 12.5-22.1 32-26.3 69.5-4.3 37.4-2.3 70.3-33.9 81.1-18 6.2-33.7-9.5-25.8-26.4"/><path d="M31.5 200.5c33.7-5 43.3-42.7 44.4-77.6 1.6-49.5 36-60.1 50.6-41M130.4 88c8.5-4.7 34.9-4.9 38.3 24.8 4.2 37-5.5 72.4 7.8 107.4 5.5 14.3 26 23.6 37.7 19"/><path d="M131.6 82.8c10.7-4.5 31-7.7 38.2 6.4 9.1 17.6 1 83 7.3 103.4 6.3 20.4 27 37.1 41.6 27.6"/><path d="M128.2 80.7c-.7-9 12.4-27 28.1-18.5a59.4 59.4 0 0 1 32 42.2c5.7 39.9 2.1 60 5.7 86 3.5 25.9 16.1 46.2 59 32.9"/><path d="M129.3 80.2c4.5-7.9 12.4-14 26.4-9.6 17.6 5.6 30.6 29.1 30 94.8-.8 65.8 6 75.6 24.6 79.5 18.5 4 30.7-10.4 35.4-18.6"/><path d="M135.5 78c16.9-10.4 55.1-7.8 60.2 27.5 6.2 44.1-3.6 96.4 2 112.5 5.6 16.1 21.4 19.2 34 15.7"/></g></g><g transform="translate(72 148)"></g><g transform="translate(72 92)"><path d="M33 35.6c-1.8-1.7.5-4.4 2.5-3.4 2.5 1.3 3.4 4.3 1.2 6.5s-7.2.8-7.5-4.5c-.3-5.3 6.5-9.2 10-3 3.3 6.3 2.2 11.9-5.2 11.9-5.1 0-7.3-3.6-7.9-7-1-6.7 2.5-13.6 9.7-12 4.5 1 9.7 4 8.8 13.3-1 9.3-6 10.3-12.3 9.2-7.7-1.3-9.8-8.2-7.3-16M78.5 35.6c-1.9-1.7.4-4.4 2.4-3.4 2.5 1.3 3.4 4.3 1.2 6.5-2.1 2.2-7.1.8-7.5-4.5-.3-5.3 6.5-9.2 10-3 3.3 6.3 2.2 11.9-5.2 11.9-5.1 0-7.3-3.6-7.8-7-1-6.7 2.4-13.6 9.7-12 4.4 1 9.6 4 8.7 13.3-1 9.3-6 10.3-12.3 9.2-7.7-1.3-9.8-8.2-7.3-16M29.8 15.9c3 2.2 8.8 2.6 12 1M72.2 16.8c3.6 1 9.2-.3 11.8-2.8" stroke="#000" stroke-width="3" stroke-linecap="round" stroke-linejoin="round"/></g></g></svg>