<svg xmlns="http://www.w3.org/2000/svg" viewBox="0 0 256 256" fill="none" shape-rendering="auto"><metadata xmlns:rdf="http://www.w3.org/1999/02/22-rdf-syntax-ns#" xmlns:xsi="http://www.w3.org/2001/XMLSchema-instance" xmlns:dc="http://purl.org/dc/elements/1.1/" xmlns:dcterms="http://purl.org/dc/terms/"><rdf:RDF><rdf:Description><dc:title>Croodles - Doodle your face</dc:title><dc:creator>vijay verma</dc:creator><dc:source xsi:type="dcterms:URI">https://www.figma.com/community/file/966199982810283152</dc:source><dcterms:license xsi:type="dcterms:URI">https://creativecommons.org/licenses/by/4.0/</dcterms:license><dc:rights>Remix of „Croodles - Doodle your face” (https://www.figma.com/community/file/966199982810283152) by „vijay verma”, licensed under „CC BY 4.0” (https://creativecommons.org/licenses/by/4.0/)</dc:rights></rdf:Description></rdf:RDF></metadata><mask id="viewboxMask"><rect width="256" height="256" rx="0" ry="0" x="0" y="0" fill="#fff" /></mask><g mask="url(#viewboxMask)"><path d="M75 97.4a66.3 66.3 0 0 1 6-18.2c2.8-4.9 8.8-9.3 16.2-12.9a90.8 90.8 0 0 1 26.4-7.5c19-2.5 40.1.4 53.4 13.9.3 0 .5.3.7.5a38.4 38.4 0 0 1 5.5 23.8c.9 0 1.9 0 2.9.2 1.5.5 2.9 1.6 4 3.4.6 1 .8 2.4.9 3.7 0 1.4 0 2.9-.3 4.3-.6 3-1.6 6-3 8.2-2.2 3.7-4.6 4.7-6.2 5h-.2l-2.1 15c-4.2 27.3-11 49.4-19.2 64.9-4 7.7-8.5 14-13.1 18.3a26.6 26.6 0 0 1-14.4 7.9c-8.8 1.2-24.8-4.6-41.3-35.6a168.2 168.2 0 0 1-17.8-69.7 7 7 0 0 1-4.4-2.3 13.7 13.7 0 0 1-3.3-6.7c-1.4-6.7-.5-11.3 1.8-14 2-2.4 5-3 7.5-2.2Z" fill="#ffffff"/><g stroke="#000" stroke-width="3" stroke-linecap="round" stroke-linejoin="round"><path d="M182.8 98.1c2.3-.3 5-.3 6.8 2.9 1.8 3.2.1 11-2.3 15-2 3.5-4.2 4.3-5.4 4.5M74 98.7c-4.3-2-11.1 1.2-8.4 14.6 1.1 5.2 4.6 8.4 7.1 8"/><path d="M81 79.4c-14.7 29-6 82.7 10.6 114.3 16.6 31.6 32.4 36.8 40.4 35.7 18.5-2.6 37.9-36.2 46.3-92.3C184 99.5 184 83 177.1 73"/></g><g transform="translate(117 128)"><path d="M21.7 10c5 4 12 23 6 29S19 34.3 14 34.3c-5.1 0-9 6-8.5-1 .4-5.6 4-5.5 4.7-5.8" stroke="#000" stroke-width="3" stroke-linecap="round" stroke-linejoin="round"/></g><g transform="translate(62 148)"></g><g transform="translate(97 191)"><path d="M54.7 2c-7.3 0-26-.6-38.7 2.7C16 15.4 28.6 25 39.2 22 50 19 56.2 7 54.7 2Z" stroke="#000" stroke-width="3" stroke-linecap="round" stroke-linejoin="round"/></g><g transform="translate(0 -31)"><g stroke="#699bf7" stroke-width="3" stroke-linecap="round" stroke-linejoin="round"><path d="M80.6 117.9c-2.8 1.7-7.4 5.2-14 5.2M82.7 112a35.1 35.1 0 0 1-11.1 5.2M70.6 111.6c2.3-.4 7.9-2.5 12.7-7.3M67.4 107.6c3.8-.6 12.7-3.1 17.7-7.9M66 101c4.4-.4 14.7-2.6 20.6-8M72 93.6c4-1.2 13-3.5 16.3-3.2M74.4 83c4.2-.2 13.7.2 18 3.3M178.5 118.8c1.8 1.9 6.9 5.4 12.3 4.2M177.4 115.6c1.7-1.1 6.4-2.3 11.9 2M175.5 109.6c3.5.7 11.1 1.6 13.3 0M165 93.6c2.9-2.8 7.5-8 9.6-9.5M169.6 98.6c4.4 1.1 7.8 2.8 12.8-.5M168.2 95c3.5-.4 11.8-1.3 16.6-1.3M162.8 90.8c1-2.9 3.7-9 7.2-10.4M154.3 82.4c3.3 0 3.7-8.5 8-10M165 79.6a32.3 32.3 0 0 1-6.6 5.3M181.4 105.3c-1.9.1-4.7.2-8.5-.5M156.1 69c-1 3.9-3.3 9.5-5.6 11.7M151.6 65.6c-2 1.5-5 6.3-5 10M141.4 69.6c.3 1.8.9 6 .5 8.4"/><path d="M146.7 64c-.7 1.3-.7 13.5 1 16.1M137 62c-1 3 0 12 3.5 15.3M127 76.8c-.2-1.7-2.2-9.4-3.3-11.2M115.4 63.7c.2 3 1 9.9 3 12.4M105.2 68.5c2 1.5 6 5.2 6.6 7.3M79 79.6c4.4-.7 14.3-1.1 18.6 3M93.4 74a9 9 0 0 0 8.7 5.3M99 71.7c.5 1.3 2.7 4.4 8 6.6"/><path d="M112.5 68.3c1.4 1.2 9 4.6 12.3 5.1M130.8 62.8c-.8 2.8-1.1 9.6 4.3 13.9"/></g></g><g transform="translate(70 157)"></g><g transform="translate(72 80)"><g stroke="#000" stroke-width="3" stroke-linecap="round" stroke-linejoin="round"><path d="M34.8 27.8c3.3.6 11-.1 14.7-7.9M65.2 15c.5 2.7 2.7 8.5 7.4 10.8 4.6 2.3 8.8 2.3 10.3 2M21.2 40.5a134 134 0 0 1 27.1-5M21 42.7c6.8-1.3 20.5-4.5 25.2-5.2M67.3 34.8c7.1-1.3 22.3 2.4 26.3 4.1"/><path d="M66.7 35.2c7.1-1.2 20.6 3.7 24.6 5.5"/><path d="M66.5 36.1c7-1.3 21.6 4.9 25.6 6.7"/><path d="M66.5 37.5c7-1.3 21.6 5 25.6 6.9M25 41.3c6.5-2.3 20.5-6.6 24-5.2M24 45c6.6-2.3 20.3-6.2 24-7"/></g></g></g></svg>