<svg xmlns="http://www.w3.org/2000/svg" viewBox="0 0 256 256" fill="none" shape-rendering="auto"><metadata xmlns:rdf="http://www.w3.org/1999/02/22-rdf-syntax-ns#" xmlns:xsi="http://www.w3.org/2001/XMLSchema-instance" xmlns:dc="http://purl.org/dc/elements/1.1/" xmlns:dcterms="http://purl.org/dc/terms/"><rdf:RDF><rdf:Description><dc:title>Croodles - Doodle your face</dc:title><dc:creator>vijay verma</dc:creator><dc:source xsi:type="dcterms:URI">https://www.figma.com/community/file/966199982810283152</dc:source><dcterms:license xsi:type="dcterms:URI">https://creativecommons.org/licenses/by/4.0/</dcterms:license><dc:rights>Remix of „Croodles - Doodle your face” (https://www.figma.com/community/file/966199982810283152) by „vijay verma”, licensed under „CC BY 4.0” (https://creativecommons.org/licenses/by/4.0/)</dc:rights></rdf:Description></rdf:RDF></metadata><mask id="viewboxMask"><rect width="256" height="256" rx="0" ry="0" x="0" y="0" fill="#fff" /></mask><g mask="url(#viewboxMask)"><path d="M175 107.8c.3.4.5.8.4 1.3 1.9 2.3 3.5 5 4.8 8 1.2-.4 2.5-.7 3.9-.6 1.7.2 3.3 1.1 4.4 3 2 3.5 3.4 8 1.8 14.6a7.9 7.9 0 0 1-2.7 4.6 6 6 0 0 1-2.4 1 54 54 0 0 1-1.6 15 55 55 0 0 1-46 38.4c-24 2.2-47.9-4.1-59.6-27a43 43 0 0 1-5.7-17.5c-1.4 0-2.9-.6-4.1-2a15.5 15.5 0 0 1-3-8.3c-.7-5.7.2-9.9 2-12.4 1-1.3 2.2-2.2 3.6-2.6 1.2-.4 2.6-.3 3.8.2a33.1 33.1 0 0 1 4-9l.3-.7c2.9-4.9 8.8-9.4 16.2-13a89.6 89.6 0 0 1 26.3-7.5c19-2.5 40.4.5 53.6 14.5Z" fill="#ffffff"/><g stroke="#000" stroke-width="3" stroke-linecap="round" stroke-linejoin="round"><path d="M78.7 115c-6.1 8.7-10.8 34.3-.6 51 11.6 22.5 35.3 28.9 59.6 26.6a54.7 54.7 0 0 0 45.7-38A56 56 0 0 0 175 109"/><path d="M181.2 118.4c2.6-1.2 5.6-1.7 7.4 1.5 1.9 3.2 3.2 7.3 1.7 13.6-1 4-3.3 4.9-5.3 4.9M73 124.6c-4.2-2-9.1 2.3-7.8 13.4 1 7.8 4 9.5 6.5 9.2"/></g><g transform="translate(113 126)"><path d="M2 2.7c3.5 0 7.7 5.7 8.1 14.8.7 14.7-4.2 19.4 0 27 2.7 5 17.8 4.7 21.9-3.6 3.2-6.5-3-12-6.6-20.7-3.5-8.3-5.7-13.4-2-18.2" stroke="#000" stroke-width="3" stroke-linecap="round" stroke-linejoin="round"/></g><g transform="translate(62 112)"></g><g transform="translate(98 169)"><path d="M15 14s4.2 1.6 7 0c2.9-1.5 3-5.9 5.2-3.6 2.6 3 3 4.9 4.5 6.3 1.5 1.5 2.6-5 3.9-7 1.2-2.3 4.6 6.1 6.6 6.1 1.9 0 1.4-9.5 3.6-7.5 2.1 1.9 1.8 5.4 8.8 3.4" stroke="#000" stroke-width="3" stroke-linecap="round" stroke-linejoin="round"/></g><g transform="translate(-2 4)"><g stroke="#f24e1e" stroke-linecap="round" stroke-linejoin="round"><path d="M74 67.7c-4.4 16 1.5 23 1.5 26.3 0 3.3 4.2-19.4 6.4-31.9l-3 40.1 9.9-43.1-3.4 47.8 9.7-49.8-3 52.2c.3-4.2 6.6-37.3 9.6-54.5L99 109.3l9.3-52.2-1.4 52.2 8.7-52.2-2 54.8 9.4-54.8-1.5 54.8 7.6-52.2V112l7.7-48.8v48.8l7-46.3c-.8 17.6-.5 50.3 0 46.3l6.5-44.2-.9 44.2 7.3-41.3-.8 41.3 6.7-39v35.7l6-33.7-1.3 33.7 6-28.6.7 27 3-27 1.3 21.2 4.4-17v18" stroke-width="6"/><path d="M178.2 107.6c-17.1 10-88.5 9.2-100.1-3.8-17.8-20-9.9-38.6 1.8-43.4 11.6-4.8 21.1-14 57.6 0 36.6 14 53.2 18.7 50 38.7-3 20-23.9 25.6-46.4 21-22.6-4.6-52.1 10.1-59.7-3.3-1-1.6-2.7-5.7-1.5-9.2" stroke-width="3"/><path d="M184 108.4c4-8.8 15.3-28 28.6-34.8" stroke-width="3"/><path d="M190 101.5a36 36 0 0 0 19.6-9.4c7-7.7 14-15.8 12-22.6-1.8-6.9-12.2 1-17.1.5-5-.5-20.3 25.2-18.5 32.5" stroke-width="3"/></g></g><g transform="translate(69 153)"></g><g transform="translate(72 106)"><path d="M26.7 26.3c1-2.5 4.2-7.3 9.9-7.1 5.7.2 8.3 3.4 8.9 5M71.2 24.6c1-2.9 4.2-8.4 9.2-7.7 5 .6 7.5 4.3 8.1 6M25 43c2.7-4 9.5-6.7 15-6.2 6.7.6 4.3 6.6 2.6 7.3-2.2.9-5.2-.9-3.3-3.3 1.4-2 2.8 0 2.4.8M72.6 38.6c1.7-1.7 6.5-5.2 11.4-5 6.1.4 7.8 3.4 6 5.5-2 2.2-4.6 2.5-4.6 0 0-2.4 2-2.5 2.8-1" stroke="#000" stroke-width="3" stroke-linecap="round" stroke-linejoin="round"/></g></g></svg>