<svg xmlns="http://www.w3.org/2000/svg" viewBox="0 0 256 256" fill="none" shape-rendering="auto"><metadata xmlns:rdf="http://www.w3.org/1999/02/22-rdf-syntax-ns#" xmlns:xsi="http://www.w3.org/2001/XMLSchema-instance" xmlns:dc="http://purl.org/dc/elements/1.1/" xmlns:dcterms="http://purl.org/dc/terms/"><rdf:RDF><rdf:Description><dc:title>Croodles - Doodle your face</dc:title><dc:creator>vijay verma</dc:creator><dc:source xsi:type="dcterms:URI">https://www.figma.com/community/file/966199982810283152</dc:source><dcterms:license xsi:type="dcterms:URI">https://creativecommons.org/licenses/by/4.0/</dcterms:license><dc:rights>Remix of „Croodles - Doodle your face” (https://www.figma.com/community/file/966199982810283152) by „vijay verma”, licensed under „CC BY 4.0” (https://creativecommons.org/licenses/by/4.0/)</dc:rights></rdf:Description></rdf:RDF></metadata><mask id="viewboxMask"><rect width="256" height="256" rx="0" ry="0" x="0" y="0" fill="#fff" /></mask><g mask="url(#viewboxMask)"><path d="M122.4 75.3c18.8-2.5 39.9.4 53.1 13.9l.6.2c3 2 4.6 4.2 6 7.5 1 2.7 1.8 6 2.8 10.5 1.3.1 3.5.5 5.4 2.1 2.2 2 3.3 5.5 2.3 11.2-.8 4.9-1.6 7.7-3.5 11-.7 1.5-1.8 3-3 4a4.8 4.8 0 0 1-5.2.5 249.6 249.6 0 0 1-18.5 46.7 93 93 0 0 1-15.2 20.2 27.8 27.8 0 0 1-19.2 8.4 16 16 0 0 1-8.5-3.3 58 58 0 0 1-9.4-8.3 194.4 194.4 0 0 1-36.2-59.6c-1.6.5-3.8.3-5.8-1.6-2-1.8-3.6-5.2-4.7-10.9-2-10.9 4.2-17.2 9.2-17.2h.1c1-4.2 1.9-7 2.8-9 1.2-2.7 2.5-4.1 4-5.8a72.8 72.8 0 0 0 1.3-1.5C83.9 90 89.4 86.1 96 83a90 90 0 0 1 26.3-7.6Z" fill="#ffffff"/><g stroke="#000" stroke-width="3" stroke-linecap="round" stroke-linejoin="round"><path d="M185.5 108.6c2.2 0 9 .8 7 11.9-.8 4.9-1.6 7.5-3.4 10.8-1.5 2.9-3.7 5.2-6.4 3.9M71.3 111.8c-3.8 0-10 5.4-8 16 2.3 11.3 6.6 12.2 8.8 11.5"/><path d="M80.5 95c-4 4.9-5.7 4.9-9.7 25.7-4 20.8 38.7 91.3 57.2 91.3 14 0 24.2-12.4 33.8-28.5 6.7-11.2 26-61.3 23.4-73.3-2.6-12-3.5-16.6-9-20.2"/></g><g transform="translate(116 119)"><path d="M20.8 8c2.7 8 7.6 25.3 5.8 29.4-2.1 5-5.4-2.3-5.4 3.5-1 2.8-3.8 3.2-5.1-1.6-1.3-4.7-5.2 3.5-6.5 1.6-3.6-1.6-.7-7.1 1.2-8.9" stroke="#000" stroke-width="3" stroke-linecap="round" stroke-linejoin="round"/></g><g transform="translate(60 131)"></g><g transform="translate(97 178)"><path d="M17 12a88 88 0 0 0 36.2 0" stroke="#000" stroke-width="3" stroke-linecap="round" stroke-linejoin="round"/></g><g transform="translate(-1 -14)"><g stroke="#0fa958" stroke-width="3" stroke-linecap="round" stroke-linejoin="round"><path d="M116.5 77c11.4-6.3 49-9 61 29.4 18 58.5 31.5 61.8 38.3 66.5"/><path d="M185 144c5.4 32.3-.3 71.4 1.3 85.3 2 17.5 5.4 22.2 14.8 28.3"/><path d="M169.5 76c17.5 18 12.5 37 8 117.5-2 34.9 16 48.3 20.6 50.5"/><path d="M117.6 76.8c8.1-7.3 34.4-15.3 53.4 0 17.7 14.4 21.8 33.6 22.6 81.4.5 33.8 4.7 43.2 6.7 43.6M115.6 77.5A71.7 71.7 0 0 0 78 142.7c0 33 4 82-13.4 104.2"/><path d="M114.7 76a56 56 0 0 0-42.3 51.7c-3.4 31.6 2 76-9.4 102.9"/><path d="M46.4 241.5c-.2-10.3.3-33.8 4-45 4.7-14.2 3.5-88.7 32.3-111 17.5-13.4 33-12.7 36.3-10M119 74.8c3.3-8 20.3-18 44.3-9.4 30.3 10.8 48.4 39.8 43.7 76.1-4.5 34.6-19.7 79.4-1 108"/><path d="M117.6 72.8c2.7-8.3 13.2-23.4 33.6-17.5 25.6 7.4 49.8 31.6 53.1 95.5 3.4 63.8-10 86 24.2 114.9M116.3 72.1c-10.8-7.4-38.3 2-57.1 37.7C39.9 146.2 43.7 217.3 37 234"/><path d="M119 74.2c-2.7-7-12.4-19-29.6-11.5-21.5 9.4-37 24.9-47 84.7-10.1 59.8 6 74.6-2 102.8M120 80.5a67 67 0 0 0 2.8 21.9M125 79c1.5 5.5 4.5 18.5 9.5 23M131.5 78c4.5 8.5 10.2 18.9 12.3 23.7M142.5 78c7.5 3 15.5 10.5 20 17.5M137 78c5 3 10.3 13.2 16.3 19.7M115 85c-.3 3.5-1.8 11.7-6 16"/><path d="M99.5 97c2-1.3 5.5-6 11-12.5M60.5 171.6c.5 11.6-1.6 36.7-2.7 46.4-1.3 12-6 23.5-10.7 30.2"/></g></g><g transform="translate(72 148)"></g><g transform="translate(72 92)"><g stroke="#000" stroke-width="3" stroke-linecap="round" stroke-linejoin="round"><path d="M20.4 39.8c2.2-3.1 9-8.4 19-4"/><path d="M29 35.3c-1 .5-2.8 2.1-1.6 4.5 1.5 3 6.5.5 6-1.5-.4-1.6-2.1-2-3-2M17 24.6C21.8 23 33.2 21 40 27M71.4 24.6c4.8-1.7 16.2-3.6 23 2.3M68 28c6.4-.8 24.3 1.6 27 3.2 3 1.8 3.5 15.2 1.2 21.6-1.2 3.2-13.3 6.7-23.8 0-7.5-4.7-5.9-18.8-5-23.7"/><path d="M70.6 31c-.7 1.9-1.8 8.5-2.5 10.8l5-10.2c-.7 3.2-3.5 14.2-3.3 15.2.3 1.2 5.9-15.3 6.5-15.2.6 0-4.4 16.9-4.4 17.9s5.8-17.2 6.7-17.2c.9 0-4.4 17.9-3.8 18.8.6.9 5.2-17.3 6-18.2C81.4 32 76.1 53 77 53c.8 0 6.1-21 6.9-19 .7 2-5.1 22-3.2 20.3 2-1.6 5.6-21.8 7-20.3 1.5 1.5-4.4 20.8-3.2 20.3C85.8 53.8 90 35 90.6 35c.6 0-2.4 20.8-1.8 19.4l5-19.4c.3-1.2 0 3 0 6.9-.1 3-2.2 10.5-2.5 12.5l4.4-14.6c0 2.3 0 7.6-.3 10.1-.3 2.6-.8 3.7-1 4M6 3a253.7 253.7 0 0 0 58.6 26c3 .8 28 4.5 32 2.3 3.3-1.7 11.2-14 13-16"/></g></g></g></svg>