<svg xmlns="http://www.w3.org/2000/svg" viewBox="0 0 256 256" fill="none" shape-rendering="auto"><metadata xmlns:rdf="http://www.w3.org/1999/02/22-rdf-syntax-ns#" xmlns:xsi="http://www.w3.org/2001/XMLSchema-instance" xmlns:dc="http://purl.org/dc/elements/1.1/" xmlns:dcterms="http://purl.org/dc/terms/"><rdf:RDF><rdf:Description><dc:title>Croodles - Doodle your face</dc:title><dc:creator>vijay verma</dc:creator><dc:source xsi:type="dcterms:URI">https://www.figma.com/community/file/966199982810283152</dc:source><dcterms:license xsi:type="dcterms:URI">https://creativecommons.org/licenses/by/4.0/</dcterms:license><dc:rights>Remix of „Croodles - Doodle your face” (https://www.figma.com/community/file/966199982810283152) by „vijay verma”, licensed under „CC BY 4.0” (https://creativecommons.org/licenses/by/4.0/)</dc:rights></rdf:Description></rdf:RDF></metadata><mask id="viewboxMask"><rect width="256" height="256" rx="0" ry="0" x="0" y="0" fill="#fff" /></mask><g mask="url(#viewboxMask)"><path d="M174.2 103.2c.4.4.5 1 .3 1.5.3.1.5.3.7.6 2.3 4.5 4.5 9.8 6.4 15.5l.7-.2 1.7-.7c1-.3 2.1-.6 3.3-.7 1.1 0 2.4.1 3.5.9 1 .7 1.8 2 2.2 3.5 1.3 5.7 1.3 9.3 0 15.2a7 7 0 0 1-2.1 4c-1 .7-2 1-3 1.1a159.9 159.9 0 0 1 2.6 21.4c0 2.7-.1 5-.4 7-.4 2-1 3.7-1.9 5a38.7 38.7 0 0 1-18.6 10.3 150.8 150.8 0 0 1-59.5 4.1 62 62 0 0 1-24-7.5c-4.3-2.7-7.3-8-9.4-14.3a91.6 91.6 0 0 1-4.1-22.5c-3.3 0-7.4-3.2-9.8-11.2-1.3-4.7-1-8.7 1.1-11.2 2.2-2.4 5.7-2.8 9.5-1.7.8-5.8 2.2-10.7 4.1-14l.5-.4a38 38 0 0 1 16.2-12.6 90.5 90.5 0 0 1 26.2-7.5c19.2-2.5 40.6.5 53.8 14.4Z" fill="#ffffff"/><g stroke="#000" stroke-width="3" stroke-linecap="round" stroke-linejoin="round"><path d="M174.8 105c11.3 21.8 19.2 65 13.4 72.3C175 194 109 199 86 184.2c-15.5-10-16.5-61.2-8.3-75M183 121.7c3-1 8.5-3.8 9.8 1.8 1.3 5.6 1.3 9 0 15-.7 3-2.3 4-4.3 4"/><path d="M72.2 124.3c-7.6-2.4-12.1 2-9.4 11.4 2.6 9 7 10.8 9.4 10.3"/></g><g transform="translate(112 122)"><path d="M13 43.8c3.7 0 8.5-1.5 9.2-6 .6-3.7-5.6-3.1-7.3-7.4A70.4 70.4 0 0 1 15 7" stroke="#000" stroke-width="3" stroke-linecap="round" stroke-linejoin="round"/></g><g transform="translate(63 112)"></g><g transform="translate(98 168)"><path d="M4 14.8s5.7-2.8 7.1-7.6M12.2 9c.2.8-7 9.3-7 9.3M14.2 8.6C13.7 12.7 9 18.9 9 18.9M11.6 20s5.3-4.8 5.8-10.3M19.6 9.4c0 3.5-1.7 11.2-1.7 11.2M45.6 7.7V20M18.7 20.2s4.2-5.3 4.2-9.6M49.2 18.2s-3-6.2-3-10.6M25.3 10.2c.3 2.4-2.9 9.8-2.9 9.8M55.5 6.9c.3 2.3 5.4 8.3 5.4 8.3M49.2 8a50 50 0 0 0 4.8 9.8M27.7 10c-.6 4-1.3 10.7-1.3 10.7M50.8 7.3l6.4 9.2M30 9.9c.6 2.8.8 8.6 3.7 10.6M58.5 7.3c1.5 2.3 4.4 5.9 8.2 6.8M34 9c0 1.3-1.8 5.9 1 11M40 20.5S35 14.3 35 9M37.5 8.6c0 3.8 6.1 12 6.1 12M44.5 20c-.6-2-3.8-9.3-3.4-12.5" stroke="#000" stroke-width="3" stroke-linecap="round" stroke-linejoin="round"/></g><g transform="translate(-3 -1)"><g stroke="#ffc700" stroke-linecap="round" stroke-linejoin="round"><path d="M80.8 109 50 83.4C56 73 85.7 50 103.4 50c22 0 18.7 14.3 27 14.3 12.6 0 11.1-3 19.6-12.2 6.7-7.4 43.3 6.8 66 17.3l-39.2 34.3c-6.3-3.4-30.4-8.2-47.9-8.2-17 0-40.4 8.2-48.1 13.4Z" stroke-width="3"/><path d="M159 63c-1 8.5-3 29.7-3 33.2 0 3.9-5-26.5-5.8-28.4l-1.5 27-3.9-24.5-2 24.4-4.7-24-.6 21-6.5-21.4-2.4 21.4-4.5-21.4-1.7 21.4-5.8-23.2L119 93l-14.2-31.4 8.4 33.1L109 87 96 63l8.7 34.3L89.5 66l9.1 33.6-17.2-29.2 8.1 27-14.6-22L88 102.7 73.2 80.5l10.5 25-17-25 6.5 20-9.8-14.7m98.4 10.4 5.4-31.3v33.8l8.2-30.2-1.7 26.2 7.8-24-6.1 29.8 11.1-28.2-1.5 19.4 7.8-17.5v9.3l5.5-6" stroke-width="6"/><path d="M57.2 87.5c10.1-9.7 33.3-29.2 45.2-29.7 11.9-.6 5 5.3 19 12l22.4-2.2c7.6-2.9 10-11 18.3-8 8.4 3 26.1 11.7 43 17.3" stroke-width="3"/></g></g><g transform="translate(68 149)"></g><g transform="translate(71 103)"><g stroke="#000" stroke-width="3" stroke-linecap="round" stroke-linejoin="round"><path d="M30.5 41.3c-5.1.3-8.2-4-9.2-6C27 30 35.5 33 39.1 35c-.7 2-3.4 6-8.6 6.3Z"/><path d="M28.6 37.2c.8.5 2.7 1.1 4-.8 1.6-2.4-2.4-5-3.7-3.8-1 1-.6 2.4-.2 3M90.7 35.2c1-.4 2.6-1.8 1.6-4-1.2-2.8-5.8-.8-5.5 1 .3 1.5 1.9 2 2.6 2"/><path d="M90.7 38.8c-5 1.2-9-2.8-9.8-5.5 4.6-6 15-3.5 17.6-1.3-.4 2-2.8 5.7-7.8 6.8ZM17.3 21c5.5-1.1 18.3-1.5 25.2 5.1M75.6 25.7c3.3-5.4 14.2-11.2 22-7.6"/></g></g></g></svg>