<svg xmlns="http://www.w3.org/2000/svg" viewBox="0 0 256 256" fill="none" shape-rendering="auto"><metadata xmlns:rdf="http://www.w3.org/1999/02/22-rdf-syntax-ns#" xmlns:xsi="http://www.w3.org/2001/XMLSchema-instance" xmlns:dc="http://purl.org/dc/elements/1.1/" xmlns:dcterms="http://purl.org/dc/terms/"><rdf:RDF><rdf:Description><dc:title>Croodles - Doodle your face</dc:title><dc:creator>vijay verma</dc:creator><dc:source xsi:type="dcterms:URI">https://www.figma.com/community/file/966199982810283152</dc:source><dcterms:license xsi:type="dcterms:URI">https://creativecommons.org/licenses/by/4.0/</dcterms:license><dc:rights>Remix of „Croodles - Doodle your face” (https://www.figma.com/community/file/966199982810283152) by „vijay verma”, licensed under „CC BY 4.0” (https://creativecommons.org/licenses/by/4.0/)</dc:rights></rdf:Description></rdf:RDF></metadata><mask id="viewboxMask"><rect width="256" height="256" rx="0" ry="0" x="0" y="0" fill="#fff" /></mask><g mask="url(#viewboxMask)"><path d="M73.3 106.5c2-5.5 4-9.8 5.4-12.2-.1-.4 0-.8.1-1.1 3-4.9 9-9.3 16.4-12.9a90.7 90.7 0 0 1 26.3-7.5c19.2-2.5 40.7.5 53.9 14.4.2.3.4.6.4 1 1 1.1 2.2 3.2 3.6 6a109 109 0 0 1 4.4 10.2c1.4-.5 3-.7 4.6-.5a7 7 0 0 1 5.4 3.3c2 3.5 2.9 10 1.6 15.8a6.7 6.7 0 0 1-2.6 4.2 6 6 0 0 1-2.3 1c.5 2.8 1 5.6 1.3 8.5 2.8 23.3-1.3 49.6-26 62.6-23.6 12.4-47 16-65.6 12.3-18.7-3.8-32.6-15-36.7-32.5-3.2-13.5-1.3-31 2.2-46.7-1.5-.3-3-1.4-3.9-3-1.3-2.1-2-5.2-1.7-9.2.5-6.2 2.1-10.6 4.8-12.8a7 7 0 0 1 4.6-1.8 9 9 0 0 1 3.8.9Z" fill="#ffffff"/><g stroke="#000" stroke-width="3" stroke-linecap="round" stroke-linejoin="round"><path d="M79 93.7c-6 10-22.2 57.6-15.5 86.4 8.1 34.4 54.6 44.9 102.1 19.7C214.3 174 182.2 95.5 175.3 88"/><path d="M184.3 105.4c2.6-1.1 7.4-1.3 9.3 2 1.8 3.2 2.7 9.3 1.4 15.1-.7 3.3-3 4.3-5 4.3M72.5 107.8c-5.9-3.5-11.4-.2-12.4 12.2-.7 7.9 2.9 11.4 5.4 11"/></g><g transform="translate(116 120)"><path d="M13 43.8c3.7 0 8.5-1.5 9.2-6 .6-3.7-5.6-3.1-7.3-7.4A70.4 70.4 0 0 1 15 7" stroke="#000" stroke-width="3" stroke-linecap="round" stroke-linejoin="round"/></g><g transform="translate(57 132)"></g><g transform="translate(86 184)"><path d="M20 19.5C22.2 15 31.3 5.6 50.3 6" stroke="#000" stroke-width="3" stroke-linecap="round" stroke-linejoin="round"/></g><g transform="translate(-2 -17)"><g stroke="#000000" stroke-linecap="round" stroke-linejoin="round"><path d="M74 67.7c-4.4 16 1.5 23 1.5 26.3 0 3.3 4.2-19.4 6.4-31.9l-3 40.1 9.9-43.1-3.4 47.8 9.7-49.8-3 52.2c.3-4.2 6.6-37.3 9.6-54.5L99 109.3l9.3-52.2-1.4 52.2 8.7-52.2-2 54.8 9.4-54.8-1.5 54.8 7.6-52.2V112l7.7-48.8v48.8l7-46.3c-.8 17.6-.5 50.3 0 46.3l6.5-44.2-.9 44.2 7.3-41.3-.8 41.3 6.7-39v35.7l6-33.7-1.3 33.7 6-28.6.7 27 3-27 1.3 21.2 4.4-17v18" stroke-width="6"/><path d="M178.2 107.6c-17.1 10-88.5 9.2-100.1-3.8-17.8-20-9.9-38.6 1.8-43.4 11.6-4.8 21.1-14 57.6 0 36.6 14 53.2 18.7 50 38.7-3 20-23.9 25.6-46.4 21-22.6-4.6-52.1 10.1-59.7-3.3-1-1.6-2.7-5.7-1.5-9.2" stroke-width="3"/><path d="M184 108.4c4-8.8 15.3-28 28.6-34.8" stroke-width="3"/><path d="M190 101.5a36 36 0 0 0 19.6-9.4c7-7.7 14-15.8 12-22.6-1.8-6.9-12.2 1-17.1.5-5-.5-20.3 25.2-18.5 32.5" stroke-width="3"/></g></g><g transform="translate(71 151)"></g><g transform="translate(71 89)"><g stroke="#000" stroke-width="3" stroke-linecap="round" stroke-linejoin="round"><path d="M42.8 24c-6.4.3-17.8 3.1-17.8 11.4C25 47.8 34.7 50 38.2 50c3 0 9.2-1.6 11.5-4 2.3-2.6 3.2-12.6 1.6-15.8-1.1-2.2-3.2-5-7-5"/><path d="M30.7 32.3c-.4 0-1.2.2-1 .9.3.6 1.4.5 1.6 0 .3-.6-.2-1.8-.2-1.8M78.6 42c.3.6.5.4.7 0"/><path d="M80.3 30.4c-3 .8-8.6 3.8-7.4 9.9 1.3 6 5.8 7.7 10.4 6.4 4.5-1.4 7-7.6 6.4-10.3-1-3.4-5.7-6-9.4-5M28.7 16.7c2.1 1.6 8 4.3 14.3 2.4 6.3-2 11.2-7.5 12.8-10.1M78.9 14.5c-1 1 .2 4.7 2.4 5.5 2.2.9 3.6 1.5 5.8 1.5"/></g></g></g></svg>