<svg xmlns="http://www.w3.org/2000/svg" viewBox="0 0 256 256" fill="none" shape-rendering="auto"><metadata xmlns:rdf="http://www.w3.org/1999/02/22-rdf-syntax-ns#" xmlns:xsi="http://www.w3.org/2001/XMLSchema-instance" xmlns:dc="http://purl.org/dc/elements/1.1/" xmlns:dcterms="http://purl.org/dc/terms/"><rdf:RDF><rdf:Description><dc:title>Croodles - Doodle your face</dc:title><dc:creator>vijay verma</dc:creator><dc:source xsi:type="dcterms:URI">https://www.figma.com/community/file/966199982810283152</dc:source><dcterms:license xsi:type="dcterms:URI">https://creativecommons.org/licenses/by/4.0/</dcterms:license><dc:rights>Remix of „Croodles - Doodle your face” (https://www.figma.com/community/file/966199982810283152) by „vijay verma”, licensed under „CC BY 4.0” (https://creativecommons.org/licenses/by/4.0/)</dc:rights></rdf:Description></rdf:RDF></metadata><mask id="viewboxMask"><rect width="256" height="256" rx="0" ry="0" x="0" y="0" fill="#fff" /></mask><g mask="url(#viewboxMask)"><path d="M73.3 106.5c2-5.5 4-9.8 5.4-12.2-.1-.4 0-.8.1-1.1 3-4.9 9-9.3 16.4-12.9a90.7 90.7 0 0 1 26.3-7.5c19.2-2.5 40.7.5 53.9 14.4.2.3.4.6.4 1 1 1.1 2.2 3.2 3.6 6a109 109 0 0 1 4.4 10.2c1.4-.5 3-.7 4.6-.5a7 7 0 0 1 5.4 3.3c2 3.5 2.9 10 1.6 15.8a6.7 6.7 0 0 1-2.6 4.2 6 6 0 0 1-2.3 1c.5 2.8 1 5.6 1.3 8.5 2.8 23.3-1.3 49.6-26 62.6-23.6 12.4-47 16-65.6 12.3-18.7-3.8-32.6-15-36.7-32.5-3.2-13.5-1.3-31 2.2-46.7-1.5-.3-3-1.4-3.9-3-1.3-2.1-2-5.2-1.7-9.2.5-6.2 2.1-10.6 4.8-12.8a7 7 0 0 1 4.6-1.8 9 9 0 0 1 3.8.9Z" fill="#ffffff"/><g stroke="#000" stroke-width="3" stroke-linecap="round" stroke-linejoin="round"><path d="M79 93.7c-6 10-22.2 57.6-15.5 86.4 8.1 34.4 54.6 44.9 102.1 19.7C214.3 174 182.2 95.5 175.3 88"/><path d="M184.3 105.4c2.6-1.1 7.4-1.3 9.3 2 1.8 3.2 2.7 9.3 1.4 15.1-.7 3.3-3 4.3-5 4.3M72.5 107.8c-5.9-3.5-11.4-.2-12.4 12.2-.7 7.9 2.9 11.4 5.4 11"/></g><g transform="translate(116 120)"><path d="M13.7 15c3.9 2.1 11 11.9 10.2 17.3-.5 3.6-8.5 2.5-12.9 1.7" stroke="#000" stroke-width="3" stroke-linecap="round" stroke-linejoin="round"/></g><g transform="translate(57 132)"><path d="M45.9 84.7c2.1 9-.1 17 1 20.4M86.3 78.5c0 7.6-.8 14.4-.8 17.8M74.7 107.6c0 2.6 1 9.8 1 12.4M72.4 121c-1.4-3.3-3.3-14.2-4.1-16.4M50.7 76.8c1 3.8-1.8 25.1 6.1 42.8M43.5 110.7A76 76 0 0 1 42 88M82 117a40.3 40.3 0 0 1-.6-16.6M78 106.6c-1.5-5.7 1.5-14.8 2.2-20.6M35.8 82c-3.6 4.8 0 16.8 0 23M96 77.8c2.2 3.5 4 12.3 4 20.8M92.8 85.3c0 7.2-3.4 16.3-3.4 20.3M60 107.5c-1.7-2.5-6.4-19.6-4.3-26M64.9 104c0-3-2-6.3-3-11.8M65.1 118.7c-.7-8-1.5-7.1-1.5-14.1M45.8 120.6c-2.6-7.2-6.4-8.6-7.7-13.6M104.2 109.7c0-3 1-8.2 1-10.1M51.5 126.8c-.8-8-2.5-11.5-2.5-18.4M72.8 108.3c-.8-8-2.5-11.5-2.5-18.4M97.7 115.5c-.7-8-1.8-9.2-1.8-16.1M62.8 128.8c-3.1-7.8-1.7-10-3.8-17.7M68.3 134a38 38 0 0 0-2.8-12.5M72.9 133.8c.5-1.8 0-5.7 0-8.5M44.1 82.6c.6-1.8 0-4.5 0-7.3M39 79c-1.2-2.5 1.3-4.1 1.3-7M60.5 86.6v-8.4M80.4 81.7V76M91.3 80.9c0-2.1 0-4.5-1.4-6.8M104.7 89.3c.6-1.7 0-4.5 0-7.2M101.8 78.5c-.4-1.8-2.2-4-3.5-6.4M77.8 132.4c.6-1.8 1-5.5 1-9.4M66.8 91.6c-1-2.3-.5-6.6-2.2-10.6M75 89.3c0-2.4-1.5-5.2-1.5-9.7M92.8 119.6c.5-2.3-.5-5.4.5-9.8M84 127.3c1.1-2.1 1-5.3 3.1-9.3M58.6 133.4c-.6-2.6-2-7.4-3.6-11.4M88.2 116.7a32 32 0 0 0-2.8-12.4" stroke="#000" stroke-width="3" stroke-linecap="round" stroke-linejoin="round"/></g><g transform="translate(86 184)"><path d="M34 10c-7.2 0-14-1.2-17-2 1 2.6 6.4 8.3 17 8.3 12 0 16.5-5.5 18.3-8.3-6 1.8-11 2-18.3 2Z" stroke="#000" stroke-width="3" stroke-linecap="round" stroke-linejoin="round"/></g><g transform="translate(-2 -17)"><g stroke="#0fa958" stroke-width="3" stroke-linecap="round" stroke-linejoin="round"><path d="M114.5 70c2 .5 6.5 2 8 6.5M122.5 84c-3-5-12.5-14-25.5-10-10 3-17.5 6.5-22.5 6.5M144.5 69c-5.3-.4-16.5 1-19 9.5"/><path d="M121.5 88C116 81 104 77 88 82c-8.6 2.7-20.7 13.5-22 23"/><path d="M119.5 90.5c-11-8-29-2.5-36 1.5-8.8 5-15 12.5-20 20.5"/><path d="M59 120c15.5-7 14.8-14 26.6-21.5C102 88 116 90 122 93.5M126.5 84.5c5-8 15.6-12.8 26.7-11.3s26.8 9.3 37.8 7.3"/><path d="M125.4 88.3c4.4-4.8 15.7-14.8 32.1-9.8 18 5.5 24 16 31.5 15"/><path d="M126.5 90.5c4.2-3.8 20-13.5 36.5-2 21.3 14.8 29.5 8.5 35 4"/><path d="M125 95.5c4.5-3.5 17.5-8 28-2 19 11 27 14.5 40 9.5M119.5 97.5c-14.5-1.5-30.5 3-38 15"/></g></g><g transform="translate(71 151)"></g><g transform="translate(71 89)"><path fill-rule="evenodd" clip-rule="evenodd" d="M36.8 29v-.2c0-.8-.7-1.5-1.5-1.4-1.4 0-3.5.5-5.3 1.4a7.8 7.8 0 0 0-4.3 5.4c-.5 3 0 5.3 1 6.9 1 1.5 2.4 2.3 3.1 2.7a13.6 13.6 0 0 0 5.4.6c1.2 0 2.5-.4 3.6-1.1 1.1-.8 2-2 2.3-3.6a12 12 0 0 0-.7-7 7 7 0 0 0-3-3.6l-.6-.1Zm-7.3 4a4.1 4.1 0 0 0-.9 2.2l.4-1 .5-1.1Zm1.3 4.4-.1.3.2.2v-.5Zm3-2.1v.5-.5Zm-1.8-3c.7-.2 1.6.1 2 .9l-.8.3.7-.3a4.6 4.6 0 0 1 .1.2 6.9 6.9 0 0 1 .4 1.5c0 .3 0 .8-.2 1.2-.5 1-1.4 1.3-2 1.3-.8 0-2-.2-2.4-1.4a2 2 0 0 1 0-1.5 2 2 0 0 1 1-1l.3-.2c.1-.4.4-.7.9-1Zm-.6 2.8ZM86 27V27c0-.9-.7-1.5-1.6-1.4-1.3 0-3.4.4-5.2 1.4a7.8 7.8 0 0 0-4.3 5.4c-.6 3 0 5.2 1 6.8 1 1.6 2.4 2.4 3.1 2.8a13.6 13.6 0 0 0 5.4.6c1.2-.1 2.5-.4 3.6-1.2 1.1-.7 2-2 2.3-3.6a12 12 0 0 0-.7-6.9 7 7 0 0 0-3-3.6l-.6-.1Zm-7.4 4.1a4.1 4.1 0 0 0-.8 2.1l.4-1c0-.4.2-.7.4-1Zm1.4 4.4-.2.3.3.2-.1-.5Zm3-2.1-.1.2v.2l.1-.4Zm.9 4a1.5 1.5 0 1 1 3 0 1.5 1.5 0 0 1-3 0Zm-2.7-7c.7-.3 1.6 0 2 .8l-.8.4.7-.4a4.6 4.6 0 0 1 .1.3 6.8 6.8 0 0 1 .4 1.5c0 .2 0 .7-.3 1.2-.4 1-1.3 1.3-2 1.3s-1.8-.3-2.3-1.4a2 2 0 0 1 0-1.5 2 2 0 0 1 1-1l.3-.2c.1-.4.4-.8.9-1Zm-.6 2.8Z" fill="#000"/><path d="M27.5 21.8c1-1.3 3.8-3.4 6-2M78 18c1-1.3 4.2-1.4 4.7 0" stroke="#000" stroke-width="3" stroke-linecap="round" stroke-linejoin="round"/></g></g></svg>