<svg xmlns="http://www.w3.org/2000/svg" viewBox="0 0 256 256" fill="none" shape-rendering="auto"><metadata xmlns:rdf="http://www.w3.org/1999/02/22-rdf-syntax-ns#" xmlns:xsi="http://www.w3.org/2001/XMLSchema-instance" xmlns:dc="http://purl.org/dc/elements/1.1/" xmlns:dcterms="http://purl.org/dc/terms/"><rdf:RDF><rdf:Description><dc:title>Croodles - Doodle your face</dc:title><dc:creator>vijay verma</dc:creator><dc:source xsi:type="dcterms:URI">https://www.figma.com/community/file/966199982810283152</dc:source><dcterms:license xsi:type="dcterms:URI">https://creativecommons.org/licenses/by/4.0/</dcterms:license><dc:rights>Remix of „Croodles - Doodle your face” (https://www.figma.com/community/file/966199982810283152) by „vijay verma”, licensed under „CC BY 4.0” (https://creativecommons.org/licenses/by/4.0/)</dc:rights></rdf:Description></rdf:RDF></metadata><mask id="viewboxMask"><rect width="256" height="256" rx="0" ry="0" x="0" y="0" fill="#fff" /></mask><g mask="url(#viewboxMask)"><path d="M175 107.8c.3.4.5.8.4 1.3 1.9 2.3 3.5 5 4.8 8 1.2-.4 2.5-.7 3.9-.6 1.7.2 3.3 1.1 4.4 3 2 3.5 3.4 8 1.8 14.6a7.9 7.9 0 0 1-2.7 4.6 6 6 0 0 1-2.4 1 54 54 0 0 1-1.6 15 55 55 0 0 1-46 38.4c-24 2.2-47.9-4.1-59.6-27a43 43 0 0 1-5.7-17.5c-1.4 0-2.9-.6-4.1-2a15.5 15.5 0 0 1-3-8.3c-.7-5.7.2-9.9 2-12.4 1-1.3 2.2-2.2 3.6-2.6 1.2-.4 2.6-.3 3.8.2a33.1 33.1 0 0 1 4-9l.3-.7c2.9-4.9 8.8-9.4 16.2-13a89.6 89.6 0 0 1 26.3-7.5c19-2.5 40.4.5 53.6 14.5Z" fill="#ffffff"/><g stroke="#000" stroke-width="3" stroke-linecap="round" stroke-linejoin="round"><path d="M78.7 115c-6.1 8.7-10.8 34.3-.6 51 11.6 22.5 35.3 28.9 59.6 26.6a54.7 54.7 0 0 0 45.7-38A56 56 0 0 0 175 109"/><path d="M181.2 118.4c2.6-1.2 5.6-1.7 7.4 1.5 1.9 3.2 3.2 7.3 1.7 13.6-1 4-3.3 4.9-5.3 4.9M73 124.6c-4.2-2-9.1 2.3-7.8 13.4 1 7.8 4 9.5 6.5 9.2"/></g><g transform="translate(113 126)"><path d="M23.3 22.4c.7.8 2.6 5.5-5.6 6.5-7 .8-7.1-3.7-7.1-5.3" stroke="#000" stroke-width="3" stroke-linecap="round" stroke-linejoin="round"/></g><g transform="translate(62 112)"></g><g transform="translate(98 169)"><path d="M22 16.7c7.2 3.9 23.1 2 25.4-7 .2-1 0-2.7-1.2-2.7" stroke="#000" stroke-width="3" stroke-linecap="round" stroke-linejoin="round"/></g><g transform="translate(-2 4)"><g stroke="#699bf7" stroke-width="3" stroke-linecap="round" stroke-linejoin="round"><path d="M114.5 70c2 .5 6.5 2 8 6.5M122.5 84c-3-5-12.5-14-25.5-10-10 3-17.5 6.5-22.5 6.5M144.5 69c-5.3-.4-16.5 1-19 9.5"/><path d="M121.5 88C116 81 104 77 88 82c-8.6 2.7-20.7 13.5-22 23"/><path d="M119.5 90.5c-11-8-29-2.5-36 1.5-8.8 5-15 12.5-20 20.5"/><path d="M59 120c15.5-7 14.8-14 26.6-21.5C102 88 116 90 122 93.5M126.5 84.5c5-8 15.6-12.8 26.7-11.3s26.8 9.3 37.8 7.3"/><path d="M125.4 88.3c4.4-4.8 15.7-14.8 32.1-9.8 18 5.5 24 16 31.5 15"/><path d="M126.5 90.5c4.2-3.8 20-13.5 36.5-2 21.3 14.8 29.5 8.5 35 4"/><path d="M125 95.5c4.5-3.5 17.5-8 28-2 19 11 27 14.5 40 9.5M119.5 97.5c-14.5-1.5-30.5 3-38 15"/></g></g><g transform="translate(69 153)"></g><g transform="translate(72 106)"><g stroke="#000" stroke-width="3" stroke-linecap="round" stroke-linejoin="round"><path d="M22.3 39.3c2.2-3.1 9-8.4 19-4M78 35c2.9-2.7 10.6-6.3 19.5 0"/><path d="M30.8 34.8c-1 .5-2.7 2.1-1.5 4.5 1.5 3 6.5.5 6-1.5-.4-1.6-2.2-2-3-2M87.3 32.4c-1 .2-3 1.4-2.4 4 .8 3.3 6.3 2 6.2-.2 0-1.6-1.7-2.4-2.5-2.5M18 25.9c5.4-1.7 18-3.6 25.7 2.2M75.2 28.7c3.4-5.4 14.3-11.2 22-7.6"/></g></g></g></svg>