<svg xmlns="http://www.w3.org/2000/svg" viewBox="0 0 256 256" fill="none" shape-rendering="auto"><metadata xmlns:rdf="http://www.w3.org/1999/02/22-rdf-syntax-ns#" xmlns:xsi="http://www.w3.org/2001/XMLSchema-instance" xmlns:dc="http://purl.org/dc/elements/1.1/" xmlns:dcterms="http://purl.org/dc/terms/"><rdf:RDF><rdf:Description><dc:title>Croodles - Doodle your face</dc:title><dc:creator>vijay verma</dc:creator><dc:source xsi:type="dcterms:URI">https://www.figma.com/community/file/966199982810283152</dc:source><dcterms:license xsi:type="dcterms:URI">https://creativecommons.org/licenses/by/4.0/</dcterms:license><dc:rights>Remix of „Croodles - Doodle your face” (https://www.figma.com/community/file/966199982810283152) by „vijay verma”, licensed under „CC BY 4.0” (https://creativecommons.org/licenses/by/4.0/)</dc:rights></rdf:Description></rdf:RDF></metadata><mask id="viewboxMask"><rect width="256" height="256" rx="0" ry="0" x="0" y="0" fill="#fff" /></mask><g mask="url(#viewboxMask)"><path d="M73.9 102a57.1 57.1 0 0 1 5-14.8c2.8-4.9 8.7-9.3 16.2-12.8a89.7 89.7 0 0 1 26.2-7.6c19-2.5 40.4.5 53.6 14.5.3.3.4.7.3 1.2 2.1 4 4.3 9.8 6.3 16.8 1.3-.5 3-.9 4.6-.7 2 0 4 .9 5.2 3 2 3.6 2.2 9.1.7 15.4a7.4 7.4 0 0 1-3 4.7c-.9.5-1.7.8-2.5 1 1.2 7.8 2.1 16 2.5 24.3.5 13.2-.3 26.3-3.3 37.3-3 11-8.4 20-17 24.7a78.6 78.6 0 0 1-56 8 51 51 0 0 1-37.2-31.5 161.1 161.1 0 0 1-5.1-49.6 246 246 0 0 1 .3-8.4 4.9 4.9 0 0 1-4.9-2.1 17.4 17.4 0 0 1-2.6-8.2c-.7-5.7.2-10 2.3-12.8a7 7 0 0 1 4-2.7c1.4-.4 3-.2 4.4.3Z" fill="#ffffff"/><g stroke="#000" stroke-width="3" stroke-linecap="round" stroke-linejoin="round"><path d="M79 87.3c-10.5 19.4-10.9 77.8-3.3 99 11.5 32.3 56.4 43.4 93.3 23.3 33.3-18.1 18-105 6.1-127.6"/><path d="M183 100.2c2.5-1.1 6.8-1.7 8.6 1.5 1.9 3.2 2 8.4.6 14.7-1 4-3.8 4.8-5.7 4.8M72.7 103c-6-2.6-10.8 2.6-9.5 13.7 1 7.8 3.4 9.6 6 9.3"/></g><g transform="translate(115 126)"><path d="M15.3 18c-4 .9-7.2 6.8-4 10 4 4 12.3 4.7 13.1 0 .7-3.9-1.3-6-2.7-6.7" stroke="#000" stroke-width="3" stroke-linecap="round" stroke-linejoin="round"/></g><g transform="translate(61 138)"></g><g transform="translate(98 188)"><g stroke="#000" stroke-width="3" stroke-linecap="round" stroke-linejoin="round"><path d="M11 11.2c3 1.1 9.3 3 24.3 1.7C54 11.2 54.3 9.6 58.7 7"/><path d="M35.7 7.6A36.7 36.7 0 0 0 17 12.7c15.7 12.4 34.8 0 34.8-2.6-2.4-1-2.4-3.3-16-2.5Z"/></g></g><g transform="translate(-2 -23)"><g stroke="#ffc700" stroke-width="3" stroke-linecap="round" stroke-linejoin="round"><path d="M78.5 109c5.5-.8 12 1.5 29.5-11.5s25-15 31.5-16M70 111c6.5-8 11.5-3.5 29-16.5s26.5-15 33-16M119 101.5c3-2.5 5.4-3.9 13.5-8 8-4.1 12.5-6.5 15.5-7M125 103.5c5-1.5 7.5-4 13.6-7.6 6-3.6 12.4-7 15.4-7.4M138 104.5c5-1.5 7.5-4 13.6-7.6 6-3.6 3.4-3 6.4-3.4M131 70c-13.2 3.7-41.2 12.8-48 20"/><path d="M122.5 81c-13.2 3.7-42.7 12.3-49.5 19.5M113.5 99.5c16-11.5 23.5-16 30-17M153.5 91.5c6 6.3 22 19 38 19M132 73c4.8-.5 15.5-.7 19.5 2.5 5 4 23.5 15.5 31 15.5"/><path d="M129 78.8c5.8-.6 18.7-.8 23.6 3 6 4.9 28.3 18.7 37.4 18.7"/></g></g><g transform="translate(71 156)"></g><g transform="translate(70 84)"><g stroke="#000" stroke-width="3" stroke-linecap="round" stroke-linejoin="round"><path d="M34.8 27.8c3.3.6 11-.1 14.7-7.9M65.2 15c.5 2.7 2.7 8.5 7.4 10.8 4.6 2.3 8.8 2.3 10.3 2M21.2 40.5a134 134 0 0 1 27.1-5M21 42.7c6.8-1.3 20.5-4.5 25.2-5.2M67.3 34.8c7.1-1.3 22.3 2.4 26.3 4.1"/><path d="M66.7 35.2c7.1-1.2 20.6 3.7 24.6 5.5"/><path d="M66.5 36.1c7-1.3 21.6 4.9 25.6 6.7"/><path d="M66.5 37.5c7-1.3 21.6 5 25.6 6.9M25 41.3c6.5-2.3 20.5-6.6 24-5.2M24 45c6.6-2.3 20.3-6.2 24-7"/></g></g></g></svg>