<svg xmlns="http://www.w3.org/2000/svg" viewBox="0 0 256 256" fill="none" shape-rendering="auto"><metadata xmlns:rdf="http://www.w3.org/1999/02/22-rdf-syntax-ns#" xmlns:xsi="http://www.w3.org/2001/XMLSchema-instance" xmlns:dc="http://purl.org/dc/elements/1.1/" xmlns:dcterms="http://purl.org/dc/terms/"><rdf:RDF><rdf:Description><dc:title>Croodles - Doodle your face</dc:title><dc:creator>vijay verma</dc:creator><dc:source xsi:type="dcterms:URI">https://www.figma.com/community/file/966199982810283152</dc:source><dcterms:license xsi:type="dcterms:URI">https://creativecommons.org/licenses/by/4.0/</dcterms:license><dc:rights>Remix of „Croodles - Doodle your face” (https://www.figma.com/community/file/966199982810283152) by „vijay verma”, licensed under „CC BY 4.0” (https://creativecommons.org/licenses/by/4.0/)</dc:rights></rdf:Description></rdf:RDF></metadata><mask id="viewboxMask"><rect width="256" height="256" rx="0" ry="0" x="0" y="0" fill="#fff" /></mask><g mask="url(#viewboxMask)"><path d="M75 97.4a66.3 66.3 0 0 1 6-18.2c2.8-4.9 8.8-9.3 16.2-12.9a90.8 90.8 0 0 1 26.4-7.5c19-2.5 40.1.4 53.4 13.9.3 0 .5.3.7.5a38.4 38.4 0 0 1 5.5 23.8c.9 0 1.9 0 2.9.2 1.5.5 2.9 1.6 4 3.4.6 1 .8 2.4.9 3.7 0 1.4 0 2.9-.3 4.3-.6 3-1.6 6-3 8.2-2.2 3.7-4.6 4.7-6.2 5h-.2l-2.1 15c-4.2 27.3-11 49.4-19.2 64.9-4 7.7-8.5 14-13.1 18.3a26.6 26.6 0 0 1-14.4 7.9c-8.8 1.2-24.8-4.6-41.3-35.6a168.2 168.2 0 0 1-17.8-69.7 7 7 0 0 1-4.4-2.3 13.7 13.7 0 0 1-3.3-6.7c-1.4-6.7-.5-11.3 1.8-14 2-2.4 5-3 7.5-2.2Z" fill="#ffffff"/><g stroke="#000" stroke-width="3" stroke-linecap="round" stroke-linejoin="round"><path d="M182.8 98.1c2.3-.3 5-.3 6.8 2.9 1.8 3.2.1 11-2.3 15-2 3.5-4.2 4.3-5.4 4.5M74 98.7c-4.3-2-11.1 1.2-8.4 14.6 1.1 5.2 4.6 8.4 7.1 8"/><path d="M81 79.4c-14.7 29-6 82.7 10.6 114.3 16.6 31.6 32.4 36.8 40.4 35.7 18.5-2.6 37.9-36.2 46.3-92.3C184 99.5 184 83 177.1 73"/></g><g transform="translate(117 128)"><path d="M2 2.7c3.5 0 7.7 5.7 8.1 14.8.7 14.7-4.2 19.4 0 27 2.7 5 17.8 4.7 21.9-3.6 3.2-6.5-3-12-6.6-20.7-3.5-8.3-5.7-13.4-2-18.2" stroke="#000" stroke-width="3" stroke-linecap="round" stroke-linejoin="round"/></g><g transform="translate(62 148)"></g><g transform="translate(97 191)"><g stroke="#000" stroke-width="3" stroke-linecap="round" stroke-linejoin="round"><path d="M54.3 13.7c4.9-9.4-1.4-10-6.6-7.4a48.9 48.9 0 0 1-23.5 2.4C17.8 6.3 14.4 2 14 13c-.4 11 36.2 8.6 40.3.8Z"/><path d="M15.2 11.9c8 2.7 27 5.8 39.2-4M24 11l-1 5.6M30.8 12.4l-.5 6.2M37.4 11.7l1 6.4M45.3 9.8l1.4 7"/></g></g><g transform="translate(0 -31)"><g stroke="#699bf7" stroke-width="3" stroke-linecap="round" stroke-linejoin="round"><path d="M86.3 99.9c-5.8-4-11-6.4-16.1-7.5M82.3 102.2C78.8 101 75.9 101 69 101M91 97.6c-4.1-4-11.6-11-13.4-13.3M93.2 94c-3-2.2-9.6-8.6-11-15.5M86.9 77.4c.5 1.9 2 7.4 6.9 13.2 2.9 3.5 5.2 5.2 7 8.1M91.5 76.2c1.1 5.2 5.2 13.3 10.4 16.2M105.3 95.8c-5.2-4-8.6-15.5-9.2-21.9M100.1 70.5c0 4 0 15 6.4 19M105.3 72.8c2 4.9 6 16.7 6 24.3M111.4 84.9a42 42 0 0 1-1.2-14.4M114.5 77.4c.4 4.2 2 13.6 5.2 17.3"/><path d="M119.2 68.7c-.8 4.6-3 17.9-.6 24.2M120.9 80.3c1 4 4 11 8.6 13.8"/><path d="M126 90c-2.8-6.9-2.1-15.6-1.7-20.7M127.2 74c0 2 1.2 8.3 5.8 16.6"/><path d="M133 68.7a44 44 0 0 0 0 22M135.9 75.6a39.3 39.3 0 0 0 4.6 22M142.2 90c1.2-9.2-1.2-14.4-2.3-19M143.4 82c3.4 5.8 4 9.8 3.4 15M145.3 78c-.6-2.2-1.4-7.3 0-11M78.8 91.2a19 19 0 0 1-7.5-4M154.2 80.7c.8-2.3 1.6-9.3 1.2-12.5M150.3 69.3a66.1 66.1 0 0 0 1.7 26.5M156.2 96c-.4-2.4-1.1-8.1 0-11.7M160 94c-.3-3.4-1.2-15.6 3-20.7M164.1 95.8V79.7M174 81.4c-2.2 1.2-8.2 7-9.9 14.4M172.2 72.8c-1.3 1.2-4 4.8-4.6 9.2M177.4 79.7c-2 3.2-5.8 11.2-5.8 16.7M182.6 83.1c-3.1 3.5-9.5 11-10.4 13.3M186 94.7s-5.7 1.7-10.4 5.7"/></g></g><g transform="translate(70 157)"></g><g transform="translate(72 80)"><path d="M35.5 48c-.7-.6-5.1-2.3-7.4-6.2-2.3-3.8-2.5-7.7 0-9.3 1.6-1.2 5.1.6 7.4 2.2M36.4 34c1.5-1.6 4.1-3 6.7-1.6 1.8 1 1.6 7.1 0 9.4-1.2 1.9-5.2 5-6.7 6M77.7 33.3c-2.2-2.1-7.1-5.4-9.2-1.7-2.6 4.6 5.6 13 10.2 14.8M79.8 47c2.2-1.7 7-5.4 7.8-6.6 1-1.5 2.8-8 0-10.6-2.8-2.6-8.6 1-8.6 5.2M26 18.3c.6-1.4 3-4.2 7-3.7 5.2.6 6.2 1.5 7.4 3.7M72.2 16.2c.5-1.7 3-4.8 8.2-4 5.2.6 7 3.5 7.3 4.9" stroke="#000" stroke-width="3" stroke-linecap="round" stroke-linejoin="round"/></g></g></svg>