<svg xmlns="http://www.w3.org/2000/svg" viewBox="0 0 256 256" fill="none" shape-rendering="auto"><metadata xmlns:rdf="http://www.w3.org/1999/02/22-rdf-syntax-ns#" xmlns:xsi="http://www.w3.org/2001/XMLSchema-instance" xmlns:dc="http://purl.org/dc/elements/1.1/" xmlns:dcterms="http://purl.org/dc/terms/"><rdf:RDF><rdf:Description><dc:title>Croodles - Doodle your face</dc:title><dc:creator>vijay verma</dc:creator><dc:source xsi:type="dcterms:URI">https://www.figma.com/community/file/966199982810283152</dc:source><dcterms:license xsi:type="dcterms:URI">https://creativecommons.org/licenses/by/4.0/</dcterms:license><dc:rights>Remix of „Croodles - Doodle your face” (https://www.figma.com/community/file/966199982810283152) by „vijay verma”, licensed under „CC BY 4.0” (https://creativecommons.org/licenses/by/4.0/)</dc:rights></rdf:Description></rdf:RDF></metadata><mask id="viewboxMask"><rect width="256" height="256" rx="0" ry="0" x="0" y="0" fill="#fff" /></mask><g mask="url(#viewboxMask)"><path d="M73.7 93.5a45.6 45.6 0 0 1 7.2-17c3-5 9-9.5 16.4-13a90.1 90.1 0 0 1 26.4-7.7c19-2.5 40.2.5 53.5 14l.6.4c7.8 7.5 9.5 18.5 9.2 30.3v1.3c1.5.3 3.3 1.3 4.8 3.2 1.8 2.4 2.8 6.3 1.8 12a21.4 21.4 0 0 1-2.9 8.1l-.8 1.5c-.8 1.4-1.6 2.9-2.7 3.8a4 4 0 0 1-3 .9l-.5 6.4c-2.2 37-4.7 59.8-22.1 79.2-16.9 18.7-43.6 13.3-57 0-10.7-10.7-28.5-33-32-83.4-1.9.3-3.7-1-5-3-1.6-2.4-3-6.1-4.1-11.8-1-5.5-.3-9.4 1.5-12a8.2 8.2 0 0 1 6.8-3.4h.5c.3-3.7.8-7 1.4-9.8Z" fill="#ffffff"/><g stroke="#000" stroke-width="3" stroke-linecap="round" stroke-linejoin="round"><path d="M186.4 102.2c2.3 0 8.3 2.7 6.4 13.8-.9 4.9-2 6-3.7 9.2-1.5 2.8-2.7 4.9-5.5 3.6M70.4 103.8c-3.8 0-9 3.2-7 13.8 2.2 11.4 5.6 14.4 7.9 13.7"/><path d="M82.2 74.4C75 84.8 70.4 94 72.7 131c3.2 51.9 21.4 74.5 32.2 85.2 13.1 13 39.3 18 55.7 0 17.3-19.2 19.8-41.8 22-79.2 1.5-24.9 9.4-52.8-5.4-67"/></g><g transform="translate(117 131)"><path d="M15.3 18c-4 .9-7.2 6.8-4 10 4 4 12.3 4.7 13.1 0 .7-3.9-1.3-6-2.7-6.7" stroke="#000" stroke-width="3" stroke-linecap="round" stroke-linejoin="round"/></g><g transform="translate(63 147)"></g><g transform="translate(100 194)"><path d="M17 12a88 88 0 0 0 36.2 0" stroke="#000" stroke-width="3" stroke-linecap="round" stroke-linejoin="round"/></g><g transform="translate(0 -34)"><g stroke="#9747ff" stroke-width="3" stroke-linecap="round" stroke-linejoin="round"><path d="M165 74.8c-3 2.4-5.4 7.1-3 9.9 3.9 4.6 8.5 4.5 10 1.2 1.3-3.4.6-8.3-2-9.4-2-.8-3.8-.4-4.8.4M140.3 79.1c1.3-5.2 0-12.7-5-14C127 63 121.8 67 123 72c1.3 5 6.4 10 10.1 9.3a7 7 0 0 0 5.3-4.4"/><path d="M150 69.8c-2.8 3-4.9 9.5-2 12.2 5 4.6 10.5 5.2 12.8-1.8 1.2-3.8-2.2-8.4-5-9.2-2.3-.6-4.3 0-5.3 1M56.4 110.4c-4.3 3-1 10 4.5 10 9.2 0 8.5-3.5 5.8-8.4-2.6-4.8-10.3-7.4-12.3-4M83.7 81.4c3.5-2.6 10.5-3.7 13 0 .9 1.3-.5 8.6-4 10.3C90 93 85.5 95 81.7 93.2c-3.9-2-3.6-7.5 2.1-11.8Z"/><path d="M100.7 78.4c3.5-2.6 10.5-3.7 13 0 .9 1.3-.5 8.6-4 10.3-2.8 1.4-7.3 3.4-11.1 1.5-3.9-2-3.6-7.5 2.1-11.8ZM69.6 78.5c9.5-6.5 19.7-7 22-2.5 2.2 4.5-3.3 9.5-6.5 11.5-6 3.6-15 5-19 3.1-3.8-1.9-2.5-8 3.5-12.1ZM144.7 88c-1.4-2 1.8-2.5 5-3.2a7 7 0 0 1 5 1c1.8 1 1 2.5-.5 4.5-1.4 2-7 1.3-9.5-2.2ZM158 92.5c-1.5-2-1.7-3.8.5-6 1.5-1.5 3-1.3 4.5-.5 1.8 1 2.5 4 1 6s-3.5 4-6 .5ZM56.7 121c2.5-2.1 7.6-.7 8.9 3.2.8 2.4.2 4.6-.6 6.6-1 2.4-5.4 2.9-8.3 1.2-2.9-1.6-4.3-7.3 0-11ZM139.9 66.6c3.5-1.9 8.8-3 10.7 1.6 1 2.2 0 4.5-1.2 6.1-1.5 2.1-5.8 3.5-9.8 2.2-4-1.4-5.7-6.8.3-10ZM118.9 79.6c3.5-1.9 8.8-3 10.7 1.6 1 2.2 0 4.5-1.2 6.1-1.5 2.1-5.9 3.5-9.8 2.2-4-1.4-5.7-6.8.3-10Z"/><path d="M87.6 68.6c4.2-1.9 10.7-3 13 1.6 1 2.2-.1 4.5-1.5 6.1-1.8 2.1-7 3.5-11.8 2.2-4.7-1.4-6.8-6.8.3-10ZM134.9 80.6c3.5-1.9 8.8-3 10.7 1.6 1 2.2 0 4.5-1.2 6.1-1.5 2.1-5.8 3.5-9.8 2.2-4-1.4-5.7-6.8.3-10ZM110.4 64c5-2.4 12.4-3.7 15 2.3 1.4 3 0 6-1.6 8.2-2.1 2.7-8.2 4.6-13.8 2.8-5.5-1.9-8-9 .4-13.2ZM177 113.9c2.2-3.6 4.3-5 8.3-2.8 2 1 2.3 3.4 2 5.4-.2 2.4.6 5.4-3.7 6.9a6.1 6.1 0 0 1-6.6-9.5ZM181.3 101.4c1.4 3.5-.4 7.5-4.7 9-2 .7-5.2 2.7-6.6 1.4-1.8-1.6-2-7-.3-10.7 1.6-3.7 9.3-5.6 11.6.3ZM81 105.3c0-4 2.6-10 6.8-10.5 2-.3 5.3 1.2 6.2 2.9 1 2-.2 6.8-2.7 10.4-2.6 3.6-10 4-10.3-2.8ZM61 102c-.6-5.4 5.5-10.6 12-11 3.3-.2 5.5.3 7.6 2.2 2 1.8 2.1 5.7-1.5 10.3-3.7 4.5-17.2 7.8-18.1-1.4ZM65.7 127.8c-.4-4.5 4.7-8.8 10-9.2 2.7-.1 4.5.3 6.2 1.9 1.7 1.4 1.8 4.7-1.2 8.4-3 3.8-14.1 6.5-15-1.1Z"/><path d="M67.9 113.8c-1.4-3.6 1.8-8.2 6.1-9.7 2.2-.7 3.7-.8 5.5 0 1.7 1 2.5 3.6.9 7.3-1.6 3.7-10.1 8.4-12.5 2.4Z"/><path d="M72.6 103.2c-1.2-3 1.5-6.9 5.1-8.1 1.8-.6 3.1-.6 4.6 0 1.4.8 2 3 .7 6-1.3 3.2-8.4 7.1-10.4 2ZM92.6 95.4c-1-2.3 1.1-5.3 4-6.3 1.3-.4 2.3-.4 3.4.1 1 .5 1.6 2.2.6 4.6-1 2.4-6.5 5.4-8 1.6ZM179 79.8c3.6 1.2 7.4 7.3 5.9 11.5-.8 2.2-4 2.7-5.8 3.5-1.7.8-4.2-.2-6-3.8-2-3.6-.3-13 5.8-11.2ZM98.6 63.8c4.4-3.2 12-2 15.2 2.7 1 1.6.5 7-1 10-1.8 3.6-9.3 4.3-14.2 1.9-4.9-2.5-7.3-9.1 0-14.6Z"/><path d="M164 90.1c2.7-2 7.6-1.2 9.7 1.7.6 1 .3 4.3-.7 6.1-1.2 2.3-6 2.7-9 1.2-3.2-1.5-4.7-5.6 0-9ZM63.4 132c.1-2.6 3-5.1 5.8-5 2.2.5 2.8 2.1 3.4 3.6.9 1.8-1.2 4.9-3.6 6-2.5 1-5.8 0-5.6-4.6ZM182.1 124.7c.1-2.6 3-5.1 5.8-5 2.2.5 2.8 2.1 3.4 3.6.9 1.8-1.2 4.9-3.6 6-2.5 1-5.8 0-5.6-4.6ZM188 114c.1-2.7 2.7-7.7 5.5-7.5 2.2.4 2.5 1.5 2.8 5.8.2 2-1.2 4.9-3.6 6-2.5 1-4.9.2-4.7-4.3ZM63.3 113.8c1.9-2 3.4-2.8 4.8 0 .5 1 1.3 2.7.7 4.5-.8 2.1-4 5.8-6 4.4-2.2-1.5-2.7-5.6.5-9Z"/><path d="M179.1 93c.8-4.4 5.6-3.5 7.7-2.5 2 1.1 5.2 5.3 6 8.1 1 3.6-1.1 10.7-5.3 11.7-7 1.5-9.6-10-8.4-17.4Z"/></g></g><g transform="translate(72 160)"></g><g transform="translate(72 89)"><path d="M30.2 23.6c2.6 1.8 7.7 6 8.2 7.8.4 2-8.8 5.3-13.4 6.8M89.4 22c-3.6 1.3-10.5 4.3-9.7 6 1 2.1 6.9 3.7 9.7 5.8" stroke="#000" stroke-width="3" stroke-linecap="round" stroke-linejoin="round"/></g></g></svg>