<svg xmlns="http://www.w3.org/2000/svg" viewBox="0 0 256 256" fill="none" shape-rendering="auto"><metadata xmlns:rdf="http://www.w3.org/1999/02/22-rdf-syntax-ns#" xmlns:xsi="http://www.w3.org/2001/XMLSchema-instance" xmlns:dc="http://purl.org/dc/elements/1.1/" xmlns:dcterms="http://purl.org/dc/terms/"><rdf:RDF><rdf:Description><dc:title>Croodles - Doodle your face</dc:title><dc:creator>vijay verma</dc:creator><dc:source xsi:type="dcterms:URI">https://www.figma.com/community/file/966199982810283152</dc:source><dcterms:license xsi:type="dcterms:URI">https://creativecommons.org/licenses/by/4.0/</dcterms:license><dc:rights>Remix of „Croodles - Doodle your face” (https://www.figma.com/community/file/966199982810283152) by „vijay verma”, licensed under „CC BY 4.0” (https://creativecommons.org/licenses/by/4.0/)</dc:rights></rdf:Description></rdf:RDF></metadata><mask id="viewboxMask"><rect width="256" height="256" rx="0" ry="0" x="0" y="0" fill="#fff" /></mask><g mask="url(#viewboxMask)"><path d="M174.2 103.2c.4.4.5 1 .3 1.5.3.1.5.3.7.6 2.3 4.5 4.5 9.8 6.4 15.5l.7-.2 1.7-.7c1-.3 2.1-.6 3.3-.7 1.1 0 2.4.1 3.5.9 1 .7 1.8 2 2.2 3.5 1.3 5.7 1.3 9.3 0 15.2a7 7 0 0 1-2.1 4c-1 .7-2 1-3 1.1a159.9 159.9 0 0 1 2.6 21.4c0 2.7-.1 5-.4 7-.4 2-1 3.7-1.9 5a38.7 38.7 0 0 1-18.6 10.3 150.8 150.8 0 0 1-59.5 4.1 62 62 0 0 1-24-7.5c-4.3-2.7-7.3-8-9.4-14.3a91.6 91.6 0 0 1-4.1-22.5c-3.3 0-7.4-3.2-9.8-11.2-1.3-4.7-1-8.7 1.1-11.2 2.2-2.4 5.7-2.8 9.5-1.7.8-5.8 2.2-10.7 4.1-14l.5-.4a38 38 0 0 1 16.2-12.6 90.5 90.5 0 0 1 26.2-7.5c19.2-2.5 40.6.5 53.8 14.4Z" fill="#ffffff"/><g stroke="#000" stroke-width="3" stroke-linecap="round" stroke-linejoin="round"><path d="M174.8 105c11.3 21.8 19.2 65 13.4 72.3C175 194 109 199 86 184.2c-15.5-10-16.5-61.2-8.3-75M183 121.7c3-1 8.5-3.8 9.8 1.8 1.3 5.6 1.3 9 0 15-.7 3-2.3 4-4.3 4"/><path d="M72.2 124.3c-7.6-2.4-12.1 2-9.4 11.4 2.6 9 7 10.8 9.4 10.3"/></g><g transform="translate(112 122)"><path d="M21.7 10c5 4 12 23 6 29S19 34.3 14 34.3c-5.1 0-9 6-8.5-1 .4-5.6 4-5.5 4.7-5.8" stroke="#000" stroke-width="3" stroke-linecap="round" stroke-linejoin="round"/></g><g transform="translate(63 112)"></g><g transform="translate(98 168)"><path d="M34 9c-7.2 0-14-1.2-17-2 1 2.6 3.4 12 17 12 13.7 0 16.5-9.2 18.3-12-6 1.8-11 2-18.3 2Z" stroke="#000" stroke-width="3" stroke-linecap="round" stroke-linejoin="round"/></g><g transform="translate(-3 -1)"><g stroke="#000000" stroke-width="3" stroke-linecap="round" stroke-linejoin="round"><path d="M116.4 28C105.6 33 83.8 49.4 82.6 73c-1.5 29.7-6.6 42.6-1.2 47.8 5.4 5.1 21.9-10.7 48-6.2 26 4.6 44.9 5.9 48.7 0 3.8-5.8 2.7-51.9-3.4-64.1-6.1-12.3-23.3-22-38.6-22.6"/><path d="M80 106.4c25.7-3.9 81.7-9.2 99.3 0M120.2 30.3C113.6 38 99.5 56 96.4 67.5c-3 11.4-3 29.5-3.2 35.6M125.8 29.8c-6.6 7.6-8.5 23.8-11.6 35.2-3 11.5-2.7 30-3 36"/><path d="M135.4 28.4c9.8 4.9 12.9 25 14.3 36.8a338 338 0 0 1 2.6 36.3M130.3 28.9c4.4 2.4 3.1 14 1.3 32a112.7 112.7 0 0 0 1.5 40.1M113 13.5c2.9 1.4 8.4 6.6 10.9 9-2-4-4.2-21 3.6-20.5 7.7.5 4.4 13.6 2.6 18.9 2.2-2.5 8.8-9.4 11.2-7.4 3 2.4 1.9 12.2-9.2 14.5-4.1.8-8.2 2.4-14.3 0-6-2.5-10.2-5.5-12.7-9.7-2.4-4.2 4.3-6.6 7.9-4.8Z"/></g></g><g transform="translate(68 149)"></g><g transform="translate(71 103)"><g stroke="#000" stroke-width="3" stroke-linecap="round" stroke-linejoin="round"><path d="M25.5 18.2c1.7-1.3 6.1-2.6 11.3-1.9 4.5.6 6.4 2.3 7.7 4.3M73 20c2-2.8 5.8-3.3 8.2-3.4 2.4-.2 5 0 7.2.6M4 20.6l13.7 8.5M48.2 33A31.5 31.5 0 0 1 68.7 31M96.9 28.8c2.5-1.3 10.6-8.8 13.1-10.6M18.1 29.7c-.3 3.7-.4 13.1 4.4 16.6 4.7 3.5 23.5-.3 25.2-1 1.7-.5 1.7-7.7-.9-14.3-2.1-5.5-20.5-3.7-28-2.3"/><path d="M70.5 28c6-2.7 22-1 25 0 3.7 1 4.1 10.3 3.8 13.7C98.9 45 78.8 45 74 44.9c-3.7-.1-4.9-11.6-4-16.5M33.4 32.3c-.4.2-1 1-.8 1.9.4 1 3.4 2.5 3.5.8.1-1.7-.4-2.3-1.2-1.6"/><path d="M81.6 31.2c-.6.6-1.7 1.8-1 2.3 1 .7 4.3 2.3 4 0-.2-1.8-1.1-1.7-1.5-1.4l-.8.8"/></g></g></g></svg>