<svg xmlns="http://www.w3.org/2000/svg" viewBox="0 0 256 256" fill="none" shape-rendering="auto"><metadata xmlns:rdf="http://www.w3.org/1999/02/22-rdf-syntax-ns#" xmlns:xsi="http://www.w3.org/2001/XMLSchema-instance" xmlns:dc="http://purl.org/dc/elements/1.1/" xmlns:dcterms="http://purl.org/dc/terms/"><rdf:RDF><rdf:Description><dc:title>Croodles - Doodle your face</dc:title><dc:creator>vijay verma</dc:creator><dc:source xsi:type="dcterms:URI">https://www.figma.com/community/file/966199982810283152</dc:source><dcterms:license xsi:type="dcterms:URI">https://creativecommons.org/licenses/by/4.0/</dcterms:license><dc:rights>Remix of „Croodles - Doodle your face” (https://www.figma.com/community/file/966199982810283152) by „vijay verma”, licensed under „CC BY 4.0” (https://creativecommons.org/licenses/by/4.0/)</dc:rights></rdf:Description></rdf:RDF></metadata><mask id="viewboxMask"><rect width="256" height="256" rx="0" ry="0" x="0" y="0" fill="#fff" /></mask><g mask="url(#viewboxMask)"><path d="M75 97.4a66.3 66.3 0 0 1 6-18.2c2.8-4.9 8.8-9.3 16.2-12.9a90.8 90.8 0 0 1 26.4-7.5c19-2.5 40.1.4 53.4 13.9.3 0 .5.3.7.5a38.4 38.4 0 0 1 5.5 23.8c.9 0 1.9 0 2.9.2 1.5.5 2.9 1.6 4 3.4.6 1 .8 2.4.9 3.7 0 1.4 0 2.9-.3 4.3-.6 3-1.6 6-3 8.2-2.2 3.7-4.6 4.7-6.2 5h-.2l-2.1 15c-4.2 27.3-11 49.4-19.2 64.9-4 7.7-8.5 14-13.1 18.3a26.6 26.6 0 0 1-14.4 7.9c-8.8 1.2-24.8-4.6-41.3-35.6a168.2 168.2 0 0 1-17.8-69.7 7 7 0 0 1-4.4-2.3 13.7 13.7 0 0 1-3.3-6.7c-1.4-6.7-.5-11.3 1.8-14 2-2.4 5-3 7.5-2.2Z" fill="#ffffff"/><g stroke="#000" stroke-width="3" stroke-linecap="round" stroke-linejoin="round"><path d="M182.8 98.1c2.3-.3 5-.3 6.8 2.9 1.8 3.2.1 11-2.3 15-2 3.5-4.2 4.3-5.4 4.5M74 98.7c-4.3-2-11.1 1.2-8.4 14.6 1.1 5.2 4.6 8.4 7.1 8"/><path d="M81 79.4c-14.7 29-6 82.7 10.6 114.3 16.6 31.6 32.4 36.8 40.4 35.7 18.5-2.6 37.9-36.2 46.3-92.3C184 99.5 184 83 177.1 73"/></g><g transform="translate(117 128)"><path d="M2 2.7c3.5 0 7.7 5.7 8.1 14.8.7 14.7-4.2 19.4 0 27 2.7 5 17.8 4.7 21.9-3.6 3.2-6.5-3-12-6.6-20.7-3.5-8.3-5.7-13.4-2-18.2" stroke="#000" stroke-width="3" stroke-linecap="round" stroke-linejoin="round"/></g><g transform="translate(62 148)"></g><g transform="translate(97 191)"><path d="M43.8 10.4c-8 1.5-20.5 1-22.4 2.4-3.4 3.7 16.2 1.3 20.5.8 8.8-1 11.7-4.9 2-3.2Z" stroke="#000" stroke-width="3" stroke-linecap="round" stroke-linejoin="round"/></g><g transform="translate(0 -31)"><path d="M81 110c11-18.5 70-33.4 96-5.8" stroke="#000" stroke-width="3" stroke-linecap="round" stroke-linejoin="round"/></g><g transform="translate(70 157)"></g><g transform="translate(72 80)"><path d="M26.7 26.3c1-2.5 4.2-7.3 9.9-7.1 5.7.2 8.3 3.4 8.9 5M71.2 24.6c1-2.9 4.2-8.4 9.2-7.7 5 .6 7.5 4.3 8.1 6M25 43c2.7-4 9.5-6.7 15-6.2 6.7.6 4.3 6.6 2.6 7.3-2.2.9-5.2-.9-3.3-3.3 1.4-2 2.8 0 2.4.8M72.6 38.6c1.7-1.7 6.5-5.2 11.4-5 6.1.4 7.8 3.4 6 5.5-2 2.2-4.6 2.5-4.6 0 0-2.4 2-2.5 2.8-1" stroke="#000" stroke-width="3" stroke-linecap="round" stroke-linejoin="round"/></g></g></svg>