<svg xmlns="http://www.w3.org/2000/svg" viewBox="0 0 256 256" fill="none" shape-rendering="auto"><metadata xmlns:rdf="http://www.w3.org/1999/02/22-rdf-syntax-ns#" xmlns:xsi="http://www.w3.org/2001/XMLSchema-instance" xmlns:dc="http://purl.org/dc/elements/1.1/" xmlns:dcterms="http://purl.org/dc/terms/"><rdf:RDF><rdf:Description><dc:title>Croodles - Doodle your face</dc:title><dc:creator>vijay verma</dc:creator><dc:source xsi:type="dcterms:URI">https://www.figma.com/community/file/966199982810283152</dc:source><dcterms:license xsi:type="dcterms:URI">https://creativecommons.org/licenses/by/4.0/</dcterms:license><dc:rights>Remix of „Croodles - Doodle your face” (https://www.figma.com/community/file/966199982810283152) by „vijay verma”, licensed under „CC BY 4.0” (https://creativecommons.org/licenses/by/4.0/)</dc:rights></rdf:Description></rdf:RDF></metadata><mask id="viewboxMask"><rect width="256" height="256" rx="0" ry="0" x="0" y="0" fill="#fff" /></mask><g mask="url(#viewboxMask)"><path d="m176 91.2.3.4c.3.1.7.4.9.7a81 81 0 0 1 8 27.7c4.7-1.6 11.8 2 11.8 10 0 4-.3 6.7-1 9-.6 2.3-1.6 4-3 5.8a9.4 9.4 0 0 1-7.7 3.3 71.7 71.7 0 0 1-26.1 49.2 51.6 51.6 0 0 1-37.2 11.4 43.6 43.6 0 0 1-30.2-18 114.1 114.1 0 0 1-19.5-42.3c-1.5.2-3.8 0-6-1.2-3-1.5-5.7-4.7-6.8-10.6-1-5.3-.4-10 1.7-13a8 8 0 0 1 4.3-3.1c1.5-.5 3.2-.5 5 0A42.2 42.2 0 0 1 96 84.3a90.3 90.3 0 0 1 26.3-7.5c19.1-2.5 40.5.5 53.7 14.4Z" fill="#ffffff"/><g stroke="#000" stroke-width="3" stroke-linecap="round" stroke-linejoin="round"><path d="M81.3 95c-17 17-15 61 11 96.5 15 20.5 42.2 25.1 66.7 6.5 34.5-26.2 30.5-83 18-106"/><path d="M186.4 121.4c3.6-1.9 10.7.8 10.7 8.7 0 7.8-1.1 10.8-3.7 14.2-2 2.6-5.6 3.2-8 2.7M69.7 121.9c-7.7-2.4-12.2 4-10.2 14.6 2.1 11.4 10.2 11.3 12.5 10.8"/></g><g transform="translate(112 123)"><path d="M13.3 12C15 28 20.7 22.4 23 31.3c2 7-9.2 7.7-12.1 5.4" stroke="#000" stroke-width="3" stroke-linecap="round" stroke-linejoin="round"/></g><g transform="translate(60 128)"></g><g transform="translate(95 180)"><path d="M4 14.8s5.7-2.8 7.1-7.6M12.2 9c.2.8-7 9.3-7 9.3M14.2 8.6C13.7 12.7 9 18.9 9 18.9M11.6 20s5.3-4.8 5.8-10.3M19.6 9.4c0 3.5-1.7 11.2-1.7 11.2M45.6 7.7V20M18.7 20.2s4.2-5.3 4.2-9.6M49.2 18.2s-3-6.2-3-10.6M25.3 10.2c.3 2.4-2.9 9.8-2.9 9.8M55.5 6.9c.3 2.3 5.4 8.3 5.4 8.3M49.2 8a50 50 0 0 0 4.8 9.8M27.7 10c-.6 4-1.3 10.7-1.3 10.7M50.8 7.3l6.4 9.2M30 9.9c.6 2.8.8 8.6 3.7 10.6M58.5 7.3c1.5 2.3 4.4 5.9 8.2 6.8M34 9c0 1.3-1.8 5.9 1 11M40 20.5S35 14.3 35 9M37.5 8.6c0 3.8 6.1 12 6.1 12M44.5 20c-.6-2-3.8-9.3-3.4-12.5" stroke="#000" stroke-width="3" stroke-linecap="round" stroke-linejoin="round"/></g><g transform="translate(-1 -13)"><g stroke="#000000" stroke-linecap="round" stroke-linejoin="round"><path d="M80.8 109 50 83.4C56 73 85.7 50 103.4 50c22 0 18.7 14.3 27 14.3 12.6 0 11.1-3 19.6-12.2 6.7-7.4 43.3 6.8 66 17.3l-39.2 34.3c-6.3-3.4-30.4-8.2-47.9-8.2-17 0-40.4 8.2-48.1 13.4Z" stroke-width="3"/><path d="M159 63c-1 8.5-3 29.7-3 33.2 0 3.9-5-26.5-5.8-28.4l-1.5 27-3.9-24.5-2 24.4-4.7-24-.6 21-6.5-21.4-2.4 21.4-4.5-21.4-1.7 21.4-5.8-23.2L119 93l-14.2-31.4 8.4 33.1L109 87 96 63l8.7 34.3L89.5 66l9.1 33.6-17.2-29.2 8.1 27-14.6-22L88 102.7 73.2 80.5l10.5 25-17-25 6.5 20-9.8-14.7m98.4 10.4 5.4-31.3v33.8l8.2-30.2-1.7 26.2 7.8-24-6.1 29.8 11.1-28.2-1.5 19.4 7.8-17.5v9.3l5.5-6" stroke-width="6"/><path d="M57.2 87.5c10.1-9.7 33.3-29.2 45.2-29.7 11.9-.6 5 5.3 19 12l22.4-2.2c7.6-2.9 10-11 18.3-8 8.4 3 26.1 11.7 43 17.3" stroke-width="3"/></g></g><g transform="translate(67 152)"></g><g transform="translate(71 102)"><g stroke="#000" stroke-width="3" stroke-linecap="round" stroke-linejoin="round"><path d="M20.4 39.8c2.2-3.1 9-8.4 19-4"/><path d="M29 35.3c-1 .5-2.8 2.1-1.6 4.5 1.5 3 6.5.5 6-1.5-.4-1.6-2.1-2-3-2M17 24.6C21.8 23 33.2 21 40 27M71.4 24.6c4.8-1.7 16.2-3.6 23 2.3M68 28c6.4-.8 24.3 1.6 27 3.2 3 1.8 3.5 15.2 1.2 21.6-1.2 3.2-13.3 6.7-23.8 0-7.5-4.7-5.9-18.8-5-23.7"/><path d="M70.6 31c-.7 1.9-1.8 8.5-2.5 10.8l5-10.2c-.7 3.2-3.5 14.2-3.3 15.2.3 1.2 5.9-15.3 6.5-15.2.6 0-4.4 16.9-4.4 17.9s5.8-17.2 6.7-17.2c.9 0-4.4 17.9-3.8 18.8.6.9 5.2-17.3 6-18.2C81.4 32 76.1 53 77 53c.8 0 6.1-21 6.9-19 .7 2-5.1 22-3.2 20.3 2-1.6 5.6-21.8 7-20.3 1.5 1.5-4.4 20.8-3.2 20.3C85.8 53.8 90 35 90.6 35c.6 0-2.4 20.8-1.8 19.4l5-19.4c.3-1.2 0 3 0 6.9-.1 3-2.2 10.5-2.5 12.5l4.4-14.6c0 2.3 0 7.6-.3 10.1-.3 2.6-.8 3.7-1 4M6 3a253.7 253.7 0 0 0 58.6 26c3 .8 28 4.5 32 2.3 3.3-1.7 11.2-14 13-16"/></g></g></g></svg>