<svg xmlns="http://www.w3.org/2000/svg" viewBox="0 0 256 256" fill="none" shape-rendering="auto"><metadata xmlns:rdf="http://www.w3.org/1999/02/22-rdf-syntax-ns#" xmlns:xsi="http://www.w3.org/2001/XMLSchema-instance" xmlns:dc="http://purl.org/dc/elements/1.1/" xmlns:dcterms="http://purl.org/dc/terms/"><rdf:RDF><rdf:Description><dc:title>Croodles - Doodle your face</dc:title><dc:creator>vijay verma</dc:creator><dc:source xsi:type="dcterms:URI">https://www.figma.com/community/file/966199982810283152</dc:source><dcterms:license xsi:type="dcterms:URI">https://creativecommons.org/licenses/by/4.0/</dcterms:license><dc:rights>Remix of „Croodles - Doodle your face” (https://www.figma.com/community/file/966199982810283152) by „vijay verma”, licensed under „CC BY 4.0” (https://creativecommons.org/licenses/by/4.0/)</dc:rights></rdf:Description></rdf:RDF></metadata><mask id="viewboxMask"><rect width="256" height="256" rx="0" ry="0" x="0" y="0" fill="#fff" /></mask><g mask="url(#viewboxMask)"><path d="M122.4 75.3c18.8-2.5 39.9.4 53.1 13.9l.6.2c3 2 4.6 4.2 6 7.5 1 2.7 1.8 6 2.8 10.5 1.3.1 3.5.5 5.4 2.1 2.2 2 3.3 5.5 2.3 11.2-.8 4.9-1.6 7.7-3.5 11-.7 1.5-1.8 3-3 4a4.8 4.8 0 0 1-5.2.5 249.6 249.6 0 0 1-18.5 46.7 93 93 0 0 1-15.2 20.2 27.8 27.8 0 0 1-19.2 8.4 16 16 0 0 1-8.5-3.3 58 58 0 0 1-9.4-8.3 194.4 194.4 0 0 1-36.2-59.6c-1.6.5-3.8.3-5.8-1.6-2-1.8-3.6-5.2-4.7-10.9-2-10.9 4.2-17.2 9.2-17.2h.1c1-4.2 1.9-7 2.8-9 1.2-2.7 2.5-4.1 4-5.8a72.8 72.8 0 0 0 1.3-1.5C83.9 90 89.4 86.1 96 83a90 90 0 0 1 26.3-7.6Z" fill="#ffffff"/><g stroke="#000" stroke-width="3" stroke-linecap="round" stroke-linejoin="round"><path d="M185.5 108.6c2.2 0 9 .8 7 11.9-.8 4.9-1.6 7.5-3.4 10.8-1.5 2.9-3.7 5.2-6.4 3.9M71.3 111.8c-3.8 0-10 5.4-8 16 2.3 11.3 6.6 12.2 8.8 11.5"/><path d="M80.5 95c-4 4.9-5.7 4.9-9.7 25.7-4 20.8 38.7 91.3 57.2 91.3 14 0 24.2-12.4 33.8-28.5 6.7-11.2 26-61.3 23.4-73.3-2.6-12-3.5-16.6-9-20.2"/></g><g transform="translate(116 119)"><path d="M24.3 5c-.8 5.3-1.2 16.3.3 22.3 3.6 14.1-1.5 17.5-3.2 17.5-5.3 0-6.5-4.7-7.7-18-1.5-16.5-1.6-16.3-3.7-21" stroke="#000" stroke-width="3" stroke-linecap="round" stroke-linejoin="round"/></g><g transform="translate(60 131)"></g><g transform="translate(97 178)"><path d="M54.7 2c-7.3 0-26-.6-38.7 2.7C16 15.4 28.6 25 39.2 22 50 19 56.2 7 54.7 2Z" stroke="#000" stroke-width="3" stroke-linecap="round" stroke-linejoin="round"/></g><g transform="translate(-1 -14)"><g stroke="#0fa958" stroke-linecap="round" stroke-linejoin="round"><path d="M74 67.7c-4.4 16 1.5 23 1.5 26.3 0 3.3 4.2-19.4 6.4-31.9l-3 40.1 9.9-43.1-3.4 47.8 9.7-49.8-3 52.2c.3-4.2 6.6-37.3 9.6-54.5L99 109.3l9.3-52.2-1.4 52.2 8.7-52.2-2 54.8 9.4-54.8-1.5 54.8 7.6-52.2V112l7.7-48.8v48.8l7-46.3c-.8 17.6-.5 50.3 0 46.3l6.5-44.2-.9 44.2 7.3-41.3-.8 41.3 6.7-39v35.7l6-33.7-1.3 33.7 6-28.6.7 27 3-27 1.3 21.2 4.4-17v18" stroke-width="6"/><path d="M178.2 107.6c-17.1 10-88.5 9.2-100.1-3.8-17.8-20-9.9-38.6 1.8-43.4 11.6-4.8 21.1-14 57.6 0 36.6 14 53.2 18.7 50 38.7-3 20-23.9 25.6-46.4 21-22.6-4.6-52.1 10.1-59.7-3.3-1-1.6-2.7-5.7-1.5-9.2" stroke-width="3"/><path d="M184 108.4c4-8.8 15.3-28 28.6-34.8" stroke-width="3"/><path d="M190 101.5a36 36 0 0 0 19.6-9.4c7-7.7 14-15.8 12-22.6-1.8-6.9-12.2 1-17.1.5-5-.5-20.3 25.2-18.5 32.5" stroke-width="3"/></g></g><g transform="translate(72 148)"></g><g transform="translate(72 92)"><path d="M35.5 48c-.7-.6-5.1-2.3-7.4-6.2-2.3-3.8-2.5-7.7 0-9.3 1.6-1.2 5.1.6 7.4 2.2M36.4 34c1.5-1.6 4.1-3 6.7-1.6 1.8 1 1.6 7.1 0 9.4-1.2 1.9-5.2 5-6.7 6M77.7 33.3c-2.2-2.1-7.1-5.4-9.2-1.7-2.6 4.6 5.6 13 10.2 14.8M79.8 47c2.2-1.7 7-5.4 7.8-6.6 1-1.5 2.8-8 0-10.6-2.8-2.6-8.6 1-8.6 5.2M26 18.3c.6-1.4 3-4.2 7-3.7 5.2.6 6.2 1.5 7.4 3.7M72.2 16.2c.5-1.7 3-4.8 8.2-4 5.2.6 7 3.5 7.3 4.9" stroke="#000" stroke-width="3" stroke-linecap="round" stroke-linejoin="round"/></g></g></svg>