<svg xmlns="http://www.w3.org/2000/svg" viewBox="0 0 256 256" fill="none" shape-rendering="auto"><metadata xmlns:rdf="http://www.w3.org/1999/02/22-rdf-syntax-ns#" xmlns:xsi="http://www.w3.org/2001/XMLSchema-instance" xmlns:dc="http://purl.org/dc/elements/1.1/" xmlns:dcterms="http://purl.org/dc/terms/"><rdf:RDF><rdf:Description><dc:title>Croodles - Doodle your face</dc:title><dc:creator>vijay verma</dc:creator><dc:source xsi:type="dcterms:URI">https://www.figma.com/community/file/966199982810283152</dc:source><dcterms:license xsi:type="dcterms:URI">https://creativecommons.org/licenses/by/4.0/</dcterms:license><dc:rights>Remix of „Croodles - Doodle your face” (https://www.figma.com/community/file/966199982810283152) by „vijay verma”, licensed under „CC BY 4.0” (https://creativecommons.org/licenses/by/4.0/)</dc:rights></rdf:Description></rdf:RDF></metadata><mask id="viewboxMask"><rect width="256" height="256" rx="0" ry="0" x="0" y="0" fill="#fff" /></mask><g mask="url(#viewboxMask)"><path d="m176 91.2.3.4c.3.1.7.4.9.7a81 81 0 0 1 8 27.7c4.7-1.6 11.8 2 11.8 10 0 4-.3 6.7-1 9-.6 2.3-1.6 4-3 5.8a9.4 9.4 0 0 1-7.7 3.3 71.7 71.7 0 0 1-26.1 49.2 51.6 51.6 0 0 1-37.2 11.4 43.6 43.6 0 0 1-30.2-18 114.1 114.1 0 0 1-19.5-42.3c-1.5.2-3.8 0-6-1.2-3-1.5-5.7-4.7-6.8-10.6-1-5.3-.4-10 1.7-13a8 8 0 0 1 4.3-3.1c1.5-.5 3.2-.5 5 0A42.2 42.2 0 0 1 96 84.3a90.3 90.3 0 0 1 26.3-7.5c19.1-2.5 40.5.5 53.7 14.4Z" fill="#ffffff"/><g stroke="#000" stroke-width="3" stroke-linecap="round" stroke-linejoin="round"><path d="M81.3 95c-17 17-15 61 11 96.5 15 20.5 42.2 25.1 66.7 6.5 34.5-26.2 30.5-83 18-106"/><path d="M186.4 121.4c3.6-1.9 10.7.8 10.7 8.7 0 7.8-1.1 10.8-3.7 14.2-2 2.6-5.6 3.2-8 2.7M69.7 121.9c-7.7-2.4-12.2 4-10.2 14.6 2.1 11.4 10.2 11.3 12.5 10.8"/></g><g transform="translate(112 123)"><path d="M13.3 12C15 28 20.7 22.4 23 31.3c2 7-9.2 7.7-12.1 5.4" stroke="#000" stroke-width="3" stroke-linecap="round" stroke-linejoin="round"/></g><g transform="translate(60 128)"></g><g transform="translate(95 180)"><g stroke="#000" stroke-width="3" stroke-linecap="round" stroke-linejoin="round"><path d="M22.2 21.5c-.5.5-3-7.1-4.1-11l7.4 1.2-3.3 9.8ZM49.4 20.4c-.7.3-3-6-4.3-10l6-2c-1 3.1-.6 11.6-1.7 12Z"/><path d="M13 4.7c3 6.2 12.4 7.7 24 6.4C47.4 10 53.4 6.7 56.4 3"/></g></g><g transform="translate(-1 -13)"><g stroke="#699bf7" stroke-width="3" stroke-linecap="round" stroke-linejoin="round"><path d="M133.6 74.5c-6.4 8-18.5 10.4-26 11.5-13 2-19.5 9.3-25 27.3-7.6 25-3.2 46.5-5.4 65.4-2.7 22.6 4 27.2 5.4 28.4"/><path d="M134.2 69.2c-4.9 7-17.9 9-33.6 12.2-19.7 4-32.7 33-31 73 1.4 32 .6 48.4 0 52.7"/><path d="M58.9 195.5c5.2-7.6 4.5-22.4 3.5-33.6-3.5-37 5.2-64.3 17.3-77.6 15.4-16.8 40-8.1 53.9-19.1"/><path d="M131.9 61.7c-8.7-5.8-25.4-2-34.2 1.2-11 4-35.2 20-38.8 56.7-4 41.8-14.2 71.6 0 84.8"/><path d="M47.9 216.9c4.6-12.7-2.9-23.2-2.9-46.3 0-19.8 9.5-65.4 16.5-78.8C69 77.4 71.8 70 85.5 61.1c16.2-10.4 39.9-15.7 49.1-1.2M137.7 58.8c16.2-15 31.4-2 41.6 10.4 12.8 15.7 16.6 20.9 20 53.9 3.5 33 2 36.8 3 46.9 1 13.1 6 17.8 14.7 24.8"/><path d="M137.6 66.4c9.9 9.8 15.8 5 25.8 9.6 15.4 7 20.9 16.8 23.8 31.9 2.9 15-2.3 48.6 0 59.6 1.8 8.8 5 17.1 16.2 20.2"/><path d="M137.6 62.3c12.7-3 16-2.4 26 1.7 12.8 5.2 29.4 26 28.8 56.2-.6 30.1-4.6 54.4 13.3 73.5"/><path d="M137 70.4c1.2 4.1 5.4 8.8 16.8 11.7 22.8 5.7 27.6 28.3 28.8 49.1 1.1 20.8-4.5 38.8 3 54.5 6 12 14.2 16.6 20.8 16.6"/><path d="M136.5 75.6c1.7 11.6 13.9 13.3 29 22.6 15 9.3 14.6 33.3 11.6 58.2-2.5 21.2 3 35.8 18.7 35.8"/></g></g><g transform="translate(67 152)"></g><g transform="translate(71 102)"><g stroke="#000" stroke-width="3" stroke-linecap="round" stroke-linejoin="round"><path d="M26.8 19.1c1.3 1.2 4.7 2.4 8.6 1.7 3.5-.5 5-2 6-3.9M70 16.1c2 2.6 5.4 3.4 7.6 3.6 2.2 0 5-.8 7.2-2M4 20.5 17.7 29M48.2 32.8A31.5 31.5 0 0 1 68.7 31M96.9 28.7c2.5-1.4 10.6-7.8 13.1-9.7"/><path d="M22.6 46c-8.3-3.1-7.6-11.4-3.7-17.2 3-3.8 22.8-2.2 27.2 1.8 4.2 3.8 2.3 11.8-1.8 14.3-3.4 2-16.2 3.1-21.7 1ZM94.4 26.7c-3.6-1.2-18.2-1-24 2.6-3.8 2.5-6.5 14.7 3.6 16 4.6.7 14.9 0 18.7-1.8 8.2-3.9 6.8-15.2 1.7-16.8Z"/><path d="M29.7 35.3c1-2 3.2-2.6 4.1-2.6 3.1 0 4 1.3 4.7 2.1M78 35.3c1-2 3.1-2.6 4-2.6 3.2 0 4 1.3 4.7 2.1"/></g></g></g></svg>