<svg xmlns="http://www.w3.org/2000/svg" viewBox="0 0 256 256" fill="none" shape-rendering="auto"><metadata xmlns:rdf="http://www.w3.org/1999/02/22-rdf-syntax-ns#" xmlns:xsi="http://www.w3.org/2001/XMLSchema-instance" xmlns:dc="http://purl.org/dc/elements/1.1/" xmlns:dcterms="http://purl.org/dc/terms/"><rdf:RDF><rdf:Description><dc:title>Croodles - Doodle your face</dc:title><dc:creator>vijay verma</dc:creator><dc:source xsi:type="dcterms:URI">https://www.figma.com/community/file/966199982810283152</dc:source><dcterms:license xsi:type="dcterms:URI">https://creativecommons.org/licenses/by/4.0/</dcterms:license><dc:rights>Remix of „Croodles - Doodle your face” (https://www.figma.com/community/file/966199982810283152) by „vijay verma”, licensed under „CC BY 4.0” (https://creativecommons.org/licenses/by/4.0/)</dc:rights></rdf:Description></rdf:RDF></metadata><mask id="viewboxMask"><rect width="256" height="256" rx="0" ry="0" x="0" y="0" fill="#fff" /></mask><g mask="url(#viewboxMask)"><path d="M73.9 102a57.1 57.1 0 0 1 5-14.8c2.8-4.9 8.7-9.3 16.2-12.8a89.7 89.7 0 0 1 26.2-7.6c19-2.5 40.4.5 53.6 14.5.3.3.4.7.3 1.2 2.1 4 4.3 9.8 6.3 16.8 1.3-.5 3-.9 4.6-.7 2 0 4 .9 5.2 3 2 3.6 2.2 9.1.7 15.4a7.4 7.4 0 0 1-3 4.7c-.9.5-1.7.8-2.5 1 1.2 7.8 2.1 16 2.5 24.3.5 13.2-.3 26.3-3.3 37.3-3 11-8.4 20-17 24.7a78.6 78.6 0 0 1-56 8 51 51 0 0 1-37.2-31.5 161.1 161.1 0 0 1-5.1-49.6 246 246 0 0 1 .3-8.4 4.9 4.9 0 0 1-4.9-2.1 17.4 17.4 0 0 1-2.6-8.2c-.7-5.7.2-10 2.3-12.8a7 7 0 0 1 4-2.7c1.4-.4 3-.2 4.4.3Z" fill="#ffffff"/><g stroke="#000" stroke-width="3" stroke-linecap="round" stroke-linejoin="round"><path d="M79 87.3c-10.5 19.4-10.9 77.8-3.3 99 11.5 32.3 56.4 43.4 93.3 23.3 33.3-18.1 18-105 6.1-127.6"/><path d="M183 100.2c2.5-1.1 6.8-1.7 8.6 1.5 1.9 3.2 2 8.4.6 14.7-1 4-3.8 4.8-5.7 4.8M72.7 103c-6-2.6-10.8 2.6-9.5 13.7 1 7.8 3.4 9.6 6 9.3"/></g><g transform="translate(115 126)"><path d="M13 43.8c3.7 0 8.5-1.5 9.2-6 .6-3.7-5.6-3.1-7.3-7.4A70.4 70.4 0 0 1 15 7" stroke="#000" stroke-width="3" stroke-linecap="round" stroke-linejoin="round"/></g><g transform="translate(61 138)"></g><g transform="translate(98 188)"><path d="M43.8 10.4c-8 1.5-20.5 1-22.4 2.4-3.4 3.7 16.2 1.3 20.5.8 8.8-1 11.7-4.9 2-3.2Z" stroke="#000" stroke-width="3" stroke-linecap="round" stroke-linejoin="round"/></g><g transform="translate(-2 -23)"><g stroke="#9747ff" stroke-linecap="round" stroke-linejoin="round"><path d="M80.8 109 50 83.4C56 73 85.7 50 103.4 50c22 0 18.7 14.3 27 14.3 12.6 0 11.1-3 19.6-12.2 6.7-7.4 43.3 6.8 66 17.3l-39.2 34.3c-6.3-3.4-30.4-8.2-47.9-8.2-17 0-40.4 8.2-48.1 13.4Z" stroke-width="3"/><path d="M159 63c-1 8.5-3 29.7-3 33.2 0 3.9-5-26.5-5.8-28.4l-1.5 27-3.9-24.5-2 24.4-4.7-24-.6 21-6.5-21.4-2.4 21.4-4.5-21.4-1.7 21.4-5.8-23.2L119 93l-14.2-31.4 8.4 33.1L109 87 96 63l8.7 34.3L89.5 66l9.1 33.6-17.2-29.2 8.1 27-14.6-22L88 102.7 73.2 80.5l10.5 25-17-25 6.5 20-9.8-14.7m98.4 10.4 5.4-31.3v33.8l8.2-30.2-1.7 26.2 7.8-24-6.1 29.8 11.1-28.2-1.5 19.4 7.8-17.5v9.3l5.5-6" stroke-width="6"/><path d="M57.2 87.5c10.1-9.7 33.3-29.2 45.2-29.7 11.9-.6 5 5.3 19 12l22.4-2.2c7.6-2.9 10-11 18.3-8 8.4 3 26.1 11.7 43 17.3" stroke-width="3"/></g></g><g transform="translate(71 156)"></g><g transform="translate(70 84)"><g stroke="#000" stroke-width="3" stroke-linecap="round" stroke-linejoin="round"><path d="M20.8 12.3c1.7-1.3 6.2-2.6 11.3-2 4.5.7 6.4 2.3 7.7 4.3M72.9 14.2c2-3 5.7-3.7 8-4 2.4-.2 5.1-.2 7.3.4M4 21.2l13.7 6.5M48.2 31.5a31.5 31.5 0 0 1 20.5-1.8M96.9 27.3a193 193 0 0 0 13.1-8.6M24.6 49.9c-5-3.1-10.5-15.7-5.9-22.7 5.3-7.8 23.8-8.7 28.1 2.4 2.6 6.5 1.6 12.7 1 14.3-1.9 4.5-10.3 13.9-23.2 6ZM95.5 26.5c-5.6-8-21-8.3-25.4.4-1.9 3.7-3 14.2 4.4 20.2 3.8 3 18 8.2 22.8-5.2 2.2-6.3.4-12.2-1.8-15.4Z"/><path d="M34.4 29.8c-.4.2-1.1 1-.8 1.8.4 1.2 3.4 2.5 3.5.9.1-1.7-.5-2.3-1.2-1.6M81 27.7c-.6.5-1.7 1.8-1 2.3 1 .6 4.2 2.3 4 0-.3-1.9-1.1-1.7-1.5-1.4l-.9.7"/></g></g></g></svg>