<svg xmlns="http://www.w3.org/2000/svg" viewBox="0 0 256 256" fill="none" shape-rendering="auto"><metadata xmlns:rdf="http://www.w3.org/1999/02/22-rdf-syntax-ns#" xmlns:xsi="http://www.w3.org/2001/XMLSchema-instance" xmlns:dc="http://purl.org/dc/elements/1.1/" xmlns:dcterms="http://purl.org/dc/terms/"><rdf:RDF><rdf:Description><dc:title>Croodles - Doodle your face</dc:title><dc:creator>vijay verma</dc:creator><dc:source xsi:type="dcterms:URI">https://www.figma.com/community/file/966199982810283152</dc:source><dcterms:license xsi:type="dcterms:URI">https://creativecommons.org/licenses/by/4.0/</dcterms:license><dc:rights>Remix of „Croodles - Doodle your face” (https://www.figma.com/community/file/966199982810283152) by „vijay verma”, licensed under „CC BY 4.0” (https://creativecommons.org/licenses/by/4.0/)</dc:rights></rdf:Description></rdf:RDF></metadata><mask id="viewboxMask"><rect width="256" height="256" rx="0" ry="0" x="0" y="0" fill="#fff" /></mask><g mask="url(#viewboxMask)"><path d="M73.9 102a57.1 57.1 0 0 1 5-14.8c2.8-4.9 8.7-9.3 16.2-12.8a89.7 89.7 0 0 1 26.2-7.6c19-2.5 40.4.5 53.6 14.5.3.3.4.7.3 1.2 2.1 4 4.3 9.8 6.3 16.8 1.3-.5 3-.9 4.6-.7 2 0 4 .9 5.2 3 2 3.6 2.2 9.1.7 15.4a7.4 7.4 0 0 1-3 4.7c-.9.5-1.7.8-2.5 1 1.2 7.8 2.1 16 2.5 24.3.5 13.2-.3 26.3-3.3 37.3-3 11-8.4 20-17 24.7a78.6 78.6 0 0 1-56 8 51 51 0 0 1-37.2-31.5 161.1 161.1 0 0 1-5.1-49.6 246 246 0 0 1 .3-8.4 4.9 4.9 0 0 1-4.9-2.1 17.4 17.4 0 0 1-2.6-8.2c-.7-5.7.2-10 2.3-12.8a7 7 0 0 1 4-2.7c1.4-.4 3-.2 4.4.3Z" fill="#ffffff"/><g stroke="#000" stroke-width="3" stroke-linecap="round" stroke-linejoin="round"><path d="M79 87.3c-10.5 19.4-10.9 77.8-3.3 99 11.5 32.3 56.4 43.4 93.3 23.3 33.3-18.1 18-105 6.1-127.6"/><path d="M183 100.2c2.5-1.1 6.8-1.7 8.6 1.5 1.9 3.2 2 8.4.6 14.7-1 4-3.8 4.8-5.7 4.8M72.7 103c-6-2.6-10.8 2.6-9.5 13.7 1 7.8 3.4 9.6 6 9.3"/></g><g transform="translate(115 126)"><path d="M2 2.7c3.5 0 7.7 5.7 8.1 14.8.7 14.7-4.2 19.4 0 27 2.7 5 17.8 4.7 21.9-3.6 3.2-6.5-3-12-6.6-20.7-3.5-8.3-5.7-13.4-2-18.2" stroke="#000" stroke-width="3" stroke-linecap="round" stroke-linejoin="round"/></g><g transform="translate(61 138)"></g><g transform="translate(98 188)"><path d="M15 14s4.2 1.6 7 0c2.9-1.5 3-5.9 5.2-3.6 2.6 3 3 4.9 4.5 6.3 1.5 1.5 2.6-5 3.9-7 1.2-2.3 4.6 6.1 6.6 6.1 1.9 0 1.4-9.5 3.6-7.5 2.1 1.9 1.8 5.4 8.8 3.4" stroke="#000" stroke-width="3" stroke-linecap="round" stroke-linejoin="round"/></g><g transform="translate(-2 -23)"><g stroke="#ffc700" stroke-width="3" stroke-linecap="round" stroke-linejoin="round"><path d="M127.5 87c-10.5-1.6-24.5-2.6-41 20M132.5 85c17.5-14 44.5 4.4 48 23.4M132 90.7c4 18.2 23 31.2 48 24.2"/><path d="M132 86.2c10 12.5 28 20 45 24M79.5 121.4c10 9.5 45-4 48.3-27.5M81.5 109c1-22.6 39-36.8 48.5-24.3M128 90.4c-28 6.2-21 18-42.5 23"/><path d="M121.3 97c-7 9.5-13.4 16-34.4 21.7M79.5 113C77 97.3 66 88.7 55.3 92 35 98.3 36 129.3 18 128.3"/><path d="M78.5 115c0-6.6-4.7-16.8-18.7-19.3s-35 2-33 44 2 43.4 1.5 55"/><path d="M68.5 109c-10-5-26.8.8-34 28.4-9 34.5-23.2 67.3-13.7 94.8"/><path d="M78.3 118.7c-6.5-9.5-23.8-8-29 4-6.5 15-17 81-21 90"/><path d="M78.8 119.2c-2.5-3-13.5-3-20.5 12s-15.5 54.5-3.5 92"/><path d="M78.8 120.7c-6-8.5-19.9-3.3-25.5 8.7-7 15-9.5 78-13.5 94M183 107c0-14.5 22.4-23.4 30-11.8 9.5 14.5 14 97.3 5 129.8"/><path d="M185 109c6.5-8.6 24.7-22 43.5-13.3 23.5 11 30 46 17.5 79s-17 46.2-3.5 54.2"/><path d="M181.5 110.7c7-15.5 40.6-19.3 51 1.5 13 26 5.5 42-5 98"/><path d="M184 110.4c16-9.5 46.9-12.5 60.5 16.3 13.6 28.8 5.7 70.7 0 88"/><path d="M183.5 114c9-9 37.8-11.7 47 10.7 11.5 28-2 68.5 5 92.5"/><path d="M183 112.4c1.5-.5 37.5-5.7 45 31.3s-3.5 65.5 2.5 81.5"/><path d="M183 113.4c5.5-8.5 22.6-2.3 29 21.3 6.4 23.6 10 67.2 11 86M134.5 85.7c5.8-1.2 26 0 39 18.7M7.3 232.7c-2.5-3.2-6-14.6 0-35 7.5-25.5 18.5-62.5 21-70s17-24.5 31-24.5 17.7 7.2 19.2 14.2"/><path d="M73.7 118.6c0 2.8 2.7 5.5 6.3-.4 3.9-6.2 1.9-11-.3-10.3M186.5 114.6c0 3.1-2.8 5.7-6-1.3-3.3-7.6-1.2-12.6.9-11.5"/></g></g><g transform="translate(71 156)"></g><g transform="translate(70 84)"><g stroke="#000" stroke-width="3" stroke-linecap="round" stroke-linejoin="round"><path d="M20.8 12.3c1.7-1.3 6.2-2.6 11.3-2 4.5.7 6.4 2.3 7.7 4.3M72.9 14.2c2-3 5.7-3.7 8-4 2.4-.2 5.1-.2 7.3.4M4 21.2l13.7 6.5M48.2 31.5a31.5 31.5 0 0 1 20.5-1.8M96.9 27.3a193 193 0 0 0 13.1-8.6M24.6 49.9c-5-3.1-10.5-15.7-5.9-22.7 5.3-7.8 23.8-8.7 28.1 2.4 2.6 6.5 1.6 12.7 1 14.3-1.9 4.5-10.3 13.9-23.2 6ZM95.5 26.5c-5.6-8-21-8.3-25.4.4-1.9 3.7-3 14.2 4.4 20.2 3.8 3 18 8.2 22.8-5.2 2.2-6.3.4-12.2-1.8-15.4Z"/><path d="M34.4 29.8c-.4.2-1.1 1-.8 1.8.4 1.2 3.4 2.5 3.5.9.1-1.7-.5-2.3-1.2-1.6M81 27.7c-.6.5-1.7 1.8-1 2.3 1 .6 4.2 2.3 4 0-.3-1.9-1.1-1.7-1.5-1.4l-.9.7"/></g></g></g></svg>