<svg xmlns="http://www.w3.org/2000/svg" viewBox="0 0 256 256" fill="none" shape-rendering="auto"><metadata xmlns:rdf="http://www.w3.org/1999/02/22-rdf-syntax-ns#" xmlns:xsi="http://www.w3.org/2001/XMLSchema-instance" xmlns:dc="http://purl.org/dc/elements/1.1/" xmlns:dcterms="http://purl.org/dc/terms/"><rdf:RDF><rdf:Description><dc:title>Croodles - Doodle your face</dc:title><dc:creator>vijay verma</dc:creator><dc:source xsi:type="dcterms:URI">https://www.figma.com/community/file/966199982810283152</dc:source><dcterms:license xsi:type="dcterms:URI">https://creativecommons.org/licenses/by/4.0/</dcterms:license><dc:rights>Remix of „Croodles - Doodle your face” (https://www.figma.com/community/file/966199982810283152) by „vijay verma”, licensed under „CC BY 4.0” (https://creativecommons.org/licenses/by/4.0/)</dc:rights></rdf:Description></rdf:RDF></metadata><mask id="viewboxMask"><rect width="256" height="256" rx="0" ry="0" x="0" y="0" fill="#fff" /></mask><g mask="url(#viewboxMask)"><path d="M75 97.4a66.3 66.3 0 0 1 6-18.2c2.8-4.9 8.8-9.3 16.2-12.9a90.8 90.8 0 0 1 26.4-7.5c19-2.5 40.1.4 53.4 13.9.3 0 .5.3.7.5a38.4 38.4 0 0 1 5.5 23.8c.9 0 1.9 0 2.9.2 1.5.5 2.9 1.6 4 3.4.6 1 .8 2.4.9 3.7 0 1.4 0 2.9-.3 4.3-.6 3-1.6 6-3 8.2-2.2 3.7-4.6 4.7-6.2 5h-.2l-2.1 15c-4.2 27.3-11 49.4-19.2 64.9-4 7.7-8.5 14-13.1 18.3a26.6 26.6 0 0 1-14.4 7.9c-8.8 1.2-24.8-4.6-41.3-35.6a168.2 168.2 0 0 1-17.8-69.7 7 7 0 0 1-4.4-2.3 13.7 13.7 0 0 1-3.3-6.7c-1.4-6.7-.5-11.3 1.8-14 2-2.4 5-3 7.5-2.2Z" fill="#ffffff"/><g stroke="#000" stroke-width="3" stroke-linecap="round" stroke-linejoin="round"><path d="M182.8 98.1c2.3-.3 5-.3 6.8 2.9 1.8 3.2.1 11-2.3 15-2 3.5-4.2 4.3-5.4 4.5M74 98.7c-4.3-2-11.1 1.2-8.4 14.6 1.1 5.2 4.6 8.4 7.1 8"/><path d="M81 79.4c-14.7 29-6 82.7 10.6 114.3 16.6 31.6 32.4 36.8 40.4 35.7 18.5-2.6 37.9-36.2 46.3-92.3C184 99.5 184 83 177.1 73"/></g><g transform="translate(117 128)"><path d="M21.7 10c5 4 12 23 6 29S19 34.3 14 34.3c-5.1 0-9 6-8.5-1 .4-5.6 4-5.5 4.7-5.8" stroke="#000" stroke-width="3" stroke-linecap="round" stroke-linejoin="round"/></g><g transform="translate(62 148)"></g><g transform="translate(97 191)"><path d="M12 5.6c2.4 4 6.6 15.1 22.7 15.1C51 20.7 57 6.5 57.7 5" stroke="#000" stroke-width="3" stroke-linecap="round" stroke-linejoin="round"/></g><g transform="translate(0 -31)"><g stroke="#0fa958" stroke-width="3" stroke-linecap="round" stroke-linejoin="round"><path d="M84.5 109.8c-19 22.5 5.5 100.5-7 132-4.3 10.8-20.5 19-33.5 16.5M145 68.3c9-8.5 24.1-7.2 34.5 0 13 9 26 24 31.5 106.5s25 82.5 33.5 81"/><path d="M144.5 79.8c-1.5 4-2 9.4-22 12-29 3.9-50.5-3-59 31s-.4 87.5-8 108.5-22.5 21.5-31 16.5"/><path d="M148.5 79.3c0 10-7 16-21.5 17-20.7 1.5-32.5-6.5-51 17.5-13.4 17.4 2.5 75.5-8 109.5-5 16.2-21 19-25 16.5M142 75.3c-3.5 3.5-4.5 6.2-24.5 9-25 3.5-41 4-50.5 17"/><path d="M142.5 71.3c-2.2 2.7-6.8 4.8-22 6-19 1.5-40 4.5-51 17"/><path d="M143 64.3c-5.3-3-24-6.5-45 2-24.6 10-47.3 26-54.5 71.5-7 44.5-7.6 61.5-10 81-.8 6.5-5.5 9-10 9"/><path d="M140 67.8c-17-2-29 0-46.5 9-15.5 8-32.5 20.5-38 62s-3.5 65-7.5 80c-3.3 12.3-12 13.5-17 13.5"/><path d="M21 241.8c4.7 1.5 15.6.3 18.5-18 4.5-28.5 5.6-53.7 7-76.5 1-16.5 3-41.5 35-62.5M148 70.8c14-4.5 33.4-5 41 24.5 9.5 37 12.5 138 22 150a20 20 0 0 0 23 6.5"/><path d="M146 75.3c11-3 30.5-4.5 37 21 6.2 24.5-.5 103.5 2.5 125.5s18.5 37.5 37 30"/><path d="M152 81.3c13.3-4 39.4 3.6 41 68 2 80.5 1.5 101 31 108"/><path d="M152 85.3c18.5 1.5 28.4 18.7 30 41.5 2 28.5-18.5 95.5 0 122 14.8 21.2 30.8 22.5 37 20.5"/></g></g><g transform="translate(70 157)"></g><g transform="translate(72 80)"><g stroke="#000" stroke-width="3" stroke-linecap="round" stroke-linejoin="round"><path d="M25.5 18.2c1.7-1.3 6.1-2.6 11.3-1.9 4.5.6 6.4 2.3 7.7 4.3M73 20c2-2.8 5.8-3.3 8.2-3.4 2.4-.2 5 0 7.2.6M4 20.6l13.7 8.5M48.2 33A31.5 31.5 0 0 1 68.7 31M96.9 28.8c2.5-1.3 10.6-8.8 13.1-10.6M18.1 29.7c-.3 3.7-.4 13.1 4.4 16.6 4.7 3.5 23.5-.3 25.2-1 1.7-.5 1.7-7.7-.9-14.3-2.1-5.5-20.5-3.7-28-2.3"/><path d="M70.5 28c6-2.7 22-1 25 0 3.7 1 4.1 10.3 3.8 13.7C98.9 45 78.8 45 74 44.9c-3.7-.1-4.9-11.6-4-16.5M33.4 32.3c-.4.2-1 1-.8 1.9.4 1 3.4 2.5 3.5.8.1-1.7-.4-2.3-1.2-1.6"/><path d="M81.6 31.2c-.6.6-1.7 1.8-1 2.3 1 .7 4.3 2.3 4 0-.2-1.8-1.1-1.7-1.5-1.4l-.8.8"/></g></g></g></svg>