<svg xmlns="http://www.w3.org/2000/svg" viewBox="0 0 256 256" fill="none" shape-rendering="auto"><metadata xmlns:rdf="http://www.w3.org/1999/02/22-rdf-syntax-ns#" xmlns:xsi="http://www.w3.org/2001/XMLSchema-instance" xmlns:dc="http://purl.org/dc/elements/1.1/" xmlns:dcterms="http://purl.org/dc/terms/"><rdf:RDF><rdf:Description><dc:title>Croodles - Doodle your face</dc:title><dc:creator>vijay verma</dc:creator><dc:source xsi:type="dcterms:URI">https://www.figma.com/community/file/966199982810283152</dc:source><dcterms:license xsi:type="dcterms:URI">https://creativecommons.org/licenses/by/4.0/</dcterms:license><dc:rights>Remix of „Croodles - Doodle your face” (https://www.figma.com/community/file/966199982810283152) by „vijay verma”, licensed under „CC BY 4.0” (https://creativecommons.org/licenses/by/4.0/)</dc:rights></rdf:Description></rdf:RDF></metadata><mask id="viewboxMask"><rect width="256" height="256" rx="0" ry="0" x="0" y="0" fill="#fff" /></mask><g mask="url(#viewboxMask)"><path d="M174.2 103.2c.4.4.5 1 .3 1.5.3.1.5.3.7.6 2.3 4.5 4.5 9.8 6.4 15.5l.7-.2 1.7-.7c1-.3 2.1-.6 3.3-.7 1.1 0 2.4.1 3.5.9 1 .7 1.8 2 2.2 3.5 1.3 5.7 1.3 9.3 0 15.2a7 7 0 0 1-2.1 4c-1 .7-2 1-3 1.1a159.9 159.9 0 0 1 2.6 21.4c0 2.7-.1 5-.4 7-.4 2-1 3.7-1.9 5a38.7 38.7 0 0 1-18.6 10.3 150.8 150.8 0 0 1-59.5 4.1 62 62 0 0 1-24-7.5c-4.3-2.7-7.3-8-9.4-14.3a91.6 91.6 0 0 1-4.1-22.5c-3.3 0-7.4-3.2-9.8-11.2-1.3-4.7-1-8.7 1.1-11.2 2.2-2.4 5.7-2.8 9.5-1.7.8-5.8 2.2-10.7 4.1-14l.5-.4a38 38 0 0 1 16.2-12.6 90.5 90.5 0 0 1 26.2-7.5c19.2-2.5 40.6.5 53.8 14.4Z" fill="#ffffff"/><g stroke="#000" stroke-width="3" stroke-linecap="round" stroke-linejoin="round"><path d="M174.8 105c11.3 21.8 19.2 65 13.4 72.3C175 194 109 199 86 184.2c-15.5-10-16.5-61.2-8.3-75M183 121.7c3-1 8.5-3.8 9.8 1.8 1.3 5.6 1.3 9 0 15-.7 3-2.3 4-4.3 4"/><path d="M72.2 124.3c-7.6-2.4-12.1 2-9.4 11.4 2.6 9 7 10.8 9.4 10.3"/></g><g transform="translate(112 122)"><path d="M13.7 15c3.9 2.1 11 11.9 10.2 17.3-.5 3.6-8.5 2.5-12.9 1.7" stroke="#000" stroke-width="3" stroke-linecap="round" stroke-linejoin="round"/></g><g transform="translate(63 112)"></g><g transform="translate(98 168)"><path d="M44.4 6.5c-4.2 2-20.4 6.7-30.4 4.2 6.2 10 35 11.4 39.6 2.5 5-9.4-4.1-9.3-9.2-6.7Z" stroke="#000" stroke-width="3" stroke-linecap="round" stroke-linejoin="round"/></g><g transform="translate(-3 -1)"><g stroke="#0fa958" stroke-width="3" stroke-linecap="round" stroke-linejoin="round"><path d="M165 74.8c-3 2.4-5.4 7.1-3 9.9 3.9 4.6 8.5 4.5 10 1.2 1.3-3.4.6-8.3-2-9.4-2-.8-3.8-.4-4.8.4M140.3 79.1c1.3-5.2 0-12.7-5-14C127 63 121.8 67 123 72c1.3 5 6.4 10 10.1 9.3a7 7 0 0 0 5.3-4.4"/><path d="M150 69.8c-2.8 3-4.9 9.5-2 12.2 5 4.6 10.5 5.2 12.8-1.8 1.2-3.8-2.2-8.4-5-9.2-2.3-.6-4.3 0-5.3 1M56.4 110.4c-4.3 3-1 10 4.5 10 9.2 0 8.5-3.5 5.8-8.4-2.6-4.8-10.3-7.4-12.3-4M83.7 81.4c3.5-2.6 10.5-3.7 13 0 .9 1.3-.5 8.6-4 10.3C90 93 85.5 95 81.7 93.2c-3.9-2-3.6-7.5 2.1-11.8Z"/><path d="M100.7 78.4c3.5-2.6 10.5-3.7 13 0 .9 1.3-.5 8.6-4 10.3-2.8 1.4-7.3 3.4-11.1 1.5-3.9-2-3.6-7.5 2.1-11.8ZM69.6 78.5c9.5-6.5 19.7-7 22-2.5 2.2 4.5-3.3 9.5-6.5 11.5-6 3.6-15 5-19 3.1-3.8-1.9-2.5-8 3.5-12.1ZM144.7 88c-1.4-2 1.8-2.5 5-3.2a7 7 0 0 1 5 1c1.8 1 1 2.5-.5 4.5-1.4 2-7 1.3-9.5-2.2ZM158 92.5c-1.5-2-1.7-3.8.5-6 1.5-1.5 3-1.3 4.5-.5 1.8 1 2.5 4 1 6s-3.5 4-6 .5ZM56.7 121c2.5-2.1 7.6-.7 8.9 3.2.8 2.4.2 4.6-.6 6.6-1 2.4-5.4 2.9-8.3 1.2-2.9-1.6-4.3-7.3 0-11ZM139.9 66.6c3.5-1.9 8.8-3 10.7 1.6 1 2.2 0 4.5-1.2 6.1-1.5 2.1-5.8 3.5-9.8 2.2-4-1.4-5.7-6.8.3-10ZM118.9 79.6c3.5-1.9 8.8-3 10.7 1.6 1 2.2 0 4.5-1.2 6.1-1.5 2.1-5.9 3.5-9.8 2.2-4-1.4-5.7-6.8.3-10Z"/><path d="M87.6 68.6c4.2-1.9 10.7-3 13 1.6 1 2.2-.1 4.5-1.5 6.1-1.8 2.1-7 3.5-11.8 2.2-4.7-1.4-6.8-6.8.3-10ZM134.9 80.6c3.5-1.9 8.8-3 10.7 1.6 1 2.2 0 4.5-1.2 6.1-1.5 2.1-5.8 3.5-9.8 2.2-4-1.4-5.7-6.8.3-10ZM110.4 64c5-2.4 12.4-3.7 15 2.3 1.4 3 0 6-1.6 8.2-2.1 2.7-8.2 4.6-13.8 2.8-5.5-1.9-8-9 .4-13.2ZM177 113.9c2.2-3.6 4.3-5 8.3-2.8 2 1 2.3 3.4 2 5.4-.2 2.4.6 5.4-3.7 6.9a6.1 6.1 0 0 1-6.6-9.5ZM181.3 101.4c1.4 3.5-.4 7.5-4.7 9-2 .7-5.2 2.7-6.6 1.4-1.8-1.6-2-7-.3-10.7 1.6-3.7 9.3-5.6 11.6.3ZM81 105.3c0-4 2.6-10 6.8-10.5 2-.3 5.3 1.2 6.2 2.9 1 2-.2 6.8-2.7 10.4-2.6 3.6-10 4-10.3-2.8ZM61 102c-.6-5.4 5.5-10.6 12-11 3.3-.2 5.5.3 7.6 2.2 2 1.8 2.1 5.7-1.5 10.3-3.7 4.5-17.2 7.8-18.1-1.4ZM65.7 127.8c-.4-4.5 4.7-8.8 10-9.2 2.7-.1 4.5.3 6.2 1.9 1.7 1.4 1.8 4.7-1.2 8.4-3 3.8-14.1 6.5-15-1.1Z"/><path d="M67.9 113.8c-1.4-3.6 1.8-8.2 6.1-9.7 2.2-.7 3.7-.8 5.5 0 1.7 1 2.5 3.6.9 7.3-1.6 3.7-10.1 8.4-12.5 2.4Z"/><path d="M72.6 103.2c-1.2-3 1.5-6.9 5.1-8.1 1.8-.6 3.1-.6 4.6 0 1.4.8 2 3 .7 6-1.3 3.2-8.4 7.1-10.4 2ZM92.6 95.4c-1-2.3 1.1-5.3 4-6.3 1.3-.4 2.3-.4 3.4.1 1 .5 1.6 2.2.6 4.6-1 2.4-6.5 5.4-8 1.6ZM179 79.8c3.6 1.2 7.4 7.3 5.9 11.5-.8 2.2-4 2.7-5.8 3.5-1.7.8-4.2-.2-6-3.8-2-3.6-.3-13 5.8-11.2ZM98.6 63.8c4.4-3.2 12-2 15.2 2.7 1 1.6.5 7-1 10-1.8 3.6-9.3 4.3-14.2 1.9-4.9-2.5-7.3-9.1 0-14.6Z"/><path d="M164 90.1c2.7-2 7.6-1.2 9.7 1.7.6 1 .3 4.3-.7 6.1-1.2 2.3-6 2.7-9 1.2-3.2-1.5-4.7-5.6 0-9ZM63.4 132c.1-2.6 3-5.1 5.8-5 2.2.5 2.8 2.1 3.4 3.6.9 1.8-1.2 4.9-3.6 6-2.5 1-5.8 0-5.6-4.6ZM182.1 124.7c.1-2.6 3-5.1 5.8-5 2.2.5 2.8 2.1 3.4 3.6.9 1.8-1.2 4.9-3.6 6-2.5 1-5.8 0-5.6-4.6ZM188 114c.1-2.7 2.7-7.7 5.5-7.5 2.2.4 2.5 1.5 2.8 5.8.2 2-1.2 4.9-3.6 6-2.5 1-4.9.2-4.7-4.3ZM63.3 113.8c1.9-2 3.4-2.8 4.8 0 .5 1 1.3 2.7.7 4.5-.8 2.1-4 5.8-6 4.4-2.2-1.5-2.7-5.6.5-9Z"/><path d="M179.1 93c.8-4.4 5.6-3.5 7.7-2.5 2 1.1 5.2 5.3 6 8.1 1 3.6-1.1 10.7-5.3 11.7-7 1.5-9.6-10-8.4-17.4Z"/></g></g><g transform="translate(68 149)"><path d="M63.3 24.1c-4.7-1.7-22.6 3-28 1.5-5.3-1.5-8.6-4.8-6.6-7.3s2.5-1 3.3 0c.7.8 1.6 1.5 3 1.2 2-.4 3.3-1.7 2.2-3.7-1.3-2.5-10.8-2.5-11.7 0-.8 2.5-1.8 10.6 7.4 12.6 9.1 2 29-3.6 30.4-2.8 1.3.8 13.5 2.2 22.8 1.7 9.4-.6 19-7.2 16.6-11.5-2.5-4.4-14-2.9-11.8-.4.7.6 2.6 1.5 4 .4 1.6-1.5 4.4 1.2 0 5.3-3.4 3-24.1 6-29.6 3" stroke="#000" stroke-width="3" stroke-linecap="round" stroke-linejoin="round"/></g><g transform="translate(71 103)"><g stroke="#000" stroke-width="3" stroke-linecap="round" stroke-linejoin="round"><path d="M25.5 18.2c1.7-1.3 6.1-2.6 11.3-1.9 4.5.6 6.4 2.3 7.7 4.3M73 20c2-2.8 5.8-3.3 8.2-3.4 2.4-.2 5 0 7.2.6M4 20.6l13.7 8.5M48.2 33A31.5 31.5 0 0 1 68.7 31M96.9 28.8c2.5-1.3 10.6-8.8 13.1-10.6M18.1 29.7c-.3 3.7-.4 13.1 4.4 16.6 4.7 3.5 23.5-.3 25.2-1 1.7-.5 1.7-7.7-.9-14.3-2.1-5.5-20.5-3.7-28-2.3"/><path d="M70.5 28c6-2.7 22-1 25 0 3.7 1 4.1 10.3 3.8 13.7C98.9 45 78.8 45 74 44.9c-3.7-.1-4.9-11.6-4-16.5M33.4 32.3c-.4.2-1 1-.8 1.9.4 1 3.4 2.5 3.5.8.1-1.7-.4-2.3-1.2-1.6"/><path d="M81.6 31.2c-.6.6-1.7 1.8-1 2.3 1 .7 4.3 2.3 4 0-.2-1.8-1.1-1.7-1.5-1.4l-.8.8"/></g></g></g></svg>