<svg xmlns="http://www.w3.org/2000/svg" viewBox="0 0 200 200" fill="none" shape-rendering="auto"><metadata xmlns:rdf="http://www.w3.org/1999/02/22-rdf-syntax-ns#" xmlns:xsi="http://www.w3.org/2001/XMLSchema-instance" xmlns:dc="http://purl.org/dc/elements/1.1/" xmlns:dcterms="http://purl.org/dc/terms/"><rdf:RDF><rdf:Description><dc:title>Fun Emoji Set</dc:title><dc:creator>Davis Uche</dc:creator><dc:source xsi:type="dcterms:URI">https://www.figma.com/community/file/968125295144990435</dc:source><dcterms:license xsi:type="dcterms:URI">https://creativecommons.org/licenses/by/4.0/</dcterms:license><dc:rights>Remix of „Fun Emoji Set” (https://www.figma.com/community/file/968125295144990435) by „Davis Uche”, licensed under „CC BY 4.0” (https://creativecommons.org/licenses/by/4.0/)</dc:rights></rdf:Description></rdf:RDF></metadata><mask id="viewboxMask"><rect width="200" height="200" rx="0" ry="0" x="0" y="0" fill="#fff" /></mask><g mask="url(#viewboxMask)"><rect fill="#fcbc34" width="200" height="200" x="0" y="0" /><g transform="matrix(1.5625 0 0 1.5625 37.5 110.94)"><path fill-rule="evenodd" clip-rule="evenodd" d="M20 28c8-13 29-13 37 0-13-6-24-6-37 0Z" fill="#1E120B"/><path d="M19.37 29a.37.37 0 0 1-.16-.04.4.4 0 0 1-.13-.1.44.44 0 0 1 0-.5C22.76 21.9 30.28 18 38.7 18h.15c8.29 0 15.45 3.9 19.07 10.32a.48.48 0 0 1 0 .52.4.4 0 0 1-.22.13.39.39 0 0 1-.25-.03c-13.42-7.1-24.4-7.1-37.92 0l-.16.06Zm19.17-6.29a39.78 39.78 0 0 1 17.96 4.72c-3.73-5.4-10.27-8.61-17.61-8.64h-.12c-7.56 0-14.37 3.26-18.17 8.64a40.03 40.03 0 0 1 17.94-4.72Z" fill="#000"/><path d="M104.7-9.65 57.64 28.27a32.88 32.88 0 0 0-5.27-2.3 36.9 36.9 0 0 0-5.28-1.56c-1.23-.26-2.48-.5-3.75-.66l53.53-43.12a3.13 3.13 0 0 1 4.4.48l3.92 4.83c.3.37.52.82.61 1.3a3.12 3.12 0 0 1-1.1 3.11Z" fill="#E2E0E0" stroke="#777" stroke-width=".39" stroke-miterlimit="10"/><path opacity=".66" d="M105.8-12.76c-.2.43-.5.8-.88 1.1L56.25 27.56l-.3-.13a32.88 32.88 0 0 0-3.58-1.47 37.79 37.79 0 0 0-5.28-1.55c-1.23-.26-2.48-.5-3.75-.66l53.53-43.12a3.13 3.13 0 0 1 4.4.48l3.92 4.83c.3.37.52.82.61 1.3Z" fill="#fff"/><path d="M96.55-11.11a1.46 1.46 0 0 0-2.08-.22L49.4 24.97c1.14.32 2.25.69 3.37 1.1L96.4-9.03a1.47 1.47 0 0 0 .14-2.08Z" fill="#CECCCC"/><path d="M83.9-.92a1.46 1.46 0 0 0-2.13-.24L49.4 24.97c1.14.32 2.25.69 3.37 1.1l30.9-24.94a1.47 1.47 0 0 0 .24-2.05Z" fill="#EF5656"/><path d="M75.58 3.45a.36.36 0 0 1-.28-.13l-.73-.91a.35.35 0 0 1 0-.49.37.37 0 0 1 .5 0l.73.9a.37.37 0 0 1 0 .5.3.3 0 0 1-.22.14ZM63.17 13.45a.37.37 0 0 1-.28-.13l-.73-.9a.37.37 0 0 1 .32-.55c.09 0 .17.03.24.09l.73.9a.35.35 0 0 1 0 .5.32.32 0 0 1-.28.1ZM51.04 23.28a.34.34 0 0 1-.28-.13l-.73-.91a.35.35 0 0 1 0-.5.37.37 0 0 1 .5 0l.71.9a.35.35 0 0 1 0 .5.34.34 0 0 1-.2.14ZM69.5 8.35a.3.3 0 0 1-.27-.13L67.77 6.4a.36.36 0 0 1 .55-.44l1.47 1.82a.35.35 0 0 1 0 .5.44.44 0 0 1-.3.07ZM56.9 18.54a.37.37 0 0 1-.29-.13l-1.46-1.82a.37.37 0 0 1 0-.5.35.35 0 0 1 .5 0l1.46 1.82a.37.37 0 0 1 0 .5.44.44 0 0 1-.22.13Z" fill="#000"/></g><g transform="matrix(1.5625 0 0 1.5625 31.25 59.38)"><path d="M87.22 13.98c0-7.2-5.82-13.04-13-13.04s-13 5.84-13 13.04v3.92c0 7.2 5.82 13.04 13 13.04s13-5.83 13-13.04v-3.92Z" fill="#000"/><path d="M70 10.48a2.29 2.29 0 1 0 0-4.58 2.29 2.29 0 0 0 0 4.58Z" fill="#fff"/><path opacity=".1" d="M74.24 19.3a5.32 5.32 0 1 0 0-10.66 5.32 5.32 0 0 0 0 10.65Z" fill="#fff"/><path d="M26.22 13.98c0-7.2-5.82-13.04-13-13.04s-13 5.84-13 13.04v3.92c0 7.2 5.82 13.04 13 13.04s13-5.83 13-13.04v-3.92Z" fill="#000"/><path d="M9 10.48A2.29 2.29 0 1 0 9 5.9a2.29 2.29 0 0 0 0 4.58Z" fill="#fff"/><path opacity=".1" d="M13.24 19.3a5.32 5.32 0 1 0 0-10.66 5.32 5.32 0 0 0 0 10.65Z" fill="#fff"/><path d="M84.33-5.7H65.45C58.63-5.7 53.1-.2 53.1 6.6v18.8c0 6.79 5.52 12.3 12.34 12.3h18.88c6.81 0 12.34-5.51 12.34-12.3V6.6c0-6.8-5.53-12.3-12.34-12.3Z" fill="url(#eyesGlasses-a)"/><path d="M21.3-5.7H2.42C-4.4-5.7-9.92-.2-9.92 6.6v18.8c0 6.79 5.52 12.3 12.34 12.3H21.3c6.81 0 12.34-5.51 12.34-12.3V6.6c0-6.8-5.53-12.3-12.34-12.3Z" fill="url(#eyesGlasses-b)"/><g fill="#000"><path d="M21.06 40.12H2.18A14.83 14.83 0 0 1-8.2 35.81a14.71 14.71 0 0 1-4.33-10.34V6.6c.02-3.87 1.58-7.59 4.34-10.34A14.85 14.85 0 0 1 2.18-8.06h18.88c3.92.02 7.66 1.58 10.42 4.35 2.76 2.76 4.31 6.5 4.31 10.4v18.7A14.62 14.62 0 0 1 26.71 39c-1.79.74-3.7 1.12-5.65 1.12ZM2.18-3.26A9.96 9.96 0 0 0-7 2.83a9.85 9.85 0 0 0-.76 3.78v18.8a9.85 9.85 0 0 0 9.9 9.86h18.92a9.93 9.93 0 0 0 9.9-9.86V6.6a9.87 9.87 0 0 0-9.9-9.86H2.18ZM84.33 40.12H65.46a14.83 14.83 0 0 1-10.39-4.31 14.71 14.71 0 0 1-4.33-10.34V6.6c.02-3.87 1.58-7.59 4.34-10.34a14.85 14.85 0 0 1 10.38-4.32h18.87c3.9.03 7.65 1.59 10.41 4.35s4.31 6.5 4.32 10.4v18.7c0 3.9-1.56 7.64-4.32 10.4a14.83 14.83 0 0 1-10.41 4.33ZM65.46-3.26a9.93 9.93 0 0 0-9.9 9.87v18.8a9.85 9.85 0 0 0 9.9 9.86h18.87a9.93 9.93 0 0 0 9.9-9.86V6.6a9.85 9.85 0 0 0-9.9-9.86H65.46Z"/><path d="M53.1 10.64H33.4v4.89h19.7v-4.89Z"/></g><defs><linearGradient id="eyesGlasses-a" x1="2332.67" y1="1561.82" x2="3621.21" y2="1561.82" gradientUnits="userSpaceOnUse"><stop stop-color="#fff" stop-opacity=".3"/><stop offset=".5" stop-color="#969696" stop-opacity=".2"/><stop offset="1" stop-color="#fff" stop-opacity=".3"/></linearGradient><linearGradient id="eyesGlasses-b" x1="2269.64" y1="1561.82" x2="3558.18" y2="1561.82" gradientUnits="userSpaceOnUse"><stop stop-color="#fff" stop-opacity=".3"/><stop offset=".5" stop-color="#969696" stop-opacity=".2"/><stop offset="1" stop-color="#fff" stop-opacity=".3"/></linearGradient></defs></g></g></svg>