<svg xmlns="http://www.w3.org/2000/svg" viewBox="0 0 200 200" fill="none" shape-rendering="auto"><metadata xmlns:rdf="http://www.w3.org/1999/02/22-rdf-syntax-ns#" xmlns:xsi="http://www.w3.org/2001/XMLSchema-instance" xmlns:dc="http://purl.org/dc/elements/1.1/" xmlns:dcterms="http://purl.org/dc/terms/"><rdf:RDF><rdf:Description><dc:title>Fun Emoji Set</dc:title><dc:creator>Davis Uche</dc:creator><dc:source xsi:type="dcterms:URI">https://www.figma.com/community/file/968125295144990435</dc:source><dcterms:license xsi:type="dcterms:URI">https://creativecommons.org/licenses/by/4.0/</dcterms:license><dc:rights>Remix of „Fun Emoji Set” (https://www.figma.com/community/file/968125295144990435) by „Davis Uche”, licensed under „CC BY 4.0” (https://creativecommons.org/licenses/by/4.0/)</dc:rights></rdf:Description></rdf:RDF></metadata><mask id="viewboxMask"><rect width="200" height="200" rx="0" ry="0" x="0" y="0" fill="#fff" /></mask><g mask="url(#viewboxMask)"><rect fill="#fcbc34" width="200" height="200" x="0" y="0" /><g transform="matrix(1.5625 0 0 1.5625 37.5 110.94)"><path fill-rule="evenodd" clip-rule="evenodd" d="M76 1v.49a35.13 35.13 0 0 1-.9 7.75 30.24 30.24 0 0 1-14.24 19.24C48.32 36 30.66 35.84 18.37 28A30.01 30.01 0 0 1 4.8 8.66 36.4 36.4 0 0 1 4 1c22.86 8.83 46.05 8.83 69.54.9L76 1Z" fill="#2B1607" stroke="#000" stroke-width="1.48" stroke-linecap="round" stroke-linejoin="round"/><path fill-rule="evenodd" clip-rule="evenodd" d="M76 1.48a33.97 33.97 0 0 1-.9 7.62C54.26 22.59 25.62 22.2 4.8 8.53 4.25 6.06 4 3.53 4 1c22.85 8.67 46.03 8.67 69.51.88l2.49-.4ZM62 28.49c-12.99 7.5-31.29 7.34-44-.49a134.2 134.2 0 0 0 44 .49Z" fill="#fff"/><path fill-rule="evenodd" clip-rule="evenodd" d="M76.57.19c.27.19.43.5.43.83 0 11.3-4.64 19.83-11.62 25.51C58.42 32.2 49.18 35 40 35c-9.19 0-18.42-2.8-25.38-8.47C7.64 20.85 3 12.33 3 1.03A1.03 1.03 0 0 1 4.38.06c23.45 9.02 47.14 8.78 71.25 0 .32-.12.66-.08.94.12ZM5.07 2.5C5.45 12.44 9.7 19.9 15.9 24.94c6.54 5.32 15.3 8.01 24.1 8.01s17.56-2.69 24.1-8c6.2-5.06 10.45-12.53 10.83-22.46C51.36 10.77 28.1 11 5.07 2.5Z" fill="#000"/><path d="M24.01 36.05c4.5 5.16 25.03 5.5 30 0a68.03 68.03 0 0 1-30 0Z" fill="#000" style="mix-blend-mode:soft-light" opacity=".4"/></g><g transform="matrix(1.5625 0 0 1.5625 31.25 59.38)"><g fill-rule="evenodd" clip-rule="evenodd"><path d="m7.3-9.5 1.82-1.6L19.18 3.35l17.5-1.54-7.85 15.71 9.31 14.07-1.8 1.58-17.32-2.23L5.76 42.48 2.82 24.74l-15.06-9.03 1.82-1.58 13.77-6.5L7.3-9.52Z" fill="#2B8DD6"/><path d="M9.11-11.1 21.63 1.24 39.13-.3 31.27 15.4l6.86 16.17-17.36-2.61L7.52 40.5 4.64 23.16l-15.06-9.04 15.59-8.1L9.1-11.08Z" fill="#70CDF2"/><path opacity=".4" d="M10.27-8 20.64 3.03 35.35 1.2 18.37 5.67l-8.9-9.8.8-3.87Z" fill="#fff"/><path d="m83.18-9.5-1.8-1.6L71.3 3.35 53.8 1.8l7.85 15.71-9.31 14.07 1.82 1.58 17.32-2.23 13.24 11.55 2.94-17.74 15.06-9.03-1.8-1.58-13.8-6.5-3.94-17.13Z" fill="#2B8DD6"/><path d="M81.38-11.1 68.87 1.24 51.36-.3l7.86 15.72-6.88 16.17 17.38-2.61L82.96 40.5l2.9-17.34 15.06-9.04-15.6-8.1-3.94-17.11Z" fill="#70CDF2"/><path opacity=".4" d="M80.2-8 69.85 3.03 55.14 1.2l16.99 4.47L81-4.13 80.21-8Z" fill="#fff"/></g></g></g></svg>