<svg xmlns="http://www.w3.org/2000/svg" viewBox="0 0 64 64" fill="none" shape-rendering="auto"><metadata xmlns:rdf="http://www.w3.org/1999/02/22-rdf-syntax-ns#" xmlns:xsi="http://www.w3.org/2001/XMLSchema-instance" xmlns:dc="http://purl.org/dc/elements/1.1/" xmlns:dcterms="http://purl.org/dc/terms/"><rdf:RDF><rdf:Description><dc:title>Personas by Draftbit</dc:title><dc:creator>Draftbit - draftbit.com</dc:creator><dc:source xsi:type="dcterms:URI">https://personas.draftbit.com/</dc:source><dcterms:license xsi:type="dcterms:URI">https://creativecommons.org/licenses/by/4.0/</dcterms:license><dc:rights>Remix of „Personas by Draftbit” (https://personas.draftbit.com/) by „Draftbit - draftbit.com”, licensed under „CC BY 4.0” (https://creativecommons.org/licenses/by/4.0/)</dc:rights></rdf:Description></rdf:RDF></metadata><mask id="viewboxMask"><rect width="64" height="64" rx="0" ry="0" x="0" y="0" fill="#fff" /></mask><g mask="url(#viewboxMask)"><path d="M37 46.08V52a5 5 0 0 1-10 0v-5.92A14.04 14.04 0 0 1 18.58 37h-.08a4.5 4.5 0 0 1-.5-8.97V27a14 14 0 1 1 28 0v1.03a4.5 4.5 0 0 1-.58 8.97A14.04 14.04 0 0 1 37 46.08Z" fill="#eeb4a4"/><mask id="personas-a" style="mask-type:luminance" maskUnits="userSpaceOnUse" x="14" y="13" width="36" height="44"><path d="M37 46.08V52a5 5 0 0 1-10 0v-5.92A14.04 14.04 0 0 1 18.58 37h-.08a4.5 4.5 0 0 1-.5-8.97V27a14 14 0 1 1 28 0v1.03a4.5 4.5 0 0 1-.58 8.97A14.04 14.04 0 0 1 37 46.08Z" fill="#fff"/></mask><g mask="url(#personas-a)"><path d="M32 13a14 14 0 0 1 14 14v6a14 14 0 1 1-28 0v-6a14 14 0 0 1 14-14Z" fill="#fff" style="mix-blend-mode:overlay" opacity=".36"/></g><g transform="translate(20 24)"><path d="M3.76 6.21c.4.13.82-.08.95-.47.23-.7.62-1 1.3-1 .66 0 1.05.3 1.28 1a.75.75 0 1 0 1.42-.48c-.43-1.3-1.38-2.01-2.7-2.01-1.34 0-2.29.71-2.72 2.01-.13.4.08.82.47.95ZM15.76 6.21c.4.13.82-.08.95-.47.23-.7.62-1 1.29-1s1.06.3 1.29 1a.75.75 0 1 0 1.42-.48c-.43-1.3-1.38-2.01-2.71-2.01s-2.28.71-2.71 2.01c-.13.4.08.82.47.95Z" fill="#1B0640"/></g><g transform="translate(2 2)"><path d="M39 11.84A5 5 0 0 1 44.04 7a4.99 4.99 0 0 1 5.03 5.18c.02 3.2.7 7.08 1.93 9.82a20.56 20.56 0 0 1-6.22-2.9A16.67 16.67 0 0 1 46 25.38v1.38a4.47 4.47 0 0 0-2-.73V26c-1.8-2-3.13-4.5-3.97-7.47-1.87 2.28-4.55 3.6-8.03 3.97-5.83.61-10.82-.33-14.95-2.82A13.96 13.96 0 0 0 16 25v1.03c-.73.08-1.42.34-2 .73v-1.38c0-2.22.43-4.35 1.22-6.28A20.56 20.56 0 0 1 9 22a26.57 26.57 0 0 0 1.92-10.06A4.99 4.99 0 0 1 15.96 7 5 5 0 0 1 21 11.84a15.67 15.67 0 0 1 18 0Z" fill="#f29c65"/><path d="M39.01 11.58c4.2 2.96 7 8.19 7 14.13v1.05a4.47 4.47 0 0 0-2-.73V26c-1.82-2-3.14-4.5-3.98-7.47-1.87 2.28-4.55 3.6-8.03 3.97-5.83.61-10.82-.33-14.95-2.82A13.96 13.96 0 0 0 16 25v1.03c-.73.08-1.42.34-2 .73V25.7c0-5.94 2.79-11.17 6.99-14.13v.26a15.67 15.67 0 0 1 18 0l.01-.26Z" fill="#fff" style="mix-blend-mode:overlay" opacity=".26"/><path fill-rule="evenodd" clip-rule="evenodd" d="M21 9a5 5 0 0 0-4.39 7.4 16.14 16.14 0 0 1 7.55-6.27A4.98 4.98 0 0 0 21 9Zm23 5a5 5 0 0 0-8.16-3.87 16.14 16.14 0 0 1 7.55 6.27c.39-.7.6-1.53.6-2.4Z" fill="#F55D81"/></g><g transform="translate(11 44)"><path d="M16 7v.47a5 5 0 1 0 10 0V7c7.06 1.52 12.93 6.74 16 13H0C3.07 13.74 8.94 8.52 16 7Z" fill="#e24553"/></g><g transform="translate(23 36)"><path d="M6 3h6v1a3 3 0 0 1-6 0V3Z" fill="#fff"/></g><g transform="translate(24 28)"><path d="M4.25 5a.75.75 0 0 1 1.5 0c0 .84.91 1.75 2.25 1.75 1.34 0 2.25-.91 2.25-1.75a.75.75 0 0 1 1.5 0c0 1.66-1.59 3.25-3.75 3.25S4.25 6.66 4.25 5Z" fill="#000" style="mix-blend-mode:overlay" opacity=".36"/></g><g transform="translate(14 26)"></g></g></svg>