<svg xmlns="http://www.w3.org/2000/svg" viewBox="0 0 64 64" fill="none" shape-rendering="auto"><metadata xmlns:rdf="http://www.w3.org/1999/02/22-rdf-syntax-ns#" xmlns:xsi="http://www.w3.org/2001/XMLSchema-instance" xmlns:dc="http://purl.org/dc/elements/1.1/" xmlns:dcterms="http://purl.org/dc/terms/"><rdf:RDF><rdf:Description><dc:title>Personas by Draftbit</dc:title><dc:creator>Draftbit - draftbit.com</dc:creator><dc:source xsi:type="dcterms:URI">https://personas.draftbit.com/</dc:source><dcterms:license xsi:type="dcterms:URI">https://creativecommons.org/licenses/by/4.0/</dcterms:license><dc:rights>Remix of „Personas by Draftbit” (https://personas.draftbit.com/) by „Draftbit - draftbit.com”, licensed under „CC BY 4.0” (https://creativecommons.org/licenses/by/4.0/)</dc:rights></rdf:Description></rdf:RDF></metadata><mask id="viewboxMask"><rect width="64" height="64" rx="0" ry="0" x="0" y="0" fill="#fff" /></mask><g mask="url(#viewboxMask)"><path d="M37 46.08V52a5 5 0 0 1-10 0v-5.92A14.04 14.04 0 0 1 18.58 37h-.08a4.5 4.5 0 0 1-.5-8.97V27a14 14 0 1 1 28 0v1.03a4.5 4.5 0 0 1-.58 8.97A14.04 14.04 0 0 1 37 46.08Z" fill="#e7a391"/><mask id="personas-a" style="mask-type:luminance" maskUnits="userSpaceOnUse" x="14" y="13" width="36" height="44"><path d="M37 46.08V52a5 5 0 0 1-10 0v-5.92A14.04 14.04 0 0 1 18.58 37h-.08a4.5 4.5 0 0 1-.5-8.97V27a14 14 0 1 1 28 0v1.03a4.5 4.5 0 0 1-.58 8.97A14.04 14.04 0 0 1 37 46.08Z" fill="#fff"/></mask><g mask="url(#personas-a)"><path d="M32 13a14 14 0 0 1 14 14v6a14 14 0 1 1-28 0v-6a14 14 0 0 1 14-14Z" fill="#fff" style="mix-blend-mode:overlay" opacity=".36"/></g><g transform="translate(20 24)"><path fill-rule="evenodd" clip-rule="evenodd" d="M4 4.5a1.5 1.5 0 1 0 3 0 1.5 1.5 0 0 0-3 0Zm13 0a1.5 1.5 0 1 0 3 0 1.5 1.5 0 0 0-3 0Z" fill="#1B0640"/></g><g transform="translate(2 2)"><path d="M35 11.92A14 14 0 0 1 44 25v1s-1.33-3.1-3.16-4.93c-1.84-1.82-3.34-.7-4.53-2.52-1.2-1.83-1.31-6.63-1.31-6.63Z" fill="#e16381" opacity=".3"/><path d="M30.65 23.09c-1.6 1.26-4.4 1.88-7.24 2.5-4.62 1.02-9.4 2.07-9.4 5.98V25.5C14 16.39 21.16 9 30 9c4.84 0 5.68 2.65 5.46 6.23-.2 3-.62 4.55-4.8 7.86ZM25 47a9.4 9.4 0 0 1-9.44 9.53L7.5 56.5s4-8.23 5-11.11l.06-.2c-.84.51-1.84.81-2.92.81H8.5s4.1-3.74 5.35-9.69c.1-1.23.15-2.07.15-2.07a4.48 4.48 0 0 0 2.58.76A14.04 14.04 0 0 0 25 44.08V47Z" fill="#e16381"/></g><g transform="translate(11 44)"><path d="M16 7v.47a5 5 0 1 0 10 0V7c7.06 1.52 12.93 6.74 16 13H0C3.07 13.74 8.94 8.52 16 7Z" fill="#7555ca"/></g><g transform="translate(23 36)"><path fill-rule="evenodd" clip-rule="evenodd" d="M9 2c-.76 0-1.51-.14-2.27-.41A2.03 2.03 0 0 0 4 3.5c0 1.4.82 2.6 2 3.17a3 3 0 0 0 6 0 3.5 3.5 0 0 0 2-3.17 2.03 2.03 0 0 0-2.73-1.91C10.51 1.86 9.76 2 9 2ZM7.59 7h2.82A1.5 1.5 0 0 1 7.6 7Z" fill="#456DFF"/><path fill-rule="evenodd" clip-rule="evenodd" d="M12 6.5v.17a3.5 3.5 0 0 0 2-3.17 2.03 2.03 0 0 0-2.73-1.91 6.61 6.61 0 0 1-4.54 0A2.03 2.03 0 0 0 4 3.5c0 1.4.82 2.6 2 3.17V6.5a3 3 0 1 1 6 0ZM7.59 7h2.82A1.5 1.5 0 1 0 7.6 7Z" fill="#fff" fill-opacity=".3" style="mix-blend-mode:lighten"/><circle cx="9" cy="4.5" r="1.5" fill="#fff"/></g><g transform="translate(24 28)"><path d="M4.25 5a.75.75 0 0 1 1.5 0c0 .84.91 1.75 2.25 1.75 1.34 0 2.25-.91 2.25-1.75a.75.75 0 0 1 1.5 0c0 1.66-1.59 3.25-3.75 3.25S4.25 6.66 4.25 5Z" fill="#000" style="mix-blend-mode:overlay" opacity=".36"/></g><g transform="translate(14 26)"></g></g></svg>