<svg xmlns="http://www.w3.org/2000/svg" viewBox="0 0 64 64" fill="none" shape-rendering="auto"><metadata xmlns:rdf="http://www.w3.org/1999/02/22-rdf-syntax-ns#" xmlns:xsi="http://www.w3.org/2001/XMLSchema-instance" xmlns:dc="http://purl.org/dc/elements/1.1/" xmlns:dcterms="http://purl.org/dc/terms/"><rdf:RDF><rdf:Description><dc:title>Personas by Draftbit</dc:title><dc:creator>Draftbit - draftbit.com</dc:creator><dc:source xsi:type="dcterms:URI">https://personas.draftbit.com/</dc:source><dcterms:license xsi:type="dcterms:URI">https://creativecommons.org/licenses/by/4.0/</dcterms:license><dc:rights>Remix of „Personas by Draftbit” (https://personas.draftbit.com/) by „Draftbit - draftbit.com”, licensed under „CC BY 4.0” (https://creativecommons.org/licenses/by/4.0/)</dc:rights></rdf:Description></rdf:RDF></metadata><mask id="viewboxMask"><rect width="64" height="64" rx="0" ry="0" x="0" y="0" fill="#fff" /></mask><g mask="url(#viewboxMask)"><path d="M37 46.08V52a5 5 0 0 1-10 0v-5.92A14.04 14.04 0 0 1 18.58 37h-.08a4.5 4.5 0 0 1-.5-8.97V27a14 14 0 1 1 28 0v1.03a4.5 4.5 0 0 1-.58 8.97A14.04 14.04 0 0 1 37 46.08Z" fill="#92594b"/><mask id="personas-a" style="mask-type:luminance" maskUnits="userSpaceOnUse" x="14" y="13" width="36" height="44"><path d="M37 46.08V52a5 5 0 0 1-10 0v-5.92A14.04 14.04 0 0 1 18.58 37h-.08a4.5 4.5 0 0 1-.5-8.97V27a14 14 0 1 1 28 0v1.03a4.5 4.5 0 0 1-.58 8.97A14.04 14.04 0 0 1 37 46.08Z" fill="#fff"/></mask><g mask="url(#personas-a)"><path d="M32 13a14 14 0 0 1 14 14v6a14 14 0 1 1-28 0v-6a14 14 0 0 1 14-14Z" fill="#fff" style="mix-blend-mode:overlay" opacity=".36"/></g><g transform="translate(20 24)"><path d="M3.63 4A1 1 0 0 0 4 5.37 4.5 4.5 0 0 0 6.25 6a4.5 4.5 0 0 0 2.25-.63 1 1 0 0 0-1-1.74c-.43.25-.85.37-1.25.37S5.43 3.88 5 3.63A1 1 0 0 0 3.63 4ZM15.63 4A1 1 0 0 0 16 5.37a4.5 4.5 0 0 0 2.25.63 4.5 4.5 0 0 0 2.25-.63 1 1 0 0 0-1-1.74 2.5 2.5 0 0 1-1.25.37c-.4 0-.82-.12-1.25-.37a1 1 0 0 0-1.37.37Z" fill="#1B0640"/></g><g transform="translate(2 2)"><path d="M30.03 8a6.51 6.51 0 0 1 4.85 2.05c.56.54.96 1.32 1.1 2.14l.67 4.16c.35 1.94-.7 3.67-2.53 4.09-1.62.37-3 .55-4.12.55-1.13 0-2.55-.2-4.24-.58-1.84-.42-2.84-2.2-2.38-4.14l.79-4.2c.16-.74.53-1.43 1.03-1.93C25.83 9.5 27.3 8 30.03 8Z" fill="#f29c65"/><path d="M34.88 10.05c.56.54.96 1.32 1.1 2.14l.67 4.16c.35 1.94-.7 3.67-2.53 4.09-1.62.37-3 .55-4.12.55-1.13 0-2.55-.2-4.24-.58-1.84-.42-2.84-2.2-2.38-4.14l.79-4.2c.16-.74.53-1.43 1.03-1.93.26-.27.67-.69 1.25-1.08-.31.48-1.45.98-1.45 2.43V15a3.06 3.06 0 0 0 2.02 3.51c1.18.34 2.18.5 2.98.5.79 0 1.76-.16 2.9-.47 1.28-.35 2.35-1.89 2.1-3.53v-3c0-1.5-1.1-2.54-1.5-3l-.14-.14c.73.42 1.22.9 1.52 1.2Z" fill="#fff" style="mix-blend-mode:overlay" opacity=".26"/></g><g transform="translate(11 44)"><path d="M16 7v.47a5 5 0 1 0 10 0V7c7.06 1.52 12.93 6.74 16 13H0C3.07 13.74 8.94 8.52 16 7Z" fill="#456dff"/></g><g transform="translate(23 36)"><path d="M5 5.87a1 1 0 1 1 1-1.74A6 6 0 0 0 9 5a6 6 0 0 0 3-.87 1 1 0 1 1 1 1.74A8 8 0 0 1 9 7a8 8 0 0 1-4-1.13Z" fill="#1B0640"/></g><g transform="translate(24 28)"><path opacity=".12" fill-rule="evenodd" clip-rule="evenodd" d="M11.72 5.3c.21.73.27 1.38.2 1.95a20.24 20.24 0 0 1 2.12 4.41.5.5 0 1 0 .94-.32 21.23 21.23 0 0 0-3.4-6.3c.07.07.11.16.14.25Zm-7.44 0a.75.75 0 0 1 .11-.24 28.75 28.75 0 0 0-2.07 3.22c-.48.89-.9 1.9-1.3 3.06a.5.5 0 0 0 .94.32 20.24 20.24 0 0 1 2.12-4.4 4.77 4.77 0 0 1 .19-1.97Z" fill="#000"/><path d="M5.2 4.78a.75.75 0 0 0-.92.51c-.21.75-.27 1.4-.2 1.97.23 1.6 1.6 2.49 3.92 2.49 2.33 0 3.7-.89 3.92-2.5.07-.57.01-1.22-.2-1.96a.75.75 0 1 0-1.44.42c.52 1.83-.09 2.54-2.28 2.54-2.2 0-2.8-.71-2.28-2.54a.75.75 0 0 0-.51-.93Z" fill="#000" style="mix-blend-mode:overlay" opacity=".36"/></g><g transform="translate(14 26)"><path d="M16 17.5h4l-.68 2.05a1.39 1.39 0 0 1-2.63 0l-.7-2.05Z" fill="#f29c65"/></g></g></svg>