<svg xmlns="http://www.w3.org/2000/svg" viewBox="0 0 180 180" fill="none" shape-rendering="auto"><metadata xmlns:rdf="http://www.w3.org/1999/02/22-rdf-syntax-ns#" xmlns:xsi="http://www.w3.org/2001/XMLSchema-instance" xmlns:dc="http://purl.org/dc/elements/1.1/" xmlns:dcterms="http://purl.org/dc/terms/"><rdf:RDF><rdf:Description><dc:title>Bottts</dc:title><dc:creator>Pablo Stanley</dc:creator><dc:source xsi:type="dcterms:URI">https://bottts.com/</dc:source><dcterms:license xsi:type="dcterms:URI">https://bottts.com/</dcterms:license><dc:rights>Remix of „Bottts” (https://bottts.com/) by „Pablo Stanley”, licensed under „Free for personal and commercial use” (https://bottts.com/)</dc:rights></rdf:Description></rdf:RDF></metadata><mask id="viewboxMask"><rect width="180" height="180" rx="0" ry="0" x="0" y="0" fill="#fff" /></mask><g mask="url(#viewboxMask)"><g transform="translate(0 66)"><mask id="sidesSquare-a" style="mask-type:luminance" maskUnits="userSpaceOnUse" x="14" y="16" width="152" height="44"><g fill="#fff"><rect x="14" y="16" width="36" height="44" rx="9"/><rect x="130" y="16" width="36" height="44" rx="9"/></g></mask><g mask="url(#sidesSquare-a)"><path d="M0 0h180v76H0V0Z" fill="#f4511e"/><path d="M0 0h180v76H0V0Z" fill="#fff" fill-opacity=".3"/><path fill="#000" fill-opacity=".1" d="M0 38h180v38H0z"/></g></g><g transform="translate(41)"><mask id="topPyramid-a" style="mask-type:luminance" maskUnits="userSpaceOnUse" x="18" y="8" width="64" height="44"><path fill-rule="evenodd" clip-rule="evenodd" d="m50 8 32 44H18L50 8Z" fill="#fff"/></mask><g mask="url(#topPyramid-a)"><path d="M0 0h100v52H0V0Z" fill="#f4511e"/><path d="M0 0h100v52H0V0Z" fill="#fff" fill-opacity=".3"/><path fill="#fff" fill-opacity=".8" d="M50 4h30v48H50z"/></g></g><g transform="translate(25 44)"><mask id="faceSquare02-a" style="mask-type:luminance" maskUnits="userSpaceOnUse" x="0" y="0" width="130" height="120"><path d="M0 12A12 12 0 0 1 12 0h106a12 12 0 0 1 12 12v70a38 38 0 0 1-38 38H38A38 38 0 0 1 0 82V12Z" fill="#fff"/></mask><g mask="url(#faceSquare02-a)"><path d="M-2-2h134v124H-2V-2Z" fill="#f4511e"/><g transform="translate(-1 -1)"></g></g></g><g transform="translate(52 124)"><rect x="4" y="5" width="68" height="22" rx="5" fill="#000" fill-opacity=".2"/><rect x="8" y="9" width="60" height="14" rx="2" fill="#fff"/><path fill="#000" fill-opacity=".1" d="M18 9h4v14h-4zM42 9h4v14h-4zM30 9h4v14h-4zM54 9h4v14h-4z"/></g><g transform="translate(38 76)"><rect y="12" width="104" height="32" rx="16" fill="#000" fill-opacity=".8"/><rect x="24" y="22" width="10" height="12" rx="2" fill="#F4F4F4"/><rect x="70" y="22" width="10" height="12" rx="2" fill="#F4F4F4"/></g></g></svg>