<svg xmlns="http://www.w3.org/2000/svg" viewBox="0 0 480 480" fill="none" shape-rendering="auto"><metadata xmlns:rdf="http://www.w3.org/1999/02/22-rdf-syntax-ns#" xmlns:xsi="http://www.w3.org/2001/XMLSchema-instance" xmlns:dc="http://purl.org/dc/elements/1.1/" xmlns:dcterms="http://purl.org/dc/terms/"><rdf:RDF><rdf:Description><dc:title>Custom Avatar</dc:title><dc:creator>Ashley Seo</dc:creator><dc:source xsi:type="dcterms:URI">https://www.figma.com/community/file/881358461963645496</dc:source><dcterms:license xsi:type="dcterms:URI">https://creativecommons.org/licenses/by/4.0/</dcterms:license><dc:rights>Remix of „Custom Avatar” (https://www.figma.com/community/file/881358461963645496) by „Ashley Seo”, licensed under „CC BY 4.0” (https://creativecommons.org/licenses/by/4.0/)</dc:rights></rdf:Description></rdf:RDF></metadata><mask id="viewboxMask"><rect width="480" height="480" rx="0" ry="0" x="0" y="0" fill="#fff" /></mask><g mask="url(#viewboxMask)"><g transform="matrix(.85775 0 0 .85427 52 47)"><path d="M264 38.6s131.4 20.6 121.4 208.1c0 .7 15.2 10.9 16.4 12a77.1 77.1 0 0 1 23.4 36.3c13.9 51.3-35.7 104.2-75.8 118.2a155 155 0 0 1-46.7 8.3c-103.1 3-239.7-62.7-246.7-191a202.7 202.7 0 0 1 15.1-83.9c0 .1 57.4-142.5 192.9-108Z" fill="#e2ba87"/><path d="M388.7 248.7a57 57 0 0 0-3.2 10.5 40 40 0 0 0 8.5 30.4 42.3 42.3 0 0 0 33 15.7c-3.2-31.7-29-50.7-38.3-56.6ZM203.5 332c24.4-5.2 39.6-31 33.9-57.5-5.7-26.5-30.2-43.7-54.6-38.5-24.4 5.3-39.5 31-33.8 57.6 5.7 26.5 30.1 43.7 54.5 38.5Z" fill="#DC2400" style="mix-blend-mode:multiply" opacity=".1"/><path opacity=".1" d="M323 257.9s20.9-19.9 37-1.2Z" fill="#000"/><path d="M128.7 356.9C59.3 391.7-3.7 304.4 16.5 255.3c12.9-31.4 50.4-33.8 72.1-5.2a185 185 0 0 1 29.1 59.1" fill="#e2ba87"/><path opacity=".1" d="M71.5 279c9 9 16.1 22.5 25 30-1.7-12.5-4.3-26-10.4-37.3-6.2-11.6-17.5-21-29-20.3-14.2 1-25.9 17.6-27.4 32.6 1-9 19-15 25.9-14.2 10.8 20.4 15 60.6 15 60.6 9-22.7 5.4-40.7 1-51.5Z" fill="#000"/></g><g transform="matrix(.85472 0 0 .855 19 -17)"><path d="M311.4 362.3C339 346 362.6 345 379.3 344c33.3-2 61.1 8.8 68.5 42.7 6.8 31.2-16.9 49.4-27.8 49-11-.3-13.3-12.2-39.3-12.8-26-.6-63.4 42.9-85.5 26.6-22.2-16.4-18.4-66.6 16.2-87Z" fill="#873C41"/><path d="M433.3 430.2a22.8 22.8 0 0 1-13.1 5.3c-4.3-.1-7.3-2-10.9-4.4-5.5-3.6-12.6-8.1-28.5-8.5-11-.2-24.1 7.4-37.2 15.1-17.8 10.4-35.6 20.9-48.4 11.5-11.7-8.6-16.1-26.4-12.8-44.4 20-6 42.3-5.6 62.8-3.3 29.5 3.3 59.2 10 85.4 26.8a84 84 0 0 1 2.7 1.9Z" fill="#EE7E8B"/><path d="M333.4 368.5a46.8 46.8 0 0 1-37.9 7.5c4.3-5.3 9.6-10 15.9-13.7a136.3 136.3 0 0 1 68-18.4c21.6-1.4 40.8 2.7 53.8 14.9l-.6.7a29 29 0 0 1-32.3 7.3c-1.6-.7-3.6.4-4.4 1.9-9.8 18.9-43.8 19.8-57 1.4-1.3-1.7-3.6-2.8-5.5-1.6Z" fill="#fff"/></g><g transform="matrix(.85472 0 0 .855 19 -17)"><path d="M401.9 284.8c3.9 1.8 9.3 3.9 14.5 5.1 1.6 3.1 2.5 6.9 2.5 10.3 0 8-3.6 16.5-13 15.5-7.7-.8-9.7-11-9.7-16 0-6 2.2-12 5.7-15ZM296.2 292.5c-.4 2-.6 4-.6 6 0 12.5 6.2 19 15.5 21.5 13 2 19.3-7.7 19.3-19.5 0-7-2.9-13.8-7.4-18.2a55.3 55.3 0 0 1-26.8 10.2Z" fill="#2A1200"/><path d="M324.8 237.7a43.9 43.9 0 0 0-32.3 24.2c-2 4.2-1.1 10 3.2 12.7 4 2.4 9.6 1.7 11.8-2.7.6-1.4 1.3-2.6 2-3.9.3-.4 1.1-1.2 1.3-1.7l.4-.4a37.4 37.4 0 0 1 4.7-4.7c.5-.3 1-.8 1.5-1a34.2 34.2 0 0 1 5.7-3 36.2 36.2 0 0 1 6.1-1.5c4.4-.7 7.5-6.2 6.2-10.8-1.5-5-5.8-7.9-10.6-7.2ZM425.2 260.4c-3.1-7.8-9.1-14-16.4-17.1-2-1-4.6-.7-6.6.2-1.9 1-3.8 3-4.5 5.2a10 10 0 0 0 0 7 9 9 0 0 0 4.7 4.9l1 .5c1 .6 2 1.4 2.9 2.2 1 1 1.8 2.2 2.5 3.4l.7 1.5c.9 2.1 2.7 4 4.7 4.8 2 .8 4.6.8 6.5-.3 2-1 3.8-2.9 4.6-5.2.7-2.3.8-4.8 0-7Z" fill="#71472D"/></g><g transform="matrix(.85472 0 0 .85667 18 -15)"><path d="M379.9 210a45.2 45.2 0 0 0 36.3 13.3c5 17.3 8.5 37 9.6 59.9a44.5 44.5 0 0 0 15-70.1 47.7 47.7 0 0 0 17.2-36.8 47 47 0 0 0-37.6-46.5 51.4 51.4 0 0 0-50.3-58.2c-7.6 0-14.8 1.7-21.3 4.8A50.7 50.7 0 0 0 302 44c-17.6 0-33 9.2-42.1 23.2A50.4 50.4 0 0 0 229 56.7c-21 0-39 12.9-46.9 31.2-6.3-3-13.4-4.6-20.8-4.6a51.3 51.3 0 0 0-50.6 51.1A52.4 52.4 0 0 0 76 220.8a52.3 52.3 0 0 0 35.2 89.8c1.9 0 3.7 0 5.6-.3 24.1 14.5 36.3 43.6 39.7 59.3 0 0 11.3.6 14-1.5 11-5.8 29-25.9 29.8-64.5a52.3 52.3 0 0 0 13.4-53.3 51.6 51.6 0 0 0 34-31.1A50.3 50.3 0 0 0 309 203a46.3 46.3 0 0 0 70.9 7Z" fill="#e9b729"/></g><g transform="matrix(.85472 0 0 .85667 14 -12)"></g></g></svg>