<svg xmlns="http://www.w3.org/2000/svg" viewBox="0 0 480 480" fill="none" shape-rendering="auto"><metadata xmlns:rdf="http://www.w3.org/1999/02/22-rdf-syntax-ns#" xmlns:xsi="http://www.w3.org/2001/XMLSchema-instance" xmlns:dc="http://purl.org/dc/elements/1.1/" xmlns:dcterms="http://purl.org/dc/terms/"><rdf:RDF><rdf:Description><dc:title>Custom Avatar</dc:title><dc:creator>Ashley Seo</dc:creator><dc:source xsi:type="dcterms:URI">https://www.figma.com/community/file/881358461963645496</dc:source><dcterms:license xsi:type="dcterms:URI">https://creativecommons.org/licenses/by/4.0/</dcterms:license><dc:rights>Remix of „Custom Avatar” (https://www.figma.com/community/file/881358461963645496) by „Ashley Seo”, licensed under „CC BY 4.0” (https://creativecommons.org/licenses/by/4.0/)</dc:rights></rdf:Description></rdf:RDF></metadata><mask id="viewboxMask"><rect width="480" height="480" rx="0" ry="0" x="0" y="0" fill="#fff" /></mask><g mask="url(#viewboxMask)"><g transform="matrix(.85775 0 0 .85427 52 47)"><path d="M264 38.6s131.4 20.6 121.4 208.1c0 .7 15.2 10.9 16.4 12a77.1 77.1 0 0 1 23.4 36.3c13.9 51.3-35.7 104.2-75.8 118.2a155 155 0 0 1-46.7 8.3c-103.1 3-239.7-62.7-246.7-191a202.7 202.7 0 0 1 15.1-83.9c0 .1 57.4-142.5 192.9-108Z" fill="#f5d7b1"/><path d="M388.7 248.7a57 57 0 0 0-3.2 10.5 40 40 0 0 0 8.5 30.4 42.3 42.3 0 0 0 33 15.7c-3.2-31.7-29-50.7-38.3-56.6ZM203.5 332c24.4-5.2 39.6-31 33.9-57.5-5.7-26.5-30.2-43.7-54.6-38.5-24.4 5.3-39.5 31-33.8 57.6 5.7 26.5 30.1 43.7 54.5 38.5Z" fill="#DC2400" style="mix-blend-mode:multiply" opacity=".1"/><path opacity=".1" d="M323 257.9s20.9-19.9 37-1.2Z" fill="#000"/><path d="M128.7 356.9C59.3 391.7-3.7 304.4 16.5 255.3c12.9-31.4 50.4-33.8 72.1-5.2a185 185 0 0 1 29.1 59.1" fill="#f5d7b1"/><path opacity=".1" d="M71.5 279c9 9 16.1 22.5 25 30-1.7-12.5-4.3-26-10.4-37.3-6.2-11.6-17.5-21-29-20.3-14.2 1-25.9 17.6-27.4 32.6 1-9 19-15 25.9-14.2 10.8 20.4 15 60.6 15 60.6 9-22.7 5.4-40.7 1-51.5Z" fill="#000"/></g><g transform="matrix(.85472 0 0 .855 19 -17)"><path d="M351.7 357.8c35.7 2.3 57.8 0 65 0 30-4.5 42.7 48.4 5 76.2-11.2 8.3-16.7 7-40.7 7-24 0-50 9-64.5 4.9-41.1-11.6-48.3-41.4-44.7-57.8 5-22.1 15.2-34.4 80-30.3Z" fill="#fff"/><path d="m370.1 441.5-6 .7 3.3-83.6 6 .1-3.3 82.8ZM434.1 421.9c-1.5 2-3.2 4-5.1 5.9l-11-70.2c2-.2 4 0 6 .3l10.1 64ZM306.8 358.3 294.2 436c-2-1.3-3.8-2.6-5.4-4l11.7-72.5c2-.5 4-.8 6.3-1.2Z" fill="#D1D3D4"/></g><g transform="matrix(.85472 0 0 .855 19 -17)"><path d="M340.9 308.9a48 48 0 0 0-43.1-6.7c-.2 0-.4-.2-.2-.4 21.5-24.5 37.8-6.1 43.6 6.8 0 .2-.2.4-.3.3ZM419 300.3c0 8-3.6 16.5-12.8 15.5-7.8-.8-9.7-11-9.7-16 0-8.7 4.4-17 10.8-17 6.8 0 11.7 9.5 11.7 17.5Z" fill="#2A1200"/><path d="M333.5 238.7a43.9 43.9 0 0 0-38.2 13.2c-3.2 3.4-4 9.3-.7 13 3 3.6 8.6 4.6 12 1l3.2-3c.4-.3 1.3-.8 1.6-1.2l.5-.4a37.7 37.7 0 0 1 6-3c.5 0 1.2-.4 1.7-.5a35.6 35.6 0 0 1 6.3-1.2h2l4.3.5c4.4.7 9-3.6 9.2-8.4.1-5.3-3.2-9.3-8-10ZM425.4 254.4a31.4 31.4 0 0 0-20.2-12.6c-2.1-.4-4.6.4-6.3 1.8a9.5 9.5 0 0 0-3.1 6.2c-.1 2.4.3 5 1.8 6.8a9 9 0 0 0 5.7 3.5l1.2.3c1 .4 2.1.8 3.2 1.4 1.2.8 2.3 1.7 3.3 2.7l1 1.3a8.8 8.8 0 0 0 5.8 3.5c2 .2 4.6-.4 6.2-2 1.7-1.5 3-3.6 3.2-6 .1-2.5-.4-5-1.8-7Z" fill="#71472D"/></g><g transform="matrix(.85472 0 0 .85667 18 -15)"><path d="M347 169c8 36.8 49.7 54.3 69.5 58.5 6.8 23.6 8.5 71.8 8.5 92.5a83.8 83.8 0 0 1 33.5 31.5 47.4 47.4 0 0 1 1-28c1-4.4 2.4-9.4 3.5-16 3.1-18.7-16.3-42.8-26.6-55.7-1.3-1.6-2.5-3-3.4-4.3-4.1-5.4-2.8-17-1.4-29.9 1.6-13.5 3.3-28.4-1.1-38.6-8.5-20-36-37.5-50.5-39-6-.6-9.4-4.4-14.3-9.7-7-7.7-17.2-18.8-42.2-28.8a97.5 97.5 0 0 0-78 3.7c-97.4 8.3-133 108-135 113.1v.2a203.1 203.1 0 0 0-14.4 84c38.1 6.6 56.1 47.4 60.4 67 0 0 11.3.7 14-1.5 14-7.3 38.9-37.4 26.5-99-6-28-2-50.3 47-85 30.4-21.5 72-21.3 103-15ZM453 432c4-7.3 12.8-26.3 14-41.5a63 63 0 0 1 18.5 34.5 50 50 0 0 1-7.5 27.6c-3.3 6.5-6.1 12.2-5 16.9 2 8.4 6.5 13.8 8.5 15.5-13.7 6.2-50.1 15-80.5-5 10-5 35-22.4 52-48Z" fill="#e9b729"/><path d="M347 169c-8.5-19.5-41-59.4-103-63l1.5-.8c-97.4 8.3-133 108-135 113.1v.2a203.1 203.1 0 0 0-14.4 84c38.1 6.6 56.1 47.4 60.4 67 0 0 11.3.7 14-1.5 14-7.3 38.9-37.4 26.5-99-6-28-2-50.3 47-85 30.4-21.5 72-21.3 103-15Z" fill="#000" fill-opacity=".3"/><path d="M447 336.4c-2-4.7-1-8.9.3-13.8.7-2.8 1.4-5.7 1.7-9.1.8-8.8-2-20-3.5-24.5 0 4.8-.5 16.5-2.5 24.5a37.2 37.2 0 0 1-6.8 13.5c4 3 7.7 6.3 10.7 9.4ZM470.5 488.8l1.5-1.8c-12.5-18.5-5.5-36.5 0-48.5a26 26 0 0 0 0-22c0 12.6-3.3 16.9-7.9 22.6a52.1 52.1 0 0 0-12.8 35.8c0 4.6 0 7.2-2.3 6.1-4-2-5.7-6.8-6-9a53 53 0 0 0 .6 20.4c10.2 0 19.5-1.5 27-3.6ZM377 194.5a80.9 80.9 0 0 1-23-33c3.5 6.5 16 22.3 38 33s30.2 22.8 31.5 27.5c-4.7-8.4-14.4-12.3-24.8-16.4-7.4-3-15.2-6-21.7-11.1Z" style="mix-blend-mode:multiply" fill="#000" fill-opacity=".2"/></g><g transform="matrix(.85472 0 0 .85667 14 -12)"></g></g></svg>