<svg xmlns="http://www.w3.org/2000/svg" viewBox="0 0 980 980" fill="none" shape-rendering="auto"><metadata xmlns:rdf="http://www.w3.org/1999/02/22-rdf-syntax-ns#" xmlns:xsi="http://www.w3.org/2001/XMLSchema-instance" xmlns:dc="http://purl.org/dc/elements/1.1/" xmlns:dcterms="http://purl.org/dc/terms/"><rdf:RDF><rdf:Description><dc:title>Lorelei</dc:title><dc:creator>Lisa Wischofsky</dc:creator><dc:source xsi:type="dcterms:URI">https://www.figma.com/community/file/1198749693280469639</dc:source><dcterms:license xsi:type="dcterms:URI">https://creativecommons.org/publicdomain/zero/1.0/</dcterms:license><dc:rights>Remix of „Lorelei” (https://www.figma.com/community/file/1198749693280469639) by „Lisa Wischofsky”, licensed under „CC0 1.0” (https://creativecommons.org/publicdomain/zero/1.0/)</dc:rights></rdf:Description></rdf:RDF></metadata><mask id="viewboxMask"><rect width="980" height="980" rx="0" ry="0" x="0" y="0" fill="#fff" /></mask><g mask="url(#viewboxMask)"><g transform="translate(10 -60)"><path d="M486 236c57-2 115 18 159 56a209 209 0 0 1 73 190c-1 4-1 8-4 12l-1-3v-33a215 215 0 0 0-172-206 235 235 0 0 0-270 153c-12 37-14 78-6 116 6-2 12-2 17-2 2 1 5 1 6 3s0 3-1 4l-12 4c-14 3-27 8-37 18a63 63 0 0 0-22 45c0 12 3 24 8 35 8 13 19 24 33 31 18 10 41 13 62 7 2-1 4-2 6-1s3 4 4 6l15 30a215 215 0 0 0 72 63c28 15 59 21 90 26 3 1 8 1 10 4 1 2 0 3-2 4l-11 1a231 231 0 0 1-147-62c5 18 8 36 8 54 0 12-2 23-6 34-5 10-11 18-19 26a196 196 0 0 1-60 43c-1-1 1-2 2-3l17-14c13-12 25-23 35-38a93 93 0 0 0 17-65l-4-39-2-10-12-17c-5-10-11-20-13-31a93 93 0 0 1-96-31 81 81 0 0 1-19-51c0-12 3-23 8-34 9-16 23-29 40-36-8-31-8-62-3-93 8-40 26-77 51-108 45-54 115-87 186-88Z" fill="#000"/><path d="M541 252a214 214 0 0 1 172 206v33c-1 5-2 10-1 15-2 2-3 3-3 5-3 18-1 37 1 55 4 29 6 59 2 88-3 28-13 56-30 79-16 21-38 34-62 43-15 6-30 9-45 13-11 2-22 4-32 8 1 2 4 1 6 2 12 1 24-1 36-2-5 8-8 17-9 26-2 10 2 19 9 26 6 7 15 11 24 14 5 2 11 3 17 3 7 9 13 18 14 30 2 12-1 24-8 34-9 14-22 23-37 30-18 9-38 15-57 18a352 352 0 0 1-192-23c-18-10-38-23-48-42-4-7-8-16-6-24 18-10 33-23 47-38 8-8 14-16 19-26 4-11 6-22 6-34 0-18-3-36-8-54a235 235 0 0 0 147 62l11-1c2-1 3-2 2-4-2-3-7-3-10-4-31-5-62-11-90-26-18-10-36-22-50-37-8-8-16-17-22-26l-15-30c-1-2-2-5-4-6s-4 0-6 1a82 82 0 0 1-95-38c-5-11-8-23-8-35 1-17 9-34 22-45 10-10 23-15 37-18l12-4c1-1 2-2 1-4s-4-2-6-3c-5 0-11 0-17 2-8-38-6-79 6-116a236 236 0 0 1 270-153Z" fill="#ffffff"/><path d="m712 506 3 3 1 13 3 45c3 20 5 40 5 60 0 16-1 32-5 47-6 28-20 56-40 76a174 174 0 0 1-88 46c-1 9-4 16-4 25-1 6 2 10 5 15 8 8 18 14 28 19l18 9c-3 3-8 1-12 2-6 0-12-1-17-3-9-3-18-7-24-14-7-7-11-16-9-26 1-9 4-18 9-26-12 1-24 3-36 2-2-1-5 0-6-2 10-4 21-6 32-8 15-4 30-7 45-13 24-9 46-22 62-43 17-23 27-51 30-79 4-29 2-59-2-88-2-18-4-37-1-55 0-2 1-3 3-5ZM262 566c6 0 12 1 15 6 2 3 2 7 1 10-3 8-9 14-11 22-1 4 0 7 3 9 7 5 16 7 24 10l-2 2h-11c-6-1-12-2-17-5-5-4-9-11-7-18 2-9 9-15 12-23-7-4-14-2-20-8 3-4 8-6 13-5Z" fill="#000"/><path d="M479 474c8 3 15 6 19 13h-5c-13-2-25-8-38-9-11-2-22-2-33 0 1-4 6-6 10-7 15-4 32-3 47 3ZM675 476l1 1-18 2c-9 1-17 5-26 8l-6 3c0-3 3-5 5-7l15-8c9-4 19-3 29 1ZM680 485c6 1 12 3 16 8 3 3 5 9 2 13s-8 5-12 2c-3-3-3-6-3-9-8-5-16-4-25-1 2 2 5 3 6 6 4 5 4 11 2 17-5 8-15 14-25 13-7-2-12-8-13-15l-8 10-4 5c-3-3-2-6-1-10 5-12 15-21 26-28 11-8 25-13 39-11ZM446 488c24 2 47 11 66 26 4 3 9 8 10 13 1 3-1 6-4 6l-6-5c-3-4-8-6-12-9 1 8 0 15-5 20-3 5-8 7-13 7-8 1-16-2-22-8-9-10-8-26 1-36-10-2-19-3-28-2-6 1-12 4-16 8-2 2-1 4-2 6-1 4-5 7-9 6-4 0-8-3-9-7-1-5 1-11 5-14 5-5 13-7 19-9 9-1 17-3 25-2Z" fill="#000000"/><path d="M494 368c5 0 9 3 11 7 8 8 15 18 20 28 2 5 4 10 3 15-1 2-2 4-4 3l-5-6c-4-8-10-15-16-22 0 4 1 10-1 13-1 4-4 6-8 6-5 0-10-4-14-7l-13-5c-2 1-4 3-6 2l-11-2-20-2-18 2c3-4 8-6 13-8 10-5 21-5 32-4 3 1 6-2 10-1 10 0 17 4 25 10l-4-19c-1-4 1-9 6-10ZM637 383c3 1 5 2 5 5 0 4-3 8-5 13 4-2 7-5 11-5 3 1 4 3 6 6 5-2 12-4 18-2 3 1 4 3 5 5-3 3-6 5-10 6-5 2-11 4-16 4-3 0-5-2-7-3l-10 6c-3 0-6-1-7-4l-1-8-8 15-4 6c-2 0-3 0-4-2-2-3 1-8 2-11 3-8 8-16 14-23 3-3 6-7 11-8Z" fill="#000000"/><path d="M597 505h1l3 15 3 26 8 13 6 12c2 5 2 10 5 14 3 5 5 10 5 16 0 9-6 17-14 20l-19 8c-5 3-9 5-15 5-5 0-11 0-13-5-2-2 0-4 2-5l12-3 16-5 13-5c6-2 9-8 7-14l-5-8-7-17-7-19c-4-8-6-17-5-26 0-7 1-15 4-22Z" fill="#000000"/><path d="m636 651-7 8-17 16c-9 10-19 18-32 22-18 6-38 4-57 0-10-3-21-7-31-13l-6-5c0-3 2-4 4-4l17 5 33-4c13-2 27-3 39 0l5-1 19-8c4-2 8-3 13-3 6-4 13-10 20-13Z" fill="#000000"/><path d="M631 178a213 213 0 0 1 54 22c3 2 3 5 4 8l-13-2c-10-1-20-3-30-2-22 1-43 6-62 16 16 0 31 0 47 4 29 6 56 18 77 39 17 16 30 36 36 59 5 19 6 39 1 59a127 127 0 0 1-73 84l-20 9-5-2c1-10 4-18 6-27l2-24c0-11-2-22-4-33l-9 20c-9 17-24 32-41 41-12 8-27 13-41 17-18 5-37 7-56 9h-19c-3 0-3-2-5-4l7-10c5-9 11-18 15-28l7-25c4-14 5-28 5-43a299 299 0 0 1-108 125c-12 8-26 13-39 18-6 2-11 4-17 1l2-13 4-30c-7 15-13 32-16 49-5 28-1 55 5 83l2 15c-8 2-16 1-24-2-26-10-49-32-59-59 0-4-4-4-6-6-10-5-18-14-23-23-9-14-15-31-17-48a204 204 0 0 1 30-136c11-20 25-37 41-53a146 146 0 0 1 75-38 432 432 0 0 0 57-16c27-10 51-24 77-36a229 229 0 0 1 133-18Z" fill="#000000"/></g><g transform="translate(10 -60)"></g></g></svg>