<svg xmlns="http://www.w3.org/2000/svg" viewBox="0 0 980 980" fill="none" shape-rendering="auto"><metadata xmlns:rdf="http://www.w3.org/1999/02/22-rdf-syntax-ns#" xmlns:xsi="http://www.w3.org/2001/XMLSchema-instance" xmlns:dc="http://purl.org/dc/elements/1.1/" xmlns:dcterms="http://purl.org/dc/terms/"><rdf:RDF><rdf:Description><dc:title>Lorelei</dc:title><dc:creator>Lisa Wischofsky</dc:creator><dc:source xsi:type="dcterms:URI">https://www.figma.com/community/file/1198749693280469639</dc:source><dcterms:license xsi:type="dcterms:URI">https://creativecommons.org/publicdomain/zero/1.0/</dcterms:license><dc:rights>Remix of „Lorelei” (https://www.figma.com/community/file/1198749693280469639) by „Lisa Wischofsky”, licensed under „CC0 1.0” (https://creativecommons.org/publicdomain/zero/1.0/)</dc:rights></rdf:Description></rdf:RDF></metadata><mask id="viewboxMask"><rect width="980" height="980" rx="0" ry="0" x="0" y="0" fill="#fff" /></mask><g mask="url(#viewboxMask)"><g transform="translate(10 -60)"><path d="M486 236c57-2 115 18 159 56a209 209 0 0 1 73 190c-1 4-1 8-4 12l-1-3v-33a215 215 0 0 0-172-206 235 235 0 0 0-270 153c-12 37-14 78-6 116 6-2 12-2 17-2 2 1 5 1 6 3s0 3-1 4l-12 4c-14 3-27 8-37 18a63 63 0 0 0-22 45c0 12 3 24 8 35 8 13 19 24 33 31 18 10 41 13 62 7 2-1 4-2 6-1s3 4 4 6l15 30a215 215 0 0 0 72 63c28 15 59 21 90 26 3 1 8 1 10 4 1 2 0 3-2 4l-11 1a231 231 0 0 1-147-62c5 18 8 36 8 54 0 12-2 23-6 34-5 10-11 18-19 26a196 196 0 0 1-60 43c-1-1 1-2 2-3l17-14c13-12 25-23 35-38a93 93 0 0 0 17-65l-4-39-2-10-12-17c-5-10-11-20-13-31a93 93 0 0 1-96-31 81 81 0 0 1-19-51c0-12 3-23 8-34 9-16 23-29 40-36-8-31-8-62-3-93 8-40 26-77 51-108 45-54 115-87 186-88Z" fill="#000"/><path d="M541 252a214 214 0 0 1 172 206v33c-1 5-2 10-1 15-2 2-3 3-3 5-3 18-1 37 1 55 4 29 6 59 2 88-3 28-13 56-30 79-16 21-38 34-62 43-15 6-30 9-45 13-11 2-22 4-32 8 1 2 4 1 6 2 12 1 24-1 36-2-5 8-8 17-9 26-2 10 2 19 9 26 6 7 15 11 24 14 5 2 11 3 17 3 7 9 13 18 14 30 2 12-1 24-8 34-9 14-22 23-37 30-18 9-38 15-57 18a352 352 0 0 1-192-23c-18-10-38-23-48-42-4-7-8-16-6-24 18-10 33-23 47-38 8-8 14-16 19-26 4-11 6-22 6-34 0-18-3-36-8-54a235 235 0 0 0 147 62l11-1c2-1 3-2 2-4-2-3-7-3-10-4-31-5-62-11-90-26-18-10-36-22-50-37-8-8-16-17-22-26l-15-30c-1-2-2-5-4-6s-4 0-6 1a82 82 0 0 1-95-38c-5-11-8-23-8-35 1-17 9-34 22-45 10-10 23-15 37-18l12-4c1-1 2-2 1-4s-4-2-6-3c-5 0-11 0-17 2-8-38-6-79 6-116a236 236 0 0 1 270-153Z" fill="#ffffff"/><path d="m712 506 3 3 1 13 3 45c3 20 5 40 5 60 0 16-1 32-5 47-6 28-20 56-40 76a174 174 0 0 1-88 46c-1 9-4 16-4 25-1 6 2 10 5 15 8 8 18 14 28 19l18 9c-3 3-8 1-12 2-6 0-12-1-17-3-9-3-18-7-24-14-7-7-11-16-9-26 1-9 4-18 9-26-12 1-24 3-36 2-2-1-5 0-6-2 10-4 21-6 32-8 15-4 30-7 45-13 24-9 46-22 62-43 17-23 27-51 30-79 4-29 2-59-2-88-2-18-4-37-1-55 0-2 1-3 3-5ZM262 566c6 0 12 1 15 6 2 3 2 7 1 10-3 8-9 14-11 22-1 4 0 7 3 9 7 5 16 7 24 10l-2 2h-11c-6-1-12-2-17-5-5-4-9-11-7-18 2-9 9-15 12-23-7-4-14-2-20-8 3-4 8-6 13-5Z" fill="#000"/><path d="M681 473c6 2 12 7 15 13 2 3 2 6 0 9-2 4-8 6-12 3-4-2-6-6-9-9-7-3-13-2-19 0 3 3 6 6 7 10 4 12 3 25-2 36l10-5c0 4 0 7-2 11-5 6-13 10-20 11-9 1-17 2-25-2-4-3-5-7-5-11l-2-10c0-7 3-13 6-19 7-14 18-26 31-33 8-4 18-6 27-4ZM456 484c27 1 53 17 65 41 2 3 3 6 1 10-3-1-4-3-6-6-6-9-13-17-22-23-10-6-22-9-34-9 6 10 9 21 8 32-1 9-4 19-12 26 4 1 7 2 9 4-6 3-13 3-20 1-9-2-17-6-25-11-8-6-16-13-20-23l-4-8c-2-4-1-8 2-11l10-9c14-10 31-15 48-14Z" fill="#000000"/><path d="M524 402c7 3 12 9 15 16 4 6 6 12 4 19-1 2-2 5-4 3-3-2-5-6-6-9l-14 2-26 3-39 4c-12 1-24 0-36-1-3 0-7-1-9-3-3-2-2-7 1-8 9-3 20-2 30-4 7-1 14-4 20-6 9-3 17-7 26-9l20-5c5-1 12-4 18-2ZM631 404c11 0 19 6 30 8 6 2 14 1 20 5 2 1 3 4 2 7-2 2-5 2-8 2l-14 1-25 6-23 2-5 18-3 3-2-5c-1-10 0-21 5-30 2-4 4-9 8-12 4-4 10-6 15-5Z" fill="#000000"/><path d="M603 613v1c-4 8-11 15-20 18-3 1-7 1-9-1v-4c7-5 16-9 24-12l5-2Z" fill="#000000"/><path d="m636 651-7 7c-7 8-14 16-23 23-8 7-17 13-27 16-11 4-23 4-35 3-16-2-31-5-45-12l-12-7c-1-2-1-4 1-5s6 0 8 1c12 4 24 8 37 9 17 2 34 2 50-3 8-2 15-6 21-10l24-17 8-5Z" fill="#000000"/><path d="M614 163c10 5 13 18 9 28-5 13-15 23-26 32-10 8-21 16-32 22-10 7-21 13-32 18-4 2-9 5-14 5-3 0-6-3-7-6l-2-8a146 146 0 0 1-8-58c0-6 2-13 6-17 3-4 9-4 13-1l5 10c3 10 2 23 3 33l14-19a148 148 0 0 1 48-40c8-3 16-4 23 1Z" fill="#000000"/></g><g transform="translate(10 -60)"></g></g></svg>