<svg xmlns="http://www.w3.org/2000/svg" viewBox="0 0 980 980" fill="none" shape-rendering="auto"><metadata xmlns:rdf="http://www.w3.org/1999/02/22-rdf-syntax-ns#" xmlns:xsi="http://www.w3.org/2001/XMLSchema-instance" xmlns:dc="http://purl.org/dc/elements/1.1/" xmlns:dcterms="http://purl.org/dc/terms/"><rdf:RDF><rdf:Description><dc:title>Lorelei</dc:title><dc:creator>Lisa Wischofsky</dc:creator><dc:source xsi:type="dcterms:URI">https://www.figma.com/community/file/1198749693280469639</dc:source><dcterms:license xsi:type="dcterms:URI">https://creativecommons.org/publicdomain/zero/1.0/</dcterms:license><dc:rights>Remix of „Lorelei” (https://www.figma.com/community/file/1198749693280469639) by „Lisa Wischofsky”, licensed under „CC0 1.0” (https://creativecommons.org/publicdomain/zero/1.0/)</dc:rights></rdf:Description></rdf:RDF></metadata><mask id="viewboxMask"><rect width="980" height="980" rx="0" ry="0" x="0" y="0" fill="#fff" /></mask><g mask="url(#viewboxMask)"><g transform="translate(10 -60)"><path d="M580 141c9 1 19 4 27 9 7 5 15 9 21 15l19 15c6 6 10 14 13 21s5 14 4 22c-1 5-3 9-6 13-6 9-11 18-19 26 14 8 28 17 39 29 14 18 24 39 26 62 1 11 0 23-3 34-2 6-10 8-15 4-4-2-5-6-7-10s-5-7-6-11c-8-15-17-30-24-46l-7-14-24-1-12-1-8-5-11-8c-1 4-2 8-5 11-1 3-4 3-7 2l-13-3-45-5c-28-1-57 2-86 6l-24 4-9-2-17-5c1 7 3 15 3 23-1 5 0 10-3 14-7 14-15 27-21 42-7 17-13 35-17 53 0 2-1 4-3 5l-12 2c5 9 5 19 5 29-1 12-2 26-9 37 7 9 10 21 10 33 1 18 0 37-7 54-2 5-5 10-10 12-1 1-4 2-4-1-2-5-2-11-3-16l-16-6-28-10-10-4c-3-2-5-6-7-9-10-20-17-41-21-63a296 296 0 0 1 17-150c-14 1-29 1-41-5-9-5-16-13-21-21-4-8-7-16-9-25v-21c2-13 7-26 12-39l13-24c3-5 6-11 10-15 7-9 17-16 26-22 14-9 28-17 43-23 13-6 28-9 42-6 10 2 19 6 27 9 9 4 17 10 23 17 7 7 11 17 9 27l-7 22c11-2 23-3 35-2h19l51-1c-1-9 1-19 3-28 3-10 9-19 17-25 23-18 54-26 83-25Z" fill="#000000"/><path d="M528 244c41 6 80 22 113 47 28 21 50 49 65 81 13 28 20 60 19 91-1 15-3 30-8 44h-2l1-21c1-30-2-59-13-87-10-30-28-57-50-79-42-40-98-62-156-63a243 243 0 0 0-196 94 207 207 0 0 0-40 139l2 25c8 0 19 0 25 7l-3 3-17 1c-12 1-24 5-33 13a64 64 0 0 0-17 39c-5 32 12 65 39 83 16 10 36 15 55 9 4-2 9-5 14-3 3 1 4 4 5 7a251 251 0 0 0 90 100c8 7 18 13 28 18 18 8 38 14 57 19l32 8c5 1 9 1 13 3l-4 1c-25 2-48-3-72-10-12-3-23-7-34-12a306 306 0 0 1-84-63l2 28c1 17 0 35-6 52-4 12-11 24-19 34-10 10-22 19-34 26-10 7-21 14-32 18l-16 5 9-9 31-20 22-17a95 95 0 0 0 32-56c2-14 2-28 2-43v-27c-10-14-22-29-27-46-17 8-38 7-55-1-17-7-32-19-43-33-12-17-19-36-21-56s2-40 15-56c9-10 22-18 35-21-4-14-6-29-6-44a234 234 0 0 1 83-173 249 249 0 0 1 199-55Z" fill="#000"/><path d="M653 320c22 22 40 49 50 79 11 28 14 57 13 87l-1 21-5 15-2 13 2 56c0 21 1 42-1 63l-3 47c-2 16-7 31-14 45-11 18-26 33-44 44-13 8-27 12-41 16l-38 11-17 3c0 1 1 2 3 2 8 5 17 5 26 4-3 7-4 14-2 22 3 7 11 11 17 14 12 6 24 7 36 9 7 6 14 14 16 24 2 8 2 16-2 23-5 10-14 18-24 23-13 8-27 14-42 18a468 468 0 0 1-222-1c-17-4-33-9-48-17-12-6-23-13-32-22-5-7-9-14-10-23 11-4 22-11 32-18 12-7 24-16 34-26 8-10 15-22 19-34 6-17 7-35 6-52l-2-28 22 23c19 15 40 30 62 40 11 5 22 9 34 12 24 7 47 12 72 10l4-1c-4-2-8-2-13-3l-32-8c-19-5-39-11-57-19l-29-17c-11-9-23-17-33-27a251 251 0 0 1-56-74c-1-3-2-6-5-7-5-2-10 1-14 3-19 6-39 1-55-9a88 88 0 0 1-39-83c1-14 7-28 17-39 9-8 21-12 33-13l17-1 3-3c-6-7-17-7-25-7l-2-25a207 207 0 0 1 40-139 243 243 0 0 1 196-94c58 1 114 23 156 63Z" fill="#ffffff"/><path d="M710 522c3 0 3 4 4 6 3 11 4 23 5 34l2 21c1 22 2 43 1 65-1 21-1 44-5 65a136 136 0 0 1-80 99c-15 7-31 11-48 13v15c1 3 3 4 5 6 12 6 23 8 36 11 12 3 24 5 36 11-3 3-7 4-11 4-7 1-15-1-23-1-12-2-24-3-36-9-6-3-14-7-17-14-2-8-1-15 2-22-9 1-18 1-26-4-2 0-3-1-3-2l17-3 38-11c14-4 28-8 41-16 18-11 33-26 44-44 7-14 12-29 14-45l3-47c2-21 1-42 1-63l-2-56 2-13ZM252 549c8 0 17 1 23 7 5 4 10 9 12 15 1 3 0 6-2 8l-13 8c-7 6-7 19 0 25 6 5 14 8 21 11 2 0 5 1 6 3-1 2-3 3-5 3-10 0-20-3-28-9-5-3-8-8-9-13-2-8-2-17 4-24 4-6 11-9 18-12-4-5-7-11-14-13-7-3-15-3-22-5l9-4Z" fill="#000"/><path d="M679 466c8 3 13 11 15 19 1 5 2 11 1 17 0 3-1 7-4 9-4 2-8 1-10-3-3-4-2-10-3-15s-4-11-9-13c-8-2-13 1-19 5 4 8 4 16 3 24 0 8-1 15-4 23l-4 9c-1 4-4 7-8 8s-8-2-10-5c-3-4-5-9-5-14-2 4-3 9-6 12-3-2-3-7-4-10 0-13 6-27 13-38s17-22 29-27c8-4 17-5 25-1ZM482 474c18 8 33 24 39 44 2 6 4 13 2 19-1 2-2 3-4 2-3-3-5-8-7-12-8-14-18-28-33-36-10-6-22-8-34-5l5 10c3 6 3 12 3 18 0 8-1 15-3 23-2 6-6 12-10 17-3 3-6 5-10 5-5 0-9-2-12-6-5-8-6-18-6-27 0-7 2-14 4-21l-6 8c-3 4-10 4-13 0-3-3-3-8-1-12 8-12 19-22 32-28 17-7 37-7 54 1Z" fill="#000000"/><path d="M496 375c10 1 20 4 27 11 3 3 5 7 6 11-11-5-22-6-33-6-6 1-12 4-17 7-23 12-43 29-66 41l-20 14-11 11c-1-5 1-10 2-14 4-10 11-17 19-24l24-17c13-9 27-19 41-26 9-4 18-8 28-8ZM701 411c-6 3-11 3-17 4-5 1-10 3-14 6-9 7-17 15-24 24-9 10-17 18-29 24l-7 2c-2 1-4 0-6 2-4 5-4 13-9 17-2 0-2-2-2-3v-13c1-5 3-12 7-16s9-4 13-8l15-10 23-18c6-5 13-10 20-13 10-3 21-3 30 2Z" fill="#000000"/><path d="M603 613v1c-4 8-11 15-20 18-3 1-7 1-9-1v-4c7-5 16-9 24-12l5-2Z" fill="#000000"/><path fill-rule="evenodd" clip-rule="evenodd" d="M661 646c3 3 6 8 7 12 3 5 4 11 3 17l-4-5-1-2-10-15-1-1v-1c-1-2-2-3-1-5 2-2 4-1 7 0Zm-30 25a40 40 0 0 1 29 13c3 4 7 7 8 10 2 4 2 8-2 10-5 4-13 5-20 5a5207 5207 0 0 1-42 1l-28 3-18 1-10 2-19 1c1-3 2-4 5-5l5-6 4-3c7-7 17-12 26-17l2-1c10-5 21-9 31-11 10-3 19-4 29-3Zm-6 29c-1-7 1-14 4-20-11-1-22 0-32 3l-1 11-1 7 30-1Zm11-19 1 1 4 1c6 2 11 7 15 12l3 3c-6 2-12 2-19 2h-10c4-6 6-12 6-19Zm-48 20c-1-5 0-10 1-15a254 254 0 0 0-43 21c10-3 21-4 31-5l11-1Z" fill="#000000"/><path d="M508 220a271 271 0 0 1 97 24c14 7 29 14 42 23 8 5 16 11 22 18l22 25c-9 4-18 3-27 2-17-2-34-4-51-3l-8-1-7-5-12-8c0 4-1 7-3 11-2 2-4 3-7 3-4-1-7-3-11-3a470 470 0 0 0-155 3h-11l-18-6c1 9 4 18 3 26-1 4-1 8-3 11-7 14-15 27-21 42-7 17-13 35-17 53 0 2-1 4-3 5l-12 2c5 9 6 20 5 30-1 12-3 26-9 36 7 9 10 21 10 33 1 19 0 37-7 55-2 4-5 9-10 11-1 1-4 1-4-1-2-4-2-9-3-13-2-15-9-29-20-40-8-7-17-14-26-19-6-2-11-4-16-8l-6-8c-12-32-16-67-12-101a285 285 0 0 1 37-113c10-16 22-30 35-43 10-9 20-17 31-23l14-5 32-11 19-2h43c23 0 44-2 67 0Z" fill="#000000"/></g><g transform="translate(10 -60)"></g></g></svg>