<svg xmlns="http://www.w3.org/2000/svg" viewBox="0 0 980 980" fill="none" shape-rendering="auto"><metadata xmlns:rdf="http://www.w3.org/1999/02/22-rdf-syntax-ns#" xmlns:xsi="http://www.w3.org/2001/XMLSchema-instance" xmlns:dc="http://purl.org/dc/elements/1.1/" xmlns:dcterms="http://purl.org/dc/terms/"><rdf:RDF><rdf:Description><dc:title>Lorelei</dc:title><dc:creator>Lisa Wischofsky</dc:creator><dc:source xsi:type="dcterms:URI">https://www.figma.com/community/file/1198749693280469639</dc:source><dcterms:license xsi:type="dcterms:URI">https://creativecommons.org/publicdomain/zero/1.0/</dcterms:license><dc:rights>Remix of „Lorelei” (https://www.figma.com/community/file/1198749693280469639) by „Lisa Wischofsky”, licensed under „CC0 1.0” (https://creativecommons.org/publicdomain/zero/1.0/)</dc:rights></rdf:Description></rdf:RDF></metadata><mask id="viewboxMask"><rect width="980" height="980" rx="0" ry="0" x="0" y="0" fill="#fff" /></mask><g mask="url(#viewboxMask)"><g transform="translate(10 -60)"><path fill-rule="evenodd" clip-rule="evenodd" d="M558 223a340 340 0 0 0-141 0h-5c-23-1-46 3-67 12-23 10-42 25-59 43-27 30-47 67-61 104a538 538 0 0 0-26 96c-13 34-24 68-33 103-7 27-12 55-12 82 0 19 2 37 8 55 6 16 15 32 29 42l5 3 3 2v1c5 24 9 47 16 71l1 4 4 14c1 2 4 1 5-1l1-7-1-3a822 822 0 0 1-2-69c3 16 9 32 17 47l15 19a38 38 0 0 0 17 12c2 0 4 1 6-1l-1-9-1-6 2 1c12 8 25 15 40 17h20c7 0 13-3 20-5 26-5 53-8 79-11a417 417 0 0 1 125 4h1c8 7 17 10 28 12 16 3 33 3 49 0 4-1 10-2 14 0l2 1c2 1 3 3 6 2 5-1 9-7 12-11 6-10 10-22 13-33v-1l2 9c2 6 3 13 3 19v17c5 0 8-2 11-5 5-4 8-10 10-16 3-13 5-25 6-38a841 841 0 0 0 0-45l2 8c3 17 6 34 4 51l-8 26-1 3-2 4c3 0 5-3 7-4 6-7 9-16 11-25 3-8 4-17 3-26 0-20-3-38-7-58v-1l-1-5c-3-16-6-32-6-48l2-16 1-10v-1l8 21 2 7c1 1 3 2 5 1l2-7 1-2c5-17 7-34 8-51a224 224 0 0 0-5-47c4 17 6 34 7 51v1c0 16 0 31-2 46l3-2v-2c6-11 8-24 8-36 1-14 1-29-1-43l-8-36-2-8a463 463 0 0 1-13-120l-1-27-3-1-1-25 1-6 1-2c1-4 6-7 10-5 4 3 4 7 4 11v17a2790 2790 0 0 1 3 54c4-5 7-12 9-18 6-18 6-38 4-56-2-14-7-27-15-38-9-14-22-26-35-37-16-14-35-26-55-35l-2-1-7-4 12 4 3 1c18 6 38 13 54 23 11 7 19 16 28 25l4 6 2 2h1c0-7-4-14-8-19-5-8-12-15-20-20-12-10-27-16-41-22-33-13-68-20-102-25l-11-2-14-2ZM191 541v-1c-11 38-22 76-24 115-1 22 2 44 9 65 5 12 12 24 22 33a906 906 0 0 1-9-193l1-9 1-10Z" fill="#000000"/><path d="M495 231a231 231 0 0 1 219 204c1 10 2 21 0 30-1 4-1 7-4 8-3-10-3-19-4-29a220 220 0 0 0-239-205c-42 4-83 19-117 44l-17 13a221 221 0 0 0-78 164c0 23 7 43 15 64h17c3 1 4 4 2 6l-6 2c-15 1-31 7-42 17-8 9-14 19-16 31-3 15 0 32 8 45 9 15 24 27 40 33 14 5 29 7 43 5 4-1 8-2 11 0v3c-5 5-11 6-18 7-16 3-33-1-47-8a86 86 0 0 1-47-58c-4-18-1-37 9-53 8-12 20-21 34-26-7-14-10-28-12-43-2-18-2-35 0-53 1-13 4-25 8-38a227 227 0 0 1 99-122c41-28 92-43 142-41Z" fill="#000"/><path d="M535 244a220 220 0 0 1 171 200c1 10 1 19 4 29l-2 18v22c-3 4-4 9-4 14-2 8-2 15-2 23v65c0 21-3 42-11 61-4 13-10 24-18 35-10 12-21 22-34 31-11 9-24 17-37 24l-22 14-12 8 9-2c-3 11-3 24-4 36 0 8 1 16 7 22a235 235 0 0 0 81 45c6 7 11 16 13 25 1 9 0 18-4 27-6 10-14 18-23 24-13 10-28 17-43 22a417 417 0 0 1-217 11c-16-3-33-9-48-17-10-5-21-12-28-21-6-6-10-14-11-22-2-10 0-21 5-30 21-13 39-32 49-54 5-11 7-22 8-34 1-16 0-32-1-47-2-20-3-41-8-61 11 12 23 24 37 32 17 11 36 20 55 26 20 7 41 13 63 18l25 3c3 0 6 0 8-2 2-1 1-2 2-3l-17-2c-29-7-58-16-87-27-18-7-36-15-53-27-18-13-33-30-47-47l-11-16-1-1v-3c-3-2-7-1-11 0-14 2-29 0-43-5-16-6-31-18-40-33-8-13-11-30-8-45 2-12 8-22 16-31 11-10 27-16 42-17l6-2c2-2 1-5-2-6h-17c-8-21-15-41-15-64-1-14 2-27 5-41a221 221 0 0 1 73-123l17-13a230 230 0 0 1 185-39Z" fill="#ffffff"/><path d="M708 513c3 3 2 7 3 12v29c0 26 2 54 0 80-3 31-14 63-36 86-25 28-57 51-93 64l2 7v35c1 6 4 10 8 14l26 19 32 20 24 12c2 0 3 1 5 3l-19-5c-19-6-37-14-54-25-9-5-19-12-26-20-6-6-7-14-7-22 1-12 1-25 4-36l-9 2 12-8 22-14c13-7 26-15 37-24 13-9 24-19 34-31a178 178 0 0 0 29-96v-65c0-8 0-15 2-23 0-5 1-10 4-14ZM278 574c5 5 4 14 0 19l-3 7c1 3 5 5 7 6 6 3 12 7 19 9 0 4-3 5-7 5-6-1-13-3-18-6-7-3-13-8-13-16 0-6 5-9 6-14 2-4 0-7-1-11 4-1 7-2 10 1ZM328 667l11 16c14 17 29 34 47 47 17 12 35 20 53 27a714 714 0 0 0 104 29c-1 1 0 2-2 3-2 2-5 2-8 2l-25-3a478 478 0 0 1-118-44c-14-8-26-20-37-32 5 20 6 41 8 61 1 15 2 31 1 47-1 12-3 23-8 34-10 22-28 41-49 54l-14 8c2-4 6-6 9-9 13-11 24-25 34-39 6-10 12-21 14-33 4-19 3-39 3-58l-3-59 2-10c-10-11-19-26-22-41Z" fill="#000"/><path d="M681 473c6 2 11 6 14 12 2 2 3 6 2 9-2 4-7 6-11 5-5-1-6-6-11-9-6-4-12-4-19-2 3 2 6 4 7 8 4 7 4 17 2 25-2 6-5 12-11 15-6 2-13 0-16-5-5-6-6-15-5-23l-11 20c-1 3-1 6-4 8-2-7 0-13 2-19 6-17 19-31 34-40 8-4 18-6 27-4ZM445 484c31-4 63 14 76 42 2 2 3 6 1 9-3-1-5-4-7-7-5-8-11-14-19-20 1 5 2 10 1 16-1 8-5 17-12 21-6 4-13 3-18 0-7-5-10-12-11-20-1-9 1-20 7-28-19 2-37 8-52 20l-7 4c-4 1-7-1-8-4-2-3-1-8 2-10 13-13 29-21 47-23Z" fill="#000000"/><path d="M533 358c6 2 9 8 10 14 0 8-3 16-7 22-3 3-7 4-10 1-4-3-2-10-2-15l-13 10c-6 4-13 7-20 9-9 4-19 5-30 8l-25 8c-8 3-15 8-22 12l-25 17c-5 3-8 7-11 12-2-4-1-8 1-11a401 401 0 0 1 35-29c16-13 36-21 55-28l28-11c8-4 14-11 21-16 5-2 10-4 15-3ZM626 376l6 7c17 7 33 7 49 16 4 2 7 6 9 10s1 8-2 12l-16-6c-12-6-24-7-36-11-7-3-14-4-19-10-4 8-4 17-8 26-1 1-1 4-4 3l-1-8 2-11c1-8 4-16 7-23 2-6 8-8 13-5Z" fill="#000000"/><path d="M609 602c1 9-4 16-9 23-4 3-9 6-15 6s-13-3-19-5c-4-2-8-3-11-6l5-4c9-1 17 3 25 4 4 0 7-3 9-6 5-5 9-10 15-12Z" fill="#000000"/><path d="m636 651-7 8-17 16c-9 10-19 18-32 22-18 6-38 4-57 0-10-3-21-7-31-13l-6-5c0-3 2-4 4-4l17 5 33-4c13-2 27-3 39 0l5-1 19-8c4-2 8-3 13-3 6-4 13-10 20-13Z" fill="#000000"/><path d="M492 216c35 0 70 7 103 17 23 6 45 14 66 24 23 12 45 25 63 44 15 13 27 28 35 46 3 8 5 17 6 26 1 13 0 26-2 39-2 10-6 22-13 30l-2-6c0-20-5-40-12-59 1 19-3 40-15 55-4 4-8 5-12 7s-9 2-13 2c-7-1-15-4-22-7-2-2-5-3-6-6-4-13-5-27-9-40l-6-17c-2 10-4 19-8 28-3 11-8 21-15 30l-8 7-3-14-4-17c-5-21-14-42-26-61v29c-2 16-3 31-10 45-3 7-4 14-10 18-8 4-18 5-27 5-13 0-28 2-41-1-6-2-8-7-11-12l-14-31-11-20c-2 22-2 43-1 64-1 2 0 4-2 5-1 2-3 1-5 0-9-4-16-11-23-18-9-12-19-24-25-37l2 17c3 12 7 24 12 35l2 8-5-2c-7-5-12-12-17-19-7-12-11-27-12-41-5 19-7 39-8 59l-2 10c-1 3-3 4-6 5l-33 5h-11a670 670 0 0 0 13 152l15 61c1 3 0 5-2 7-15-8-26-23-36-38v63l-3 6a245 245 0 0 1-64-94l-6-16a397 397 0 0 1-27-151c1-40 9-80 26-116a217 217 0 0 1 76-91l31-17c11-4 22-9 34-10 10-1 21-3 31 0 4 1 8-1 12-2 20-4 41-6 61-6Z" fill="#000000"/></g><g transform="translate(10 -60)"></g></g></svg>