<svg xmlns="http://www.w3.org/2000/svg" viewBox="0 0 64 64" fill="none" shape-rendering="auto"><metadata xmlns:rdf="http://www.w3.org/1999/02/22-rdf-syntax-ns#" xmlns:xsi="http://www.w3.org/2001/XMLSchema-instance" xmlns:dc="http://purl.org/dc/elements/1.1/" xmlns:dcterms="http://purl.org/dc/terms/"><rdf:RDF><rdf:Description><dc:title>Miniavs - Free Avatar Creator</dc:title><dc:creator>Webpixels</dc:creator><dc:source xsi:type="dcterms:URI">https://www.figma.com/community/file/923211396597067458</dc:source><dcterms:license xsi:type="dcterms:URI">https://creativecommons.org/licenses/by/4.0/</dcterms:license><dc:rights>Remix of „Miniavs - Free Avatar Creator” (https://www.figma.com/community/file/923211396597067458) by „Webpixels”, licensed under „CC BY 4.0” (https://creativecommons.org/licenses/by/4.0/)</dc:rights></rdf:Description></rdf:RDF></metadata><mask id="viewboxMask"><rect width="64" height="64" rx="0" ry="0" x="0" y="0" fill="#fff" /></mask><g mask="url(#viewboxMask)"><path d="M45.89 36.1c0 8.92-3.9 18.9-10.39 20.4l-.5-.06v9.43S31.36 68 26.5 68c-4.86 0-8.5-3.48-8.5-3.48V42a5 5 0 0 1-1.3-9.83C15.36 22.64 17.5 13 32 13c14.59 0 14.24 11.08 13.96 19.81-.04 1.15-.07 2.25-.07 3.29Z" fill="#836055"/><path d="M18 42v22.52S21.64 68 26.5 68c4.86 0 8.5-2.13 8.5-2.13v-9.43c-7.26-1.02-13.9-7.5-16.45-14.47-.18.02-.37.03-.55.03Z" fill="#000" fill-opacity=".07"/><path d="M16.7 32.17a5 5 0 0 0 1.85 9.8 17.14 17.14 0 0 1-1.12-5.87 46.7 46.7 0 0 1-.73-3.93ZM34.7 56.4c-6.75-1.1-12.9-6.87-15.7-13.3v.4c0 5.65 6.27 14.47 9.38 15.49 2.57.83 5.4.65 6.32-2.6Z" fill="#000" fill-opacity=".07"/><rect x="36" y="41" width="3" height="2" rx="1" fill="#000" fill-opacity=".07"/><rect x="7" y="60" width="40" height="23" rx="9" fill="#ff4dd8"/><path d="M0 10c8-8 13 3 13 3l-2 8s-2 2.5 0 10-2.5 11.5-2.5 11.5S5 45 2 43s-3.4-3.92-3-7.5c.5-4.5 2-3 2-7.5s-9-10-1-18Z" fill="#1b0b47"/><path d="m13.03 13.18 5.5 2.38-3.56 8.26-5.51-2.38S8.5 19.5 10 16.5c1.5-3 3.03-3.32 3.03-3.32Z" fill="#FF6C98"/><path d="m18 41-1.32-8.82A5 5 0 0 0 18 42v8.3c-1.55-1.37-2.93-3-4.08-4.83-1.7-2.7-2.9-5.8-3.48-9.1-.6-3.28-.58-6.68.04-9.96a25.57 25.57 0 0 1 3.55-9.05 21.32 21.32 0 0 1 6.43-6.5A17.85 17.85 0 0 1 31 8c2.5 0 4.97.45 7.27 1.33 2.3.88 4.4 2.17 6.16 3.8a17.48 17.48 0 0 1 4.12 5.67c.75 1.66 1.21 3.42 1.38 5.2H50v4.29s-.33.15-1 .36v8.5s0 1.4-1.5 2.45c-.52.36-1.22.64-1.9.85.19-1.45.29-2.91.29-4.35 0-1.04.03-2.14.07-3.29.04-1.11.07-2.27.08-3.44-1.85.34-4.37.63-7.58.63C30.62 30 26 28.29 26 28.29v-1A26.13 26.13 0 0 0 24 31c-.75 1.75-.75 3.54-.75 5.05 0 1.5 0 2.73-.75 3.34-1.5 1.2-4.5 1.6-4.5 1.6Z" fill="#1b0b47"/><g transform="translate(1)"><path d="M27.93 46a1 1 0 0 1 1-1h9.14a1 1 0 0 1 1 1 5 5 0 0 1-5 5h-1.14a5 5 0 0 1-5-5Z" fill="#66253C"/><path d="M35.76 50.7a5 5 0 0 1-1.69.3h-1.14a5 5 0 0 1-5-4.8c.77-.29 1.9-.25 3.02-.22L32 46c2.21 0 4 1.57 4 3.5 0 .42-.09.83-.24 1.2Z" fill="#B03E67"/><path d="M29 45h10v1a1 1 0 0 1-1 1h-8a1 1 0 0 1-1-1v-1Z" fill="#fff"/></g><g transform="translate(0 -1)"><g fill="#1b0b47"><rect x="30" y="36" width="3" height="4" rx="1.5"/><rect x="40" y="36" width="3" height="4" rx="1.5"/></g></g></g></svg>