<svg xmlns="http://www.w3.org/2000/svg" viewBox="0 0 64 64" fill="none" shape-rendering="auto"><metadata xmlns:rdf="http://www.w3.org/1999/02/22-rdf-syntax-ns#" xmlns:xsi="http://www.w3.org/2001/XMLSchema-instance" xmlns:dc="http://purl.org/dc/elements/1.1/" xmlns:dcterms="http://purl.org/dc/terms/"><rdf:RDF><rdf:Description><dc:title>Miniavs - Free Avatar Creator</dc:title><dc:creator>Webpixels</dc:creator><dc:source xsi:type="dcterms:URI">https://www.figma.com/community/file/923211396597067458</dc:source><dcterms:license xsi:type="dcterms:URI">https://creativecommons.org/licenses/by/4.0/</dcterms:license><dc:rights>Remix of „Miniavs - Free Avatar Creator” (https://www.figma.com/community/file/923211396597067458) by „Webpixels”, licensed under „CC BY 4.0” (https://creativecommons.org/licenses/by/4.0/)</dc:rights></rdf:Description></rdf:RDF></metadata><mask id="viewboxMask"><rect width="64" height="64" rx="0" ry="0" x="0" y="0" fill="#fff" /></mask><g mask="url(#viewboxMask)"><path d="M46.07 40.4c.47 7.5.94 15-11.07 15.56v9.91S31.36 68 26.5 68c-4.86 0-8.5-3.48-8.5-3.48V45.1c-.2-1.02-.33-2.06-.41-3.12a5 5 0 0 1-.9-9.8C15.37 22.63 17.52 13 32 13c14.59 0 14.24 11.08 13.96 19.81-.04 1.15-.07 2.25-.07 3.29 0 1.4.09 2.86.18 4.3Z" fill="#836055"/><path d="M17.59 41.98c-.16-1.97-.16-3.97-.16-5.88a46.7 46.7 0 0 1-.73-3.93 5 5 0 0 0 .89 9.81ZM18 45.1v19.42S21.64 68 26.5 68c4.86 0 8.5-2.13 8.5-2.13v-9.91c-.48.02-.98.03-1.5.03-10.79 0-14.34-4.95-15.5-10.9Z" fill="#000" fill-opacity=".07"/><path d="M34.93 55.96c-.46.02-.93.03-1.43.03-7.25 0-11.23-2.23-13.41-5.5.5 4.82 3.16 8.5 8.3 8.5h1.36c3.8.03 4.92.04 5.18-3.03Z" fill="#000" fill-opacity=".07"/><rect x="36" y="41" width="3" height="2" rx="1" fill="#000" fill-opacity=".07"/><rect x="7" y="60" width="40" height="23" rx="9" fill="#ff4dd8"/><g fill="#1b0b47"><rect x="14" y="26" width="9" height="2" rx="1"/><rect x="14" y="33" width="7" height="2" rx="1"/><rect x="12" y="29" width="13" height="3" rx="1.5"/></g><g transform="translate(1)"><path d="M27.93 46a1 1 0 0 1 1-1h9.14a1 1 0 0 1 1 1 5 5 0 0 1-5 5h-1.14a5 5 0 0 1-5-5Z" fill="#66253C"/><path d="M35.76 50.7a5 5 0 0 1-1.69.3h-1.14a5 5 0 0 1-5-4.8c.77-.29 1.9-.25 3.02-.22L32 46c2.21 0 4 1.57 4 3.5 0 .42-.09.83-.24 1.2Z" fill="#B03E67"/><path d="M29 45h10v1a1 1 0 0 1-1 1h-8a1 1 0 0 1-1-1v-1Z" fill="#fff"/></g><g transform="translate(0 -1)"><path d="M43 37.5a1.5 1.5 0 0 1-3 0v-1.23c0-.15.12-.27.27-.27h2.46c.15 0 .27.12.27.27v1.23ZM33 37.5a1.5 1.5 0 0 1-3 0v-1.23c0-.15.12-.27.27-.27h2.46c.15 0 .27.12.27.27v1.23Z" fill="#1b0b47"/><path stroke="#1b0b47" stroke-linecap="round" d="M29.5 36.5h4M39.5 36.5h4"/></g><g stroke="#000" stroke-width="2"><circle cx="30.27" cy="36.27" r="4.27"/><circle cx="44.27" cy="36.27" r="4.27"/><path d="m33.99 35.11 7-.1"/></g><path d="M26.5 45s4.5-.5 11-2v2c-1.5.67-5.5 1.6-7.5 2-2.5.5-3.5-2-3.5-2ZM48 44.76S44 44 38 43v2c1.43.59 4.6 1.15 6.5 1.5 2.38.44 3.5-1.74 3.5-1.74ZM33.31 55.24a1 1 0 0 1 .97-1.24h3.44a1 1 0 0 1 .97 1.24l-.25 1a1 1 0 0 1-.97.76h-2.94a1 1 0 0 1-.97-.76l-.25-1Z" fill="#1b0b47"/></g></svg>