<svg xmlns="http://www.w3.org/2000/svg" viewBox="0 0 24 24" fill="none" shape-rendering="auto"><metadata xmlns:rdf="http://www.w3.org/1999/02/22-rdf-syntax-ns#" xmlns:xsi="http://www.w3.org/2001/XMLSchema-instance" xmlns:dc="http://purl.org/dc/elements/1.1/" xmlns:dcterms="http://purl.org/dc/terms/"><rdf:RDF><rdf:Description><dc:title>Bootstrap Icons</dc:title><dc:creator>The Bootstrap Authors</dc:creator><dc:source xsi:type="dcterms:URI">https://github.com/twbs/icons</dc:source><dcterms:license xsi:type="dcterms:URI">https://github.com/twbs/icons/blob/main/LICENSE</dcterms:license><dc:rights>„Bootstrap Icons” (https://github.com/twbs/icons) by „The Bootstrap Authors”, licensed under „MIT” (https://github.com/twbs/icons/blob/main/LICENSE)</dc:rights></rdf:Description></rdf:RDF></metadata><mask id="viewboxMask"><rect width="24" height="24" rx="0" ry="0" x="0" y="0" fill="#fff" /></mask><g mask="url(#viewboxMask)"><rect fill="#ffe082" width="24" height="24" x="0" y="0" /><g transform="translate(4 4)"><path d="M5.52.359A.5.5 0 0 1 6 0h4a.5.5 0 0 1 .474.658L8.694 6H12.5a.5.5 0 0 1 .395.807l-7 9a.5.5 0 0 1-.873-.454L6.823 9.5H3.5a.5.5 0 0 1-.48-.641l2.5-8.5ZM6.374 1 4.168 8.5H7.5a.5.5 0 0 1 .478.647L6.78 13.04 11.478 7H8a.5.5 0 0 1-.474-.658L9.306 1H6.374Z" fill="#fff"/></g></g></svg>