<svg xmlns="http://www.w3.org/2000/svg" viewBox="0 0 24 24" fill="none" shape-rendering="auto"><metadata xmlns:rdf="http://www.w3.org/1999/02/22-rdf-syntax-ns#" xmlns:xsi="http://www.w3.org/2001/XMLSchema-instance" xmlns:dc="http://purl.org/dc/elements/1.1/" xmlns:dcterms="http://purl.org/dc/terms/"><rdf:RDF><rdf:Description><dc:title>Bootstrap Icons</dc:title><dc:creator>The Bootstrap Authors</dc:creator><dc:source xsi:type="dcterms:URI">https://github.com/twbs/icons</dc:source><dcterms:license xsi:type="dcterms:URI">https://github.com/twbs/icons/blob/main/LICENSE</dcterms:license><dc:rights>„Bootstrap Icons” (https://github.com/twbs/icons) by „The Bootstrap Authors”, licensed under „MIT” (https://github.com/twbs/icons/blob/main/LICENSE)</dc:rights></rdf:Description></rdf:RDF></metadata><mask id="viewboxMask"><rect width="24" height="24" rx="0" ry="0" x="0" y="0" fill="#fff" /></mask><g mask="url(#viewboxMask)"><rect fill="#ffe082" width="24" height="24" x="0" y="0" /><g transform="translate(4 4)"><path d="M0 4s0-2 2-2h12s2 0 2 2v6s0 2-2 2h-4c0 .667.083 1.167.25 1.5H11a.5.5 0 0 1 0 1H5a.5.5 0 0 1 0-1h.75c.167-.333.25-.833.25-1.5H2s-2 0-2-2V4Zm1.398-.855a.758.758 0 0 0-.254.302A1.46 1.46 0 0 0 1 4.01V10c0 .325.078.502.145.602.07.105.17.188.302.254.169.082.351.13.538.143L2.01 11H14c.325 0 .502-.078.602-.145a.759.759 0 0 0 .254-.302c.082-.169.13-.351.143-.538L15 9.99V4c0-.325-.078-.502-.145-.602a.756.756 0 0 0-.302-.254A1.46 1.46 0 0 0 13.99 3H2c-.325 0-.502.078-.602.145Z" fill="#fff"/></g></g></svg>