<svg xmlns="http://www.w3.org/2000/svg" viewBox="0 0 24 24" fill="none" shape-rendering="auto"><metadata xmlns:rdf="http://www.w3.org/1999/02/22-rdf-syntax-ns#" xmlns:xsi="http://www.w3.org/2001/XMLSchema-instance" xmlns:dc="http://purl.org/dc/elements/1.1/" xmlns:dcterms="http://purl.org/dc/terms/"><rdf:RDF><rdf:Description><dc:title>Bootstrap Icons</dc:title><dc:creator>The Bootstrap Authors</dc:creator><dc:source xsi:type="dcterms:URI">https://github.com/twbs/icons</dc:source><dcterms:license xsi:type="dcterms:URI">https://github.com/twbs/icons/blob/main/LICENSE</dcterms:license><dc:rights>„Bootstrap Icons” (https://github.com/twbs/icons) by „The Bootstrap Authors”, licensed under „MIT” (https://github.com/twbs/icons/blob/main/LICENSE)</dc:rights></rdf:Description></rdf:RDF></metadata><mask id="viewboxMask"><rect width="24" height="24" rx="0" ry="0" x="0" y="0" fill="#fff" /></mask><g mask="url(#viewboxMask)"><rect fill="#ffab91" width="24" height="24" x="0" y="0" /><g transform="translate(4 4)"><path d="M0 8a8 8 0 1 1 16 0A8 8 0 0 1 0 8Zm7.5-6.923c-.67.204-1.335.82-1.887 1.855-.143.268-.276.56-.395.872.705.157 1.472.257 2.282.287V1.077ZM4.249 3.539c.142-.384.304-.744.481-1.078a6.7 6.7 0 0 1 .597-.933A7.01 7.01 0 0 0 3.051 3.05c.362.184.763.349 1.198.49v-.001ZM3.509 7.5c.036-1.07.188-2.087.436-3.008a9.124 9.124 0 0 1-1.565-.667A6.964 6.964 0 0 0 1.018 7.5h2.491Zm1.4-2.741c-.236.896-.37 1.815-.4 2.741H7.5V5.091c-.91-.03-1.783-.145-2.591-.332ZM8.5 5.09V7.5h2.99a12.342 12.342 0 0 0-.399-2.741c-.808.187-1.681.301-2.591.332V5.09ZM4.51 8.5c.035.987.176 1.914.399 2.741A13.613 13.613 0 0 1 7.5 10.91V8.5H4.51Zm3.99 0v2.409c.91.03 1.783.145 2.591.332.223-.827.364-1.754.4-2.741H8.5Zm-3.282 3.696c.12.312.252.604.395.872.552 1.035 1.218 1.65 1.887 1.855V11.91c-.81.03-1.577.13-2.282.287v-.001Zm.11 2.276a6.693 6.693 0 0 1-.598-.933 8.854 8.854 0 0 1-.481-1.079 8.376 8.376 0 0 0-1.198.49 7.01 7.01 0 0 0 2.276 1.522h.001Zm-1.383-2.964A13.36 13.36 0 0 1 3.508 8.5h-2.49a6.963 6.963 0 0 0 1.362 3.675c.47-.258.995-.482 1.565-.667Zm6.728 2.964a7.008 7.008 0 0 0 2.275-1.521 8.38 8.38 0 0 0-1.197-.49c-.136.37-.297.73-.481 1.078a6.688 6.688 0 0 1-.597.933ZM8.5 11.909v3.014c.67-.204 1.335-.82 1.887-1.855.143-.268.276-.56.395-.872A12.63 12.63 0 0 0 8.5 11.91v-.001Zm3.555-.401c.57.185 1.095.409 1.565.667A6.963 6.963 0 0 0 14.982 8.5h-2.49a13.364 13.364 0 0 1-.437 3.008ZM14.982 7.5a6.963 6.963 0 0 0-1.362-3.675c-.47.258-.995.482-1.565.667.248.92.4 1.938.437 3.008h2.49ZM11.27 2.461c.177.334.339.694.482 1.078.41-.132.81-.296 1.196-.49a7.01 7.01 0 0 0-2.275-1.52c.218.283.418.597.597.932Zm-.488 1.343a7.76 7.76 0 0 0-.395-.872C9.835 1.897 9.17 1.282 8.5 1.077V4.09c.81-.03 1.577-.13 2.282-.287v.001Z" fill="#fff"/></g></g></svg>