<svg xmlns="http://www.w3.org/2000/svg" viewBox="0 0 24 24" fill="none" shape-rendering="auto"><metadata xmlns:rdf="http://www.w3.org/1999/02/22-rdf-syntax-ns#" xmlns:xsi="http://www.w3.org/2001/XMLSchema-instance" xmlns:dc="http://purl.org/dc/elements/1.1/" xmlns:dcterms="http://purl.org/dc/terms/"><rdf:RDF><rdf:Description><dc:title>Bootstrap Icons</dc:title><dc:creator>The Bootstrap Authors</dc:creator><dc:source xsi:type="dcterms:URI">https://github.com/twbs/icons</dc:source><dcterms:license xsi:type="dcterms:URI">https://github.com/twbs/icons/blob/main/LICENSE</dcterms:license><dc:rights>„Bootstrap Icons” (https://github.com/twbs/icons) by „The Bootstrap Authors”, licensed under „MIT” (https://github.com/twbs/icons/blob/main/LICENSE)</dc:rights></rdf:Description></rdf:RDF></metadata><mask id="viewboxMask"><rect width="24" height="24" rx="0" ry="0" x="0" y="0" fill="#fff" /></mask><g mask="url(#viewboxMask)"><rect fill="#a5d6a7" width="24" height="24" x="0" y="0" /><g transform="translate(4 4)"><g fill="#fff"><path d="M5 6.25a.75.75 0 1 1-1.5 0 .75.75 0 0 1 1.5 0Zm1.138-1.496A6.613 6.613 0 0 1 7.964 4.5c.666 0 1.303.097 1.893.273a.5.5 0 0 0 .286-.958A7.602 7.602 0 0 0 7.964 3.5c-.734 0-1.441.103-2.102.292a.5.5 0 0 0 .276.962Z"/><path fill-rule="evenodd" clip-rule="evenodd" d="M7.964 1.527c-2.977 0-5.571 1.704-6.32 4.125h-.55A1 1 0 0 0 .11 6.824l.254 1.46a1.5 1.5 0 0 0 1.478 1.243h.263c.3.513.688.978 1.145 1.382l-.729 2.477a.5.5 0 0 0 .48.641h2a.5.5 0 0 0 .471-.332l.482-1.35c.635.172 1.31.266 2.011.266.707 0 1.388-.095 2.028-.272l.543 1.372a.5.5 0 0 0 .465.316h2a.5.5 0 0 0 .478-.645l-.761-2.506C13.81 9.896 14.5 8.56 14.5 7.07c0-.145-.007-.29-.02-.43.261-.11.508-.267.705-.445.315.306.815.306.815-.417 0 .223-.5.223-.461-.026a.95.95 0 0 0 .09-.255.7.7 0 0 0-.202-.645.58.58 0 0 0-.707-.098.735.735 0 0 0-.375.562c-.024.243.082.48.32.654a2.11 2.11 0 0 1-.259.153c-.534-2.664-3.284-4.595-6.442-4.595ZM2.516 6.26c.455-2.066 2.667-3.733 5.448-3.733 3.146 0 5.536 2.114 5.536 4.542 0 1.254-.624 2.41-1.67 3.248a.5.5 0 0 0-.165.535l.66 2.175h-.985l-.59-1.487a.5.5 0 0 0-.629-.288c-.661.23-1.39.36-2.157.36a6.559 6.559 0 0 1-2.157-.36.5.5 0 0 0-.635.304l-.525 1.471h-.979l.633-2.15a.5.5 0 0 0-.17-.534 4.65 4.65 0 0 1-1.284-1.54.5.5 0 0 0-.446-.276h-.56a.5.5 0 0 1-.492-.414l-.254-1.46h.933a.5.5 0 0 0 .488-.393Zm12.621-.857a.565.565 0 0 1-.098.21.701.701 0 0 1-.044-.025c-.146-.09-.157-.175-.152-.223a.236.236 0 0 1 .117-.173c.049-.027.08-.02.113.012a.201.201 0 0 1 .064.2Z"/></g></g></g></svg>