<svg xmlns="http://www.w3.org/2000/svg" viewBox="0 0 24 24" fill="none" shape-rendering="auto"><metadata xmlns:rdf="http://www.w3.org/1999/02/22-rdf-syntax-ns#" xmlns:xsi="http://www.w3.org/2001/XMLSchema-instance" xmlns:dc="http://purl.org/dc/elements/1.1/" xmlns:dcterms="http://purl.org/dc/terms/"><rdf:RDF><rdf:Description><dc:title>Bootstrap Icons</dc:title><dc:creator>The Bootstrap Authors</dc:creator><dc:source xsi:type="dcterms:URI">https://github.com/twbs/icons</dc:source><dcterms:license xsi:type="dcterms:URI">https://github.com/twbs/icons/blob/main/LICENSE</dcterms:license><dc:rights>„Bootstrap Icons” (https://github.com/twbs/icons) by „The Bootstrap Authors”, licensed under „MIT” (https://github.com/twbs/icons/blob/main/LICENSE)</dc:rights></rdf:Description></rdf:RDF></metadata><mask id="viewboxMask"><rect width="24" height="24" rx="0" ry="0" x="0" y="0" fill="#fff" /></mask><g mask="url(#viewboxMask)"><rect fill="#9fa8da" width="24" height="24" x="0" y="0" /><g transform="translate(4 4)"><path d="M13.405 4.277a5.001 5.001 0 0 0-9.499-1.004A3.5 3.5 0 1 0 3.5 10.25H13a3 3 0 0 0 .405-5.973ZM8.5 1.25a4 4 0 0 1 3.976 3.555.5.5 0 0 0 .5.445H13a2 2 0 0 1-.001 4H3.5a2.5 2.5 0 1 1 .605-4.926.5.5 0 0 0 .596-.329A4.002 4.002 0 0 1 8.5 1.25ZM2.625 11.5a.25.25 0 0 1 .25.25v.57l.501-.287a.25.25 0 0 1 .248.434l-.495.283.495.283a.25.25 0 0 1-.248.434l-.501-.286v.569a.25.25 0 0 1-.5 0v-.57l-.501.287a.25.25 0 0 1-.248-.434l.495-.283-.495-.283a.25.25 0 0 1 .248-.434l.501.286v-.569a.25.25 0 0 1 .25-.25Zm2.75 2a.25.25 0 0 1 .25.25v.57l.501-.287a.25.25 0 0 1 .248.434l-.495.283.495.283a.25.25 0 0 1-.248.434l-.501-.286v.569a.25.25 0 0 1-.5 0v-.57l-.501.287a.25.25 0 0 1-.248-.434l.495-.283-.495-.283a.25.25 0 0 1 .248-.434l.501.286v-.569a.25.25 0 0 1 .25-.25Zm5.5 0a.25.25 0 0 1 .25.25v.57l.501-.287a.25.25 0 0 1 .248.434l-.495.283.495.283a.25.25 0 0 1-.248.434l-.501-.286v.569a.25.25 0 1 1-.5 0v-.57l-.501.287a.25.25 0 0 1-.248-.434l.495-.283-.495-.283a.25.25 0 0 1 .248-.434l.501.286v-.569a.25.25 0 0 1 .25-.25Zm-2.75-2a.25.25 0 0 1 .25.25v.57l.501-.287a.25.25 0 0 1 .248.434l-.495.283.495.283a.25.25 0 0 1-.248.434l-.501-.286v.569a.25.25 0 0 1-.5 0v-.57l-.501.287a.25.25 0 0 1-.248-.434l.495-.283-.495-.283a.25.25 0 0 1 .248-.434l.501.286v-.569a.25.25 0 0 1 .25-.25Zm5.5 0a.25.25 0 0 1 .25.25v.57l.501-.287a.25.25 0 0 1 .248.434l-.495.283.495.283a.25.25 0 0 1-.248.434l-.501-.286v.569a.25.25 0 1 1-.5 0v-.57l-.501.287a.25.25 0 0 1-.248-.434l.495-.283-.495-.283a.25.25 0 0 1 .248-.434l.501.286v-.569a.25.25 0 0 1 .25-.25Z" fill="#fff"/></g></g></svg>