<svg xmlns="http://www.w3.org/2000/svg" viewBox="0 0 24 24" fill="none" shape-rendering="auto"><metadata xmlns:rdf="http://www.w3.org/1999/02/22-rdf-syntax-ns#" xmlns:xsi="http://www.w3.org/2001/XMLSchema-instance" xmlns:dc="http://purl.org/dc/elements/1.1/" xmlns:dcterms="http://purl.org/dc/terms/"><rdf:RDF><rdf:Description><dc:title>Bootstrap Icons</dc:title><dc:creator>The Bootstrap Authors</dc:creator><dc:source xsi:type="dcterms:URI">https://github.com/twbs/icons</dc:source><dcterms:license xsi:type="dcterms:URI">https://github.com/twbs/icons/blob/main/LICENSE</dcterms:license><dc:rights>„Bootstrap Icons” (https://github.com/twbs/icons) by „The Bootstrap Authors”, licensed under „MIT” (https://github.com/twbs/icons/blob/main/LICENSE)</dc:rights></rdf:Description></rdf:RDF></metadata><mask id="viewboxMask"><rect width="24" height="24" rx="0" ry="0" x="0" y="0" fill="#fff" /></mask><g mask="url(#viewboxMask)"><rect fill="#ffe082" width="24" height="24" x="0" y="0" /><g transform="translate(4 4)"><path d="M8 16a4 4 0 0 0 4-4 4 4 0 1 0 0-8 4 4 0 1 0-8 0 4 4 0 0 0 0 8 4 4 0 0 0 4 4Zm3-12c0 .073-.01.155-.03.247-.544.241-1.091.638-1.598 1.084a3.001 3.001 0 0 0-2.744 0c-.507-.446-1.054-.843-1.597-1.084-.02-.08-.03-.164-.031-.247a3 3 0 1 1 6 0Zm-.812 6.052A2.99 2.99 0 0 0 11 8a2.99 2.99 0 0 0-.812-2.052c.215-.18.432-.346.647-.487C11.34 5.131 11.732 5 12 5a3 3 0 0 1 0 6c-.268 0-.66-.13-1.165-.461a6.824 6.824 0 0 1-.647-.487Zm-3.56.617a3 3 0 0 0 2.744 0c.507.446 1.054.842 1.598 1.084.02.091.03.174.03.247a3 3 0 0 1-6 0c0-.073.01-.155.03-.247.544-.242 1.091-.638 1.598-1.084Zm-.816-4.721A2.99 2.99 0 0 0 5 8c0 .794.308 1.516.812 2.052a6.83 6.83 0 0 1-.647.487C4.66 10.869 4.268 11 4 11a3 3 0 0 1 0-6c.268 0 .66.13 1.165.461.215.141.432.306.647.487ZM8 9a1 1 0 1 1 0-2 1 1 0 0 1 0 2Z" fill="#fff"/></g></g></svg>