<svg xmlns="http://www.w3.org/2000/svg" viewBox="0 0 24 24" fill="none" shape-rendering="auto"><metadata xmlns:rdf="http://www.w3.org/1999/02/22-rdf-syntax-ns#" xmlns:xsi="http://www.w3.org/2001/XMLSchema-instance" xmlns:dc="http://purl.org/dc/elements/1.1/" xmlns:dcterms="http://purl.org/dc/terms/"><rdf:RDF><rdf:Description><dc:title>Bootstrap Icons</dc:title><dc:creator>The Bootstrap Authors</dc:creator><dc:source xsi:type="dcterms:URI">https://github.com/twbs/icons</dc:source><dcterms:license xsi:type="dcterms:URI">https://github.com/twbs/icons/blob/main/LICENSE</dcterms:license><dc:rights>„Bootstrap Icons” (https://github.com/twbs/icons) by „The Bootstrap Authors”, licensed under „MIT” (https://github.com/twbs/icons/blob/main/LICENSE)</dc:rights></rdf:Description></rdf:RDF></metadata><mask id="viewboxMask"><rect width="24" height="24" rx="0" ry="0" x="0" y="0" fill="#fff" /></mask><g mask="url(#viewboxMask)"><rect fill="#ffe082" width="24" height="24" x="0" y="0" /><g transform="translate(4 4)"><g fill="#fff"><path d="M15 12a1 1 0 0 1-1 1H2a1 1 0 0 1-1-1V6a1 1 0 0 1 1-1h1.172a3 3 0 0 0 2.12-.879l.83-.828A1 1 0 0 1 6.827 3h2.344a1 1 0 0 1 .707.293l.828.828A3 3 0 0 0 12.828 5H14a1 1 0 0 1 1 1v6ZM2 4a2 2 0 0 0-2 2v6a2 2 0 0 0 2 2h12a2 2 0 0 0 2-2V6a2 2 0 0 0-2-2h-1.172a2 2 0 0 1-1.414-.586l-.828-.828A2 2 0 0 0 9.172 2H6.828a2 2 0 0 0-1.414.586l-.828.828A2 2 0 0 1 3.172 4H2Z"/><path d="M8 11a2.5 2.5 0 1 1 0-5 2.5 2.5 0 0 1 0 5Zm0 1a3.5 3.5 0 1 0 0-7 3.5 3.5 0 0 0 0 7ZM3 6.5a.5.5 0 1 1-1 0 .5.5 0 0 1 1 0Z"/></g></g></g></svg>