<svg xmlns="http://www.w3.org/2000/svg" viewBox="0 0 24 24" fill="none" shape-rendering="auto"><metadata xmlns:rdf="http://www.w3.org/1999/02/22-rdf-syntax-ns#" xmlns:xsi="http://www.w3.org/2001/XMLSchema-instance" xmlns:dc="http://purl.org/dc/elements/1.1/" xmlns:dcterms="http://purl.org/dc/terms/"><rdf:RDF><rdf:Description><dc:title>Bootstrap Icons</dc:title><dc:creator>The Bootstrap Authors</dc:creator><dc:source xsi:type="dcterms:URI">https://github.com/twbs/icons</dc:source><dcterms:license xsi:type="dcterms:URI">https://github.com/twbs/icons/blob/main/LICENSE</dcterms:license><dc:rights>„Bootstrap Icons” (https://github.com/twbs/icons) by „The Bootstrap Authors”, licensed under „MIT” (https://github.com/twbs/icons/blob/main/LICENSE)</dc:rights></rdf:Description></rdf:RDF></metadata><mask id="viewboxMask"><rect width="24" height="24" rx="0" ry="0" x="0" y="0" fill="#fff" /></mask><g mask="url(#viewboxMask)"><rect fill="#80deea" width="24" height="24" x="0" y="0" /><g transform="translate(4 4)"><g fill="#fff"><path d="M4 15a1 1 0 1 1 0-2 1 1 0 0 1 0 2Zm0 1a2 2 0 1 0 0-4 2 2 0 0 0 0 4Zm8-1a1 1 0 1 1 0-2 1 1 0 0 1 0 2Zm0 1a2 2 0 1 0 0-4 2 2 0 0 0 0 4ZM.115 3.18A.5.5 0 0 1 .5 3h15a.5.5 0 0 1 .491.592l-1.5 8A.5.5 0 0 1 14 12H2a.5.5 0 0 1-.491-.408l-1.5-8a.5.5 0 0 1 .106-.411V3.18Zm.987.82 1.313 7h11.17l1.313-7H1.102Z"/><path fill-rule="evenodd" clip-rule="evenodd" d="M6 1a2.498 2.498 0 0 1 4 0c.818 0 1.545.394 2 1 .67 0 1.552.57 2 1h-2c-.314 0-.611-.15-.8-.4-.274-.365-.71-.6-1.2-.6-.314 0-.611-.15-.8-.4a1.497 1.497 0 0 0-2.4 0c-.189.25-.486.4-.8.4-.507 0-.955.251-1.228.638-.09.13-.194.25-.308.362H3c.13-.147.401-.432.562-.545a1.63 1.63 0 0 0 .393-.393A2.498 2.498 0 0 1 6 1Z"/></g></g></g></svg>