<svg xmlns="http://www.w3.org/2000/svg" viewBox="0 0 24 24" fill="none" shape-rendering="auto"><metadata xmlns:rdf="http://www.w3.org/1999/02/22-rdf-syntax-ns#" xmlns:xsi="http://www.w3.org/2001/XMLSchema-instance" xmlns:dc="http://purl.org/dc/elements/1.1/" xmlns:dcterms="http://purl.org/dc/terms/"><rdf:RDF><rdf:Description><dc:title>Bootstrap Icons</dc:title><dc:creator>The Bootstrap Authors</dc:creator><dc:source xsi:type="dcterms:URI">https://github.com/twbs/icons</dc:source><dcterms:license xsi:type="dcterms:URI">https://github.com/twbs/icons/blob/main/LICENSE</dcterms:license><dc:rights>„Bootstrap Icons” (https://github.com/twbs/icons) by „The Bootstrap Authors”, licensed under „MIT” (https://github.com/twbs/icons/blob/main/LICENSE)</dc:rights></rdf:Description></rdf:RDF></metadata><mask id="viewboxMask"><rect width="24" height="24" rx="0" ry="0" x="0" y="0" fill="#fff" /></mask><g mask="url(#viewboxMask)"><rect fill="#ffe082" width="24" height="24" x="0" y="0" /><g transform="translate(4 4)"><path d="M13.902.334a.499.499 0 0 1-.28.65l-2.254.902-.4 1.927c.376.095.715.215.972.367.228.135.56.396.56.82 0 .046-.004.09-.011.132l-.962 9.068a1.28 1.28 0 0 1-.524.93c-.488.34-1.494.87-3.01.87-1.516 0-2.522-.53-3.01-.87a1.28 1.28 0 0 1-.524-.93L3.51 5.132A.78.78 0 0 1 3.5 5c0-.424.332-.685.56-.82.262-.154.607-.276.99-.372C5.824 3.614 6.867 3.5 8 3.5c.712 0 1.389.045 1.985.127l.464-2.215a.5.5 0 0 1 .303-.356l2.5-1a.5.5 0 0 1 .65.278ZM9.768 4.607A13.992 13.992 0 0 0 8 4.5c-1.076 0-2.033.11-2.707.278-.223.051-.44.126-.648.222.146.073.362.15.648.222C5.967 5.39 6.924 5.5 8 5.5c.571 0 1.109-.03 1.588-.085l.18-.808Zm.292 1.756C9.445 6.45 8.742 6.5 8 6.5c-1.133 0-2.176-.114-2.95-.308a5.51 5.51 0 0 1-.435-.127l.838 8.03c.013.121.06.186.102.215.357.249 1.168.69 2.438.69 1.27 0 2.081-.441 2.438-.69.042-.029.09-.094.102-.215l.852-8.03c-.143.048-.288.09-.435.127-.294.072-.59.129-.89.17v.001ZM4.467 4.884s.003.002.005.006l-.005-.006Zm7.066 0-.005.006c.002-.004.005-.006.005-.006ZM11.354 5a3.175 3.175 0 0 0-.604-.21l-.099.445.055-.013c.286-.072.502-.149.648-.222Z" fill="#fff"/></g></g></svg>