<svg xmlns="http://www.w3.org/2000/svg" viewBox="0 0 280 280" fill="none" shape-rendering="auto"><metadata xmlns:rdf="http://www.w3.org/1999/02/22-rdf-syntax-ns#" xmlns:xsi="http://www.w3.org/2001/XMLSchema-instance" xmlns:dc="http://purl.org/dc/elements/1.1/" xmlns:dcterms="http://purl.org/dc/terms/"><rdf:RDF><rdf:Description><dc:title>Avataaars</dc:title><dc:creator>Pablo Stanley</dc:creator><dc:source xsi:type="dcterms:URI">https://avataaars.com/</dc:source><dcterms:license xsi:type="dcterms:URI">https://avataaars.com/</dcterms:license><dc:rights>Remix of „Avataaars” (https://avataaars.com/) by „Pablo Stanley”, licensed under „Free for personal and commercial use” (https://avataaars.com/)</dc:rights></rdf:Description></rdf:RDF></metadata><mask id="viewboxMask"><rect width="280" height="280" rx="0" ry="0" x="0" y="0" fill="#fff" /></mask><g mask="url(#viewboxMask)"><g transform="translate(8)"><path d="M132 36a56 56 0 0 0-56 56v6.17A12 12 0 0 0 66 110v14a12 12 0 0 0 10.3 11.88 56.04 56.04 0 0 0 31.7 44.73v18.4h-4a72 72 0 0 0-72 72v9h200v-9a72 72 0 0 0-72-72h-4v-18.39a56.04 56.04 0 0 0 31.7-44.73A12 12 0 0 0 198 124v-14a12 12 0 0 0-10-11.83V92a56 56 0 0 0-56-56Z" fill="#fd9841"/><path d="M108 180.61v8a55.79 55.79 0 0 0 24 5.39c8.59 0 16.73-1.93 24-5.39v-8a55.79 55.79 0 0 1-24 5.39 55.79 55.79 0 0 1-24-5.39Z" fill="#000" fill-opacity=".1"/><g transform="translate(0 170)"><path d="M108 14.7c-15.52 3.68-27.1 10.83-30.77 19.44A72.02 72.02 0 0 0 32 101v9h200v-9a72.02 72.02 0 0 0-45.23-66.86C183.1 25.53 171.52 18.38 156 14.7V32a24 24 0 1 1-48 0V14.7Z" fill="#5199e4"/><path d="M102 63.34a67.1 67.1 0 0 1-7-2.82V110h7V63.34ZM162 63.34a67.04 67.04 0 0 0 7-2.82V98.5a3.5 3.5 0 1 1-7 0V63.34Z" fill="#F4F4F4"/><path d="M187.62 34.49a71.79 71.79 0 0 1 10.83 5.63C197.11 55.62 167.87 68 132 68c30.93 0 56-13.43 56-30 0-1.19-.13-2.36-.38-3.51ZM76.38 34.49a16.48 16.48 0 0 0-.38 3.5c0 16.58 25.07 30 56 30-35.87 0-65.1-12.38-66.45-27.88a71.79 71.79 0 0 1 10.83-5.63Z" fill="#000" fill-opacity=".16"/></g><g transform="translate(78 134)"><path fill-rule="evenodd" clip-rule="evenodd" d="M35.12 15.13a19 19 0 0 0 37.77-.09c.08-.77-.77-2.04-1.85-2.04H37.1C36 13 35 14.18 35.12 15.13Z" fill="#000" fill-opacity=".7"/><path d="M70 13H39a5 5 0 0 0 5 5h21a5 5 0 0 0 5-5Z" fill="#fff"/><path d="M66.7 27.14A10.96 10.96 0 0 0 54 25.2a10.95 10.95 0 0 0-12.7 1.94A18.93 18.93 0 0 0 54 32c4.88 0 9.33-1.84 12.7-4.86Z" fill="#FF4F6D"/></g><g transform="translate(104 122)"><path fill-rule="evenodd" clip-rule="evenodd" d="M16 8c0 4.42 5.37 8 12 8s12-3.58 12-8" fill="#000" fill-opacity=".16"/></g><g transform="translate(76 90)"><path d="M44 22a14 14 0 1 1-28 0 14 14 0 0 1 28 0ZM96 22a14 14 0 1 1-28 0 14 14 0 0 1 28 0Z" fill="#fff"/><path d="M36 22a6 6 0 1 1-12 0 6 6 0 0 1 12 0ZM88 22a6 6 0 1 1-12 0 6 6 0 0 1 12 0Z" fill="#000" fill-opacity=".7"/></g><g transform="translate(76 82)"><path d="M26.55 6.15c-5.8.27-15.2 4.49-14.96 10.34.01.18.3.27.43.12 2.76-2.96 22.32-5.95 29.2-4.36.64.14 1.12-.48.72-.93-3.43-3.85-10.2-5.43-15.4-5.18ZM86.45 6.15c5.8.27 15.2 4.49 14.96 10.34-.01.18-.3.27-.43.12-2.76-2.96-22.32-5.95-29.2-4.36-.64.14-1.12-.48-.72-.93 3.43-3.85 10.2-5.43 15.4-5.18Z" fill-rule="evenodd" clip-rule="evenodd" fill="#000" fill-opacity=".6"/></g><g transform="translate(-1)"><path fill-rule="evenodd" clip-rule="evenodd" d="M69.03 76.21C81.97 43.13 95.65 26.6 110.06 26.6c.54 0 29.25-.24 48.05-.36C178.77 35.59 193 55.3 193 78.1V93h-82.94l-2.8-23.18L103.36 93H69V78.11c0-.63.01-1.27.03-1.9Z" fill="#000" fill-opacity=".16"/><path d="M40 145c-.09-18.98 30.32-97.2 41-110 7.92-9.5 27.7-15.45 52-15 24.3.45 44.86 3.81 53 14 12.32 15.43 40.09 92.02 40 111-.1 21.27-9.62 33.59-18.6 45.22A293.1 293.1 0 0 0 203 196c-10.28-2.66-27.85-5.18-46-6.68v-8.7A56 56 0 0 0 189 130V92c0-1.34-.05-2.68-.14-4h-76.8l-2.8-21.44L105.36 88H77.14c-.1 1.32-.14 2.66-.14 4v38a56 56 0 0 0 32 50.61v8.7c-18.15 1.5-35.72 4.03-46 6.69-1.42-1.93-2.9-3.84-4.39-5.78C49.62 178.6 40.1 166.27 40 145Z" fill="#f59797"/></g><g transform="translate(49 72)"></g><g transform="translate(62 42)"></g></g></g></svg>